<svg width="134" height="134" viewBox="0 0 134 134" fill="none" xmlns="http://www.w3.org/2000/svg">
<g clip-path="url(#clip0_17926_117565)">
<circle cx="66.9375" cy="66.5625" r="66.5625" fill="#1F2121"/>
<rect x="33.258" y="42.5844" width="56.3596" height="58.1275" rx="9.77141" fill="#BA5E44"/>
<path d="M33.258 52.3558C33.258 46.9592 37.6328 42.5844 43.0294 42.5844H47.0384V100.712H43.0294C37.6328 100.712 33.258 96.337 33.258 90.9404V52.3558Z" fill="#824042" fill-opacity="0.22"/>
<path d="M74.3622 78.7481C74.3622 74.6856 77.6555 71.3923 81.718 71.3923H96.8637V76.3325C96.8637 81.7291 92.4889 86.1039 87.0923 86.1039H81.718C77.6555 86.1039 74.3622 82.8106 74.3622 78.7481Z" fill="#F8B46E"/>
<circle cx="81.8929" cy="78.7482" r="3.83923" fill="#994D47"/>
<rect x="33.258" y="42.5844" width="56.3596" height="19.6872" rx="9.77141" fill="#824042"/>
<rect x="35.7854" y="44.8305" width="51.3046" height="14.7461" rx="7.37306" fill="#492930"/>
<path fill-rule="evenodd" clip-rule="evenodd" d="M33.8992 60.7146C34.2365 60.7146 34.5099 60.988 34.5099 61.3253C34.5099 62.13 34.6934 62.8901 35.0203 63.5675C35.1668 63.8713 35.0394 64.2364 34.7356 64.3829C34.4318 64.5295 34.0667 64.402 33.9202 64.0983C33.5152 63.2588 33.2885 62.3177 33.2885 61.3253C33.2885 60.988 33.5619 60.7146 33.8992 60.7146ZM89.0616 60.7146C89.3989 60.7146 89.6723 60.988 89.6723 61.3253C89.6723 62.3177 89.4456 63.2588 89.0407 64.0983C88.8941 64.402 88.529 64.5295 88.2252 64.3829C87.9215 64.2364 87.794 63.8713 87.9406 63.5675C88.2674 62.8901 88.4509 62.13 88.4509 61.3253C88.4509 60.988 88.7243 60.7146 89.0616 60.7146ZM36.6198 66.2672C36.7664 65.9634 37.1314 65.8359 37.4352 65.9825C38.1127 66.3093 38.8728 66.4928 39.6774 66.4928H42.1692C42.5065 66.4928 42.7799 66.7662 42.7799 67.1035C42.7799 67.4408 42.5065 67.7142 42.1692 67.7142H39.6774C38.6851 67.7142 37.7439 67.4876 36.9045 67.0826C36.6007 66.936 36.4733 66.571 36.6198 66.2672ZM86.341 66.2672C86.4876 66.571 86.3601 66.936 86.0563 67.0826C85.2169 67.4876 84.2757 67.7142 83.2834 67.7142H80.7916C80.4543 67.7142 80.1809 67.4408 80.1809 67.1035C80.1809 66.7662 80.4543 66.4928 80.7916 66.4928H83.2834C84.088 66.4928 84.8481 66.3093 85.5256 65.9825C85.8294 65.8359 86.1945 65.9634 86.341 66.2672ZM45.2962 67.1035C45.2962 66.7662 45.5696 66.4928 45.9069 66.4928H50.8904C51.2277 66.4928 51.5011 66.7662 51.5011 67.1035C51.5011 67.4408 51.2277 67.7142 50.8904 67.7142H45.9069C45.5696 67.7142 45.2962 67.4408 45.2962 67.1035ZM54.0173 67.1035C54.0173 66.7662 54.2908 66.4928 54.6281 66.4928H59.6116C59.9489 66.4928 60.2223 66.7662 60.2223 67.1035C60.2223 67.4408 59.9489 67.7142 59.6116 67.7142H54.6281C54.2908 67.7142 54.0173 67.4408 54.0173 67.1035ZM62.7385 67.1035C62.7385 66.7662 63.012 66.4928 63.3492 66.4928H68.3328C68.6701 66.4928 68.9435 66.7662 68.9435 67.1035C68.9435 67.4408 68.6701 67.7142 68.3328 67.7142H63.3492C63.012 67.7142 62.7385 67.4408 62.7385 67.1035ZM71.4597 67.1035C71.4597 66.7662 71.7331 66.4928 72.0704 66.4928H77.054C77.3913 66.4928 77.6647 66.7662 77.6647 67.1035C77.6647 67.4408 77.3913 67.7142 77.054 67.7142H72.0704C71.7331 67.7142 71.4597 67.4408 71.4597 67.1035Z" fill="#D37F52"/>
<path fill-rule="evenodd" clip-rule="evenodd" d="M33.8992 87.2036C34.2365 87.2036 34.5099 87.477 34.5099 87.8143C34.5099 88.619 34.6934 89.3791 35.0203 90.0565C35.1668 90.3603 35.0394 90.7254 34.7356 90.872C34.4318 91.0185 34.0667 90.8911 33.9202 90.5873C33.5152 89.7478 33.2885 88.8067 33.2885 87.8143C33.2885 87.477 33.5619 87.2036 33.8992 87.2036ZM89.0616 87.2036C89.3989 87.2036 89.6723 87.477 89.6723 87.8143C89.6723 88.8067 89.4456 89.7478 89.0407 90.5873C88.8941 90.8911 88.529 91.0185 88.2252 90.872C87.9215 90.7254 87.794 90.3603 87.9406 90.0565C88.2674 89.3791 88.4509 88.619 88.4509 87.8143C88.4509 87.477 88.7243 87.2036 89.0616 87.2036ZM36.6198 92.7562C36.7664 92.4524 37.1314 92.3249 37.4352 92.4715C38.1127 92.7983 38.8728 92.9818 39.6774 92.9818H42.1692C42.5065 92.9818 42.7799 93.2553 42.7799 93.5925C42.7799 93.9298 42.5065 94.2033 42.1692 94.2033H39.6774C38.6851 94.2033 37.7439 93.9766 36.9045 93.5716C36.6007 93.425 36.4733 93.06 36.6198 92.7562ZM86.341 92.7562C86.4876 93.06 86.3601 93.425 86.0563 93.5716C85.2169 93.9766 84.2757 94.2033 83.2834 94.2033H80.7916C80.4543 94.2033 80.1809 93.9298 80.1809 93.5925C80.1809 93.2553 80.4543 92.9818 80.7916 92.9818H83.2834C84.088 92.9818 84.8481 92.7983 85.5256 92.4715C85.8294 92.325 86.1945 92.4524 86.341 92.7562ZM45.2962 93.5925C45.2962 93.2553 45.5696 92.9818 45.9069 92.9818H50.8904C51.2277 92.9818 51.5011 93.2553 51.5011 93.5925C51.5011 93.9298 51.2277 94.2033 50.8904 94.2033H45.9069C45.5696 94.2033 45.2962 93.9298 45.2962 93.5925ZM54.0173 93.5925C54.0173 93.2553 54.2908 92.9818 54.6281 92.9818H59.6116C59.9489 92.9818 60.2223 93.2553 60.2223 93.5925C60.2223 93.9298 59.9489 94.2033 59.6116 94.2033H54.6281C54.2908 94.2033 54.0173 93.9298 54.0173 93.5925ZM62.7385 93.5925C62.7385 93.2553 63.012 92.9818 63.3492 92.9818H68.3328C68.6701 92.9818 68.9435 93.2553 68.9435 93.5925C68.9435 93.9298 68.6701 94.2033 68.3328 94.2033H63.3492C63.012 94.2033 62.7385 93.9298 62.7385 93.5925ZM71.4597 93.5925C71.4597 93.2553 71.7331 92.9818 72.0704 92.9818H77.054C77.3913 92.9818 77.6647 93.2553 77.6647 93.5925C77.6647 93.9298 77.3913 94.2033 77.054 94.2033H72.0704C71.7331 94.2033 71.4597 93.9298 71.4597 93.5925Z" fill="#D37F52"/>
<path d="M89.6176 65.1657H93.1993C95.223 65.1657 96.8636 66.8063 96.8636 68.83V71.3925H89.6176V65.1657Z" fill="#F8B46E"/>
<path d="M89.6176 67.1036H91.827C93.0113 67.1036 93.9714 68.0637 93.9714 69.248C93.9714 70.4324 93.0113 71.3925 91.827 71.3925H89.6176V67.1036Z" fill="#994D47"/>
<path d="M55.4828 34.9523C55.4828 32.9286 57.1233 31.288 59.1471 31.288H80.4387C82.4624 31.288 84.103 32.9286 84.103 34.9523V55.9124C84.103 57.9361 82.4624 59.5766 80.4387 59.5766H55.4828V34.9523Z" fill="#5C9937"/>
<path d="M58.6046 36.1383C58.6046 35.4637 59.1514 34.9169 59.826 34.9169H79.7599C80.4344 34.9169 80.9813 35.4637 80.9813 36.1383V59.5766H58.6046V36.1383Z" fill="#92BE30"/>
<path d="M73.5014 59.5766C73.5014 59.0896 73.4055 58.6074 73.2191 58.1575C73.0327 57.7075 72.7596 57.2987 72.4152 56.9543C72.0708 56.61 71.662 56.3368 71.2121 56.1505C70.7622 55.9641 70.2799 55.8682 69.7929 55.8682C69.3059 55.8682 68.8237 55.9641 68.3738 56.1505C67.9238 56.3368 67.515 56.61 67.1707 56.9543C66.8263 57.2987 66.5531 57.7075 66.3668 58.1575C66.1804 58.6074 66.0845 59.0896 66.0845 59.5766L69.7929 59.5766H73.5014Z" fill="#5C9937"/>
<circle cx="79.7584" cy="37.6255" r="3.70846" fill="#5C9937"/>
<circle cx="59.4116" cy="37.139" r="3.70846" fill="#5C9937"/>
<path d="M42.4926 46.2486C42.4926 44.2249 44.1332 42.5844 46.1569 42.5844H68.105C70.1288 42.5844 71.7693 44.2249 71.7693 46.2486V59.5766H42.4926V46.2486Z" fill="black" fill-opacity="0.2"/>
<path d="M40.2947 41.0663C40.2947 39.0426 41.9353 37.402 43.959 37.402H65.2506C67.2744 37.402 68.9149 39.0426 68.9149 41.0663V59.5767H41.5162C40.8416 59.5767 40.2947 59.0299 40.2947 58.3553V41.0663Z" fill="#F88029"/>
<path d="M43.4165 42.2522C43.4165 41.5777 43.9634 41.0308 44.6379 41.0308H64.5718C65.2464 41.0308 65.7932 41.5777 65.7932 42.2522V59.5767H43.4165V42.2522Z" fill="#FFB63B"/>
<circle cx="64.5703" cy="43.7396" r="3.70846" fill="#F88029"/>
<circle cx="44.2235" cy="43.253" r="3.70846" fill="#F88029"/>
<g clip-path="url(#clip1_17926_117565)">
<circle cx="115.681" cy="115.306" r="17.6938" fill="#FFA600"/>
<line x1="115.822" y1="118.396" x2="115.822" y2="115.166" stroke="white" stroke-width="1.68513" stroke-linecap="round"/>
<rect x="114.698" y="111.374" width="1.96598" height="1.96598" rx="0.982991" fill="white"/>
<circle cx="115.681" cy="115.306" r="7.02136" stroke="white" stroke-width="1.68513"/>
</g>
</g>
<defs>
<clipPath id="clip0_17926_117565">
<rect width="133.125" height="133.125" fill="white" transform="translate(0.375)"/>
</clipPath>
<clipPath id="clip1_17926_117565">
<rect width="35.3877" height="35.3877" fill="white" transform="translate(97.9874 97.6124)"/>
</clipPath>
</defs>
</svg>
