<svg width="134" height="134" viewBox="0 0 134 134" fill="none" xmlns="http://www.w3.org/2000/svg">
<g clip-path="url(#clip0_6265_68299)">
<circle cx="66.6875" cy="66.5625" r="66.5625" fill="#FFF9E1"/>
<rect x="33.008" y="42.5844" width="56.3596" height="58.1275" rx="9.77141" fill="#BA5E44"/>
<path d="M33.008 52.3558C33.008 46.9592 37.3828 42.5844 42.7794 42.5844H46.7883V100.712H42.7794C37.3828 100.712 33.008 96.3371 33.008 90.9405V52.3558Z" fill="#824042" fill-opacity="0.22"/>
<path d="M74.1121 78.7482C74.1121 74.6856 77.4054 71.3923 81.4679 71.3923H96.6136V76.3326C96.6136 81.7292 92.2388 86.104 86.8422 86.104H81.4679C77.4054 86.104 74.1121 82.8107 74.1121 78.7482Z" fill="#F8B46E"/>
<circle cx="81.6429" cy="78.7482" r="3.83923" fill="#994D47"/>
<rect x="33.008" y="42.5844" width="56.3596" height="19.6872" rx="9.77141" fill="#824042"/>
<rect x="35.5354" y="44.8306" width="51.3046" height="14.7461" rx="7.37306" fill="#492930"/>
<path fill-rule="evenodd" clip-rule="evenodd" d="M33.6492 60.7146C33.9865 60.7146 34.2599 60.9881 34.2599 61.3253C34.2599 62.13 34.4434 62.8901 34.7702 63.5676C34.9168 63.8713 34.7893 64.2364 34.4856 64.383C34.1818 64.5295 33.8167 64.4021 33.6701 64.0983C33.2652 63.2589 33.0385 62.3177 33.0385 61.3253C33.0385 60.9881 33.3119 60.7146 33.6492 60.7146ZM88.8116 60.7146C89.1489 60.7146 89.4223 60.9881 89.4223 61.3253C89.4223 62.3177 89.1956 63.2589 88.7906 64.0983C88.6441 64.4021 88.279 64.5295 87.9752 64.383C87.6714 64.2364 87.544 63.8713 87.6905 63.5676C88.0174 62.8901 88.2009 62.13 88.2009 61.3253C88.2009 60.9881 88.4743 60.7146 88.8116 60.7146ZM36.3698 66.2672C36.5163 65.9634 36.8814 65.836 37.1852 65.9825C37.8627 66.3094 38.6228 66.4928 39.4274 66.4928H41.9192C42.2565 66.4928 42.5299 66.7663 42.5299 67.1036C42.5299 67.4409 42.2565 67.7143 41.9192 67.7143H39.4274C38.4351 67.7143 37.4939 67.4876 36.6545 67.0826C36.3507 66.9361 36.2232 66.571 36.3698 66.2672ZM86.091 66.2672C86.2375 66.571 86.1101 66.9361 85.8063 67.0826C84.9669 67.4876 84.0257 67.7143 83.0334 67.7143H80.5416C80.2043 67.7143 79.9309 67.4409 79.9309 67.1036C79.9309 66.7663 80.2043 66.4928 80.5416 66.4928H83.0334C83.838 66.4928 84.5981 66.3094 85.2756 65.9825C85.5794 65.836 85.9444 65.9634 86.091 66.2672ZM45.0461 67.1036C45.0461 66.7663 45.3195 66.4928 45.6568 66.4928H50.6404C50.9777 66.4928 51.2511 66.7663 51.2511 67.1036C51.2511 67.4409 50.9777 67.7143 50.6404 67.7143H45.6568C45.3195 67.7143 45.0461 67.4409 45.0461 67.1036ZM53.7673 67.1036C53.7673 66.7663 54.0407 66.4928 54.378 66.4928H59.3616C59.6988 66.4928 59.9723 66.7663 59.9723 67.1036C59.9723 67.4409 59.6988 67.7143 59.3616 67.7143H54.378C54.0407 67.7143 53.7673 67.4409 53.7673 67.1036ZM62.4885 67.1036C62.4885 66.7663 62.7619 66.4928 63.0992 66.4928H68.0827C68.42 66.4928 68.6935 66.7663 68.6935 67.1036C68.6935 67.4409 68.42 67.7143 68.0827 67.7143H63.0992C62.7619 67.7143 62.4885 67.4409 62.4885 67.1036ZM71.2097 67.1036C71.2097 66.7663 71.4831 66.4928 71.8204 66.4928H76.8039C77.1412 66.4928 77.4146 66.7663 77.4146 67.1036C77.4146 67.4409 77.1412 67.7143 76.8039 67.7143H71.8204C71.4831 67.7143 71.2097 67.4409 71.2097 67.1036Z" fill="#D37F52"/>
<path fill-rule="evenodd" clip-rule="evenodd" d="M33.6492 87.2036C33.9865 87.2036 34.2599 87.4771 34.2599 87.8144C34.2599 88.619 34.4434 89.3791 34.7702 90.0566C34.9168 90.3604 34.7893 90.7254 34.4856 90.872C34.1818 91.0185 33.8167 90.8911 33.6701 90.5873C33.2652 89.7479 33.0385 88.8067 33.0385 87.8144C33.0385 87.4771 33.3119 87.2036 33.6492 87.2036ZM88.8116 87.2036C89.1489 87.2036 89.4223 87.4771 89.4223 87.8144C89.4223 88.8067 89.1956 89.7479 88.7906 90.5873C88.6441 90.8911 88.279 91.0185 87.9752 90.872C87.6714 90.7254 87.544 90.3604 87.6905 90.0566C88.0174 89.3791 88.2009 88.619 88.2009 87.8144C88.2009 87.4771 88.4743 87.2036 88.8116 87.2036ZM36.3698 92.7562C36.5163 92.4524 36.8814 92.325 37.1852 92.4715C37.8627 92.7984 38.6228 92.9819 39.4274 92.9819H41.9192C42.2565 92.9819 42.5299 93.2553 42.5299 93.5926C42.5299 93.9299 42.2565 94.2033 41.9192 94.2033H39.4274C38.4351 94.2033 37.4939 93.9766 36.6545 93.5716C36.3507 93.4251 36.2232 93.06 36.3698 92.7562ZM86.091 92.7562C86.2375 93.06 86.1101 93.4251 85.8063 93.5716C84.9669 93.9766 84.0257 94.2033 83.0334 94.2033H80.5416C80.2043 94.2033 79.9309 93.9299 79.9309 93.5926C79.9309 93.2553 80.2043 92.9819 80.5416 92.9819H83.0334C83.838 92.9819 84.5981 92.7984 85.2756 92.4715C85.5794 92.325 85.9444 92.4524 86.091 92.7562ZM45.0461 93.5926C45.0461 93.2553 45.3195 92.9819 45.6568 92.9819H50.6404C50.9777 92.9819 51.2511 93.2553 51.2511 93.5926C51.2511 93.9299 50.9777 94.2033 50.6404 94.2033H45.6568C45.3195 94.2033 45.0461 93.9299 45.0461 93.5926ZM53.7673 93.5926C53.7673 93.2553 54.0407 92.9819 54.378 92.9819H59.3616C59.6988 92.9819 59.9723 93.2553 59.9723 93.5926C59.9723 93.9299 59.6988 94.2033 59.3616 94.2033H54.378C54.0407 94.2033 53.7673 93.9299 53.7673 93.5926ZM62.4885 93.5926C62.4885 93.2553 62.7619 92.9819 63.0992 92.9819H68.0827C68.42 92.9819 68.6935 93.2553 68.6935 93.5926C68.6935 93.9299 68.42 94.2033 68.0827 94.2033H63.0992C62.7619 94.2033 62.4885 93.9299 62.4885 93.5926ZM71.2097 93.5926C71.2097 93.2553 71.4831 92.9819 71.8204 92.9819H76.8039C77.1412 92.9819 77.4146 93.2553 77.4146 93.5926C77.4146 93.9299 77.1412 94.2033 76.8039 94.2033H71.8204C71.4831 94.2033 71.2097 93.9299 71.2097 93.5926Z" fill="#D37F52"/>
<path d="M89.3675 65.1658H92.9493C94.973 65.1658 96.6136 66.8063 96.6136 68.8301V71.3925H89.3675V65.1658Z" fill="#F8B46E"/>
<path d="M89.3675 67.1036H91.5769C92.7613 67.1036 93.7214 68.0637 93.7214 69.2481C93.7214 70.4324 92.7613 71.3925 91.5769 71.3925H89.3675V67.1036Z" fill="#994D47"/>
<path d="M55.2327 34.9523C55.2327 32.9286 56.8733 31.288 58.897 31.288H80.1886C82.2124 31.288 83.8529 32.9286 83.8529 34.9523V55.9124C83.8529 57.9361 82.2124 59.5766 80.1886 59.5766H55.2327V34.9523Z" fill="#5C9937"/>
<path d="M58.3545 36.1383C58.3545 35.4637 58.9013 34.9169 59.5759 34.9169H79.5098C80.1844 34.9169 80.7312 35.4637 80.7312 36.1383V59.5766H58.3545V36.1383Z" fill="#92BE30"/>
<path d="M73.2514 59.5766C73.2514 59.0896 73.1554 58.6074 72.9691 58.1575C72.7827 57.7075 72.5095 57.2987 72.1652 56.9543C71.8208 56.61 71.412 56.3368 70.9621 56.1505C70.5121 55.9641 70.0299 55.8682 69.5429 55.8682C69.0559 55.8682 68.5737 55.9641 68.1237 56.1505C67.6738 56.3368 67.265 56.61 66.9206 56.9543C66.5763 57.2987 66.3031 57.7075 66.1167 58.1575C65.9304 58.6074 65.8344 59.0896 65.8344 59.5766L69.5429 59.5766H73.2514Z" fill="#5C9937"/>
<circle cx="79.5083" cy="37.6255" r="3.70846" fill="#5C9937"/>
<circle cx="59.1615" cy="37.139" r="3.70846" fill="#5C9937"/>
<path d="M42.2426 46.2487C42.2426 44.2249 43.8831 42.5844 45.9069 42.5844H67.855C69.8787 42.5844 71.5193 44.2249 71.5193 46.2487V59.5766H42.2426V46.2487Z" fill="black" fill-opacity="0.2"/>
<path d="M40.0447 41.0663C40.0447 39.0426 41.6853 37.402 43.709 37.402H65.0006C67.0243 37.402 68.6649 39.0426 68.6649 41.0663V59.5767H41.2661C40.5916 59.5767 40.0447 59.0299 40.0447 58.3553V41.0663Z" fill="#F88029"/>
<path d="M43.1665 42.2522C43.1665 41.5777 43.7133 41.0308 44.3879 41.0308H64.3218C64.9964 41.0308 65.5432 41.5777 65.5432 42.2522V59.5767H43.1665V42.2522Z" fill="#FFB63B"/>
<circle cx="64.3203" cy="43.7396" r="3.70846" fill="#F88029"/>
<circle cx="43.9735" cy="43.253" r="3.70846" fill="#F88029"/>
<g clip-path="url(#clip1_6265_68299)">
<circle cx="115.431" cy="115.306" r="17.6938" fill="#FFA600"/>
<line x1="115.572" y1="118.396" x2="115.572" y2="115.166" stroke="white" stroke-width="1.68513" stroke-linecap="round"/>
<rect x="114.448" y="111.374" width="1.96598" height="1.96598" rx="0.982991" fill="white"/>
<circle cx="115.431" cy="115.306" r="7.02136" stroke="white" stroke-width="1.68513"/>
</g>
</g>
<defs>
<clipPath id="clip0_6265_68299">
<rect width="133.125" height="133.125" fill="white" transform="translate(0.125)"/>
</clipPath>
<clipPath id="clip1_6265_68299">
<rect width="35.3877" height="35.3877" fill="white" transform="translate(97.7374 97.6124)"/>
</clipPath>
</defs>
</svg>
