<svg width="143" height="142" viewBox="0 0 143 142" fill="none" xmlns="http://www.w3.org/2000/svg">
<g clip-path="url(#clip0_6265_68297)">
<circle cx="71.5625" cy="70.5625" r="66.5625" fill="#E6F6EC"/>
<rect x="37.883" y="46.5844" width="56.3596" height="58.1275" rx="9.77141" fill="#BA5E44"/>
<path d="M37.883 56.3558C37.883 50.9592 42.2578 46.5844 47.6544 46.5844H51.6634V104.712H47.6544C42.2578 104.712 37.883 100.337 37.883 94.9405V56.3558Z" fill="#824042" fill-opacity="0.22"/>
<path d="M78.9872 82.7482C78.9872 78.6856 82.2805 75.3923 86.343 75.3923H101.489V80.3326C101.489 85.7292 97.1139 90.104 91.7173 90.104H86.343C82.2805 90.104 78.9872 86.8107 78.9872 82.7482Z" fill="#F8B46E"/>
<circle cx="86.5179" cy="82.7482" r="3.83923" fill="#994D47"/>
<rect x="37.883" y="46.5844" width="56.3596" height="19.6872" rx="9.77141" fill="#824042"/>
<rect x="40.4104" y="48.8306" width="51.3046" height="14.7461" rx="7.37306" fill="#492930"/>
<path fill-rule="evenodd" clip-rule="evenodd" d="M38.5242 64.7146C38.8615 64.7146 39.1349 64.9881 39.1349 65.3253C39.1349 66.13 39.3184 66.8901 39.6453 67.5676C39.7918 67.8713 39.6644 68.2364 39.3606 68.383C39.0568 68.5295 38.6917 68.4021 38.5452 68.0983C38.1402 67.2589 37.9135 66.3177 37.9135 65.3253C37.9135 64.9881 38.1869 64.7146 38.5242 64.7146ZM93.6866 64.7146C94.0239 64.7146 94.2973 64.9881 94.2973 65.3253C94.2973 66.3177 94.0706 67.2589 93.6657 68.0983C93.5191 68.4021 93.154 68.5295 92.8502 68.383C92.5465 68.2364 92.419 67.8713 92.5656 67.5676C92.8924 66.8901 93.0759 66.13 93.0759 65.3253C93.0759 64.9881 93.3493 64.7146 93.6866 64.7146ZM41.2448 70.2672C41.3914 69.9634 41.7564 69.836 42.0602 69.9825C42.7377 70.3094 43.4978 70.4928 44.3024 70.4928H46.7942C47.1315 70.4928 47.4049 70.7663 47.4049 71.1036C47.4049 71.4409 47.1315 71.7143 46.7942 71.7143H44.3024C43.3101 71.7143 42.3689 71.4876 41.5295 71.0826C41.2257 70.9361 41.0983 70.571 41.2448 70.2672ZM90.966 70.2672C91.1126 70.571 90.9851 70.9361 90.6813 71.0826C89.8419 71.4876 88.9007 71.7143 87.9084 71.7143H85.4166C85.0793 71.7143 84.8059 71.4409 84.8059 71.1036C84.8059 70.7663 85.0793 70.4928 85.4166 70.4928H87.9084C88.713 70.4928 89.4731 70.3094 90.1506 69.9825C90.4544 69.836 90.8195 69.9634 90.966 70.2672ZM49.9212 71.1036C49.9212 70.7663 50.1946 70.4928 50.5319 70.4928H55.5154C55.8527 70.4928 56.1261 70.7663 56.1261 71.1036C56.1261 71.4409 55.8527 71.7143 55.5154 71.7143H50.5319C50.1946 71.7143 49.9212 71.4409 49.9212 71.1036ZM58.6423 71.1036C58.6423 70.7663 58.9158 70.4928 59.2531 70.4928H64.2366C64.5739 70.4928 64.8473 70.7663 64.8473 71.1036C64.8473 71.4409 64.5739 71.7143 64.2366 71.7143H59.2531C58.9158 71.7143 58.6423 71.4409 58.6423 71.1036ZM67.3635 71.1036C67.3635 70.7663 67.637 70.4928 67.9742 70.4928H72.9578C73.2951 70.4928 73.5685 70.7663 73.5685 71.1036C73.5685 71.4409 73.2951 71.7143 72.9578 71.7143H67.9742C67.637 71.7143 67.3635 71.4409 67.3635 71.1036ZM76.0847 71.1036C76.0847 70.7663 76.3581 70.4928 76.6954 70.4928H81.679C82.0163 70.4928 82.2897 70.7663 82.2897 71.1036C82.2897 71.4409 82.0163 71.7143 81.679 71.7143H76.6954C76.3581 71.7143 76.0847 71.4409 76.0847 71.1036Z" fill="#D37F52"/>
<path fill-rule="evenodd" clip-rule="evenodd" d="M38.5242 91.2036C38.8615 91.2036 39.1349 91.4771 39.1349 91.8144C39.1349 92.619 39.3184 93.3791 39.6453 94.0566C39.7918 94.3604 39.6644 94.7254 39.3606 94.872C39.0568 95.0185 38.6917 94.8911 38.5452 94.5873C38.1402 93.7479 37.9135 92.8067 37.9135 91.8144C37.9135 91.4771 38.1869 91.2036 38.5242 91.2036ZM93.6866 91.2036C94.0239 91.2036 94.2973 91.4771 94.2973 91.8144C94.2973 92.8067 94.0706 93.7479 93.6657 94.5873C93.5191 94.8911 93.154 95.0185 92.8502 94.872C92.5465 94.7254 92.419 94.3604 92.5656 94.0566C92.8924 93.3791 93.0759 92.619 93.0759 91.8144C93.0759 91.4771 93.3493 91.2036 93.6866 91.2036ZM41.2448 96.7562C41.3914 96.4524 41.7564 96.325 42.0602 96.4715C42.7377 96.7984 43.4978 96.9819 44.3024 96.9819H46.7942C47.1315 96.9819 47.4049 97.2553 47.4049 97.5926C47.4049 97.9299 47.1315 98.2033 46.7942 98.2033H44.3024C43.3101 98.2033 42.3689 97.9766 41.5295 97.5716C41.2257 97.4251 41.0983 97.06 41.2448 96.7562ZM90.966 96.7562C91.1126 97.06 90.9851 97.4251 90.6813 97.5716C89.8419 97.9766 88.9007 98.2033 87.9084 98.2033H85.4166C85.0793 98.2033 84.8059 97.9299 84.8059 97.5926C84.8059 97.2553 85.0793 96.9819 85.4166 96.9819H87.9084C88.713 96.9819 89.4731 96.7984 90.1506 96.4715C90.4544 96.325 90.8195 96.4524 90.966 96.7562ZM49.9212 97.5926C49.9212 97.2553 50.1946 96.9819 50.5319 96.9819H55.5154C55.8527 96.9819 56.1261 97.2553 56.1261 97.5926C56.1261 97.9299 55.8527 98.2033 55.5154 98.2033H50.5319C50.1946 98.2033 49.9212 97.9299 49.9212 97.5926ZM58.6423 97.5926C58.6423 97.2553 58.9158 96.9819 59.2531 96.9819H64.2366C64.5739 96.9819 64.8473 97.2553 64.8473 97.5926C64.8473 97.9299 64.5739 98.2033 64.2366 98.2033H59.2531C58.9158 98.2033 58.6423 97.9299 58.6423 97.5926ZM67.3635 97.5926C67.3635 97.2553 67.637 96.9819 67.9742 96.9819H72.9578C73.2951 96.9819 73.5685 97.2553 73.5685 97.5926C73.5685 97.9299 73.2951 98.2033 72.9578 98.2033H67.9742C67.637 98.2033 67.3635 97.9299 67.3635 97.5926ZM76.0847 97.5926C76.0847 97.2553 76.3581 96.9819 76.6954 96.9819H81.679C82.0163 96.9819 82.2897 97.2553 82.2897 97.5926C82.2897 97.9299 82.0163 98.2033 81.679 98.2033H76.6954C76.3581 98.2033 76.0847 97.9299 76.0847 97.5926Z" fill="#D37F52"/>
<path d="M94.2426 69.1658H97.8244C99.8481 69.1658 101.489 70.8063 101.489 72.8301V75.3925H94.2426V69.1658Z" fill="#F8B46E"/>
<path d="M94.2426 71.1036H96.452C97.6363 71.1036 98.5964 72.0637 98.5964 73.2481C98.5964 74.4324 97.6363 75.3925 96.452 75.3925H94.2426V71.1036Z" fill="#994D47"/>
<path d="M60.1077 38.9523C60.1077 36.9286 61.7483 35.288 63.772 35.288H85.0636C87.0874 35.288 88.7279 36.9286 88.7279 38.9523V59.9124C88.7279 61.9361 87.0874 63.5766 85.0636 63.5766H60.1077V38.9523Z" fill="#5C9937"/>
<path d="M63.2295 40.1383C63.2295 39.4637 63.7763 38.9169 64.4509 38.9169H84.3848C85.0593 38.9169 85.6062 39.4637 85.6062 40.1383V63.5766H63.2295V40.1383Z" fill="#92BE30"/>
<path d="M78.1264 63.5766C78.1264 63.0896 78.0304 62.6074 77.8441 62.1575C77.6577 61.7075 77.3845 61.2987 77.0402 60.9543C76.6958 60.61 76.287 60.3368 75.8371 60.1505C75.3871 59.9641 74.9049 59.8682 74.4179 59.8682C73.9309 59.8682 73.4487 59.9641 72.9987 60.1505C72.5488 60.3368 72.14 60.61 71.7956 60.9543C71.4513 61.2987 71.1781 61.7075 70.9917 62.1575C70.8054 62.6074 70.7094 63.0896 70.7094 63.5766L74.4179 63.5766H78.1264Z" fill="#5C9937"/>
<circle cx="84.3833" cy="41.6255" r="3.70846" fill="#5C9937"/>
<circle cx="64.0365" cy="41.139" r="3.70846" fill="#5C9937"/>
<path d="M47.1176 50.2487C47.1176 48.2249 48.7582 46.5844 50.7819 46.5844H72.73C74.7538 46.5844 76.3943 48.2249 76.3943 50.2487V63.5766H47.1176V50.2487Z" fill="black" fill-opacity="0.2"/>
<path d="M44.9197 45.0663C44.9197 43.0426 46.5603 41.402 48.584 41.402H69.8756C71.8993 41.402 73.5399 43.0426 73.5399 45.0663V63.5767H46.1411C45.4666 63.5767 44.9197 63.0299 44.9197 62.3553V45.0663Z" fill="#F88029"/>
<path d="M48.0415 46.2522C48.0415 45.5777 48.5883 45.0308 49.2629 45.0308H69.1968C69.8714 45.0308 70.4182 45.5777 70.4182 46.2522V63.5767H48.0415V46.2522Z" fill="#FFB63B"/>
<circle cx="69.1953" cy="47.7396" r="3.70846" fill="#F88029"/>
<circle cx="48.8485" cy="47.253" r="3.70846" fill="#F88029"/>
<g clip-path="url(#clip1_6265_68297)">
<circle cx="120.306" cy="119.306" r="17.6938" fill="#16A75C"/>
<g clip-path="url(#clip2_6265_68297)">
<path fill-rule="evenodd" clip-rule="evenodd" d="M114.163 118.659C113.562 118.031 112.565 118.009 111.938 118.611C111.31 119.212 111.288 120.208 111.89 120.836L116.97 126.14C117.571 126.768 118.568 126.789 119.195 126.188C119.247 126.139 119.294 126.087 119.337 126.033C119.393 125.992 119.447 125.947 119.499 125.898L127.834 117.914C128.462 117.313 128.483 116.317 127.882 115.689C127.28 115.061 126.284 115.04 125.656 115.641L118.155 122.826L114.163 118.659Z" fill="white"/>
</g>
</g>
</g>
<g clip-path="url(#clip3_6265_68297)">
<circle cx="5.35632" cy="100.574" r="2.85632" fill="#FFB900"/>
<circle cx="84.8647" cy="6.68237" r="2.09784" fill="#FFC800" stroke="#FFC800" stroke-width="0.816092"/>
<circle cx="138.082" cy="93.982" r="3.26437" fill="#FFB900"/>
<rect x="126.641" y="57.8727" width="5.60106" height="5.60106" rx="0.835294" transform="rotate(-29.3268 126.641 57.8727)" fill="#EF5350"/>
<rect x="2.17059" y="51.3464" width="4.46309" height="4.46309" rx="0.835294" transform="rotate(-27.5467 2.17059 51.3464)" fill="#FFC800"/>
<path fill-rule="evenodd" clip-rule="evenodd" d="M63.1169 18.3282C62.9913 17.8594 62.5093 17.5811 62.0405 17.7068C61.5716 17.8324 61.2934 18.3143 61.419 18.7832L62.0104 20.9904L59.8031 21.5818C59.3343 21.7075 59.056 22.1894 59.1817 22.6583C59.3073 23.1271 59.7892 23.4054 60.2581 23.2797L62.4654 22.6883L63.0113 24.7258C63.1369 25.1947 63.6189 25.4729 64.0877 25.3473C64.5566 25.2217 64.8348 24.7397 64.7092 24.2709L64.1633 22.2334L66.2007 21.6874C66.6696 21.5618 66.9478 21.0799 66.8222 20.611C66.6966 20.1421 66.2146 19.8639 65.7458 19.9895L63.7083 20.5355L63.1169 18.3282Z" fill="#16A75C"/>
<path d="M19.1565 76.6859C20.4153 75.6815 22.1513 74.3492 23.7695 74.7031C24.995 74.9712 27.1543 76.4831 25.114 77.6762C24.422 78.0809 23.2158 78.1555 22.9456 77.2632C22.6718 76.3589 23.9781 74.9423 24.5352 74.3032C25.2856 73.4423 27.0291 72.6965 28.1336 72.8464" stroke="#16A75C" stroke-width="1.25294" stroke-linecap="round"/>
<path d="M105.379 27.7084C106.825 26.3922 108.822 24.6414 110.811 24.9424C112.316 25.1705 115.051 26.8317 112.674 28.438C111.868 28.9828 110.412 29.1684 110.015 28.1087C109.611 27.0348 111.082 25.2158 111.707 24.3976C112.548 23.2954 114.601 22.2544 115.951 22.3489" stroke="#FF9500" stroke-width="1.67059" stroke-linecap="round"/>
<path d="M22.7118 26.0588C24.8526 27.1083 27.5063 27.824 28.1354 30.3407" stroke="#EF5350" stroke-width="1.67059" stroke-linecap="round"/>
<path d="M119.453 76.0118C121.453 76.4507 123.941 77.8517 124.877 79.7227" stroke="#EF5350" stroke-width="1.67059" stroke-linecap="round"/>
</g>
<defs>
<clipPath id="clip0_6265_68297">
<rect width="133.125" height="133.125" fill="white" transform="translate(5 4)"/>
</clipPath>
<clipPath id="clip1_6265_68297">
<rect width="35.3877" height="35.3877" fill="white" transform="translate(102.612 101.612)"/>
</clipPath>
<clipPath id="clip2_6265_68297">
<rect width="17.6938" height="17.6938" fill="white" transform="translate(111.066 110.852)"/>
</clipPath>
<clipPath id="clip3_6265_68297">
<rect width="142" height="142" fill="white" transform="translate(0.5)"/>
</clipPath>
</defs>
</svg>
