<svg width="143" height="142" viewBox="0 0 143 142" fill="none" xmlns="http://www.w3.org/2000/svg">
<g clip-path="url(#clip0_17926_117562)">
<circle cx="71.6875" cy="70.5625" r="66.5625" fill="#1F2121"/>
<rect x="38.008" y="46.5844" width="56.3596" height="58.1275" rx="9.77141" fill="#BA5E44"/>
<path d="M38.008 56.3558C38.008 50.9592 42.3828 46.5844 47.7794 46.5844H51.7883V104.712H47.7794C42.3828 104.712 38.008 100.337 38.008 94.9405V56.3558Z" fill="#824042" fill-opacity="0.22"/>
<path d="M79.1122 82.7482C79.1122 78.6857 82.4055 75.3924 86.468 75.3924H101.614V80.3326C101.614 85.7292 97.2388 90.104 91.8422 90.104H86.468C82.4055 90.104 79.1122 86.8107 79.1122 82.7482Z" fill="#F8B46E"/>
<circle cx="86.6429" cy="82.7483" r="3.83923" fill="#994D47"/>
<rect x="38.008" y="46.5844" width="56.3596" height="19.6872" rx="9.77141" fill="#824042"/>
<rect x="40.5354" y="48.8306" width="51.3046" height="14.7461" rx="7.37306" fill="#492930"/>
<path fill-rule="evenodd" clip-rule="evenodd" d="M38.6492 64.7147C38.9865 64.7147 39.2599 64.9881 39.2599 65.3254C39.2599 66.13 39.4434 66.8901 39.7702 67.5676C39.9168 67.8714 39.7893 68.2364 39.4856 68.383C39.1818 68.5296 38.8167 68.4021 38.6701 68.0983C38.2652 67.2589 38.0385 66.3177 38.0385 65.3254C38.0385 64.9881 38.3119 64.7147 38.6492 64.7147ZM93.8116 64.7147C94.1489 64.7147 94.4223 64.9881 94.4223 65.3254C94.4223 66.3177 94.1956 67.2589 93.7906 68.0983C93.6441 68.4021 93.279 68.5296 92.9752 68.383C92.6714 68.2364 92.544 67.8714 92.6905 67.5676C93.0174 66.8901 93.2009 66.13 93.2009 65.3254C93.2009 64.9881 93.4743 64.7147 93.8116 64.7147ZM41.3698 70.2672C41.5163 69.9635 41.8814 69.836 42.1852 69.9826C42.8627 70.3094 43.6228 70.4929 44.4274 70.4929H46.9192C47.2565 70.4929 47.5299 70.7663 47.5299 71.1036C47.5299 71.4409 47.2565 71.7143 46.9192 71.7143H44.4274C43.4351 71.7143 42.4939 71.4876 41.6545 71.0826C41.3507 70.9361 41.2232 70.571 41.3698 70.2672ZM91.091 70.2672C91.2375 70.571 91.1101 70.9361 90.8063 71.0826C89.9669 71.4876 89.0257 71.7143 88.0334 71.7143H85.5416C85.2043 71.7143 84.9309 71.4409 84.9309 71.1036C84.9309 70.7663 85.2043 70.4929 85.5416 70.4929H88.0334C88.838 70.4929 89.5981 70.3094 90.2756 69.9826C90.5794 69.836 90.9444 69.9635 91.091 70.2672ZM50.0461 71.1036C50.0461 70.7663 50.3195 70.4929 50.6568 70.4929H55.6404C55.9777 70.4929 56.2511 70.7663 56.2511 71.1036C56.2511 71.4409 55.9777 71.7143 55.6404 71.7143H50.6568C50.3195 71.7143 50.0461 71.4409 50.0461 71.1036ZM58.7673 71.1036C58.7673 70.7663 59.0407 70.4929 59.378 70.4929H64.3616C64.6988 70.4929 64.9723 70.7663 64.9723 71.1036C64.9723 71.4409 64.6988 71.7143 64.3616 71.7143H59.378C59.0407 71.7143 58.7673 71.4409 58.7673 71.1036ZM67.4885 71.1036C67.4885 70.7663 67.7619 70.4929 68.0992 70.4929H73.0827C73.42 70.4929 73.6935 70.7663 73.6935 71.1036C73.6935 71.4409 73.42 71.7143 73.0827 71.7143H68.0992C67.7619 71.7143 67.4885 71.4409 67.4885 71.1036ZM76.2097 71.1036C76.2097 70.7663 76.4831 70.4929 76.8204 70.4929H81.8039C82.1412 70.4929 82.4146 70.7663 82.4146 71.1036C82.4146 71.4409 82.1412 71.7143 81.8039 71.7143H76.8204C76.4831 71.7143 76.2097 71.4409 76.2097 71.1036Z" fill="#D37F52"/>
<path fill-rule="evenodd" clip-rule="evenodd" d="M38.6492 91.2037C38.9865 91.2037 39.2599 91.4772 39.2599 91.8144C39.2599 92.6191 39.4434 93.3792 39.7702 94.0567C39.9168 94.3604 39.7893 94.7255 39.4856 94.8721C39.1818 95.0186 38.8167 94.8912 38.6701 94.5874C38.2652 93.748 38.0385 92.8068 38.0385 91.8144C38.0385 91.4772 38.3119 91.2037 38.6492 91.2037ZM93.8116 91.2037C94.1489 91.2037 94.4223 91.4772 94.4223 91.8144C94.4223 92.8068 94.1956 93.748 93.7906 94.5874C93.6441 94.8912 93.279 95.0186 92.9752 94.8721C92.6714 94.7255 92.544 94.3604 92.6905 94.0567C93.0174 93.3792 93.2009 92.6191 93.2009 91.8144C93.2009 91.4772 93.4743 91.2037 93.8116 91.2037ZM41.3698 96.7563C41.5163 96.4525 41.8814 96.3251 42.1852 96.4716C42.8627 96.7985 43.6228 96.982 44.4274 96.982H46.9192C47.2565 96.982 47.5299 97.2554 47.5299 97.5927C47.5299 97.93 47.2565 98.2034 46.9192 98.2034H44.4274C43.4351 98.2034 42.4939 97.9767 41.6545 97.5717C41.3507 97.4252 41.2232 97.0601 41.3698 96.7563ZM91.091 96.7563C91.2375 97.0601 91.1101 97.4252 90.8063 97.5717C89.9669 97.9767 89.0257 98.2034 88.0334 98.2034H85.5416C85.2043 98.2034 84.9309 97.93 84.9309 97.5927C84.9309 97.2554 85.2043 96.982 85.5416 96.982H88.0334C88.838 96.982 89.5981 96.7985 90.2756 96.4716C90.5794 96.3251 90.9444 96.4525 91.091 96.7563ZM50.0461 97.5927C50.0461 97.2554 50.3195 96.982 50.6568 96.982H55.6404C55.9777 96.982 56.2511 97.2554 56.2511 97.5927C56.2511 97.93 55.9777 98.2034 55.6404 98.2034H50.6568C50.3195 98.2034 50.0461 97.93 50.0461 97.5927ZM58.7673 97.5927C58.7673 97.2554 59.0407 96.982 59.378 96.982H64.3616C64.6988 96.982 64.9723 97.2554 64.9723 97.5927C64.9723 97.93 64.6988 98.2034 64.3616 98.2034H59.378C59.0407 98.2034 58.7673 97.93 58.7673 97.5927ZM67.4885 97.5927C67.4885 97.2554 67.7619 96.982 68.0992 96.982H73.0827C73.42 96.982 73.6935 97.2554 73.6935 97.5927C73.6935 97.93 73.42 98.2034 73.0827 98.2034H68.0992C67.7619 98.2034 67.4885 97.93 67.4885 97.5927ZM76.2097 97.5927C76.2097 97.2554 76.4831 96.982 76.8204 96.982H81.8039C82.1412 96.982 82.4146 97.2554 82.4146 97.5927C82.4146 97.93 82.1412 98.2034 81.8039 98.2034H76.8204C76.4831 98.2034 76.2097 97.93 76.2097 97.5927Z" fill="#D37F52"/>
<path d="M94.3675 69.1658H97.9493C99.973 69.1658 101.614 70.8064 101.614 72.8301V75.3926H94.3675V69.1658Z" fill="#F8B46E"/>
<path d="M94.3675 71.1036H96.5769C97.7613 71.1036 98.7214 72.0637 98.7214 73.2481C98.7214 74.4324 97.7613 75.3925 96.5769 75.3925H94.3675V71.1036Z" fill="#994D47"/>
<path d="M60.2327 38.9523C60.2327 36.9286 61.8733 35.288 63.897 35.288H85.1886C87.2124 35.288 88.8529 36.9286 88.8529 38.9523V59.9124C88.8529 61.9361 87.2124 63.5766 85.1886 63.5766H60.2327V38.9523Z" fill="#5C9937"/>
<path d="M63.3545 40.1383C63.3545 39.4637 63.9013 38.9169 64.5759 38.9169H84.5098C85.1843 38.9169 85.7312 39.4637 85.7312 40.1383V63.5766H63.3545V40.1383Z" fill="#92BE30"/>
<path d="M78.2514 63.5766C78.2514 63.0896 78.1554 62.6074 77.9691 62.1575C77.7827 61.7075 77.5095 61.2987 77.1652 60.9543C76.8208 60.61 76.412 60.3368 75.9621 60.1505C75.5121 59.9641 75.0299 59.8682 74.5429 59.8682C74.0559 59.8682 73.5737 59.9641 73.1237 60.1505C72.6738 60.3368 72.265 60.61 71.9206 60.9543C71.5763 61.2987 71.3031 61.7075 71.1167 62.1575C70.9304 62.6074 70.8344 63.0896 70.8344 63.5766L74.5429 63.5766H78.2514Z" fill="#5C9937"/>
<circle cx="84.5083" cy="41.6255" r="3.70846" fill="#5C9937"/>
<circle cx="64.1615" cy="41.139" r="3.70846" fill="#5C9937"/>
<path d="M47.2426 50.2487C47.2426 48.225 48.8831 46.5844 50.9069 46.5844H72.855C74.8787 46.5844 76.5193 48.225 76.5193 50.2487V63.5766H47.2426V50.2487Z" fill="black" fill-opacity="0.2"/>
<path d="M45.0447 45.0663C45.0447 43.0426 46.6853 41.402 48.709 41.402H70.0006C72.0243 41.402 73.6649 43.0426 73.6649 45.0663V63.5767H46.2661C45.5916 63.5767 45.0447 63.0299 45.0447 62.3553V45.0663Z" fill="#F88029"/>
<path d="M48.1664 46.2523C48.1664 45.5777 48.7133 45.0309 49.3879 45.0309H69.3218C69.9963 45.0309 70.5432 45.5777 70.5432 46.2523V63.5768H48.1664V46.2523Z" fill="#FFB63B"/>
<circle cx="69.3203" cy="47.7396" r="3.70846" fill="#F88029"/>
<circle cx="48.9735" cy="47.253" r="3.70846" fill="#F88029"/>
<g clip-path="url(#clip1_17926_117562)">
<circle cx="120.431" cy="119.306" r="17.6938" fill="#16A75C"/>
<g clip-path="url(#clip2_17926_117562)">
<path fill-rule="evenodd" clip-rule="evenodd" d="M114.288 118.659C113.687 118.031 112.69 118.009 112.063 118.611C111.435 119.212 111.413 120.208 112.015 120.836L117.095 126.14C117.696 126.768 118.693 126.789 119.321 126.188C119.372 126.139 119.419 126.087 119.462 126.033C119.518 125.992 119.572 125.947 119.624 125.898L127.959 117.914C128.587 117.313 128.608 116.317 128.007 115.689C127.406 115.061 126.409 115.04 125.782 115.641L118.28 122.826L114.288 118.659Z" fill="white"/>
</g>
</g>
</g>
<g clip-path="url(#clip3_17926_117562)">
<circle cx="5.48132" cy="100.574" r="2.85632" fill="#FFB900"/>
<circle cx="84.9897" cy="6.68233" r="2.09784" fill="#FFC800" stroke="#FFC800" stroke-width="0.816092"/>
<circle cx="138.207" cy="93.982" r="3.26437" fill="#FFB900"/>
<rect x="126.766" y="57.8727" width="5.60106" height="5.60106" rx="0.835294" transform="rotate(-29.3268 126.766 57.8727)" fill="#EF5350"/>
<rect x="2.29559" y="51.3464" width="4.46309" height="4.46309" rx="0.835294" transform="rotate(-27.5467 2.29559 51.3464)" fill="#FFC800"/>
<path fill-rule="evenodd" clip-rule="evenodd" d="M63.2419 18.3283C63.1163 17.8594 62.6343 17.5812 62.1655 17.7068C61.6966 17.8324 61.4184 18.3143 61.544 18.7832L62.1354 20.9904L59.9281 21.5819C59.4593 21.7075 59.181 22.1894 59.3067 22.6583C59.4323 23.1272 59.9142 23.4054 60.3831 23.2798L62.5904 22.6883L63.1363 24.7258C63.2619 25.1947 63.7439 25.4729 64.2127 25.3473C64.6816 25.2217 64.9598 24.7398 64.8342 24.2709L64.2883 22.2334L66.3257 21.6875C66.7946 21.5618 67.0728 21.0799 66.9472 20.611C66.8216 20.1422 66.3396 19.8639 65.8708 19.9896L63.8333 20.5355L63.2419 18.3283Z" fill="#16A75C"/>
<path d="M19.2815 76.6859C20.5403 75.6814 22.2763 74.3492 23.8945 74.7031C25.12 74.9711 27.2793 76.4831 25.239 77.6762C24.547 78.0809 23.3408 78.1555 23.0706 77.2632C22.7968 76.3588 24.1031 74.9423 24.6602 74.3032C25.4106 73.4422 27.1541 72.6965 28.2586 72.8464" stroke="#16A75C" stroke-width="1.25294" stroke-linecap="round"/>
<path d="M105.504 27.7084C106.95 26.3922 108.947 24.6414 110.936 24.9424C112.441 25.1705 115.176 26.8317 112.799 28.438C111.993 28.9828 110.537 29.1684 110.14 28.1087C109.736 27.0348 111.207 25.2158 111.832 24.3976C112.673 23.2954 114.726 22.2544 116.076 22.3489" stroke="#FF9500" stroke-width="1.67059" stroke-linecap="round"/>
<path d="M22.8368 26.0588C24.9776 27.1083 27.6313 27.824 28.2604 30.3407" stroke="#EF5350" stroke-width="1.67059" stroke-linecap="round"/>
<path d="M119.578 76.0118C121.578 76.4507 124.066 77.8517 125.002 79.7227" stroke="#EF5350" stroke-width="1.67059" stroke-linecap="round"/>
</g>
<defs>
<clipPath id="clip0_17926_117562">
<rect width="133.125" height="133.125" fill="white" transform="translate(5.125 4)"/>
</clipPath>
<clipPath id="clip1_17926_117562">
<rect width="35.3877" height="35.3877" fill="white" transform="translate(102.737 101.612)"/>
</clipPath>
<clipPath id="clip2_17926_117562">
<rect width="17.6938" height="17.6938" fill="white" transform="translate(111.191 110.852)"/>
</clipPath>
<clipPath id="clip3_17926_117562">
<rect width="142" height="142" fill="white" transform="translate(0.625)"/>
</clipPath>
</defs>
</svg>
