<svg width="24" height="24" viewBox="0 0 24 24" fill="none" xmlns="http://www.w3.org/2000/svg">
<mask id="mask0_22520_7592" style="mask-type:alpha" maskUnits="userSpaceOnUse" x="0" y="0" width="24" height="24">
<rect width="24" height="24" fill="#D9D9D9"/>
</mask>
<g mask="url(#mask0_22520_7592)">
<path d="M6 17L3.85 19.15C3.68333 19.3167 3.5 19.3583 3.3 19.275C3.1 19.1917 3 19.0333 3 18.8V5C3 4.45 3.19583 3.97917 3.5875 3.5875C3.97917 3.19583 4.45 3 5 3H17C17.55 3 18.0208 3.19583 18.4125 3.5875C18.8042 3.97917 19 4.45 19 5V9.025C19 9.30833 18.9042 9.54167 18.7125 9.725C18.5208 9.90833 18.2833 10 18 10C17.7167 10 17.4792 9.90417 17.2875 9.7125C17.0958 9.52083 17 9.28333 17 9V5H5V15H11C11.2833 15 11.5208 15.0958 11.7125 15.2875C11.9042 15.4792 12 15.7167 12 16C12 16.2833 11.9042 16.5208 11.7125 16.7125C11.5208 16.9042 11.2833 17 11 17H6ZM8 9H14C14.2833 9 14.5208 8.90417 14.7125 8.7125C14.9042 8.52083 15 8.28333 15 8C15 7.71667 14.9042 7.47917 14.7125 7.2875C14.5208 7.09583 14.2833 7 14 7H8C7.71667 7 7.47917 7.09583 7.2875 7.2875C7.09583 7.47917 7 7.71667 7 8C7 8.28333 7.09583 8.52083 7.2875 8.7125C7.47917 8.90417 7.71667 9 8 9ZM8 13H11C11.2833 13 11.5208 12.9042 11.7125 12.7125C11.9042 12.5208 12 12.2833 12 12C12 11.7167 11.9042 11.4792 11.7125 11.2875C11.5208 11.0958 11.2833 11 11 11H8C7.71667 11 7.47917 11.0958 7.2875 11.2875C7.09583 11.4792 7 11.7167 7 12C7 12.2833 7.09583 12.5208 7.2875 12.7125C7.47917 12.9042 7.71667 13 8 13ZM17 17H15C14.7167 17 14.4792 16.9042 14.2875 16.7125C14.0958 16.5208 14 16.2833 14 16C14 15.7167 14.0958 15.4792 14.2875 15.2875C14.4792 15.0958 14.7167 15 15 15H17V13C17 12.7167 17.0958 12.4792 17.2875 12.2875C17.4792 12.0958 17.7167 12 18 12C18.2833 12 18.5208 12.0958 18.7125 12.2875C18.9042 12.4792 19 12.7167 19 13V15H21C21.2833 15 21.5208 15.0958 21.7125 15.2875C21.9042 15.4792 22 15.7167 22 16C22 16.2833 21.9042 16.5208 21.7125 16.7125C21.5208 16.9042 21.2833 17 21 17H19V19C19 19.2833 18.9042 19.5208 18.7125 19.7125C18.5208 19.9042 18.2833 20 18 20C17.7167 20 17.4792 19.9042 17.2875 19.7125C17.0958 19.5208 17 19.2833 17 19V17Z" fill="#212121"/>
</g>
</svg>
