<svg width="24" height="24" viewBox="0 0 24 24" fill="none" xmlns="http://www.w3.org/2000/svg">
<path d="M16.5086 13.8V3" stroke="#212121" stroke-width="1.8" stroke-linecap="round" stroke-linejoin="round"/>
<path d="M9.3085 17.508L10.2085 13.8H4.9615C4.68206 13.8 4.40645 13.7349 4.15651 13.61C3.90657 13.485 3.68916 13.3036 3.5215 13.08C3.35383 12.8564 3.24052 12.5969 3.19053 12.322C3.14055 12.0471 3.15526 11.7643 3.2335 11.496L5.3305 4.296C5.43955 3.92211 5.66693 3.59368 5.9785 3.36C6.29007 3.12632 6.66903 3 7.0585 3H19.2085C19.6859 3 20.1437 3.18964 20.4813 3.52721C20.8189 3.86477 21.0085 4.32261 21.0085 4.8V12C21.0085 12.4774 20.8189 12.9352 20.4813 13.2728C20.1437 13.6104 19.6859 13.8 19.2085 13.8H16.7245C16.3896 13.8002 16.0614 13.8938 15.7768 14.0703C15.4922 14.2467 15.2625 14.4991 15.1135 14.799L12.0085 21C11.5841 20.9947 11.1663 20.8936 10.7865 20.7043C10.4066 20.5149 10.0745 20.2421 9.81484 19.9063C9.55521 19.5705 9.37481 19.1804 9.28714 18.7651C9.19946 18.3498 9.20676 17.9201 9.3085 17.508Z" stroke="#212121" stroke-width="1.8" stroke-linecap="round" stroke-linejoin="round"/>
</svg>
