<svg width="24" height="24" viewBox="0 0 24 24" fill="none" xmlns="http://www.w3.org/2000/svg">
<path d="M7.49152 10.2V21" stroke="#212121" stroke-width="1.8" stroke-linecap="round" stroke-linejoin="round"/>
<path d="M14.6915 6.492L13.7915 10.2H19.0385C19.318 10.2 19.5936 10.2651 19.8435 10.39C20.0934 10.515 20.3109 10.6964 20.4785 10.92C20.6462 11.1436 20.7595 11.4031 20.8095 11.678C20.8595 11.9529 20.8448 12.2357 20.7665 12.504L18.6695 19.704C18.5605 20.0779 18.3331 20.4063 18.0215 20.64C17.7099 20.8737 17.331 21 16.9415 21H4.79152C4.31413 21 3.85629 20.8104 3.51872 20.4728C3.18116 20.1352 2.99152 19.6774 2.99152 19.2V12C2.99152 11.5226 3.18116 11.0648 3.51872 10.7272C3.85629 10.3896 4.31413 10.2 4.79152 10.2H7.27552C7.61039 10.1998 7.93858 10.1062 8.22318 9.92975C8.50777 9.75327 8.7375 9.50089 8.88652 9.201L11.9915 3C12.4159 3.00526 12.8337 3.10635 13.2135 3.29574C13.5934 3.48512 13.9256 3.7579 14.1852 4.09368C14.4448 4.42947 14.6252 4.81958 14.7129 5.23488C14.8006 5.65018 14.7933 6.07992 14.6915 6.492Z" stroke="#212121" stroke-width="1.8" stroke-linecap="round" stroke-linejoin="round"/>
</svg>
