<svg width="100" height="100" viewBox="0 0 100 100" fill="none" xmlns="http://www.w3.org/2000/svg">
<g clip-path="url(#clip0_19479_133483)">
<rect width="100" height="100" rx="50" fill="#1F2121"/>
<rect x="12" y="34.208" width="70.8863" height="73.1099" rx="12.29" fill="#BA5E44"/>
<path d="M12 46.498C12 39.7104 17.5024 34.208 24.29 34.208H29.3323V107.318H24.29C17.5024 107.318 12 101.815 12 95.0278V46.498Z" fill="#824042" fill-opacity="0.22"/>
<path d="M63.6988 79.6929C63.6988 74.5833 67.841 70.4412 72.9506 70.4412H92V76.6547C92 83.4423 86.4976 88.9447 79.7101 88.9447H72.9506C67.841 88.9447 63.6988 84.8026 63.6988 79.6929Z" fill="#F8B46E"/>
<circle cx="73.1706" cy="79.6931" r="4.8288" fill="#994D47"/>
<rect x="12" y="34.208" width="70.8863" height="24.7616" rx="12.29" fill="#824042"/>
<rect x="15.1788" y="37.0331" width="64.5283" height="18.5469" rx="9.27347" fill="#492930"/>
<path fill-rule="evenodd" clip-rule="evenodd" d="M12.8065 57.0113C13.2307 57.0113 13.5746 57.3552 13.5746 57.7794C13.5746 58.7915 13.8054 59.7475 14.2165 60.5996C14.4008 60.9817 14.2405 61.4408 13.8584 61.6252C13.4764 61.8095 13.0172 61.6492 12.8329 61.2671C12.3235 60.2113 12.0384 59.0276 12.0384 57.7794C12.0384 57.3552 12.3823 57.0113 12.8065 57.0113ZM82.187 57.0113C82.6112 57.0113 82.9551 57.3552 82.9551 57.7794C82.9551 59.0276 82.67 60.2113 82.1607 61.2671C81.9763 61.6492 81.5172 61.8095 81.1351 61.6252C80.753 61.4408 80.5927 60.9817 80.777 60.5996C81.1881 59.7475 81.4189 58.7915 81.4189 57.7794C81.4189 57.3552 81.7628 57.0113 82.187 57.0113ZM16.2283 63.9951C16.4127 63.613 16.8718 63.4527 17.2539 63.637C18.106 64.0481 19.062 64.2789 20.0741 64.2789H23.2081C23.6323 64.2789 23.9762 64.6228 23.9762 65.047C23.9762 65.4712 23.6323 65.8151 23.2081 65.8151H20.0741C18.8259 65.8151 17.6422 65.53 16.5864 65.0207C16.2043 64.8363 16.044 64.3772 16.2283 63.9951ZM78.7652 63.9951C78.9495 64.3772 78.7892 64.8363 78.4071 65.0207C77.3513 65.53 76.1676 65.8151 74.9194 65.8151H71.7854C71.3612 65.8151 71.0173 65.4712 71.0173 65.047C71.0173 64.6228 71.3612 64.2789 71.7854 64.2789H74.9194C75.9315 64.2789 76.8875 64.0481 77.7396 63.637C78.1217 63.4527 78.5808 63.613 78.7652 63.9951ZM27.141 65.047C27.141 64.6228 27.4849 64.2789 27.9091 64.2789H34.1772C34.6014 64.2789 34.9453 64.6228 34.9453 65.047C34.9453 65.4712 34.6014 65.8151 34.1772 65.8151H27.9091C27.4849 65.8151 27.141 65.4712 27.141 65.047ZM38.1101 65.047C38.1101 64.6228 38.454 64.2789 38.8782 64.2789H45.1462C45.5705 64.2789 45.9144 64.6228 45.9144 65.047C45.9144 65.4712 45.5705 65.8151 45.1462 65.8151H38.8782C38.454 65.8151 38.1101 65.4712 38.1101 65.047ZM49.0792 65.047C49.0792 64.6228 49.4231 64.2789 49.8473 64.2789H56.1153C56.5395 64.2789 56.8834 64.6228 56.8834 65.047C56.8834 65.4712 56.5395 65.8151 56.1153 65.8151H49.8473C49.4231 65.8151 49.0792 65.4712 49.0792 65.047ZM60.0482 65.047C60.0482 64.6228 60.3921 64.2789 60.8163 64.2789H67.0844C67.5086 64.2789 67.8525 64.6228 67.8525 65.047C67.8525 65.4712 67.5086 65.8151 67.0844 65.8151H60.8163C60.3921 65.8151 60.0482 65.4712 60.0482 65.047Z" fill="#D37F52"/>
<path fill-rule="evenodd" clip-rule="evenodd" d="M12.8065 90.3279C13.2307 90.3279 13.5746 90.6718 13.5746 91.096C13.5746 92.1081 13.8054 93.0641 14.2165 93.9162C14.4008 94.2982 14.2405 94.7574 13.8584 94.9417C13.4764 95.1261 13.0172 94.9658 12.8329 94.5837C12.3235 93.5279 12.0384 92.3442 12.0384 91.096C12.0384 90.6718 12.3823 90.3279 12.8065 90.3279ZM82.187 90.3279C82.6112 90.3279 82.9551 90.6718 82.9551 91.096C82.9551 92.3442 82.67 93.5279 82.1607 94.5837C81.9763 94.9658 81.5172 95.1261 81.1351 94.9417C80.753 94.7574 80.5927 94.2982 80.777 93.9162C81.1881 93.0641 81.4189 92.1081 81.4189 91.096C81.4189 90.6718 81.7628 90.3279 82.187 90.3279ZM16.2283 97.3116C16.4127 96.9296 16.8718 96.7692 17.2539 96.9536C18.106 97.3647 19.062 97.5954 20.0741 97.5954H23.2081C23.6323 97.5954 23.9762 97.9393 23.9762 98.3636C23.9762 98.7878 23.6323 99.1317 23.2081 99.1317H20.0741C18.8259 99.1317 17.6422 98.8466 16.5864 98.3372C16.2043 98.1529 16.044 97.6937 16.2283 97.3116ZM78.7652 97.3116C78.9495 97.6937 78.7892 98.1529 78.4071 98.3372C77.3513 98.8466 76.1676 99.1317 74.9194 99.1317H71.7854C71.3612 99.1317 71.0173 98.7878 71.0173 98.3636C71.0173 97.9393 71.3612 97.5954 71.7854 97.5954H74.9194C75.9315 97.5954 76.8875 97.3647 77.7396 96.9536C78.1217 96.7692 78.5808 96.9296 78.7652 97.3116ZM27.141 98.3636C27.141 97.9393 27.4849 97.5954 27.9091 97.5954H34.1772C34.6014 97.5954 34.9453 97.9393 34.9453 98.3636C34.9453 98.7878 34.6014 99.1317 34.1772 99.1317H27.9091C27.4849 99.1317 27.141 98.7878 27.141 98.3636ZM38.1101 98.3636C38.1101 97.9393 38.454 97.5954 38.8782 97.5954H45.1462C45.5705 97.5954 45.9144 97.9393 45.9144 98.3636C45.9144 98.7878 45.5705 99.1317 45.1462 99.1317H38.8782C38.454 99.1317 38.1101 98.7878 38.1101 98.3636ZM49.0792 98.3636C49.0792 97.9393 49.4231 97.5954 49.8473 97.5954H56.1153C56.5395 97.5954 56.8834 97.9393 56.8834 98.3636C56.8834 98.7878 56.5395 99.1317 56.1153 99.1317H49.8473C49.4231 99.1317 49.0792 98.7878 49.0792 98.3636ZM60.0482 98.3636C60.0482 97.9393 60.3921 97.5954 60.8163 97.5954H67.0844C67.5086 97.5954 67.8525 97.9393 67.8525 98.3636C67.8525 98.7878 67.5086 99.1317 67.0844 99.1317H60.8163C60.3921 99.1317 60.0482 98.7878 60.0482 98.3636Z" fill="#D37F52"/>
<path d="M82.8862 62.6097H87.3912C89.9365 62.6097 92 64.6731 92 67.2185V70.4414H82.8862V62.6097Z" fill="#F8B46E"/>
<path d="M82.8862 65.0471H85.6651C87.1547 65.0471 88.3623 66.2546 88.3623 67.7442C88.3623 69.2338 87.1547 70.4414 85.6651 70.4414H82.8862V65.0471Z" fill="#994D47"/>
<path d="M39.9532 24.6088C39.9532 22.0634 42.0166 20 44.5619 20H71.3415C73.8868 20 75.9502 22.0634 75.9502 24.6087V50.9713C75.9502 53.5166 73.8868 55.58 71.3415 55.58H39.9532V24.6088Z" fill="#5C9937"/>
<path d="M43.8796 26.1004C43.8796 25.252 44.5674 24.5642 45.4158 24.5642H70.4877C71.3361 24.5642 72.0239 25.252 72.0239 26.1004V55.58H43.8796V26.1004Z" fill="#92BE30"/>
<path d="M62.6161 55.58C62.6161 54.9674 62.4955 54.3609 62.2611 53.795C62.0267 53.2291 61.6831 52.7149 61.25 52.2818C60.8168 51.8487 60.3026 51.5051 59.7367 51.2707C59.1708 51.0363 58.5643 50.9156 57.9518 50.9156C57.3393 50.9156 56.7327 51.0363 56.1668 51.2707C55.6009 51.5051 55.0867 51.8487 54.6536 52.2818C54.2205 52.7149 53.8769 53.2291 53.6425 53.795C53.4081 54.3609 53.2875 54.9674 53.2875 55.58H57.9518H62.6161Z" fill="#5C9937"/>
<circle cx="70.4858" cy="27.9709" r="4.66431" fill="#5C9937"/>
<circle cx="44.8946" cy="27.3591" r="4.66431" fill="#5C9937"/>
<path d="M23.6148 38.8167C23.6148 36.2714 25.6782 34.208 28.2236 34.208H55.8288C58.3742 34.208 60.4376 36.2714 60.4376 38.8167V55.5799H23.6148V38.8167Z" fill="black" fill-opacity="0.2"/>
<path d="M20.8504 32.2986C20.8504 29.7533 22.9138 27.6899 25.4592 27.6899H52.2387C54.784 27.6899 56.8475 29.7533 56.8475 32.2986V55.5801H22.3867C21.5382 55.5801 20.8504 54.8923 20.8504 54.0438V32.2986Z" fill="#F88029"/>
<path d="M24.7768 33.7902C24.7768 32.9418 25.4646 32.254 26.313 32.254H51.3849C52.2333 32.254 52.9211 32.9418 52.9211 33.7902V55.5801H24.7768V33.7902Z" fill="#FFB63B"/>
<circle cx="51.383" cy="35.661" r="4.66431" fill="#F88029"/>
<circle cx="25.7919" cy="35.0489" r="4.66431" fill="#F88029"/>
</g>
<rect x="0.5" y="0.5" width="99" height="99" rx="49.5" stroke="#292C2A"/>
<defs>
<clipPath id="clip0_19479_133483">
<rect width="100" height="100" rx="50" fill="white"/>
</clipPath>
</defs>
</svg>
