<svg width="100" height="100" viewBox="0 0 100 100" fill="none" xmlns="http://www.w3.org/2000/svg">
<g clip-path="url(#clip0_19389_956965)">
<rect width="100" height="100" rx="50" fill="#F5F5F5"/>
<g clip-path="url(#clip1_19389_956965)">
<path d="M27.6986 101.739C20.3428 101.739 14.3846 95.7805 14.3846 88.4248V31.1602C14.3846 23.8044 20.3428 17.8462 27.6986 17.8462C29.9053 17.8462 31.7074 19.6484 31.7074 21.8551V97.693C31.7442 99.9365 29.9421 101.739 27.6986 101.739Z" fill="#014783"/>
<path d="M76.9086 17.8462H27.6986V101.739H76.9086V17.8462Z" fill="#014783"/>
<path d="M76.9086 101.739C69.5528 101.739 63.5947 95.7805 63.5947 88.4248V31.1602C63.5947 23.8044 69.5528 17.8462 76.9086 17.8462C79.1153 17.8462 80.9175 19.6484 80.9175 21.8551V97.693C80.9175 99.9365 79.1153 101.739 76.9086 101.739Z" fill="#01335E"/>
<path d="M77.0556 94.0151C71.0607 94.0151 66.2059 89.1603 66.2059 83.1654V36.4195C66.2059 30.4246 71.0607 25.5698 77.0556 25.5698C78.8578 25.5698 80.3289 27.0409 80.3289 28.8431V90.705C80.3289 92.544 78.8946 94.0151 77.0556 94.0151Z" fill="#011F38"/>
<path d="M60.0267 95.2288H22.071C21.409 95.2288 20.8573 94.6772 20.8573 94.0151C20.8573 93.3531 21.409 92.8015 22.071 92.8015H60.0267C60.6887 92.8015 61.2404 93.3531 61.2404 94.0151C61.2772 94.6772 60.7255 95.2288 60.0267 95.2288Z" fill="#011F38"/>
<path d="M59.7329 35.7576H19.7176C19.0556 35.7576 18.5039 35.2059 18.5039 34.5439C18.5039 33.8819 19.0556 33.3302 19.7176 33.3302H59.7329C60.3949 33.3302 60.9466 33.8819 60.9466 34.5439C60.9466 35.2059 60.3949 35.7576 59.7329 35.7576Z" fill="#011F38"/>
<path d="M80.108 94.0151C74.1131 94.0151 69.2583 89.1603 69.2583 83.1654V36.4195C69.2583 30.4245 74.1131 25.5697 80.108 25.5697C81.9102 25.5697 83.3814 27.0409 83.3814 28.8431V90.705C83.4181 92.544 81.947 94.0151 80.108 94.0151Z" fill="#F8A001"/>
<path d="M82.4249 94.0151C76.43 94.0151 71.5752 89.1603 71.5752 83.1654V36.4195C71.5752 30.4245 76.43 25.5697 82.4249 25.5697C84.2271 25.5697 85.6982 27.0409 85.6982 28.8431V90.705C85.6982 92.544 84.2271 94.0151 82.4249 94.0151Z" fill="#ED8200"/>
<path d="M57.3055 65.953H22.145C20.7842 65.953 19.7176 64.8496 19.7176 63.5256V41.1641C19.7176 39.8032 20.821 38.7366 22.145 38.7366H57.3055C58.6663 38.7366 59.7329 39.84 59.7329 41.1641V63.5256C59.7329 64.8496 58.6295 65.953 57.3055 65.953Z" fill="#011F38"/>
<path d="M54.8409 63.5255H24.572C23.2112 63.5255 22.1446 62.4221 22.1446 61.0981V43.6281C22.1446 42.2673 23.248 41.2007 24.572 41.2007H54.8409C56.2017 41.2007 57.2683 42.3041 57.2683 43.6281V61.0981C57.3051 62.4221 56.2017 63.5255 54.8409 63.5255Z" fill="#00AFFA"/>
<path opacity="0.1" d="M19.7176 41.1641V63.5256C19.7176 64.8864 20.821 65.953 22.145 65.953H34.7233L50.1704 38.6999H22.145C20.7842 38.7367 19.7176 39.8033 19.7176 41.1641Z" fill="white"/>
<path opacity="0.1" d="M57.3055 38.7366L44.5065 65.9897H57.3055C58.6664 65.9897 59.733 64.8864 59.733 63.5623V41.2008C59.733 39.8032 58.6296 38.7366 57.3055 38.7366Z" fill="white"/>
<path d="M28.6548 77.5383H23.9839C22.6599 77.5383 21.5565 76.4717 21.5565 75.1109V73.0512C21.5565 71.7272 22.6231 70.6238 23.9839 70.6238H28.6916C30.0156 70.6238 31.119 71.6904 31.119 73.0512V75.1109C31.0822 76.4717 30.0156 77.5383 28.6548 77.5383Z" fill="#0274BA"/>
<path d="M42.0791 77.5383H37.3714C36.0474 77.5383 34.944 76.4717 34.944 75.1109V73.0512C34.944 71.7272 36.0106 70.6238 37.3714 70.6238H42.0791C43.4032 70.6238 44.5065 71.6904 44.5065 73.0512V75.1109C44.4697 76.4717 43.4032 77.5383 42.0791 77.5383Z" fill="#0274BA"/>
<path d="M55.4665 77.5383H50.7588C49.4348 77.5383 48.3314 76.4717 48.3314 75.1109V73.0512C48.3314 71.7272 49.398 70.6238 50.7588 70.6238H55.4665C56.7905 70.6238 57.8939 71.6904 57.8939 73.0512V75.1109C57.8939 76.4717 56.7905 77.5383 55.4665 77.5383Z" fill="#0274BA"/>
<path d="M28.6548 88.1306H23.9839C22.6599 88.1306 21.5565 87.064 21.5565 85.7032V83.6435C21.5565 82.3195 22.6231 81.2162 23.9839 81.2162H28.6916C30.0156 81.2162 31.119 82.2827 31.119 83.6435V85.7032C31.0822 87.0272 30.0156 88.1306 28.6548 88.1306Z" fill="#ED8200"/>
<path d="M42.0791 88.1306H37.3714C36.0474 88.1306 34.944 87.064 34.944 85.7032V83.6435C34.944 82.3195 36.0106 81.2162 37.3714 81.2162H42.0791C43.4032 81.2162 44.5065 82.2827 44.5065 83.6435V85.7032C44.4697 87.0272 43.4032 88.1306 42.0791 88.1306Z" fill="#F8A001"/>
<path d="M55.4665 88.1306H50.7588C49.4348 88.1306 48.3314 87.064 48.3314 85.7032V83.6435C48.3314 82.3195 49.398 81.2162 50.7588 81.2162H55.4665C56.7905 81.2162 57.8939 82.2827 57.8939 83.6435V85.7032C57.8939 87.0272 56.7905 88.1306 55.4665 88.1306Z" fill="#9AC708"/>
<path d="M23.5058 32.3004H22.2185C21.9978 32.3004 21.8507 32.1165 21.8507 31.9326V27.0778C21.8507 26.8571 22.0346 26.71 22.2185 26.71H23.5058C23.7264 26.71 23.8735 26.8939 23.8735 27.0778V31.9326C23.8735 32.1533 23.6896 32.3004 23.5058 32.3004Z" fill="#011F38"/>
<path d="M46.1983 32.3004H44.9111C44.6904 32.3004 44.5433 32.1165 44.5433 31.9326V27.0778C44.5433 26.8571 44.7272 26.71 44.9111 26.71H46.1983C46.419 26.71 46.5661 26.8939 46.5661 27.0778V31.9326C46.5661 32.1533 46.419 32.3004 46.1983 32.3004Z" fill="#011F38"/>
<path d="M26.0803 32.3004H25.7861C25.5654 32.3004 25.4183 32.1165 25.4183 31.9326V27.0778C25.4183 26.8571 25.6022 26.71 25.7861 26.71H26.0803C26.301 26.71 26.4481 26.8939 26.4481 27.0778V31.9326C26.4481 32.1533 26.301 32.3004 26.0803 32.3004Z" fill="#011F38"/>
<path d="M27.625 32.3004H27.3308C27.1101 32.3004 26.963 32.1165 26.963 31.9326V27.0778C26.963 26.8571 27.1469 26.71 27.3308 26.71H27.625C27.8457 26.71 27.9928 26.8939 27.9928 27.0778V31.9326C27.9928 32.1533 27.8089 32.3004 27.625 32.3004Z" fill="#011F38"/>
<path d="M29.1329 32.3004H28.8387C28.618 32.3004 28.4709 32.1165 28.4709 31.9326V27.0778C28.4709 26.8571 28.6548 26.71 28.8387 26.71H29.1329C29.3536 26.71 29.5007 26.8939 29.5007 27.0778V31.9326C29.5375 32.1533 29.3536 32.3004 29.1329 32.3004Z" fill="#011F38"/>
<path d="M48.2212 32.3004H47.9269C47.7063 32.3004 47.5591 32.1165 47.5591 31.9326V27.0778C47.5591 26.8571 47.743 26.71 47.9269 26.71H48.2212C48.4418 26.71 48.589 26.8939 48.589 27.0778V31.9326C48.589 32.1533 48.4418 32.3004 48.2212 32.3004Z" fill="#011F38"/>
<path d="M50.3175 26.71H49.8026V32.3004H50.3175V26.71Z" fill="#011F38"/>
<path d="M51.6047 26.71H51.0898V32.3004H51.6047V26.71Z" fill="#011F38"/>
<path d="M52.9287 26.71H52.4138V32.3004H52.9287V26.71Z" fill="#011F38"/>
<path d="M54.216 26.71H53.7011V32.3004H54.216V26.71Z" fill="#011F38"/>
<path d="M42.8147 32.3004H42.5204C42.2998 32.3004 42.1526 32.1165 42.1526 31.9326V27.0778C42.1526 26.8571 42.3365 26.71 42.5204 26.71H42.8147C43.0353 26.71 43.1825 26.8939 43.1825 27.0778V31.9326C43.1825 32.1533 42.9986 32.3004 42.8147 32.3004Z" fill="#011F38"/>
<path d="M36.268 32.3004H31.4132C31.1925 32.3004 31.0454 32.1165 31.0454 31.9326V27.0778C31.0454 26.8571 31.2293 26.71 31.4132 26.71H36.268C36.4887 26.71 36.6358 26.8939 36.6358 27.0778V31.9326C36.6358 32.1533 36.4519 32.3004 36.268 32.3004Z" fill="#011F38"/>
<path d="M57.1947 32.3004H55.7603C55.5396 32.3004 55.3925 32.1165 55.3925 31.9326V27.0778C55.3925 26.8571 55.5764 26.71 55.7603 26.71H57.1947C57.4153 26.71 57.5625 26.8939 57.5625 27.0778V31.9326C57.5625 32.1533 57.4153 32.3004 57.1947 32.3004Z" fill="#011F38"/>
<path d="M40.0195 32.3004H38.6219C38.4013 32.3004 38.2542 32.1165 38.2542 31.9326V27.0778C38.2542 26.8571 38.438 26.71 38.6219 26.71H40.0195C40.2402 26.71 40.3873 26.8939 40.3873 27.0778V31.9326C40.3873 32.1533 40.2402 32.3004 40.0195 32.3004Z" fill="#011F38"/>
</g>
</g>
<defs>
<clipPath id="clip0_19389_956965">
<rect width="100" height="100" rx="50" fill="white"/>
</clipPath>
<clipPath id="clip1_19389_956965">
<rect width="71.923" height="84.9999" fill="white" transform="translate(15 19)"/>
</clipPath>
</defs>
</svg>
