<svg width="100" height="100" viewBox="0 0 100 100" fill="none" xmlns="http://www.w3.org/2000/svg">
<g clip-path="url(#clip0_19479_133482)">
<rect width="100" height="100" rx="50" fill="#1F2121"/>
<path d="M74.3526 163.706L25.6112 163.677C19.7491 163.674 14.9989 158.92 15 153.058L15.0238 30.8624C15.025 24.997 19.7819 20.2437 25.6474 20.2471L74.3891 20.2758C80.2512 20.2795 85.0011 25.0331 85 30.8952L84.9762 153.091C84.975 158.956 80.2181 163.71 74.3526 163.706Z" fill="#263238"/>
<path d="M74.3374 24.5977L64.8872 24.5921C63.62 24.5913 62.5919 25.6652 62.5923 26.9897L62.5916 28.7039C62.5916 30.0288 61.5639 31.1023 60.2967 31.1015L41.8764 31.0907C40.6092 31.09 39.5819 30.0154 39.5823 28.6905L39.5827 26.9763C39.5827 25.6514 38.5554 24.5768 37.2882 24.576L33.9645 24.5738L25.6932 24.569C21.5855 24.5667 18.254 27.8956 18.2533 32.0033L18.2298 151.275C18.2291 155.381 21.5557 158.71 25.6612 158.713L74.3054 158.741C78.4127 158.744 81.7442 155.415 81.7453 151.307L81.7688 32.0346C81.7695 27.9295 78.4429 24.6003 74.3374 24.5977Z" fill="#FAFAFA"/>
<path d="M28.6261 67.5363V69.8423H30.9321V67.5363V65.2302H28.6261V67.5363Z" fill="#212121"/>
<path d="M30.9321 53.6997H28.6261V56.0057H30.9321V53.6997Z" fill="#212121"/>
<path d="M45.1825 79.0902H42.8765V81.3962H45.1825V79.0902Z" fill="#212121"/>
<path d="M30.9321 58.3117V60.6178H28.6261V62.9242H30.9321V65.2302H33.2382H35.5442V67.5362H37.8506V65.2302H40.1566V62.9242V60.6178H37.8506V62.9242H35.5442H33.2382V60.6178V58.3117V56.0057H30.9321V58.3117Z" fill="#212121"/>
<path d="M35.5442 53.6997H33.2382V56.0057H35.5442H37.8506V53.6997H35.5442Z" fill="#212121"/>
<path d="M45.9219 72.2384H47.1612V69.9324H45.9219H44.683V72.2384H45.9219Z" fill="#212121"/>
<path d="M40.1566 56.0057H37.8506V58.3117H40.1566V56.0057Z" fill="#212121"/>
<path d="M56.2992 65.2302H53.9932V67.5363H56.2992V65.2302Z" fill="#212121"/>
<path d="M58.6056 39.8631H56.2996V42.1692H58.6056V39.8631Z" fill="#212121"/>
<path d="M44.7687 58.3117V56.0057H47.0751V53.6997H44.7687V51.3936H42.4627V53.6997H40.1566V56.0057H42.4627V58.3117V60.6178V62.9242V65.2302H44.7687V62.9242V60.6178H47.0751V58.3117H44.7687Z" fill="#212121"/>
<path d="M56.2996 81.3728H58.6056V79.0668H56.2996H53.9932V81.3728H56.2996Z" fill="#212121"/>
<path d="M53.9932 39.8631H51.6871V42.1692H53.9932V39.8631Z" fill="#212121"/>
<path d="M53.4166 58.3117V56.0057H51.1105V53.6997H48.8045V56.0057V58.3117H46.4985V60.6178H48.8045H51.1105V58.3117H53.4166Z" fill="#212121"/>
<path d="M66.4329 53.6997H64.1269V56.0057H66.4329V53.6997Z" fill="#212121"/>
<path d="M42.5289 65.2302H40.2229V67.5363H42.5289V65.2302Z" fill="#212121"/>
<path d="M51.6871 51.3937V49.0876H53.9932V46.7812H56.2996H58.6056V44.4752H56.2996V42.1692H53.9932V44.4752H51.6871V46.7812H49.3811V49.0876H47.0751V51.3937H49.3811H51.6871Z" fill="#212121"/>
<path d="M51.6871 67.5363V65.2302H53.9932V62.9242H51.6871H49.3811V65.2302H47.0751V67.5363H49.3811H51.6871Z" fill="#212121"/>
<path d="M58.6056 76.7596V74.4532H56.2996H53.9932V72.1472H51.6871V74.4532H49.3811V76.7596H47.0751H44.7687V79.0657H47.0751H49.3811H51.6871V76.7596H53.9932V79.0657H56.2996V76.7596H58.6056Z" fill="#212121"/>
<path d="M49.3811 42.1692V39.8631H47.0751H44.7687V42.1692H42.4626V44.4752H44.7687H47.0751V42.1692H49.3811Z" fill="#212121"/>
<path d="M49.3811 44.4752H47.0751V46.7812H49.3811V44.4752Z" fill="#212121"/>
<path d="M55.1464 53.6997H52.8403V56.0057V58.3117V60.6178H55.1464H57.4524V58.3117H55.1464V56.0057H57.4524V53.6997H59.7584V51.3937H57.4524V49.0876H55.1464V51.3937V53.6997Z" fill="#212121"/>
<path d="M47.0747 46.7812H44.7687V49.0872H47.0747V46.7812Z" fill="#212121"/>
<path d="M53.9932 69.8423V72.1487H56.2996H58.6056V69.8423H60.9116H63.2177V67.5363H60.9116H58.6056H56.2996V69.8423H53.9932Z" fill="#212121"/>
<path d="M66.4329 60.6178H64.1269V62.9238H66.4329V60.6178Z" fill="#212121"/>
<path d="M58.6056 62.9242H56.2996V65.2302H58.6056V62.9242Z" fill="#212121"/>
<path d="M64.3709 56.0057H62.0648H59.7584V58.3117H62.0648V60.6178H64.3709V58.3117V56.0057Z" fill="#212121"/>
<path d="M63.2176 62.9242H60.9116V65.2302H63.2176V62.9242Z" fill="#212121"/>
<path d="M37.8506 76.8039H44.7717V67.5336H35.501V69.8423H33.2382V72.1483H35.501V74.4543H33.2382V76.7604H35.501V76.8036H35.5442V79.0664H33.2382V81.3724V83.6785H35.5442V81.3724H37.8502V79.0664L37.8506 76.8039ZM42.996 69.3092V75.0745H37.2308V69.3092H42.996Z" fill="#212121"/>
<path d="M67.8301 67.5363H70.1361V65.2302H67.8301H65.5237H63.2177V67.5363H65.5237H67.8301Z" fill="#212121"/>
<path d="M67.8301 58.3117H70.1362V56.0057V53.6997H67.8301V56.0057V58.3117Z" fill="#212121"/>
<path d="M49.4672 69.9324H47.1611V72.2384V74.5445H49.4672V72.2384V69.9324Z" fill="#212121"/>
<path d="M72.4421 67.5363H70.1361V69.8423H72.4421V67.5363Z" fill="#212121"/>
<path d="M72.4421 62.9242V60.6178H70.1361V62.9242V65.2302H72.4421V62.9242Z" fill="#212121"/>
<path d="M30.9321 79.0668H28.6261V81.3728V83.6792H30.9321V81.3728V79.0668Z" fill="#212121"/>
<path d="M72.4421 51.3937V39.8631H60.9116V51.3937H72.4421ZM62.6414 49.6639V41.5926H70.7127V49.6639H62.6414Z" fill="#212121"/>
<path d="M68.9829 43.322H64.3708V47.934H68.9829V43.322Z" fill="#212121"/>
<path d="M72.4421 72.1487H60.9116V83.6792H72.4421V72.1487ZM62.6414 81.9494V73.8781H70.7127V81.9494H62.6414Z" fill="#212121"/>
<path d="M68.9829 75.6075H64.3708V80.22H68.9829V75.6075Z" fill="#212121"/>
<path d="M28.597 39.8631V51.3937H40.1276V39.8631H28.597ZM38.3981 41.5926V49.6639H30.3269V41.5926H38.3981Z" fill="#212121"/>
<path d="M36.6687 43.322H32.0563V47.934H36.6687V43.322Z" fill="#212121"/>
<path d="M25.3084 47.9013C25.3084 45.1714 25.3084 42.4415 25.3084 39.7115C25.3084 38.948 25.4365 38.2253 25.9576 37.6242C26.5398 36.9526 27.338 36.6937 28.2018 36.6937C29.6869 36.6937 31.1716 36.6937 32.6563 36.6937C34.042 36.6937 35.4276 36.6937 36.8128 36.6937C37.1444 36.6937 37.1447 36.1786 36.8128 36.1786C33.9742 36.1786 31.1351 36.1786 28.2964 36.1786C27.5667 36.1786 26.8687 36.2862 26.2433 36.6974C25.3296 37.2979 24.8126 38.3021 24.7932 39.3867C24.7694 40.734 24.7932 42.0842 24.7932 43.4319C24.7932 44.9214 24.7932 46.411 24.7932 47.9009C24.7936 48.2328 25.3084 48.2335 25.3084 47.9013Z" fill="#069550"/>
<path d="M36.059 87.5731C33.329 87.5731 30.5991 87.5731 27.8692 87.5731C27.1056 87.5731 26.383 87.445 25.7822 86.9239C25.1106 86.3417 24.8517 85.5435 24.8517 84.6797C24.8517 83.195 24.8517 81.7099 24.8517 80.2252C24.8517 78.8395 24.8517 77.4543 24.8517 76.0687C24.8517 75.7371 24.3366 75.7368 24.3366 76.0687C24.3366 78.9073 24.3366 81.7464 24.3366 84.5851C24.3366 85.3148 24.4442 86.0128 24.8555 86.6382C25.4559 87.5519 26.4601 88.0693 27.5448 88.0882C28.8924 88.1121 30.2423 88.0882 31.5899 88.0882C33.0795 88.0882 34.569 88.0882 36.059 88.0882C36.3905 88.0882 36.3912 87.5731 36.059 87.5731Z" fill="#069550"/>
<path d="M75.4831 75.9867C75.4831 78.7166 75.4831 81.4466 75.4831 84.1765C75.4831 84.9401 75.3549 85.6627 74.8338 86.2635C74.2517 86.9351 73.4534 87.1939 72.5897 87.1939C71.1049 87.1939 69.6199 87.1939 68.1352 87.1939C66.7495 87.1939 65.3639 87.1939 63.9786 87.1939C63.6471 87.1939 63.6467 87.7091 63.9786 87.7091C66.8173 87.7091 69.6564 87.7091 72.495 87.7091C73.2247 87.7091 73.9228 87.6014 74.5482 87.1902C75.4619 86.5898 75.9789 85.5856 75.9982 84.5009C76.0221 83.1533 75.9982 81.8034 75.9982 80.4558C75.9982 78.9662 75.9982 77.4767 75.9982 75.9867C75.9979 75.6556 75.4831 75.6548 75.4831 75.9867Z" fill="#069550"/>
<path d="M64.1269 36.6944C66.8568 36.6944 69.5867 36.6944 72.3166 36.6944C73.0802 36.6944 73.8028 36.8226 74.404 37.3437C75.0756 37.9259 75.3345 38.7241 75.3345 39.5879C75.3345 41.0726 75.3345 42.5577 75.3345 44.0424C75.3345 45.428 75.3345 46.8136 75.3345 48.1989C75.3345 48.5304 75.8496 48.5308 75.8496 48.1989C75.8496 45.3602 75.8496 42.5212 75.8496 39.6825C75.8496 38.9528 75.742 38.2548 75.3307 37.6294C74.7303 36.7157 73.7261 36.1987 72.6414 36.1793C71.2938 36.1555 69.9439 36.1793 68.5963 36.1793C67.1067 36.1793 65.6168 36.1793 64.1273 36.1793C63.7957 36.1793 63.795 36.6944 64.1269 36.6944Z" fill="#069550"/>
</g>
<rect x="0.5" y="0.5" width="99" height="99" rx="49.5" stroke="#292C2A"/>
<defs>
<clipPath id="clip0_19479_133482">
<rect width="100" height="100" rx="50" fill="white"/>
</clipPath>
</defs>
</svg>
