<svg width="100" height="100" viewBox="0 0 100 100" fill="none" xmlns="http://www.w3.org/2000/svg">
<rect x="0.5" y="0.5" width="99" height="99" rx="49.5" fill="#1F2121"/>
<rect x="0.5" y="0.5" width="99" height="99" rx="49.5" stroke="#292C2A"/>
<path fill-rule="evenodd" clip-rule="evenodd" d="M67.4911 24C63.7322 30.4079 52.7916 35.2452 35.3708 38.6636C35.5093 37.3435 35.6484 36.0228 35.7869 34.7016C48.0073 33.5184 58.2718 29.5139 67.4911 24ZM66.0021 30.355C62.2432 36.7634 51.3021 41.5996 33.8818 45.0185C34.0204 43.6979 34.1583 42.3772 34.2974 41.0566C46.5178 39.8728 56.7829 35.8683 66.0021 30.355ZM64.6114 35.9152C60.8525 42.3231 49.9124 47.1604 32.4911 50.5788C32.6302 49.2581 32.7687 47.9369 32.9078 46.6168C45.1276 45.4336 55.3921 41.4291 64.6114 35.9152Z" fill="url(#paint0_linear_19479_133485)"/>
<path d="M11.984 68.1617C11.984 68.4012 12.0275 68.64 12.0718 68.8591C12.4418 70.188 13.5532 71.1045 14.9483 71.1045C16.9539 71.1045 18.153 69.469 18.153 67.0496C18.153 64.935 17.0625 63.1255 15.0142 63.1255C13.7053 63.1255 12.4846 64.0197 12.0922 65.4807C12.049 65.6991 11.984 65.959 11.984 66.2651V68.1617ZM10.087 56.9145H11.984V63.5407H12.0275C12.7033 62.3638 13.924 61.601 15.6249 61.601C18.2416 61.601 20.0935 63.7798 20.0708 66.986C20.0708 70.7552 17.6959 72.6302 15.3404 72.6302C13.8143 72.6302 12.5932 72.0414 11.8095 70.6466H11.7433L11.6578 72.3907H10C10.0443 71.6706 10.087 70.6016 10.087 69.6658V56.9145Z" fill="#E9E9E9"/>
<path d="M27.7886 67.0053C25.6945 66.9614 23.3193 67.3334 23.3193 69.3812C23.3193 70.6239 24.1473 71.2143 25.1277 71.2143C26.5017 71.2143 27.3731 70.3405 27.6785 69.4475C27.7439 69.2499 27.7886 69.0327 27.7886 68.8375V67.0053ZM29.6413 69.8614C29.6413 70.778 29.6848 71.6706 29.8153 72.3907H28.0717L27.9184 71.0602H27.8537C27.2641 71.8901 26.1301 72.6302 24.6275 72.6302C22.4902 72.6302 21.402 71.1268 21.402 69.6015C21.402 67.0496 23.6682 65.654 27.7439 65.6775V65.4584C27.7439 64.5869 27.5048 63.0173 25.3472 63.0173C24.3648 63.0173 23.3413 63.3212 22.5996 63.8025L22.1629 62.5379C23.0351 61.9718 24.3013 61.601 25.6294 61.601C28.8565 61.601 29.6413 63.8025 29.6413 65.9159V69.8614Z" fill="#E9E9E9"/>
<path d="M32.5849 64.6944C32.5849 63.605 32.5618 62.7131 32.4971 61.8397H34.1961L34.3062 63.5834H34.3497C34.8734 62.5822 36.0938 61.5998 37.8382 61.5998C39.2969 61.5998 41.5647 62.4724 41.5647 66.0899V72.3895H39.6458V66.3083C39.6458 64.6073 39.0154 63.1902 37.2047 63.1902C35.9409 63.1902 34.9589 64.0852 34.632 65.1534C34.545 65.3918 34.5011 65.7195 34.5011 66.0483V72.3895H32.5849V64.6944Z" fill="#E9E9E9"/>
<path d="M46.2735 66.6791H46.3171C46.5789 66.3083 46.9486 65.8504 47.2551 65.4799L50.35 61.8397H52.6606L48.584 66.1781L53.2263 72.3895H50.8953L47.2551 67.3334L46.2735 68.4228V72.3895H44.3762V56.9145H46.2735V66.6791Z" fill="#E9E9E9"/>
<path d="M64.6975 70.2662C63.1591 70.2662 61.9114 68.6084 61.9114 66.5663C61.9114 64.5226 63.1591 62.8656 64.6975 62.8656C66.2344 62.8656 67.4809 64.5226 67.4809 66.5663C67.4809 68.6084 66.2344 70.2662 64.6975 70.2662ZM69.0316 62.2133C68.9604 62.1285 68.8891 62.0427 68.8137 61.9653C68.69 61.8363 68.5518 61.7161 68.4047 61.6021C67.6114 60.9533 66.6518 60.5716 65.6178 60.5716C64.5019 60.5716 63.4741 61.0199 62.6469 61.7654C62.6226 61.7804 62.6018 61.7977 62.5776 61.8105C62.5479 61.8266 62.506 61.847 62.457 61.8343C62.3211 61.7989 62.1763 61.6537 62.1752 61.4465V57.1324C62.1752 56.8617 61.953 56.6426 61.6803 56.6426H59.5808C59.3071 56.6426 59.0864 56.8617 59.0864 57.1324V57.2819C59.0864 57.2884 59.0845 57.2926 59.0845 57.298V57.7986L59.0883 71.706C59.0883 71.9821 59.3117 72.2058 59.587 72.2058H61.4874C61.6087 72.2058 61.7185 72.1608 61.8047 72.0876C61.8082 72.0853 61.812 72.0853 61.8136 72.0834C61.817 72.0811 61.8174 72.078 61.8193 72.0757C61.8602 72.0402 61.8921 71.9975 61.9191 71.9513H61.9202C61.953 71.8901 61.9745 71.8254 61.9819 71.7534C62.02 71.4461 62.2291 71.2762 62.3589 71.3205C62.4035 71.3344 62.4459 71.356 62.4894 71.3871C62.5341 71.4149 62.5776 71.4441 62.6203 71.4719C62.7493 71.5666 63.3158 71.9544 63.7548 72.1496C63.9758 72.2478 64.6809 72.4873 65.4992 72.4873C66.3179 72.4873 66.8994 72.306 67.0365 72.269C67.1743 72.2324 67.3099 72.1866 67.4401 72.1261C68.0808 71.8512 68.5961 71.4719 68.9877 70.9928C69.3751 70.5222 69.6963 69.9646 69.9558 69.3242C70.3424 68.4817 70.5627 67.5147 70.5627 66.4854C70.5627 64.8037 69.9739 63.2903 69.0316 62.2133Z" fill="#E9E9E9"/>
<path d="M76.0276 61.8093C76.0252 61.7816 76.0226 61.7535 76.0202 61.7269V61.3584C76.0202 61.0811 75.7965 60.8566 75.5196 60.8566H73.4047C73.1271 60.8566 72.9026 61.0811 72.9026 61.3584V72.7557C72.8918 73.0461 72.5387 73.4435 72.1305 73.5425C71.9426 73.6006 71.7547 73.6272 71.5644 73.6187C71.3753 73.6122 71.2452 73.6884 71.1716 73.8486C71.1431 73.9195 71.122 74.015 71.1054 74.132C71.0927 74.2483 71.1089 75.4698 71.1177 75.5711C71.1254 75.6731 71.1431 75.759 71.1716 75.8318C71.259 75.9631 71.4123 76.0501 71.6291 76.094C71.7019 76.1241 73.1071 76.1275 74.0517 75.8988C74.4229 75.8095 74.7206 75.63 74.969 75.4421C75.2143 75.2519 75.4334 75.0123 75.6236 74.7201C75.8423 74.3719 75.9613 73.9322 75.984 73.4015C75.9906 73.2417 76.0202 72.8235 76.0202 72.7742V62.4185C76.0226 62.3627 76.0245 62.3072 76.0276 62.2468C76.0345 62.1016 76.0345 61.9556 76.0276 61.8093Z" fill="#E9E9E9"/>
<path d="M84.1174 70.2662C82.579 70.2662 81.3321 68.6084 81.3321 66.5663C81.3321 64.5226 82.579 62.8656 84.1174 62.8656C85.655 62.8656 86.9012 64.5226 86.9012 66.5663C86.9012 68.6084 85.655 70.2662 84.1174 70.2662ZM88.4511 62.2133C88.3807 62.1285 88.3098 62.0427 88.2328 61.9653C88.1096 61.8363 87.9709 61.7161 87.825 61.6021C87.0313 60.9533 86.0717 60.5716 85.037 60.5716C83.9218 60.5716 82.8951 61.0199 82.068 61.7654C82.0425 61.7804 82.0217 61.7977 81.9963 61.8105C81.9674 61.8266 81.927 61.847 81.8777 61.8343C81.7418 61.7989 81.5962 61.6537 81.5939 61.4465V57.1324C81.5939 56.8617 81.3729 56.6426 81.1006 56.6426H79.0015C78.7273 56.6426 78.5059 56.8617 78.5059 57.1324V57.2819C78.5059 57.2884 78.5048 57.2926 78.5048 57.298V57.7986L78.5071 71.706C78.5071 71.9821 78.7312 72.2058 79.0073 72.2058H80.9058C81.0282 72.2058 81.1391 72.1608 81.2254 72.0876C81.2281 72.0853 81.2304 72.0853 81.2331 72.0834C81.2362 72.0811 81.2373 72.078 81.24 72.0757C81.2789 72.0402 81.3124 71.9975 81.3394 71.9513L81.3405 71.949C81.3729 71.8901 81.3948 71.8254 81.4018 71.7534C81.4399 71.4461 81.6478 71.2762 81.7784 71.3205C81.823 71.3344 81.8669 71.356 81.9101 71.3871C81.9528 71.4149 81.9963 71.4441 82.041 71.4719C82.1689 71.5666 82.7361 71.9544 83.1747 72.1496C83.3957 72.2478 84.0997 72.4873 84.9195 72.4873C85.7371 72.4873 86.3178 72.306 86.4564 72.269C86.5946 72.2324 86.7294 72.1866 86.86 72.1261C87.4988 71.8512 88.016 71.4719 88.4084 70.9928C88.7954 70.5222 89.1162 69.9646 89.3757 69.3242C89.762 68.4817 89.9822 67.5147 89.9822 66.4854C89.9822 64.8037 89.3927 63.2903 88.4511 62.2133Z" fill="#E9E9E9"/>
<path d="M74.4244 56.5788C74.1237 56.5831 73.8587 56.6519 73.6312 56.7861C73.4082 56.9237 73.2345 57.1084 73.1113 57.334C72.9834 57.5642 72.9203 57.8169 72.9203 58.0977C72.9203 58.3691 72.9834 58.6145 73.1024 58.84C73.2203 59.0647 73.3897 59.2444 73.6034 59.3824C73.8225 59.5158 74.0779 59.5854 74.3701 59.5897C74.6982 59.5854 74.9766 59.5158 75.2046 59.3824C75.4322 59.2444 75.6051 59.0647 75.7241 58.84C75.8427 58.6145 75.9012 58.3691 75.9012 58.0977C75.9012 57.8169 75.8385 57.5642 75.7191 57.334C75.6009 57.1084 75.428 56.9237 75.2081 56.7861C74.9901 56.6519 74.7256 56.5831 74.4244 56.5788Z" fill="#E9E9E9"/>
<defs>
<linearGradient id="paint0_linear_19479_133485" x1="34.5783" y1="41.1863" x2="69.7643" y2="37.9169" gradientUnits="userSpaceOnUse">
<stop stop-color="#00418A"/>
<stop offset="1" stop-color="#FFCC00"/>
</linearGradient>
</defs>
</svg>
