<svg width="92" height="92" viewBox="0 0 92 92" fill="none" xmlns="http://www.w3.org/2000/svg">
<rect width="92" height="92" rx="46" fill="#F5F5F5"/>
<rect x="16" y="16" width="60" height="60" rx="30" fill="#1E88E5"/>
<line x1="35.5833" y1="36" x2="56.4166" y2="36" stroke="white" stroke-width="2.5" stroke-linecap="round"/>
<line x1="35.5833" y1="56.4165" x2="56.4166" y2="56.4165" stroke="white" stroke-width="2.5" stroke-linecap="round"/>
<path d="M37.25 35.7915C37.25 43.0832 43.0833 41.6625 43.0833 45.9998C43.0833 50.3371 37.25 48.9165 37.25 56.2082" stroke="white" stroke-width="2.5"/>
<path d="M54.75 35.7915C54.75 43.0832 48.9167 41.6625 48.9167 45.9998C48.9167 50.3371 54.75 48.9165 54.75 56.2082" stroke="white" stroke-width="2.5"/>
<path d="M37.25 36H46H54.75C54.75 36 53.2917 44.75 46 44.75C38.7083 44.75 37.25 36 37.25 36Z" fill="white"/>
</svg>
