<svg width="34" height="34" viewBox="0 0 34 34" fill="none" xmlns="http://www.w3.org/2000/svg">
<g clip-path="url(#clip0_6174_62469)">
<rect x="23.7292" y="20.315" width="4.95833" height="5.89333" rx="1.41667" fill="#212121"/>
<rect x="5.3125" y="20.315" width="4.95833" height="5.89333" rx="1.41667" fill="#212121"/>
<path d="M5.3125 16.5467C5.3125 15.3731 6.26389 14.4217 7.4375 14.4217H26.5625C27.7361 14.4217 28.6875 15.3731 28.6875 16.5467V21.2903C28.6875 21.9722 28.1347 22.525 27.4528 22.525H6.54721C5.8653 22.525 5.3125 21.9722 5.3125 21.2903V16.5467Z" fill="#1E88E5"/>
<path d="M22.5754 15.1583H11.4246C10.8962 15.1583 10.5539 15.716 10.793 16.1872L11.5694 17.7172C11.6901 17.9551 11.9343 18.105 12.2011 18.105H21.7989C22.0657 18.105 22.3099 17.9551 22.4306 17.7172L23.207 16.1872C23.4462 15.716 23.1038 15.1583 22.5754 15.1583Z" fill="#1976D2"/>
<rect x="6.72916" y="12.2117" width="3.54167" height="2.21" rx="1.105" fill="#424242"/>
<rect x="23.7292" y="12.2117" width="3.54167" height="2.21" rx="1.105" fill="#424242"/>
<path d="M10.8029 8.63248C10.972 8.13006 11.4429 7.79167 11.9731 7.79167H22.0269C22.557 7.79167 23.028 8.13006 23.1971 8.63248L25.1458 14.4217H8.85416L10.8029 8.63248Z" fill="#1E88E5"/>
<path d="M11.8435 9.39441C12.0047 8.87913 12.482 8.52834 13.0219 8.52834H20.9781C21.518 8.52834 21.9953 8.87913 22.1565 9.39441L23.4414 13.5019C23.5841 13.958 23.2434 14.4217 22.7654 14.4217H11.2346C10.7567 14.4217 10.4159 13.958 10.5586 13.5019L11.8435 9.39441Z" fill="#E3E7ED"/>
<path d="M11.7242 9.41862C11.8774 8.89116 12.3606 8.52834 12.9098 8.52834H16.8402C17.3894 8.52834 17.8727 8.89116 18.0259 9.41862L19.216 13.5157C19.3477 13.9689 19.0077 14.4217 18.5358 14.4217H11.2142C10.7423 14.4217 10.4024 13.9689 10.534 13.5157L11.7242 9.41862Z" fill="#BBDEFB"/>
<path d="M12.1092 20.8017L12.763 19.2717C12.8745 19.0109 13.1307 18.8417 13.4144 18.8417H21.294C21.5776 18.8417 21.8339 19.0109 21.9453 19.2717L22.5992 20.8017C22.7989 21.269 22.456 21.7883 21.9478 21.7883H12.7605C12.2523 21.7883 11.9095 21.269 12.1092 20.8017Z" fill="#1976D2"/>
<path d="M14.0505 20.8972L14.4592 19.3672C14.5419 19.0573 14.8227 18.8417 15.1435 18.8417H19.5648C19.8856 18.8417 20.1664 19.0573 20.2492 19.3672L20.6578 20.8972C20.7779 21.347 20.439 21.7883 19.9735 21.7883H14.7349C14.2693 21.7883 13.9304 21.347 14.0505 20.8972Z" fill="#1565C0"/>
<path d="M7.11849 16.8668C6.93205 16.4014 7.27472 15.895 7.77601 15.895H8.90613C9.19563 15.895 9.45599 16.0712 9.56365 16.3399L9.88149 17.1332C10.0679 17.5986 9.72526 18.105 9.22397 18.105H8.09385C7.80435 18.105 7.54399 17.9288 7.43633 17.6601L7.11849 16.8668Z" fill="white"/>
<path d="M24.4363 16.3399C24.544 16.0712 24.8044 15.895 25.0939 15.895H26.224C26.7253 15.895 27.0679 16.4014 26.8815 16.8668L26.5637 17.6601C26.456 17.9288 26.1956 18.105 25.9061 18.105H24.776C24.2747 18.105 23.9321 17.5986 24.1185 17.1332L24.4363 16.3399Z" fill="white"/>
</g>
<defs>
<clipPath id="clip0_6174_62469">
<rect width="23.375" height="18.4167" fill="white" transform="translate(5.3125 7.79167)"/>
</clipPath>
</defs>
</svg>
