<svg width="46" height="34" viewBox="0 0 46 34" fill="none" xmlns="http://www.w3.org/2000/svg">
<path d="M35.4337 10.4454H9.7059V18.4245H35.4337V10.4454Z" fill="#3E4A66"/>
<path d="M32.1794 5.43999H12.9602V23.9763H32.1794V5.43999Z" fill="#FAFAFA"/>
<path d="M39.6918 27.3845C39.6918 28.0306 39.1625 28.56 38.5164 28.56H6.61546C5.96935 28.56 5.44 28.0306 5.44 27.3845V15.6066C5.44 14.9604 5.96935 14.4311 6.61546 14.4311H38.5242C39.1703 14.4311 39.6996 14.9604 39.6996 15.6066V27.3845H39.6918Z" fill="#2B3451"/>
<path d="M8.65499 16.3149C8.65499 16.7431 8.30468 17.0934 7.87653 17.0934C7.44839 17.0934 7.09808 16.7431 7.09808 16.3149C7.09808 15.8868 7.44839 15.5365 7.87653 15.5365C8.30468 15.5365 8.65499 15.8868 8.65499 16.3149Z" fill="#CC2128"/>
<path d="M8.65499 18.5802C8.65499 19.0084 8.30468 19.3587 7.87653 19.3587C7.44839 19.3587 7.09808 19.0084 7.09808 18.5802C7.09808 18.1521 7.44839 17.8018 7.87653 17.8018C8.30468 17.8018 8.65499 18.1521 8.65499 18.5802Z" fill="#6FBD46"/>
<path opacity="0.1" d="M5.44 21.4917V27.3845C5.44 28.0306 5.96935 28.56 6.61546 28.56H38.5242C39.1703 28.56 39.6996 28.0306 39.6996 27.3845V21.4917H5.44Z" fill="#212121"/>
<path d="M35.4337 24.3252H9.7059V27.2833H35.4337V24.3252Z" fill="#3E4A66"/>
</svg>
