<svg width="34" height="34" viewBox="0 0 34 34" fill="none" xmlns="http://www.w3.org/2000/svg">
<g clip-path="url(#clip0_6174_62470)">
<g clip-path="url(#clip1_6174_62470)">
<circle cx="17" cy="11.3333" r="7.08333" fill="#2196F3"/>
<path fill-rule="evenodd" clip-rule="evenodd" d="M17 9.91732C15.7077 11.6374 13.6504 12.75 11.3333 12.75C10.89 12.75 10.4561 12.7092 10.0354 12.6313C9.95743 12.2105 9.9167 11.7767 9.9167 11.3333C9.9167 7.8647 12.4099 4.97838 15.702 4.36867C16.1228 4.29074 16.5566 4.25 17 4.25C17.0389 4.25 17.0777 4.25031 17.1164 4.25094C17.2433 4.25298 17.3694 4.25836 17.4946 4.267C17.7669 4.28578 18.035 4.31995 18.298 4.36865C21.5901 4.97832 24.0834 7.86466 24.0834 11.3333C24.0834 11.7767 24.0426 12.2105 23.9647 12.6313C23.5439 12.7092 23.11 12.75 22.6667 12.75C20.3496 12.75 18.2923 11.6374 17 9.91732Z" fill="#1976D2"/>
<path d="M5.66667 29.75C5.66667 25.0556 9.47225 21.25 14.1667 21.25H19.8333C24.5278 21.25 28.3333 25.0556 28.3333 29.75H5.66667Z" fill="#1E88E5"/>
<path fill-rule="evenodd" clip-rule="evenodd" d="M12.7513 21.3672C13.2115 21.2901 13.6841 21.25 14.1661 21.25H19.8335C20.3156 21.25 20.7883 21.2901 21.2484 21.3672C21.1863 23.6602 19.3079 25.5 16.9999 25.5C14.6918 25.5 12.8134 23.6602 12.7513 21.3672Z" fill="#1976D2"/>
</g>
<rect x="14.968" y="19.8953" width="14.782" height="9.85468" rx="1.41667" fill="#FFA600"/>
<rect x="16.871" y="21.7892" width="6.967" height="2.32233" rx="1.16117" fill="white"/>
<rect opacity="0.4" x="16.871" y="25.5334" width="4.98451" height="2.32233" rx="1.16117" fill="white"/>
</g>
<defs>
<clipPath id="clip0_6174_62470">
<rect width="25.5" height="25.5" fill="white" transform="translate(4.25 4.25)"/>
</clipPath>
<clipPath id="clip1_6174_62470">
<rect width="25.5" height="25.5" fill="white" transform="translate(4.25 4.25)"/>
</clipPath>
</defs>
</svg>
