<svg width="31" height="47" viewBox="0 0 31 47" fill="none" xmlns="http://www.w3.org/2000/svg">
<path d="M13.5726 10.3583L6.60794 16.5577C6.05334 17.0514 5.73372 17.7568 5.72832 18.4993L5.57972 38.9102C5.56912 40.3697 6.75115 41.5577 8.21077 41.5543L22.6641 41.52C24.1157 41.5166 25.2889 40.3357 25.2828 38.8841L25.1972 18.5443C25.1941 17.7832 24.8607 17.061 24.2835 16.5648L17.029 10.3285C16.032 9.47145 14.5547 9.48409 13.5726 10.3583ZM16.0798 13.8076C17.1875 14.2578 17.7206 15.5206 17.2704 16.6283C16.8202 17.7359 15.5574 18.269 14.4498 17.8189C13.3421 17.3687 12.8091 16.1058 13.2592 14.9982C13.7093 13.8906 14.9721 13.3574 16.0798 13.8076Z" fill="#1976D2"/>
<g opacity="0.4">
<path d="M13.5726 10.3583L6.60794 16.5577C6.05334 17.0514 5.73372 17.7568 5.72832 18.4993L5.57972 38.9102C5.56912 40.3697 6.75115 41.5577 8.21077 41.5543L22.6641 41.52C24.1157 41.5166 25.2889 40.3357 25.2828 38.8841L25.1972 18.5443C25.1941 17.7832 24.8607 17.061 24.2835 16.5648L17.029 10.3285C16.032 9.47145 14.5547 9.48409 13.5726 10.3583ZM16.0798 13.8076C17.1875 14.2578 17.7206 15.5206 17.2704 16.6283C16.8202 17.7359 15.5574 18.269 14.4498 17.8189C13.3421 17.3687 12.8091 16.1058 13.2592 14.9982C13.7093 13.8906 14.9721 13.3574 16.0798 13.8076Z" fill="#212121"/>
</g>
<path d="M13.5726 9.28379L6.60794 15.4832C6.05334 15.9769 5.73372 16.6823 5.72832 17.4248L5.57972 37.8357C5.56912 39.2952 6.75115 40.4832 8.21077 40.4796L22.6641 40.4454C24.1157 40.442 25.2889 39.2611 25.2828 37.8094L25.1972 17.4697C25.1941 16.7086 24.8607 15.9863 24.2835 15.4902L17.029 9.25384C16.032 8.39691 14.5547 8.40966 13.5726 9.28379ZM16.0798 12.7331C17.1875 13.1833 17.7206 14.4461 17.2704 15.5537C16.8202 16.6614 15.5574 17.1945 14.4498 16.7443C13.3421 16.2941 12.8091 15.0313 13.2592 13.9237C13.7093 12.816 14.9721 12.283 16.0798 12.7331Z" fill="#1976D2"/>
<path d="M9.50827 25.0982C9.52464 23.3464 10.6038 22.2428 12.1181 22.2569C13.6325 22.2709 14.6763 23.3794 14.6598 25.146C14.6433 26.9127 13.5792 28.0015 12.0648 27.9875C10.5505 27.9734 9.492 26.85 9.50827 25.0982ZM13.1752 25.1322C13.1855 24.0187 12.76 23.4804 12.1067 23.4743C11.4685 23.4684 11.0179 24.0135 11.0077 25.112C10.9976 26.2107 11.4378 26.7641 12.076 26.77C12.7294 26.7761 13.1648 26.2457 13.1752 25.1322ZM18.3076 22.4333L20.0744 22.4497L12.8813 32.776L11.1147 32.7595L18.3076 22.4333ZM16.5294 30.0631C16.5457 28.3113 17.625 27.2077 19.1243 27.2217C20.6386 27.2357 21.6972 28.3591 21.6809 30.1109C21.6646 31.8628 20.5853 32.9662 19.071 32.9522C17.5717 32.9381 16.5131 31.8149 16.5294 30.0631ZM20.1815 30.097C20.1917 28.9984 19.7662 28.4452 19.1129 28.4391C18.4746 28.4333 18.0244 28.9634 18.0141 30.0768C18.0036 31.1903 18.444 31.7289 19.0824 31.7348C19.7356 31.7408 20.1713 31.1955 20.1815 30.097Z" fill="white"/>
<path d="M17.8726 9.96236C17.8663 9.95687 17.9167 9.88712 18.0184 9.75954C18.1202 9.63204 18.2729 9.44615 18.4745 9.21069C18.6757 8.97496 18.9253 8.68919 19.226 8.36669C19.5269 8.04438 19.8786 7.68449 20.2927 7.31196C20.7074 6.94101 21.1825 6.55268 21.7401 6.20238C21.8099 6.15876 21.8803 6.11487 21.9512 6.07051C22.024 6.02922 22.0975 5.98756 22.1715 5.94562C22.3179 5.85979 22.4747 5.7813 22.6367 5.70942C22.9612 5.56788 23.3196 5.4522 23.7087 5.44067C23.9023 5.43537 24.1027 5.46131 24.2942 5.52641C24.4859 5.59057 24.668 5.69556 24.8211 5.83254C25.1309 6.10519 25.3387 6.48591 25.4295 6.89675C25.5196 7.30862 25.4938 7.74076 25.3998 8.15309C25.3056 8.567 25.1491 8.96501 24.9594 9.3513C24.577 10.125 24.0445 10.7879 23.4691 11.3515C23.1806 11.6335 22.878 11.8905 22.5702 12.1248C22.2644 12.3584 21.9601 12.5807 21.6585 12.7907C20.451 13.63 19.2868 14.2786 18.2473 14.6874C17.9882 14.7896 17.7383 14.8787 17.4986 14.9549C17.3784 14.992 17.2613 15.0274 17.1456 15.0562C17.0289 15.0839 16.9198 15.1146 16.8018 15.1235C16.5709 15.1537 16.339 15.0958 16.1781 14.9708C16.0152 14.8475 15.9224 14.6812 15.871 14.5295C15.8431 14.4533 15.8318 14.3778 15.8196 14.3078C15.816 14.2367 15.808 14.1706 15.8154 14.109C15.8198 13.9857 15.852 13.8844 15.8818 13.8065C15.9173 13.7303 15.9498 13.6748 15.9812 13.6448C16.01 13.6129 16.0258 13.5986 16.0289 13.6014C16.0319 13.6041 16.0223 13.6241 16.0012 13.6594C15.9775 13.6926 15.9537 13.7494 15.9276 13.8233C15.9068 13.8994 15.8839 13.9955 15.8873 14.1111C15.8838 14.1687 15.8954 14.2304 15.9019 14.2958C15.9171 14.3603 15.9307 14.4292 15.9595 14.4976C16.0129 14.6341 16.103 14.7778 16.2458 14.8775C16.3872 14.9784 16.581 15.0214 16.7848 14.9892C16.8863 14.9797 16.9972 14.9459 17.1078 14.9164C17.2192 14.8854 17.3333 14.8478 17.4504 14.8086C17.684 14.7281 17.929 14.6348 18.1828 14.5288C19.1965 14.107 20.3414 13.4494 21.53 12.6082C21.8272 12.3976 22.1272 12.1751 22.429 11.9415C22.7294 11.7098 23.023 11.4579 23.303 11.1819C23.8612 10.6306 24.3752 9.98709 24.7425 9.24334C24.9247 8.87248 25.0756 8.48833 25.1647 8.0998C25.2538 7.71221 25.2766 7.3155 25.1975 6.94706C25.1187 6.58151 24.9334 6.24143 24.6676 6.00569C24.4044 5.76549 24.0565 5.65586 23.7129 5.66357C23.3676 5.67046 23.0313 5.77275 22.7213 5.90452C22.5658 5.97157 22.4156 6.04428 22.2709 6.12696C22.1981 6.16704 22.1259 6.20674 22.0543 6.24617C21.9844 6.28858 21.915 6.3307 21.8462 6.37246C21.2962 6.7076 20.8225 7.08199 20.4056 7.4402C19.9892 7.79999 19.6319 8.14853 19.3234 8.46015C19.015 8.77205 18.756 9.04768 18.5443 9.27337C18.3325 9.49758 18.1677 9.67184 18.0546 9.79152C17.9415 9.90888 17.8789 9.96784 17.8726 9.96236Z" fill="#263238"/>
<path d="M8.87408 18.8352L8.52601 18.2307L7.90686 17.9095L8.51131 17.5614L8.83251 16.9423L9.18058 17.5468L9.79973 17.868L9.19528 18.216L8.87408 18.8352Z" fill="white"/>
<path d="M7.91412 22.1028L7.7923 21.8912L7.57553 21.7788L7.78718 21.6569L7.89961 21.4401L8.02143 21.6517L8.2382 21.7642L8.02664 21.886L7.91412 22.1028Z" fill="white"/>
<path d="M12.1854 20.0161L11.9498 19.6069L11.5308 19.3896L11.9399 19.154L12.1573 18.735L12.3928 19.1441L12.8119 19.3614L12.4028 19.5971L12.1854 20.0161Z" fill="white"/>
</svg>
