<svg width="139" height="32" viewBox="0 0 139 32" fill="none" xmlns="http://www.w3.org/2000/svg">
<path d="M11.04 27.44C9.78666 27.44 8.57333 27.2933 7.4 27C6.22666 26.7333 5.16 26.28 4.2 25.64C3.26667 25 2.50667 24.1867 1.92 23.2C1.36 22.2133 1.06667 21.0133 1.04 19.6H5.16C5.16 19.7067 5.18667 19.92 5.24 20.24C5.29333 20.5333 5.42667 20.88 5.64 21.28C5.88 21.68 6.21333 22.0667 6.64 22.44C7.09333 22.8133 7.69333 23.1333 8.44 23.4C9.21333 23.64 10.1733 23.76 11.32 23.76C12.12 23.76 12.8 23.68 13.36 23.52C13.9467 23.36 14.4267 23.1467 14.8 22.88C15.2 22.6133 15.4933 22.32 15.68 22C15.8667 21.6533 15.96 21.32 15.96 21C15.96 20.2533 15.6933 19.6667 15.16 19.24C14.6533 18.7867 13.96 18.4267 13.08 18.16C12.2267 17.8667 11.28 17.6133 10.24 17.4C9.22666 17.16 8.2 16.88 7.16 16.56C6.14667 16.24 5.21333 15.8267 4.36 15.32C3.50667 14.7867 2.84 14.1067 2.36 13.28C1.90667 12.4533 1.70667 11.4 1.76 10.12C1.86667 8.86667 2.30667 7.78667 3.08 6.88C3.85333 5.97334 4.93333 5.28001 6.32 4.80001C7.70666 4.32001 9.32 4.08001 11.16 4.08001C12.76 4.08001 14.24 4.37334 15.6 4.96001C16.9867 5.52001 18.0933 6.37334 18.92 7.52C19.7733 8.64 20.2 10.08 20.2 11.84H16.24C16.24 11.0133 16.0533 10.3467 15.68 9.84C15.3067 9.30667 14.8267 8.90667 14.24 8.64C13.68 8.34667 13.08 8.16 12.44 8.08C11.8 7.97334 11.2267 7.92 10.72 7.92C9.38666 7.92 8.28 8.14667 7.4 8.6C6.54667 9.02667 6.12 9.69334 6.12 10.6C6.09333 11.3733 6.34667 11.9867 6.88 12.44C7.41333 12.8667 8.12 13.2133 9 13.48C9.88 13.7467 10.84 14 11.88 14.24C12.92 14.4533 13.96 14.7067 15 15C16.04 15.2933 16.9733 15.6933 17.8 16.2C18.6533 16.7067 19.32 17.3733 19.8 18.2C20.3067 19.0267 20.52 20.1067 20.44 21.44C20.3867 22.6933 19.9467 23.7733 19.12 24.68C18.2933 25.56 17.1867 26.24 15.8 26.72C14.44 27.2 12.8533 27.44 11.04 27.44ZM22.9475 27V10.56H27.0275V27H22.9475ZM24.9875 8.44C24.1075 8.44 23.5075 8.21334 23.1875 7.76C22.8942 7.30667 22.7475 6.78667 22.7475 6.2C22.7475 5.61334 22.8942 5.10667 23.1875 4.68001C23.5075 4.22667 24.1075 4 24.9875 4C25.8942 4 26.4808 4.22667 26.7475 4.68001C27.0408 5.10667 27.1875 5.61334 27.1875 6.2C27.1875 6.78667 27.0408 7.30667 26.7475 7.76C26.4808 8.21334 25.8942 8.44 24.9875 8.44Z" fill="#E9E9E9"/>
<g clip-path="url(#clip0_22649_4062)">
<path d="M29.2728 16.0552C29.2728 9.94406 34.2268 4.99002 40.3379 4.99002H49.9339C55.1453 4.99002 59.37 9.21472 59.37 14.4261C59.37 19.6376 55.1453 23.8623 49.9339 23.8623H35.0504C34.9628 23.8623 34.8771 23.8883 34.8043 23.937L29.5023 27.4832C29.4043 27.5487 29.2728 27.4785 29.2728 27.3605V16.0552Z" fill="#16A75C"/>
<path d="M36.1313 13.9155V13.9155C37.6727 12.8145 39.7433 12.8145 41.2847 13.9155V13.9155" stroke="white" stroke-width="1.17792" stroke-linecap="round"/>
<path d="M48.6467 13.9155V13.9155C50.1881 12.8145 52.2587 12.8145 53.8001 13.9155V13.9155" stroke="white" stroke-width="1.17792" stroke-linecap="round"/>
</g>
<path d="M67.12 27.4C65.6267 27.4 64.4133 27.0533 63.48 26.36C62.5467 25.64 61.8667 24.6533 61.44 23.4C61.04 22.12 60.84 20.6533 60.84 19C60.84 17.32 61.0533 15.84 61.48 14.56C61.9067 13.28 62.5733 12.2933 63.48 11.6C64.4133 10.88 65.6267 10.52 67.12 10.52C68.08 10.52 68.88 10.6533 69.52 10.92C70.1867 11.1867 70.72 11.5067 71.12 11.88C71.5467 12.2533 71.8667 12.6267 72.08 13C72.2933 13.3467 72.44 13.6267 72.52 13.84H72.6V10.56H76.8V27H73.28L72.6 24.32H72.52C72.4667 24.5067 72.32 24.7733 72.08 25.12C71.84 25.44 71.5067 25.7867 71.08 26.16C70.68 26.5067 70.1467 26.8 69.48 27.04C68.84 27.28 68.0533 27.4 67.12 27.4ZM68.8 23.96C69.7867 23.96 70.56 23.7467 71.12 23.32C71.68 22.8933 72.0667 22.3067 72.28 21.56C72.4933 20.7867 72.6 19.9467 72.6 19.04C72.6 18.0533 72.48 17.2 72.24 16.48C72.0267 15.7333 71.64 15.16 71.08 14.76C70.5467 14.3333 69.7867 14.12 68.8 14.12C67.76 14.12 66.9467 14.3467 66.36 14.8C65.8 15.2533 65.4 15.8533 65.16 16.6C64.9467 17.32 64.84 18.1333 64.84 19.04C64.84 19.9467 64.9467 20.7733 65.16 21.52C65.4 22.2667 65.8 22.8667 66.36 23.32C66.9467 23.7467 67.76 23.96 68.8 23.96ZM78.405 27V10.56H81.885L82.565 14.12H82.645C82.6717 14.04 82.765 13.8267 82.925 13.48C83.1117 13.1067 83.405 12.6933 83.805 12.24C84.2317 11.7867 84.7917 11.4 85.485 11.08C86.205 10.7333 87.0983 10.56 88.165 10.56C89.3383 10.56 90.285 10.76 91.005 11.16C91.7517 11.5333 92.3383 12.04 92.765 12.68C93.1917 13.2933 93.485 13.9867 93.645 14.76C93.8317 15.5067 93.9383 16.2533 93.965 17C94.0183 17.7467 94.045 18.4267 94.045 19.04V27H90.045V19C90.045 18.12 89.9517 17.32 89.765 16.6C89.605 15.88 89.2717 15.2933 88.765 14.84C88.285 14.3867 87.525 14.16 86.485 14.16C85.4183 14.16 84.605 14.4133 84.045 14.92C83.485 15.4 83.0983 16.0133 82.885 16.76C82.6717 17.5067 82.565 18.3067 82.565 19.16V27H78.405ZM102.838 27.4C101.211 27.4 99.8911 27.0533 98.8778 26.36C97.8911 25.6667 97.1711 24.6933 96.7178 23.44C96.2645 22.1867 96.0378 20.7333 96.0378 19.08C96.0378 17.3467 96.2645 15.8533 96.7178 14.6C97.1978 13.32 97.9311 12.3333 98.9178 11.64C99.9311 10.92 101.238 10.56 102.838 10.56C103.878 10.56 104.744 10.7333 105.438 11.08C106.158 11.4 106.718 11.7867 107.118 12.24C107.544 12.6933 107.851 13.1067 108.038 13.48C108.224 13.8533 108.331 14.08 108.358 14.16H108.438V4.48001H112.638V27H109.118L108.438 24.08H108.358C108.331 24.1333 108.211 24.3333 107.998 24.68C107.811 25.0267 107.491 25.4133 107.038 25.84C106.611 26.2667 106.051 26.64 105.358 26.96C104.664 27.2533 103.824 27.4 102.838 27.4ZM104.158 23.96C105.171 23.96 105.984 23.7467 106.598 23.32C107.238 22.8933 107.691 22.32 107.958 21.6C108.251 20.8533 108.398 20 108.398 19.04C108.398 18.1067 108.264 17.28 107.998 16.56C107.731 15.8133 107.291 15.24 106.678 14.84C106.091 14.4133 105.291 14.2 104.278 14.2C103.184 14.2 102.318 14.4267 101.678 14.88C101.064 15.3333 100.638 15.9333 100.398 16.68C100.158 17.4267 100.038 18.2133 100.038 19.04C100.038 19.8667 100.144 20.6667 100.358 21.44C100.598 22.1867 101.011 22.8 101.598 23.28C102.211 23.7333 103.064 23.96 104.158 23.96ZM120.473 27.4C118.98 27.4 117.766 27.0533 116.833 26.36C115.9 25.64 115.22 24.6533 114.793 23.4C114.393 22.12 114.193 20.6533 114.193 19C114.193 17.32 114.406 15.84 114.833 14.56C115.26 13.28 115.926 12.2933 116.833 11.6C117.766 10.88 118.98 10.52 120.473 10.52C121.433 10.52 122.233 10.6533 122.873 10.92C123.54 11.1867 124.073 11.5067 124.473 11.88C124.9 12.2533 125.22 12.6267 125.433 13C125.646 13.3467 125.793 13.6267 125.873 13.84H125.953V10.56H130.153V27H126.633L125.953 24.32H125.873C125.82 24.5067 125.673 24.7733 125.433 25.12C125.193 25.44 124.86 25.7867 124.433 26.16C124.033 26.5067 123.5 26.8 122.833 27.04C122.193 27.28 121.406 27.4 120.473 27.4ZM122.153 23.96C123.14 23.96 123.913 23.7467 124.473 23.32C125.033 22.8933 125.42 22.3067 125.633 21.56C125.846 20.7867 125.953 19.9467 125.953 19.04C125.953 18.0533 125.833 17.2 125.593 16.48C125.38 15.7333 124.993 15.16 124.433 14.76C123.9 14.3333 123.14 14.12 122.153 14.12C121.113 14.12 120.3 14.3467 119.713 14.8C119.153 15.2533 118.753 15.8533 118.513 16.6C118.3 17.32 118.193 18.1333 118.193 19.04C118.193 19.9467 118.3 20.7733 118.513 21.52C118.753 22.2667 119.153 22.8667 119.713 23.32C120.3 23.7467 121.113 23.96 122.153 23.96ZM132.238 27V10.56H136.318V27H132.238ZM134.278 8.44C133.398 8.44 132.798 8.21334 132.478 7.76C132.185 7.30667 132.038 6.78667 132.038 6.2C132.038 5.61334 132.185 5.10667 132.478 4.68001C132.798 4.22667 133.398 4 134.278 4C135.185 4 135.771 4.22667 136.038 4.68001C136.331 5.10667 136.478 5.61334 136.478 6.2C136.478 6.78667 136.331 7.30667 136.038 7.76C135.771 8.21334 135.185 8.44 134.278 8.44Z" fill="#E9E9E9"/>
<defs>
<clipPath id="clip0_22649_4062">
<rect width="30.0972" height="22.6467" fill="white" transform="translate(29.2728 4.99002)"/>
</clipPath>
</defs>
</svg>
