<svg width="40" height="40" viewBox="0 0 40 40" fill="none" xmlns="http://www.w3.org/2000/svg">
<rect width="40" height="40" rx="20" fill="#F5F5F5"/>
<path d="M8.60791 20.7229L9.10261 22.6539C10.1918 26.9052 14.0228 29.8784 18.4114 29.8784H22.3978" stroke="#1E88E5" stroke-width="1.21064" stroke-linecap="round"/>
<rect x="20.7812" y="28.7457" width="4.73404" height="2.2543" rx="0.676291" fill="#1976D2"/>
<circle cx="10.7832" cy="19.3988" r="3.78325" fill="#1976D2"/>
<rect x="9.70501" y="10.7919" width="23.6453" height="17.5921" rx="8.79605" fill="#16A75C" stroke="#F5F5F5" stroke-width="0.416157"/>
<path d="M15.4366 20.0041C15.4366 16.87 17.9774 14.3293 21.1115 14.3293H26.0329C28.7056 14.3293 30.8723 16.4959 30.8723 19.1687V19.1687C30.8723 21.8414 28.7056 24.0081 26.0329 24.0081H18.3997C18.3548 24.0081 18.3109 24.0214 18.2735 24.0464L15.5544 25.8651C15.5041 25.8987 15.4366 25.8627 15.4366 25.8022V20.0041Z" fill="white"/>
<path d="M18.9541 19.4198V19.4198C19.7446 18.8551 20.8066 18.8551 21.5971 19.4198V19.4198" stroke="#16A75C" stroke-width="0.604109" stroke-linecap="round"/>
<path d="M25.3727 19.4198V19.4198C26.1633 18.8551 27.2252 18.8551 28.0157 19.4198V19.4198" stroke="#16A75C" stroke-width="0.604109" stroke-linecap="round"/>
</svg>
