<svg width="142" height="143" viewBox="0 0 142 143" fill="none" xmlns="http://www.w3.org/2000/svg">
<circle cx="71" cy="71.0865" r="71" fill="#1F2121"/>
<g clip-path="url(#clip0_17932_121699)">
<path opacity="0.08" d="M70.9756 120.784C90.8444 120.784 106.951 119.271 106.951 117.404C106.951 115.537 90.8444 114.023 70.9756 114.023C51.1068 114.023 35 115.537 35 117.404C35 119.271 51.1068 120.784 70.9756 120.784Z" fill="black"/>
<path d="M63.4781 56.2378V52.6671C63.4781 50.6768 61.8683 49.0524 59.8634 49.0524H42.1561C40.1659 49.0524 38.5415 50.6622 38.5415 52.6671V62.2524V99.0866C38.5415 101.077 40.1512 102.701 42.1561 102.701H103.224C105.215 102.701 106.839 101.091 106.839 99.0866V63.4524C106.839 61.4622 105.229 59.8378 103.224 59.8378H67.0781C65.0878 59.8378 63.4781 58.228 63.4781 56.2378Z" fill="#FF9500"/>
<path d="M62.922 74.0768L62.8195 21.7305C62.8195 21.4817 63.0244 21.2622 63.2878 21.2622L104.512 21.189C104.761 21.189 104.98 21.3939 104.98 21.6573L105.083 74.0037C105.083 74.2524 104.878 74.4719 104.615 74.4719L63.3756 74.5451C63.1268 74.5305 62.922 74.3256 62.922 74.0768Z" fill="#F7F7F9"/>
<path d="M99.5801 39.2509L71.9947 39.3029L71.996 39.9907L99.5814 39.9387L99.5801 39.2509Z" fill="#E6E6E7"/>
<path d="M99.5947 42.8463L67.1801 42.9074L67.1813 43.5952L99.596 43.5342L99.5947 42.8463Z" fill="#E6E6E7"/>
<path d="M99.5947 46.9293L67.1801 46.9904L67.1813 47.6782L99.596 47.6171L99.5947 46.9293Z" fill="#E6E6E7"/>
<path d="M99.6093 51.3927L67.1947 51.4537L67.196 52.1415L99.6106 52.0805L99.6093 51.3927Z" fill="#E6E6E7"/>
<path d="M87.6093 59.9796L67.2093 60.0181L67.2106 60.7059L87.6106 60.6674L87.6093 59.9796Z" fill="#E6E6E7"/>
<path d="M87.6093 55.9113L67.2093 55.9498L67.2106 56.6376L87.6106 56.5991L87.6093 55.9113Z" fill="#E6E6E7"/>
<path d="M99.6386 63.5537L67.2239 63.6147L67.2252 64.3026L99.6399 64.2415L99.6386 63.5537Z" fill="#E6E6E7"/>
<path d="M99.6386 67.6366L67.2239 67.6977L67.2252 68.3855L99.6399 68.3244L99.6386 67.6366Z" fill="#E6E6E7"/>
<path d="M99.6532 72.1L67.2386 72.1611L67.2399 72.8489L99.6545 72.7878L99.6532 72.1Z" fill="#E6E6E7"/>
<path d="M100.522 25.3867L66.9512 25.45L66.971 35.9865L100.542 35.9233L100.522 25.3867Z" fill="#16A75C"/>
<path d="M99.308 52.7308L89.2251 52.7498L89.2436 62.584L99.3266 62.565L99.308 52.7308Z" fill="#9BDBB3"/>
<path d="M60.0244 56.2378V52.6671C60.0244 50.6768 58.4147 49.0524 56.4098 49.0524H38.7025C36.7122 49.0524 35.0878 50.6622 35.0878 52.6671V62.2524V99.0866C35.0878 101.077 36.6976 102.701 38.7025 102.701H99.7708C101.761 102.701 103.385 101.091 103.385 99.0866V63.4524C103.385 61.4622 101.776 59.8378 99.7708 59.8378H63.6244C61.6488 59.8378 60.0244 58.228 60.0244 56.2378Z" fill="#FFB900"/>
</g>
<g clip-path="url(#clip1_17932_121699)">
<circle cx="123.127" cy="123.213" r="18.8734" fill="#16A75C"/>
<g clip-path="url(#clip2_17932_121699)">
<path fill-rule="evenodd" clip-rule="evenodd" d="M116.574 122.522C115.932 121.853 114.87 121.83 114.2 122.471C113.53 123.113 113.508 124.175 114.149 124.845L119.568 130.503C120.209 131.172 121.272 131.195 121.942 130.554C121.997 130.501 122.047 130.446 122.093 130.388C122.153 130.345 122.21 130.297 122.265 130.244L131.156 121.728C131.826 121.087 131.849 120.024 131.207 119.355C130.566 118.685 129.503 118.662 128.834 119.304L120.832 126.968L116.574 122.522Z" fill="white"/>
</g>
</g>
<defs>
<clipPath id="clip0_17932_121699">
<rect width="71.9512" height="100" fill="white" transform="translate(35 21.0865)"/>
</clipPath>
<clipPath id="clip1_17932_121699">
<rect width="37.7468" height="37.7468" fill="white" transform="translate(104.253 104.34)"/>
</clipPath>
<clipPath id="clip2_17932_121699">
<rect width="18.8734" height="18.8734" fill="white" transform="translate(113.27 114.196)"/>
</clipPath>
</defs>
</svg>
