<svg width="16" height="16" viewBox="0 0 16 16" fill="none" xmlns="http://www.w3.org/2000/svg">
<mask id="mask0_22521_3998" style="mask-type:alpha" maskUnits="userSpaceOnUse" x="0" y="0" width="16" height="16">
<rect width="16" height="16" fill="#D9D9D9"/>
</mask>
<g mask="url(#mask0_22521_3998)">
<path d="M8.00003 9.33333C7.44447 9.33333 6.97225 9.13888 6.58336 8.75C6.19447 8.36111 6.00003 7.88888 6.00003 7.33333V3.33333C6.00003 2.77777 6.19447 2.30555 6.58336 1.91666C6.97225 1.52777 7.44447 1.33333 8.00003 1.33333C8.55559 1.33333 9.02781 1.52777 9.4167 1.91666C9.80559 2.30555 10 2.77777 10 3.33333V7.33333C10 7.88888 9.80559 8.36111 9.4167 8.75C9.02781 9.13888 8.55559 9.33333 8.00003 9.33333ZM7.33336 13.3333V11.95C6.31114 11.8056 5.43614 11.3722 4.70836 10.65C3.98059 9.92777 3.53892 9.05 3.38336 8.01666C3.36114 7.82777 3.41114 7.66666 3.53336 7.53333C3.65559 7.4 3.81114 7.33333 4.00003 7.33333C4.18892 7.33333 4.34725 7.39722 4.47503 7.525C4.60281 7.65277 4.68892 7.81111 4.73336 8C4.88892 8.77777 5.27503 9.41666 5.8917 9.91666C6.50836 10.4167 7.21114 10.6667 8.00003 10.6667C8.80003 10.6667 9.50559 10.4139 10.1167 9.90833C10.7278 9.40277 11.1111 8.76666 11.2667 8C11.3111 7.81111 11.3973 7.65277 11.525 7.525C11.6528 7.39722 11.8111 7.33333 12 7.33333C12.1889 7.33333 12.3445 7.4 12.4667 7.53333C12.5889 7.66666 12.6389 7.82777 12.6167 8.01666C12.4611 9.02777 12.0223 9.89999 11.3 10.6333C10.5778 11.3667 9.70003 11.8056 8.6667 11.95V13.3333C8.6667 13.5222 8.60281 13.6806 8.47503 13.8083C8.34725 13.9361 8.18892 14 8.00003 14C7.81114 14 7.65281 13.9361 7.52503 13.8083C7.39725 13.6806 7.33336 13.5222 7.33336 13.3333ZM8.00003 8C8.18892 8 8.34725 7.93611 8.47503 7.80833C8.60281 7.68055 8.6667 7.52222 8.6667 7.33333V3.33333C8.6667 3.14444 8.60281 2.98611 8.47503 2.85833C8.34725 2.73055 8.18892 2.66666 8.00003 2.66666C7.81114 2.66666 7.65281 2.73055 7.52503 2.85833C7.39725 2.98611 7.33336 3.14444 7.33336 3.33333V7.33333C7.33336 7.52222 7.39725 7.68055 7.52503 7.80833C7.65281 7.93611 7.81114 8 8.00003 8Z" fill="#212121"/>
</g>
</svg>
