<svg width="24" height="24" viewBox="0 0 24 24" fill="none" xmlns="http://www.w3.org/2000/svg">
<mask id="mask0_22521_6465" style="mask-type:alpha" maskUnits="userSpaceOnUse" x="0" y="0" width="24" height="24">
<rect width="24" height="24" fill="#D9D9D9"/>
</mask>
<g mask="url(#mask0_22521_6465)">
<path d="M11 22C10.7167 22 10.4792 21.9042 10.2875 21.7125C10.0958 21.5208 10 21.2833 10 21V16C10 15.8833 10.0083 15.7667 10.025 15.65C10.0417 15.5333 10.0667 15.425 10.1 15.325L11.15 12.35C11.2833 11.95 11.525 11.625 11.875 11.375C12.225 11.125 12.6167 11 13.05 11H18.95C19.3833 11 19.775 11.125 20.125 11.375C20.475 11.625 20.7167 11.95 20.85 12.35L21.9 15.325C21.9333 15.425 21.9583 15.5333 21.975 15.65C21.9917 15.7667 22 15.8833 22 16V21C22 21.2833 21.9042 21.5208 21.7125 21.7125C21.5208 21.9042 21.2833 22 21 22C20.7167 22 20.4792 21.9042 20.2875 21.7125C20.0958 21.5208 20 21.2833 20 21V20.5H12V21C12 21.2833 11.9042 21.5208 11.7125 21.7125C11.5208 21.9042 11.2833 22 11 22ZM12 14.5H20L19.3 12.5H12.7L12 14.5ZM13 18.5C13.2833 18.5 13.5208 18.4042 13.7125 18.2125C13.9042 18.0208 14 17.7833 14 17.5C14 17.2167 13.9042 16.9792 13.7125 16.7875C13.5208 16.5958 13.2833 16.5 13 16.5C12.7167 16.5 12.4792 16.5958 12.2875 16.7875C12.0958 16.9792 12 17.2167 12 17.5C12 17.7833 12.0958 18.0208 12.2875 18.2125C12.4792 18.4042 12.7167 18.5 13 18.5ZM19 18.5C19.2833 18.5 19.5208 18.4042 19.7125 18.2125C19.9042 18.0208 20 17.7833 20 17.5C20 17.2167 19.9042 16.9792 19.7125 16.7875C19.5208 16.5958 19.2833 16.5 19 16.5C18.7167 16.5 18.4792 16.5958 18.2875 16.7875C18.0958 16.9792 18 17.2167 18 17.5C18 17.7833 18.0958 18.0208 18.2875 18.2125C18.4792 18.4042 18.7167 18.5 19 18.5ZM6 14V12H8V14H6ZM11 8V6H13V8H11ZM6 18V16H8V18H6ZM6 22V20H8V22H6ZM2 22V10C2 9.45 2.19583 8.97917 2.5875 8.5875C2.97917 8.19583 3.45 8 4 8H7V4C7 3.45 7.19583 2.97917 7.5875 2.5875C7.97917 2.19583 8.45 2 9 2H15C15.55 2 16.0208 2.19583 16.4125 2.5875C16.8042 2.97917 17 3.45 17 4V9H15V4H9V10H4V22H2ZM11.5 19H20.5V16H11.5V19Z" fill="#212121"/>
</g>
</svg>
