<svg width="24" height="24" viewBox="0 0 24 24" fill="none" xmlns="http://www.w3.org/2000/svg">
<mask id="mask0_22521_6463" style="mask-type:alpha" maskUnits="userSpaceOnUse" x="0" y="0" width="24" height="24">
<rect width="24" height="24" fill="#D9D9D9"/>
</mask>
<g mask="url(#mask0_22521_6463)">
<path d="M6.5 16C6.91667 16 7.27083 15.8542 7.5625 15.5625C7.85417 15.2708 8 14.9167 8 14.5C8 14.0833 7.85417 13.7292 7.5625 13.4375C7.27083 13.1458 6.91667 13 6.5 13C6.08333 13 5.72917 13.1458 5.4375 13.4375C5.14583 13.7292 5 14.0833 5 14.5C5 14.9167 5.14583 15.2708 5.4375 15.5625C5.72917 15.8542 6.08333 16 6.5 16ZM15.5 16C15.8333 16 16.1333 15.9 16.4 15.7C16.6667 15.5 16.8417 15.2417 16.925 14.925C16.5917 14.8583 16.275 14.7458 15.975 14.5875C15.675 14.4292 15.4 14.225 15.15 13.975L14.525 13.35C14.3583 13.4833 14.2292 13.65 14.1375 13.85C14.0458 14.05 14 14.2667 14 14.5C14 14.9167 14.1458 15.2708 14.4375 15.5625C14.7292 15.8542 15.0833 16 15.5 16ZM2 12.35C2 12.2333 2.00833 12.1167 2.025 12C2.04167 11.8833 2.06667 11.775 2.1 11.675L4.1 6C4.2 5.7 4.37917 5.45833 4.6375 5.275C4.89583 5.09167 5.18333 5 5.5 5H8C8.28333 5 8.52083 5.09583 8.7125 5.2875C8.90417 5.47917 9 5.71667 9 6C9 6.28333 8.90417 6.52083 8.7125 6.7125C8.52083 6.90417 8.28333 7 8 7H5.85L4.8 10H11C11.2833 10 11.5208 10.0958 11.7125 10.2875C11.9042 10.4792 12 10.7167 12 11C12 11.2833 11.9042 11.5208 11.7125 11.7125C11.5208 11.9042 11.2833 12 11 12H4V17H18V16C18 15.7167 18.0958 15.4792 18.2875 15.2875C18.4792 15.0958 18.7167 15 19 15C19.2833 15 19.5208 15.0958 19.7125 15.2875C19.9042 15.4792 20 15.7167 20 16V19.5C20 19.9167 19.8542 20.2708 19.5625 20.5625C19.2708 20.8542 18.9167 21 18.5 21C18.0833 21 17.7292 20.8542 17.4375 20.5625C17.1458 20.2708 17 19.9167 17 19.5V19H5V19.5C5 19.9167 4.85417 20.2708 4.5625 20.5625C4.27083 20.8542 3.91667 21 3.5 21C3.08333 21 2.72917 20.8542 2.4375 20.5625C2.14583 20.2708 2 19.9167 2 19.5V12.35ZM15 6C15.2833 6 15.5208 5.90417 15.7125 5.7125C15.9042 5.52083 16 5.28333 16 5C16 4.71667 15.9042 4.47917 15.7125 4.2875C15.5208 4.09583 15.2833 4 15 4C14.7167 4 14.4792 4.09583 14.2875 4.2875C14.0958 4.47917 14 4.71667 14 5C14 5.28333 14.0958 5.52083 14.2875 5.7125C14.4792 5.90417 14.7167 6 15 6ZM16.55 12.55L11.45 7.45C11.3167 7.31667 11.2083 7.15417 11.125 6.9625C11.0417 6.77083 11 6.575 11 6.375V2.5C11 2.08333 11.1458 1.72917 11.4375 1.4375C11.7292 1.14583 12.0833 1 12.5 1H16.375C16.575 1 16.7708 1.04167 16.9625 1.125C17.1542 1.20833 17.3167 1.31667 17.45 1.45L22.55 6.55C22.8333 6.83333 22.975 7.1875 22.975 7.6125C22.975 8.0375 22.8333 8.39167 22.55 8.675L18.675 12.55C18.3917 12.8333 18.0375 12.975 17.6125 12.975C17.1875 12.975 16.8333 12.8333 16.55 12.55ZM17.625 10.8L20.8 7.625L16.175 3H13V6.175L17.625 10.8Z" fill="#212121"/>
</g>
</svg>
