<svg width="24" height="24" viewBox="0 0 24 24" fill="none" xmlns="http://www.w3.org/2000/svg">
<mask id="mask0_22521_6464" style="mask-type:alpha" maskUnits="userSpaceOnUse" x="0" y="0" width="24" height="24">
<rect width="24" height="24" fill="#D9D9D9"/>
</mask>
<g mask="url(#mask0_22521_6464)">
<path d="M12 5C11.5833 5 11.2292 4.85417 10.9375 4.5625C10.6458 4.27083 10.5 3.91667 10.5 3.5C10.5 3.2 10.5667 2.93333 10.7 2.7C10.8333 2.46667 11.1417 2.05833 11.625 1.475C11.725 1.34167 11.85 1.275 12 1.275C12.15 1.275 12.275 1.34167 12.375 1.475C12.8583 2.05833 13.1667 2.46667 13.3 2.7C13.4333 2.93333 13.5 3.2 13.5 3.5C13.5 3.91667 13.3542 4.27083 13.0625 4.5625C12.7708 4.85417 12.4167 5 12 5ZM7 5C6.58333 5 6.22917 4.85417 5.9375 4.5625C5.64583 4.27083 5.5 3.91667 5.5 3.5C5.5 3.2 5.56667 2.93333 5.7 2.7C5.83333 2.46667 6.14167 2.05833 6.625 1.475C6.725 1.34167 6.85 1.275 7 1.275C7.15 1.275 7.275 1.34167 7.375 1.475C7.85833 2.05833 8.16667 2.46667 8.3 2.7C8.43333 2.93333 8.5 3.2 8.5 3.5C8.5 3.91667 8.35417 4.27083 8.0625 4.5625C7.77083 4.85417 7.41667 5 7 5ZM17 5C16.5833 5 16.2292 4.85417 15.9375 4.5625C15.6458 4.27083 15.5 3.91667 15.5 3.5C15.5 3.2 15.5667 2.93333 15.7 2.7C15.8333 2.46667 16.1417 2.05833 16.625 1.475C16.725 1.34167 16.85 1.275 17 1.275C17.15 1.275 17.275 1.34167 17.375 1.475C17.8583 2.05833 18.1667 2.46667 18.3 2.7C18.4333 2.93333 18.5 3.2 18.5 3.5C18.5 3.91667 18.3542 4.27083 18.0625 4.5625C17.7708 4.85417 17.4167 5 17 5ZM6 21V21.5C6 21.9167 5.85417 22.2708 5.5625 22.5625C5.27083 22.8542 4.91667 23 4.5 23C4.08333 23 3.72917 22.8542 3.4375 22.5625C3.14583 22.2708 3 21.9167 3 21.5V14.35C3 14.2333 3.00833 14.1167 3.025 14C3.04167 13.8833 3.06667 13.775 3.1 13.675L4.975 8.35C5.10833 7.95 5.35 7.625 5.7 7.375C6.05 7.125 6.44167 7 6.875 7H17.125C17.5583 7 17.95 7.125 18.3 7.375C18.65 7.625 18.8917 7.95 19.025 8.35L20.9 13.675C20.9333 13.775 20.9583 13.8833 20.975 14C20.9917 14.1167 21 14.2333 21 14.35V21.5C21 21.9167 20.8542 22.2708 20.5625 22.5625C20.2708 22.8542 19.9167 23 19.5 23C19.0833 23 18.7292 22.8542 18.4375 22.5625C18.1458 22.2708 18 21.9167 18 21.5V21H6ZM5.8 12H18.2L17.15 9H6.85L5.8 12ZM7.5 18C7.91667 18 8.27083 17.8542 8.5625 17.5625C8.85417 17.2708 9 16.9167 9 16.5C9 16.0833 8.85417 15.7292 8.5625 15.4375C8.27083 15.1458 7.91667 15 7.5 15C7.08333 15 6.72917 15.1458 6.4375 15.4375C6.14583 15.7292 6 16.0833 6 16.5C6 16.9167 6.14583 17.2708 6.4375 17.5625C6.72917 17.8542 7.08333 18 7.5 18ZM16.5 18C16.9167 18 17.2708 17.8542 17.5625 17.5625C17.8542 17.2708 18 16.9167 18 16.5C18 16.0833 17.8542 15.7292 17.5625 15.4375C17.2708 15.1458 16.9167 15 16.5 15C16.0833 15 15.7292 15.1458 15.4375 15.4375C15.1458 15.7292 15 16.0833 15 16.5C15 16.9167 15.1458 17.2708 15.4375 17.5625C15.7292 17.8542 16.0833 18 16.5 18ZM5 19H19V14H5V19Z" fill="#212121"/>
</g>
</svg>
