<svg width="142" height="143" viewBox="0 0 142 143" fill="none" xmlns="http://www.w3.org/2000/svg">
<circle cx="71" cy="71.0865" r="71" fill="#FFEBEE"/>
<g clip-path="url(#clip0_7387_70810)">
<path opacity="0.08" d="M70.5 111.839C86.7924 111.839 100 110.597 100 109.067C100 107.536 86.7924 106.295 70.5 106.295C54.2076 106.295 41 107.536 41 109.067C41 110.597 54.2076 111.839 70.5 111.839Z" fill="black"/>
<path d="M64.352 58.9106V55.9826C64.352 54.3506 63.032 53.0186 61.388 53.0186H46.868C45.236 53.0186 43.904 54.3386 43.904 55.9826V63.8426V94.0466C43.904 95.6786 45.224 97.0106 46.868 97.0106H96.944C98.576 97.0106 99.908 95.6906 99.908 94.0466V64.8266C99.908 63.1946 98.588 61.8626 96.944 61.8626H67.304C65.672 61.8626 64.352 60.5426 64.352 58.9106Z" fill="#393D3D"/>
<path d="M63.896 73.5386L63.812 30.6146C63.812 30.4106 63.98 30.2306 64.196 30.2306L98 30.1706C98.204 30.1706 98.384 30.3386 98.384 30.5546L98.468 73.4786C98.468 73.6826 98.3 73.8626 98.084 73.8626L64.268 73.9226C64.064 73.9106 63.896 73.7426 63.896 73.5386Z" fill="#F7F7F9"/>
<path d="M93.9556 44.9813L71.3356 45.0239L71.3367 45.5879L93.9567 45.5453L93.9556 44.9813Z" fill="#E6E6E7"/>
<path d="M93.9676 47.9296L67.3876 47.9797L67.3887 48.5437L93.9687 48.4936L93.9676 47.9296Z" fill="#E6E6E7"/>
<path d="M93.9676 51.2776L67.3876 51.3277L67.3887 51.8917L93.9687 51.8416L93.9676 51.2776Z" fill="#E6E6E7"/>
<path d="M93.9797 54.9376L67.3997 54.9877L67.4007 55.5517L93.9807 55.5016L93.9797 54.9376Z" fill="#E6E6E7"/>
<path d="M84.1396 61.9789L67.4116 62.0104L67.4127 62.5744L84.1407 62.5429L84.1396 61.9789Z" fill="#E6E6E7"/>
<path d="M84.1396 58.6429L67.4116 58.6744L67.4127 59.2384L84.1407 59.2069L84.1396 58.6429Z" fill="#E6E6E7"/>
<path d="M94.0036 64.9096L67.4236 64.9597L67.4247 65.5237L94.0047 65.4736L94.0036 64.9096Z" fill="#E6E6E7"/>
<path d="M94.0036 68.2576L67.4236 68.3077L67.4247 68.8717L94.0047 68.8216L94.0036 68.2576Z" fill="#E6E6E7"/>
<path d="M94.0156 71.9176L67.4356 71.9677L67.4367 72.5317L94.0167 72.4816L94.0156 71.9176Z" fill="#E6E6E7"/>
<path d="M94.728 33.6127L67.2 33.6646L67.2163 42.3046L94.7443 42.2527L94.728 33.6127Z" fill="#E53935"/>
<path d="M93.7326 56.0348L85.4646 56.0504L85.4798 64.1144L93.7478 64.0988L93.7326 56.0348Z" fill="#EF9A9A"/>
<path d="M61.52 58.9106V55.9826C61.52 54.3506 60.2 53.0186 58.556 53.0186H44.036C42.404 53.0186 41.072 54.3386 41.072 55.9826V63.8426V94.0466C41.072 95.6786 42.392 97.0106 44.036 97.0106H94.112C95.744 97.0106 97.076 95.6906 97.076 94.0466V64.8266C97.076 63.1946 95.756 61.8626 94.112 61.8626H64.472C62.852 61.8626 61.52 60.5426 61.52 58.9106Z" fill="#656768"/>
</g>
<g clip-path="url(#clip1_7387_70810)">
<circle cx="123.127" cy="123.213" r="18.8734" fill="#E53935"/>
<line x1="122.674" y1="126.745" x2="122.674" y2="123.665" stroke="white" stroke-width="2.16286" stroke-linecap="round"/>
<rect x="121.659" y="119.438" width="2.09705" height="2.09705" rx="1.04852" fill="white"/>
<circle cx="122.707" cy="123.633" r="7.30675" stroke="white" stroke-width="2.16286"/>
</g>
<defs>
<clipPath id="clip0_7387_70810">
<rect width="59" height="82" fill="white" transform="translate(41 30.0865)"/>
</clipPath>
<clipPath id="clip1_7387_70810">
<rect width="37.7468" height="37.7468" fill="white" transform="translate(104.253 104.34)"/>
</clipPath>
</defs>
</svg>
