<svg width="142" height="142" viewBox="0 0 142 142" fill="none" xmlns="http://www.w3.org/2000/svg">
<circle cx="71" cy="71" r="71" fill="#F5F5F5"/>
<g clip-path="url(#clip0_18120_273823)">
<path opacity="0.08" d="M70.9756 120.698C90.8444 120.698 106.951 119.184 106.951 117.317C106.951 115.45 90.8444 113.937 70.9756 113.937C51.1068 113.937 35 115.45 35 117.317C35 119.184 51.1068 120.698 70.9756 120.698Z" fill="black"/>
<path d="M63.4781 56.1512V52.5805C63.4781 50.5903 61.8683 48.9659 59.8635 48.9659H42.1561C40.1659 48.9659 38.5415 50.5756 38.5415 52.5805V62.1659V99C38.5415 100.99 40.1513 102.615 42.1561 102.615H103.224C105.215 102.615 106.839 101.005 106.839 99V63.3659C106.839 61.3756 105.229 59.7512 103.224 59.7512H67.0781C65.0878 59.7512 63.4781 58.1415 63.4781 56.1512Z" fill="#FF9500"/>
<path d="M62.9219 73.9903L62.8195 21.6439C62.8195 21.3952 63.0243 21.1756 63.2878 21.1756L104.512 21.1025C104.761 21.1025 104.98 21.3074 104.98 21.5708L105.083 73.9171C105.083 74.1659 104.878 74.3854 104.615 74.3854L63.3756 74.4586C63.1268 74.4439 62.9219 74.2391 62.9219 73.9903Z" fill="#F7F7F9"/>
<path d="M99.5799 39.1644L71.9945 39.2163L71.9958 39.9041L99.5812 39.8522L99.5799 39.1644Z" fill="#E6E6E7"/>
<path d="M99.5946 42.7598L67.1799 42.8209L67.1812 43.5087L99.5959 43.4476L99.5946 42.7598Z" fill="#E6E6E7"/>
<path d="M99.5946 46.8428L67.1799 46.9038L67.1812 47.5916L99.5959 47.5306L99.5946 46.8428Z" fill="#E6E6E7"/>
<path d="M99.6092 51.3062L67.1946 51.3672L67.1959 52.055L99.6105 51.994L99.6092 51.3062Z" fill="#E6E6E7"/>
<path d="M87.6092 59.8931L67.2092 59.9315L67.2105 60.6194L87.6105 60.5809L87.6092 59.8931Z" fill="#E6E6E7"/>
<path d="M87.6092 55.8248L67.2092 55.8632L67.2105 56.551L87.6105 56.5126L87.6092 55.8248Z" fill="#E6E6E7"/>
<path d="M99.6385 63.4671L67.2239 63.5282L67.2252 64.216L99.6398 64.155L99.6385 63.4671Z" fill="#E6E6E7"/>
<path d="M99.6385 67.5501L67.2239 67.6111L67.2252 68.299L99.6398 68.2379L99.6385 67.5501Z" fill="#E6E6E7"/>
<path d="M99.6532 72.0135L67.2385 72.0746L67.2398 72.7624L99.6545 72.7013L99.6532 72.0135Z" fill="#E6E6E7"/>
<path d="M100.522 25.3002L66.9512 25.3634L66.971 35.9L100.542 35.8368L100.522 25.3002Z" fill="#16A75C"/>
<path d="M99.3079 52.6443L89.225 52.6633L89.2435 62.4974L99.3264 62.4784L99.3079 52.6443Z" fill="#9BDBB3"/>
<path d="M60.0244 56.1512V52.5805C60.0244 50.5903 58.4146 48.9659 56.4097 48.9659H38.7024C36.7122 48.9659 35.0878 50.5756 35.0878 52.5805V62.1659V99C35.0878 100.99 36.6975 102.615 38.7024 102.615H99.7707C101.761 102.615 103.385 101.005 103.385 99V63.3659C103.385 61.3756 101.776 59.7512 99.7707 59.7512H63.6244C61.6487 59.7512 60.0244 58.1415 60.0244 56.1512Z" fill="#FFB900"/>
</g>
<g clip-path="url(#clip1_18120_273823)">
<circle cx="123.127" cy="123.127" r="18.8734" fill="#16A75C"/>
<g clip-path="url(#clip2_18120_273823)">
<path fill-rule="evenodd" clip-rule="evenodd" d="M116.574 122.436C115.932 121.766 114.87 121.743 114.2 122.385C113.53 123.026 113.507 124.089 114.149 124.758L119.568 130.416C120.209 131.086 121.272 131.109 121.942 130.467C121.996 130.415 122.047 130.36 122.093 130.302C122.153 130.258 122.21 130.21 122.265 130.158L131.156 121.642C131.825 121.001 131.848 119.938 131.207 119.268C130.566 118.599 129.503 118.576 128.833 119.217L120.832 126.881L116.574 122.436Z" fill="white"/>
</g>
</g>
<defs>
<clipPath id="clip0_18120_273823">
<rect width="71.9512" height="100" fill="white" transform="translate(35 21)"/>
</clipPath>
<clipPath id="clip1_18120_273823">
<rect width="37.7468" height="37.7468" fill="white" transform="translate(104.253 104.253)"/>
</clipPath>
<clipPath id="clip2_18120_273823">
<rect width="18.8734" height="18.8734" fill="white" transform="translate(113.27 114.109)"/>
</clipPath>
</defs>
</svg>
