<svg width="24" height="30" viewBox="0 0 24 30" fill="none" xmlns="http://www.w3.org/2000/svg">
<path fill-rule="evenodd" clip-rule="evenodd" d="M16.8351 3.95752L19.1139 10.5402C19.245 10.9242 19.2568 11.3874 19.1139 11.7543L17.0567 15.8722L14.7886 13.0558L14.277 11.5345C14.1977 11.2354 14.2094 10.9195 14.3107 10.6271L14.6929 9.79522C14.7756 9.61385 14.9458 9.6038 15.0072 9.75446L16.0612 12.7799C16.2703 12.6683 16.4157 12.1354 16.2827 11.7313L15.2577 8.8848C15.0805 8.26446 15.2896 7.63289 15.6949 6.99424C15.7877 6.83945 15.9218 6.84477 15.9903 6.98715L17.1914 10.4392C17.4448 10.3518 17.5417 9.83481 17.3686 9.32022L16.2225 6.01174C16.1551 5.59171 16.2094 5.16117 16.379 4.77106C16.379 4.77106 16.8298 3.96579 16.8375 3.9587L16.8351 3.95752ZM17.9618 15.4982C18.5018 15.6306 19.3933 15.6317 20.3705 15.6004C20.687 15.6749 20.9614 15.871 21.1344 16.1463C21.9911 16.1558 22.3568 16.5327 22.267 17.2517C22.0123 16.6101 21.2224 16.5363 20.8549 17.0095C21.1007 17.2186 21.3825 17.2287 21.701 17.0331C21.737 17.3705 21.3329 17.5713 20.4603 17.6239C19.912 17.7043 18.1249 19.1824 17.0218 20.1685C15.9239 20.9896 14.6631 21.5665 13.324 21.8605L4.40588 24.5765C4.21919 24.6273 4.11521 24.4258 4.22156 24.3584C4.68592 23.9484 5.40316 23.5449 6.2415 23.1438C6.19778 23.0297 5.96619 23.0037 5.61348 23.0345L2.48874 24.3401C2.58917 23.9638 3.03227 23.5313 3.90666 23.0782L8.68919 20.1986C8.82094 20.1289 8.85284 20.0557 8.74827 19.9771C8.29985 19.9948 6.57767 18.1155 5.17983 16.7188C4.94128 16.4777 4.79224 16.1623 4.75741 15.8249V14.8076C4.76273 14.6516 4.83835 14.6475 4.98251 14.7893L8.44578 18.1367C8.81798 18.4705 8.7914 17.7823 8.52435 17.5329L4.30959 13.2756C4.10908 13.0306 3.97881 12.7357 3.93265 12.4225V11.3396C3.93265 11.2078 4.00178 11.1795 4.15125 11.3207L8.47473 15.5154C8.79671 15.7901 8.75949 15.0427 8.47177 14.7343L3.68215 10.0333C3.36194 9.67411 3.17466 9.30072 3.10908 8.91434V7.7162C3.10908 7.57145 3.20597 7.55668 3.38853 7.72978L8.46941 12.6831C8.7524 12.9578 8.93142 12.4072 8.46941 11.9599L2.81545 6.31068C2.58268 6.05723 2.31741 5.6478 2.292 5.30632L2.30736 4.05264C2.31682 3.87127 2.47279 3.83936 2.60926 3.9658L8.45819 9.65638C8.81798 10.0357 8.82803 9.46615 8.56689 9.06558L1.91034 2.4693C1.40639 1.85132 1.52751 0.89836 1.56295 0.112005C1.56827 -0.00615547 1.65512 -0.0404217 1.76028 0.0558787L10.2223 8.31645L17.3119 17.2269C17.3988 17.3279 17.4939 17.3651 17.5985 17.3155L17.592 16.9203L17.244 16.3295L18.2944 16.0973L17.9618 15.4982ZM20.0396 16.1528L20.5944 16.1989C20.4089 16.4447 20.1649 16.4594 19.8524 16.206L19.925 16.0506L20.0396 16.1528Z" fill="#F5303E"/>
<path fill-rule="evenodd" clip-rule="evenodd" d="M6.07485 21.7737C3.58818 21.5308 0.314553 21.6732 0.336413 26.093C0.395493 28.6051 1.69939 29.9031 4.41648 30C5.53073 30 6.59417 29.7861 7.59499 29.3111L7.58081 25.7811C7.21392 25.2493 6.6757 25.1383 5.97856 25.4124L3.69098 26.3228V26.516H5.93602L5.97856 28.1892C3.8759 28.8136 2.18384 28.2553 2.1933 26.0345C2.16362 25.453 2.26455 24.8722 2.4887 24.3348C2.59091 23.9596 3.03401 23.5283 3.90662 23.0764L6.07367 21.7719L6.07485 21.7737Z" fill="#003563"/>
<path fill-rule="evenodd" clip-rule="evenodd" d="M16.7701 21.6171H17.8986C18.0687 21.6171 18.233 21.7181 18.3665 21.8924L21.9308 26.7624V21.7359C21.9292 21.7208 21.9307 21.7057 21.9352 21.6912C21.9397 21.6768 21.947 21.6634 21.9568 21.6519C21.9665 21.6403 21.9785 21.6309 21.992 21.6241C22.0055 21.6173 22.0203 21.6134 22.0353 21.6124L23.0988 21.6159C23.4474 21.6159 23.7605 21.9509 23.7664 22.2522L23.7699 29.6372C23.7699 29.7625 23.7109 29.8582 23.5602 29.8606L22.3077 29.8641C22.0531 29.8641 21.8628 29.5953 21.688 29.3802L18.4758 24.9616L18.4687 29.6815C18.4687 29.7926 18.4149 29.8671 18.2861 29.8676L17.2575 29.8641C16.9409 29.8606 16.6077 29.4712 16.6077 29.2243V21.7802C16.6077 21.6803 16.6508 21.6177 16.769 21.6165L16.7701 21.6171Z" fill="#003563"/>
<path fill-rule="evenodd" clip-rule="evenodd" d="M11.7714 23.0569L14.6037 22.4354C15.5052 23.1048 15.741 24.6651 15.1637 25.93C14.6911 26.7949 13.9786 27.2835 12.9931 27.3296H10.611L10.5939 29.681C10.6028 29.8086 10.5348 29.8765 10.3688 29.8718L9.42353 29.8753C9.12222 29.8352 8.78664 29.4352 8.76892 29.1516L8.77188 23.8894C8.77188 23.7653 9.06314 23.594 9.39635 23.5071L10.243 23.3228C10.4515 23.2867 10.663 23.3352 10.6695 23.4185L10.6831 25.816L12.4986 25.8124C13.1019 25.8041 13.5839 25.374 13.5975 24.5073C13.5975 23.6371 13.2631 23.129 11.7785 23.2371L11.772 23.0569H11.7714Z" fill="#003563"/>
</svg>
