<svg width="126" height="21" viewBox="0 0 126 21" fill="none" xmlns="http://www.w3.org/2000/svg">
<path d="M17.4691 4.09323H31.2156V12.3405H25.4486L31.2156 17.6185H26.3166L20.661 12.3405V17.6185H17.4691V9.23442H27.5479V7.22762L17.4691 7.22745V4.09323Z" fill="black"/>
<path d="M32.643 17.6186H36.0025V4.06587H32.6428L32.643 17.6186Z" fill="black"/>
<path d="M5.73922 14.3471V4.09323H3.10768C2.63169 4.09323 2.2678 4.45088 2.2678 4.89022C2.2678 7.31018 2.23987 14.4297 2.23987 16.7938C2.23987 17.2337 2.60375 17.6184 3.05163 17.6184C4.87141 17.6184 10.1065 17.6184 10.8621 17.6184V14.3471H5.73922Z" fill="black"/>
<path d="M12.598 21C12.9064 21 15.2578 21 16.042 21C16.042 21 16.042 14.3198 16.042 14.21C14.9219 14.21 13.7466 14.21 12.598 14.21C12.598 16.464 12.598 18.7181 12.598 21Z" fill="black"/>
<path d="M7.419 4.09323C7.419 4.14857 7.419 7.47425 7.419 7.47425C8.95888 7.47425 10.9182 7.47425 12.5977 7.47425C12.5977 9.81165 12.5977 12.5329 12.5977 12.5329C13.3819 12.5329 15.7334 12.5329 16.0417 12.5329V4.91833C16.0417 4.47811 15.6773 4.12046 15.23 4.09323C13.5504 4.09323 9.57438 4.09323 7.41882 4.09323H7.419Z" fill="black"/>
<path d="M7.419 9.12384C7.419 10.2513 7.419 11.3787 7.419 12.5604C7.69908 12.5604 8.00691 12.5604 8.28681 12.5604C9.07116 12.5604 10.0502 12.5604 10.8344 12.5604C10.8344 12.5604 10.8344 9.17936 10.8344 9.12384C9.71423 9.12384 8.56671 9.12384 7.41882 9.12384H7.419ZM9.82669 11.5157C9.49074 11.5157 9.09874 11.5157 8.79038 11.5157C8.67899 11.5157 8.56688 11.5157 8.42685 11.5157C8.42685 11.0481 8.42685 10.6089 8.42685 10.1415C8.90283 10.1415 9.35088 10.1415 9.82669 10.1415C9.82669 10.1687 9.82669 11.5157 9.82669 11.5157Z" fill="black"/>
<path d="M52.4922 14.21V19.2683C52.4922 19.708 52.1 20.0655 51.6529 20.0655H46.5017V20.89H52.4922C52.912 20.89 53.2753 20.5327 53.2753 20.0929V20.0655V14.2102L52.4922 14.21Z" fill="black"/>
<path d="M0.839871 7.44728V2.38866C0.839871 1.94932 1.17582 1.61889 1.62369 1.61889H6.77502C6.80314 1.61889 6.80314 1.59167 6.80314 1.59167V0.822081C6.80314 0.822081 6.80314 0.794678 6.77502 0.794678H0.839871C0.364062 0.794678 0 1.15234 0 1.61889V7.4471C0 7.47433 0.0281136 7.47433 0.0281136 7.47433H0.811935C0.811935 7.47433 0.839871 7.47433 0.839871 7.4471V7.44728Z" fill="black"/>
<path d="M51.0359 7.4472V4.09323H37.4581V9.12356V12.5058H46.5015V14.1822H37.4581V17.5636H51.0361V9.15185H41.9936V7.4472H51.0359Z" fill="black"/>
<path d="M60.8352 8.95941H57.8394C57.4759 8.95941 57.1399 8.90407 56.804 8.76705C56.4958 8.65726 56.1883 8.46474 55.9637 8.24409C55.7116 7.99729 55.5166 7.7222 55.3757 7.42006C55.2356 7.08962 55.152 6.76026 55.152 6.3752C55.152 5.99032 55.2358 5.66006 55.3757 5.33052C55.5166 5.0282 55.684 4.72588 55.9362 4.50542C56.1883 4.25862 56.468 4.09331 56.7755 3.9563C57.1114 3.81839 57.4474 3.76395 57.8394 3.76395C58.2038 3.76395 58.5398 3.81839 58.8757 3.9563C59.1832 4.09331 59.4638 4.25861 59.715 4.47819C59.9396 4.72606 60.1357 4.97286 60.2755 5.3033C60.4156 5.60561 60.4716 5.93498 60.4716 6.29263C60.4716 6.51239 60.443 6.73286 60.4154 6.92539C60.3592 7.14496 60.2756 7.33731 60.1633 7.52984C60.0795 7.69515 59.9396 7.85921 59.7997 7.99729C59.6599 8.16153 59.4914 8.27238 59.2953 8.35406L60.8352 8.35388V8.95941ZM57.8118 8.32683C58.0915 8.32683 58.3713 8.27238 58.596 8.16153C58.8197 8.05174 59.0431 7.91473 59.2117 7.74942C59.3791 7.55707 59.4914 7.36454 59.6038 7.11774C59.6875 6.86987 59.7437 6.59495 59.7437 6.31986C59.7437 6.07306 59.6875 5.79797 59.6038 5.57839C59.4914 5.33052 59.3515 5.13817 59.1832 4.97286C59.0157 4.78051 58.8197 4.6435 58.596 4.56076C58.3439 4.45115 58.0915 4.39563 57.8118 4.39563C57.5321 4.39563 57.28 4.45097 57.0561 4.56076C56.8315 4.6435 56.6355 4.78051 56.468 4.97286C56.2997 5.13817 56.1598 5.33052 56.0475 5.57839C55.9637 5.79797 55.9075 6.04477 55.9075 6.31986C55.9075 6.59495 55.9637 6.84282 56.0475 7.08962C56.1322 7.33749 56.2721 7.55707 56.4395 7.7222C56.6081 7.91455 56.804 8.05174 57.0563 8.16153C57.2799 8.27238 57.5321 8.32683 57.812 8.32683H57.8118Z" fill="black"/>
<path d="M61.5631 3.87386H63.3825C63.7185 3.87386 63.9982 3.92813 64.1943 4.01087C64.419 4.12066 64.5865 4.23134 64.7263 4.36853C64.8386 4.50554 64.9222 4.64344 64.9785 4.80875C65.0345 4.97281 65.0345 5.13811 65.0345 5.30342C65.0345 5.46748 65.0069 5.63278 64.9509 5.77086C64.8947 5.9351 64.8108 6.07318 64.6987 6.18297C64.5863 6.31998 64.4751 6.40255 64.3066 6.48511C64.1391 6.56785 63.9706 6.6223 63.7747 6.65041L65.2584 8.95953H64.3628L63.0468 6.73298H62.2624V8.95953H61.5631V3.87386ZM62.2624 6.12763H63.1866C63.3265 6.12763 63.4663 6.12763 63.6073 6.10022C63.7185 6.073 63.8585 6.04489 63.9432 5.96321C64.0544 5.90787 64.1391 5.82531 64.1943 5.71535C64.279 5.63278 64.3067 5.46748 64.3067 5.30342C64.3067 5.13811 64.279 5.0011 64.1943 4.89024C64.1393 4.78045 64.0544 4.69789 63.9432 4.64344C63.8585 4.5881 63.7185 4.53365 63.6073 4.53365C63.4663 4.50554 63.3265 4.47831 63.1866 4.47831H62.2624V6.12763Z" fill="black"/>
<path d="M71.6695 4.97286C71.5295 4.80862 71.3336 4.6435 71.1099 4.56076C70.8854 4.45115 70.6617 4.39563 70.4095 4.39563C70.1298 4.39563 69.8499 4.45097 69.6264 4.56076C69.4017 4.67055 69.1782 4.80863 69.0097 5.00116C68.8423 5.19351 68.73 5.41308 68.6186 5.66006C68.5339 5.90793 68.4778 6.18285 68.4778 6.45794C68.4778 6.73286 68.5339 6.97983 68.6186 7.22753C68.7024 7.47433 68.8423 7.69515 69.0097 7.85921C69.1782 8.05174 69.3741 8.18982 69.5978 8.29943C69.8499 8.40922 70.1296 8.46474 70.4095 8.46474C70.7179 8.46474 70.9701 8.38217 71.1937 8.27238C71.4174 8.16153 71.6135 7.99729 71.7818 7.77665L72.3699 8.21687C72.3137 8.27221 72.2574 8.32665 72.1452 8.43662C72.0614 8.51918 71.9217 8.62897 71.7816 8.73876C71.6131 8.8215 71.4172 8.90407 71.1935 8.98663C70.9701 9.06937 70.6902 9.09642 70.4094 9.09642C69.9898 9.09642 69.6263 9.01385 69.2903 8.87684C68.9821 8.71153 68.7022 8.51918 68.4501 8.2722C68.2264 8.02434 68.0579 7.7222 67.918 7.41988C67.8058 7.11774 67.7506 6.7873 67.7506 6.45776C67.7506 6.07288 67.8058 5.71522 67.9458 5.38586C68.0866 5.05543 68.254 4.75329 68.5063 4.53353C68.73 4.28566 69.0097 4.09331 69.3456 3.9563C69.6816 3.81839 70.046 3.76395 70.438 3.76395C70.774 3.76395 71.1099 3.81839 71.4459 3.9563C71.7818 4.09331 72.034 4.28566 72.2576 4.56076L71.6695 4.97286Z" fill="black"/>
<path d="M72.8733 7.25514C72.8733 7.00727 72.9293 6.78751 73.0132 6.56794C73.1254 6.34836 73.2379 6.15601 73.4053 6.01793C73.5737 5.85262 73.7698 5.71561 73.9932 5.63305C74.2169 5.52326 74.4692 5.46774 74.7214 5.46774C74.9735 5.46774 75.2248 5.52308 75.4493 5.63305C75.673 5.71561 75.8691 5.85262 76.0374 6.01793C76.2048 6.15583 76.3171 6.34836 76.4285 6.56794C76.5132 6.78769 76.5684 7.00727 76.5684 7.25514C76.5684 7.53005 76.5132 7.74963 76.4285 7.96938C76.3171 8.19003 76.2048 8.38238 76.0374 8.54662C75.8689 8.6847 75.673 8.82171 75.4493 8.90428C75.2248 9.01406 74.9735 9.04218 74.7214 9.04218C74.4692 9.04218 74.2169 9.01406 73.9932 8.90428C73.7698 8.82171 73.5737 8.6847 73.4053 8.54662C73.2379 8.38238 73.1254 8.19003 73.0132 7.96938C72.9293 7.74963 72.8733 7.53005 72.8733 7.25514ZM73.5737 7.25514C73.5737 7.44749 73.6014 7.61262 73.6575 7.74963C73.7137 7.88771 73.7975 8.02472 73.8811 8.10729C73.9934 8.21707 74.1057 8.29964 74.2456 8.35409C74.3856 8.40943 74.553 8.46495 74.7214 8.46495C74.8888 8.46495 75.0573 8.40961 75.1974 8.35409C75.3372 8.29964 75.4495 8.21707 75.5609 8.10729C75.6456 8.02472 75.7294 7.88771 75.7854 7.74963C75.8417 7.61262 75.8693 7.44749 75.8693 7.25514C75.8693 7.08983 75.8417 6.9256 75.7854 6.78751C75.7294 6.6505 75.6456 6.5126 75.5609 6.42986C75.4495 6.32007 75.3372 6.23751 75.1974 6.18306C75.0573 6.10049 74.889 6.07327 74.7214 6.07327C74.553 6.07327 74.3856 6.10067 74.2456 6.18306C74.1057 6.23751 73.9934 6.32007 73.8811 6.42986C73.7973 6.5126 73.7137 6.6505 73.6575 6.78751C73.6014 6.9256 73.5737 7.08983 73.5737 7.25514Z" fill="black"/>
<path d="M80.8527 8.95954H80.2085V8.4921H80.181C80.0685 8.6574 79.8726 8.79441 79.6489 8.9042C79.453 9.01399 79.2007 9.04211 78.9772 9.04211C78.7251 9.04211 78.4728 9.01399 78.2491 8.93143C78.0245 8.82164 77.8571 8.71168 77.6886 8.54655C77.5487 8.38231 77.4364 8.18978 77.3526 7.96913C77.2688 7.74956 77.2128 7.5298 77.2128 7.25489C77.2128 7.00702 77.2688 6.78726 77.3526 6.56786C77.4364 6.34811 77.5487 6.15576 77.6886 5.99045C77.8571 5.82533 78.0245 5.71554 78.2491 5.60557C78.4728 5.52301 78.7251 5.46767 78.9772 5.46767C79.2285 5.46767 79.453 5.52301 79.6767 5.63298C79.9002 5.74276 80.0687 5.88084 80.181 6.0449H80.2085V3.54326L80.8527 3.54344V8.95954ZM79.0608 8.46487C79.2283 8.46487 79.3968 8.40953 79.5367 8.35402C79.6767 8.29957 79.7888 8.217 79.9002 8.10721C79.9849 8.02465 80.0687 7.88764 80.1249 7.74956C80.181 7.61255 80.2087 7.44742 80.2087 7.25507C80.2087 7.08976 80.181 6.92552 80.1249 6.78744C80.0687 6.65043 79.9849 6.51252 79.9002 6.42978C79.789 6.31999 79.6767 6.23743 79.5367 6.18298C79.3968 6.10042 79.2285 6.0732 79.0608 6.0732C78.8923 6.0732 78.7249 6.1006 78.585 6.18298C78.445 6.23743 78.3329 6.31999 78.2204 6.42978C78.1366 6.51252 78.053 6.65043 77.997 6.78744C77.9407 6.92552 77.9131 7.08976 77.9131 7.25507C77.9131 7.44742 77.9407 7.61255 77.997 7.74956C78.053 7.88764 78.1368 8.02465 78.2204 8.10721C78.3329 8.217 78.4452 8.29957 78.585 8.35402C78.7249 8.40936 78.8923 8.46487 79.0608 8.46487Z" fill="black"/>
<path d="M82.3361 7.50265C82.3361 7.63984 82.3923 7.77686 82.4475 7.91476C82.5036 8.02455 82.5882 8.13451 82.6996 8.21708C82.8119 8.29964 82.9518 8.3822 83.0916 8.43665C83.2317 8.46494 83.3715 8.49199 83.5114 8.49199C83.736 8.49199 83.9034 8.43665 84.0433 8.35409C84.2118 8.27242 84.3516 8.13451 84.4639 7.99732L84.9673 8.35409C84.6038 8.82153 84.0995 9.04218 83.4276 9.04218C83.1479 9.04218 82.9242 9.01406 82.6996 8.93132C82.476 8.82153 82.2799 8.71175 82.1116 8.54644C81.9715 8.3822 81.8603 8.18985 81.7756 7.96921C81.6918 7.74945 81.6357 7.52988 81.6357 7.25496C81.6357 7.00709 81.6918 6.78733 81.7756 6.56776C81.8603 6.34818 82.0003 6.15583 82.1678 5.99053C82.3076 5.82522 82.5035 5.71561 82.7283 5.60565C82.9518 5.52308 83.1754 5.46774 83.4278 5.46774C83.736 5.46774 84.0158 5.52308 84.2119 5.63287C84.4354 5.74266 84.6039 5.88074 84.7438 6.04498C84.8838 6.21028 84.9675 6.40263 85.0235 6.62221C85.1073 6.84285 85.136 7.06243 85.136 7.28219V7.50265H82.3361ZM84.4354 6.97987C84.4078 6.84285 84.4079 6.70477 84.3516 6.59498C84.324 6.4852 84.2393 6.37523 84.1557 6.29267C84.0719 6.18288 83.9872 6.12754 83.8473 6.07309C83.736 6.01775 83.5961 5.99035 83.4276 5.99035C83.2601 5.99035 83.1203 6.01775 82.9794 6.10013C82.8395 6.15547 82.7281 6.23715 82.6434 6.31989C82.5596 6.40245 82.476 6.51224 82.4199 6.65032C82.3637 6.76011 82.3361 6.8699 82.3361 6.97969L84.4354 6.97987Z" fill="black"/>
<path d="M88.2717 7.91473C88.3829 8.08003 88.5514 8.21704 88.7475 8.32683C88.9436 8.4094 89.1673 8.46474 89.3632 8.46474C89.4756 8.46474 89.6153 8.43662 89.7267 8.40939C89.8391 8.35406 89.9514 8.29961 90.0626 8.24409C90.1473 8.16153 90.2311 8.08003 90.2874 7.96917C90.3712 7.85939 90.3986 7.74942 90.3986 7.61241C90.3986 7.42006 90.3434 7.25493 90.2027 7.14496C90.0913 7.0624 89.923 6.97966 89.7267 6.89709C89.5592 6.81453 89.3347 6.76008 89.111 6.70474C88.8875 6.62218 88.6914 6.5405 88.4954 6.42965C88.3268 6.31986 88.1594 6.15562 88.0471 5.96327C87.9073 5.77092 87.8512 5.52305 87.8512 5.16539C87.8512 5.02838 87.8797 4.86307 87.9359 4.69795C88.0197 4.53371 88.1033 4.39563 88.2432 4.25861C88.3832 4.09331 88.5792 3.98352 88.8039 3.90096C89.0274 3.79117 89.2797 3.76395 89.587 3.76395C89.8952 3.76395 90.1475 3.79117 90.3988 3.87373C90.6795 3.9563 90.9032 4.09331 91.0991 4.34118L90.511 4.83585C90.4272 4.72606 90.3151 4.6161 90.1475 4.53353C89.979 4.45097 89.8116 4.39563 89.587 4.39563C89.3909 4.39563 89.2511 4.42374 89.111 4.47819C88.9712 4.53353 88.8875 4.58798 88.8037 4.67054C88.719 4.75329 88.6628 4.83585 88.6352 4.91841C88.6076 5.0282 88.579 5.11077 88.579 5.16522C88.579 5.38586 88.6628 5.5501 88.7751 5.68818C88.9149 5.79796 89.0548 5.88053 89.2509 5.96309C89.447 6.01754 89.6431 6.1001 89.8665 6.15544C90.0913 6.20989 90.2872 6.29264 90.4833 6.3752C90.6794 6.48499 90.8192 6.622 90.9593 6.81453C91.0705 6.97966 91.1267 7.22753 91.1267 7.52967C91.1267 7.77647 91.099 7.99729 90.9867 8.18964C90.9029 8.38199 90.763 8.54641 90.6231 8.68431C90.4546 8.82133 90.2587 8.93111 90.0351 8.98663C89.8391 9.0692 89.5868 9.09642 89.3347 9.09642C88.9987 9.09642 88.6914 9.04197 88.4115 8.93111C88.1033 8.82132 87.8797 8.6288 87.6836 8.382L88.2717 7.91473Z" fill="black"/>
<path d="M93.8701 6.1277H92.9183V7.66705C92.9183 7.77684 92.9183 7.8594 92.9183 7.94214C92.947 8.05193 92.947 8.1345 92.9746 8.21706C93.0308 8.2724 93.0584 8.32685 93.142 8.38236C93.1982 8.43681 93.2829 8.46493 93.4228 8.46493C93.5066 8.46493 93.5902 8.43681 93.674 8.43681C93.7587 8.40941 93.815 8.38237 93.8988 8.35407V8.93148C93.815 8.98682 93.7027 9.01423 93.5904 9.04234C93.4504 9.04234 93.3667 9.04234 93.3107 9.04234C93.0308 9.04234 92.8347 9.01423 92.7226 8.95978C92.5826 8.87704 92.4705 8.79447 92.4151 8.68468C92.3304 8.5749 92.3029 8.43681 92.2744 8.2998C92.2744 8.1619 92.2744 8.02489 92.2744 7.8877V6.1277H91.5187V5.57858H92.2742V4.61629H92.9183V5.57858H93.8701V6.1277Z" fill="black"/>
<path d="M94.738 5.99053C94.9065 5.8254 95.1301 5.68839 95.3823 5.60565C95.6058 5.52308 95.8581 5.46774 96.1102 5.46774C96.3624 5.46774 96.586 5.52308 96.7535 5.5786C96.9496 5.63305 97.0905 5.71561 97.2019 5.8254C97.3142 5.93519 97.4265 6.04498 97.4777 6.18306C97.5072 6.32007 97.5368 6.45797 97.5368 6.62239V8.35409C97.5368 8.46495 97.5663 8.57474 97.5663 8.6847C97.5663 8.79431 97.5663 8.87705 97.5959 8.95962H97.0058C96.978 8.79431 96.978 8.62918 96.978 8.46495H96.9498C96.8097 8.6847 96.6423 8.82171 96.4464 8.9315C96.2503 9.01406 95.9981 9.04218 95.746 9.04218C95.5786 9.04218 95.4385 9.04218 95.2987 8.98684C95.1302 8.95962 95.0189 8.87705 94.9067 8.79449C94.7944 8.71192 94.7106 8.60214 94.6545 8.46512C94.5707 8.35427 94.5422 8.19003 94.5422 8.0249C94.5422 7.80515 94.5983 7.64002 94.7106 7.47472C94.7944 7.3377 94.9342 7.19962 95.1027 7.11795C95.2702 7.03538 95.4947 6.95282 95.7184 6.9256C95.9421 6.87026 96.1942 6.87025 96.4464 6.87025L96.9496 6.87008V6.70495C96.9496 6.62239 96.922 6.54071 96.8944 6.45815C96.8659 6.37541 96.8097 6.29285 96.7259 6.21028C96.6699 6.15583 96.586 6.10049 96.4738 6.04498C96.3626 6.01775 96.2503 5.99053 96.1102 5.99053C95.998 5.99053 95.8867 6.01793 95.7743 6.04498C95.6905 6.04498 95.6058 6.10031 95.5222 6.12772C95.4383 6.15583 95.3823 6.21028 95.2987 6.23751C95.2424 6.29285 95.1862 6.34818 95.1301 6.37541L94.738 5.99053ZM96.586 7.3377C96.4177 7.3377 96.2779 7.3377 96.1102 7.36493C95.9417 7.36493 95.802 7.42027 95.662 7.44749C95.5221 7.50283 95.4099 7.55728 95.3261 7.66724C95.2423 7.74981 95.2138 7.8596 95.2138 7.99768C95.2138 8.19003 95.27 8.32704 95.4097 8.40978C95.5497 8.49235 95.7181 8.5468 95.9417 8.5468C96.1376 8.5468 96.2777 8.51957 96.4175 8.43701C96.5298 8.38256 96.6421 8.3 96.7259 8.21726C96.8095 8.10765 96.8658 8.0249 96.8944 7.88789C96.922 7.77703 96.9494 7.66724 96.9494 7.55746V7.3377H96.586Z" fill="black"/>
<path d="M98.5217 5.57842H99.162V6.10031H99.1917C99.2703 5.90796 99.4182 5.77095 99.6054 5.66009C99.8024 5.52308 100.059 5.46774 100.305 5.46774C100.482 5.46774 100.65 5.49586 100.817 5.5503C100.955 5.60564 101.093 5.68821 101.201 5.79817C101.32 5.88074 101.398 6.01775 101.487 6.18306C101.546 6.34836 101.566 6.56794 101.566 6.78751V8.95962H100.926V6.95264C100.926 6.78751 100.896 6.67772 100.837 6.54071C100.817 6.42986 100.758 6.34836 100.669 6.29284C100.62 6.21028 100.531 6.15583 100.423 6.12754C100.334 6.10031 100.226 6.07309 100.137 6.07309C99.9995 6.07309 99.8616 6.10049 99.7532 6.15583C99.6349 6.18306 99.5265 6.26562 99.4379 6.34818C99.3591 6.45797 99.3 6.56776 99.241 6.70477C99.1917 6.84286 99.1621 7.00709 99.1621 7.22774V8.95962L98.5217 8.95944V5.57842Z" fill="black"/>
<path d="M106.048 8.95972H105.378V8.4921C105.24 8.6574 105.073 8.79441 104.846 8.9042C104.62 9.01399 104.393 9.04211 104.176 9.04211C103.891 9.04211 103.664 9.01399 103.447 8.93143C103.221 8.82164 103.024 8.71168 102.886 8.54655C102.719 8.38231 102.61 8.18978 102.521 7.96913C102.433 7.74956 102.413 7.5298 102.413 7.25489C102.413 7.00702 102.433 6.78726 102.521 6.56786C102.61 6.34811 102.719 6.15576 102.886 5.99045C103.024 5.82533 103.221 5.71554 103.447 5.60557C103.664 5.52301 103.891 5.46767 104.176 5.46767C104.423 5.46767 104.649 5.52301 104.876 5.63298C105.093 5.74276 105.26 5.88084 105.378 6.0449V3.54326L106.048 3.54344V8.95972ZM104.255 8.46487C104.423 8.46487 104.59 8.40953 104.728 8.35402C104.876 8.29957 104.984 8.217 105.073 8.10721C105.181 8.02465 105.26 7.88764 105.289 7.74956C105.349 7.61255 105.378 7.44742 105.378 7.25507C105.378 7.08976 105.349 6.92552 105.289 6.78744C105.26 6.65043 105.181 6.51252 105.073 6.42978C104.984 6.31999 104.876 6.23743 104.728 6.18298C104.59 6.10042 104.423 6.0732 104.255 6.0732C104.058 6.0732 103.92 6.1006 103.782 6.18298C103.644 6.23743 103.497 6.31999 103.418 6.42978C103.309 6.51252 103.25 6.65043 103.191 6.78744C103.132 6.92552 103.112 7.08976 103.112 7.25507C103.112 7.44742 103.132 7.61255 103.191 7.74956C103.25 7.88764 103.309 8.02465 103.418 8.10721C103.497 8.217 103.644 8.29957 103.782 8.35402C103.92 8.40936 104.058 8.46487 104.255 8.46487Z" fill="black"/>
<path d="M107.053 5.99053C107.25 5.8254 107.447 5.68839 107.703 5.60565C107.949 5.52308 108.176 5.46774 108.432 5.46774C108.678 5.46774 108.905 5.52308 109.072 5.5786C109.269 5.63305 109.407 5.71561 109.515 5.8254C109.663 5.93519 109.742 6.04498 109.801 6.18306C109.86 6.32007 109.88 6.45797 109.88 6.62239V8.35409C109.88 8.46495 109.88 8.57474 109.88 8.6847C109.88 8.79431 109.88 8.87705 109.909 8.95962L109.328 8.95979C109.299 8.79449 109.299 8.62918 109.299 8.46512C109.132 8.6847 108.964 8.82171 108.767 8.9315C108.57 9.01424 108.343 9.04236 108.068 9.04236C107.9 9.04236 107.752 9.04236 107.614 8.98702C107.476 8.95979 107.339 8.87723 107.22 8.79467C107.112 8.71192 107.033 8.60231 106.974 8.46512C106.915 8.35445 106.856 8.19021 106.856 8.0249C106.856 7.80533 106.915 7.64002 107.033 7.47489C107.112 7.3377 107.25 7.1998 107.417 7.11813C107.614 7.03556 107.812 6.95282 108.038 6.92577C108.265 6.87043 108.511 6.87043 108.797 6.87043L109.269 6.87008V6.70495C109.269 6.62239 109.24 6.54071 109.21 6.45815C109.181 6.37541 109.131 6.29285 109.043 6.21028C108.984 6.15583 108.905 6.10049 108.797 6.04498C108.708 6.01775 108.57 5.99053 108.432 5.99053C108.314 5.99053 108.206 6.01793 108.097 6.04498C108.009 6.04498 107.92 6.10031 107.841 6.12772C107.752 6.15583 107.703 6.21028 107.644 6.23733C107.565 6.29285 107.506 6.34818 107.447 6.37541L107.053 5.99053ZM108.905 7.3377C108.767 7.3377 108.599 7.3377 108.432 7.36493C108.265 7.36493 108.117 7.42027 107.979 7.44749C107.841 7.50283 107.752 7.55728 107.644 7.66724C107.565 7.74981 107.536 7.8596 107.536 7.99768C107.536 8.19003 107.585 8.32704 107.733 8.40978C107.871 8.49235 108.038 8.5468 108.284 8.5468C108.452 8.5468 108.599 8.51957 108.737 8.43701C108.875 8.38256 108.964 8.3 109.043 8.21726C109.131 8.10765 109.181 8.0249 109.21 7.88789C109.24 7.77703 109.269 7.66724 109.269 7.55746V7.3377H108.905Z" fill="black"/>
<path d="M110.836 5.57842H111.476V6.10031H111.506C111.535 5.99052 111.624 5.90796 111.673 5.85244C111.762 5.77077 111.84 5.71543 111.929 5.66009C112.008 5.60564 112.126 5.5503 112.235 5.52308C112.323 5.49568 112.432 5.46774 112.54 5.46774C112.658 5.46774 112.737 5.49585 112.826 5.52308L112.796 6.2101C112.737 6.2101 112.707 6.18288 112.658 6.18288C112.599 6.18288 112.54 6.18288 112.491 6.18288C112.156 6.18288 111.929 6.26544 111.762 6.42968C111.565 6.62203 111.476 6.89712 111.476 7.25478V8.95944L110.836 8.95962V5.57842Z" fill="black"/>
<path d="M55.4879 12.5058H57.3073C57.6433 12.5058 57.9241 12.533 58.1191 12.6428C58.3438 12.7254 58.5113 12.8352 58.6235 12.9727C58.7634 13.1101 58.8472 13.2476 58.9033 13.44C58.9319 13.6049 58.9593 13.7699 58.9593 13.9348C58.9593 14.0722 58.9319 14.2371 58.9033 14.4023C58.8472 14.5946 58.7634 14.732 58.6234 14.8695C58.5113 15.0071 58.3436 15.1169 58.1191 15.1994C57.9241 15.3092 57.6433 15.3368 57.3073 15.3368H56.1883V17.5909H55.4879V12.5058ZM56.1883 14.732H57.1114C57.2513 14.732 57.3922 14.732 57.5034 14.7044C57.6435 14.677 57.7556 14.6494 57.868 14.5946C57.9792 14.5396 58.0639 14.4571 58.1191 14.3473C58.1753 14.2373 58.2316 14.0998 58.2316 13.9348C58.2316 13.7425 58.1753 13.6049 58.1191 13.495C58.0641 13.385 57.9792 13.3026 57.868 13.2476C57.7556 13.1925 57.6433 13.1651 57.5034 13.1375C57.3922 13.1101 57.2513 13.1101 57.1114 13.1101H56.1883V14.732Z" fill="black"/>
<path d="M60.1633 16.1065C60.1633 16.2715 60.1908 16.4088 60.2471 16.519C60.3031 16.6563 60.3869 16.7387 60.4992 16.8489C60.6115 16.9312 60.7513 16.9862 60.8912 17.0412C61.0312 17.0962 61.1711 17.0962 61.311 17.0962C61.5357 17.0962 61.7031 17.0686 61.8428 16.9588C62.0113 16.8763 62.1512 16.7389 62.2626 16.6013L62.7669 16.9586C62.4035 17.4259 61.899 17.6734 61.2271 17.6734C60.9474 17.6734 60.7229 17.6184 60.4992 17.5361C60.2755 17.4535 60.0794 17.3161 59.9396 17.1512C59.7712 16.9862 59.6599 16.7937 59.5752 16.5738C59.4914 16.3814 59.4353 16.1341 59.4353 15.8866C59.4353 15.6392 59.4914 15.3919 59.5752 15.172C59.6599 14.952 59.7999 14.7595 59.9673 14.5947C60.1072 14.4572 60.3031 14.3198 60.5268 14.2372C60.7515 14.1273 60.975 14.0997 61.2271 14.0997C61.5355 14.0997 61.8152 14.1547 62.0113 14.2647C62.235 14.3472 62.4035 14.4846 62.5434 14.6771C62.6832 14.8419 62.7669 15.0344 62.8231 15.2268C62.9069 15.4467 62.9354 15.6666 62.9354 15.8866V16.1065H60.1633ZM62.235 15.6117C62.2074 15.4467 62.2074 15.3367 62.1512 15.1994C62.1227 15.0894 62.0389 14.9794 61.9827 14.8969C61.899 14.8145 61.7868 14.7319 61.6467 14.6769C61.5355 14.622 61.3946 14.622 61.2271 14.622C61.0586 14.622 60.919 14.6494 60.7789 14.7043C60.6391 14.7595 60.5268 14.8419 60.443 14.9244C60.3592 15.0342 60.2755 15.1444 60.2195 15.2542C60.1632 15.3641 60.1633 15.4743 60.1633 15.6117H62.235Z" fill="black"/>
<path d="M63.7185 14.1821H64.3342V14.7043C64.3628 14.6494 64.3904 14.5946 64.4465 14.5396C64.5303 14.457 64.5865 14.4022 64.6988 14.3196C64.7824 14.2646 64.8947 14.2098 65.0345 14.1547C65.147 14.1273 65.2867 14.0997 65.4543 14.0997C65.7064 14.0997 65.9301 14.1547 66.0986 14.2647C66.2945 14.3472 66.4344 14.512 66.5468 14.7321C66.6581 14.5122 66.7981 14.3472 67.0227 14.2647C67.2186 14.1547 67.4148 14.0997 67.6383 14.0997C67.8905 14.0997 68.1141 14.1273 68.2826 14.2098C68.4501 14.3196 68.5899 14.4296 68.7022 14.5671C68.786 14.7045 68.8697 14.8695 68.8983 15.0344C68.9259 15.2268 68.9544 15.4193 68.9544 15.6117V17.5909H68.2826V15.694C68.2826 15.5567 68.2826 15.4193 68.254 15.3092C68.254 15.1994 68.2264 15.0894 68.1702 15.0068C68.1141 14.8969 68.0303 14.8419 67.9456 14.7869C67.8344 14.7319 67.6944 14.7043 67.5545 14.7043C67.2186 14.7043 66.994 14.7869 66.8541 14.9793C66.7419 15.1718 66.6582 15.4193 66.6582 15.7216V17.5909H66.0148V15.8042C66.0148 15.6392 65.9863 15.5017 65.9863 15.3643C65.9588 15.2268 65.9301 15.117 65.8741 15.007C65.8189 14.8969 65.7627 14.8419 65.6504 14.7871C65.5666 14.7321 65.4269 14.7045 65.2869 14.7045C65.147 14.7045 65.0347 14.7321 64.9224 14.7595C64.8111 14.8145 64.7264 14.8695 64.6427 14.9794C64.5589 15.0618 64.5027 15.1718 64.4465 15.3092C64.3904 15.4467 64.3628 15.6117 64.3628 15.804V17.5909H63.7185V14.1821Z" fill="black"/>
<path d="M69.9337 12.1483H70.6054V14.6773C70.7455 14.4848 70.9138 14.3474 71.1099 14.2375C71.3336 14.1549 71.5857 14.0999 71.8094 14.0999C72.0891 14.0999 72.3412 14.1275 72.5373 14.2375C72.7621 14.3198 72.9571 14.4574 73.098 14.5949C73.2654 14.7597 73.3777 14.9522 73.4615 15.1722C73.5453 15.3921 73.5738 15.6394 73.5738 15.8868C73.5738 16.1343 73.5453 16.3816 73.4615 16.574C73.3775 16.7939 73.2653 16.9864 73.0978 17.1514C72.9569 17.3163 72.7619 17.4537 72.5373 17.5361C72.3412 17.6186 72.0891 17.6736 71.8094 17.6736C71.5857 17.6736 71.3622 17.6186 71.1375 17.5087C70.914 17.4263 70.7455 17.2889 70.6056 17.0964V17.5911H69.9337V12.1483ZM71.7531 17.0688C71.9216 17.0688 72.0891 17.0414 72.23 16.9864C72.3699 16.904 72.4813 16.8215 72.566 16.7389C72.6772 16.629 72.7619 16.4916 72.7895 16.354C72.8457 16.2167 72.8733 16.0517 72.8733 15.8868C72.8733 15.7218 72.8457 15.5569 72.7895 15.3919C72.7619 15.2544 72.6772 15.1446 72.566 15.0344C72.4813 14.9245 72.3699 14.8421 72.23 14.7869C72.0891 14.7319 71.9216 14.7045 71.7531 14.7045C71.5581 14.7045 71.4174 14.7319 71.2773 14.7869C71.1375 14.8421 70.9976 14.9247 70.9138 15.0344C70.8015 15.1446 70.7455 15.2544 70.6901 15.3921C70.6341 15.5569 70.6054 15.7218 70.6054 15.8868C70.6054 16.0517 70.6341 16.2167 70.6901 16.3542C70.7453 16.4916 70.8015 16.6291 70.9138 16.7391C70.9976 16.8215 71.1375 16.904 71.2773 16.9864C71.4174 17.0414 71.5581 17.069 71.7531 17.069V17.0688Z" fill="black"/>
<path d="M74.413 14.5946C74.6091 14.4296 74.8336 14.2922 75.0573 14.2097C75.3094 14.1271 75.5607 14.0997 75.8128 14.0997C76.065 14.0997 76.261 14.1271 76.4571 14.1821C76.6246 14.2371 76.7931 14.3195 76.9054 14.4296C77.0166 14.5394 77.1004 14.6769 77.1566 14.7869C77.2127 14.9243 77.2413 15.0894 77.2413 15.2268V16.9586C77.2413 17.096 77.2413 17.206 77.2413 17.2885C77.2689 17.3985 77.2689 17.4809 77.2689 17.5909H76.6806C76.6806 17.3985 76.6806 17.2336 76.6806 17.0686H76.6532C76.5132 17.2885 76.3449 17.4535 76.1488 17.5359C75.9251 17.6184 75.7016 17.6734 75.4493 17.6734C75.2808 17.6734 75.1133 17.646 74.9735 17.5909C74.8334 17.5635 74.6927 17.5085 74.6091 17.3985C74.4977 17.3161 74.413 17.2062 74.3292 17.0962C74.2731 16.9588 74.2454 16.8213 74.2454 16.6563C74.2454 16.4364 74.3016 16.2439 74.3854 16.1065C74.4977 15.9416 74.6375 15.8316 74.8052 15.7216C74.9735 15.639 75.1696 15.5842 75.4208 15.5293C75.6454 15.5017 75.8966 15.4743 76.1488 15.4743H76.6246V15.3369C76.6246 15.2544 76.6246 15.1444 76.5684 15.062C76.5408 14.9796 76.4845 14.897 76.4285 14.8421C76.3733 14.7597 76.261 14.7047 76.1772 14.6771C76.065 14.6223 75.9525 14.6223 75.8128 14.6223C75.6728 14.6223 75.5607 14.6223 75.4769 14.6497C75.3646 14.6769 75.2808 14.7043 75.2247 14.7319C75.1409 14.7595 75.0573 14.8145 75.0011 14.8695C74.9448 14.8969 74.8888 14.9519 74.8052 15.007L74.413 14.5946ZM76.2886 15.9416C76.1212 15.9416 75.9527 15.9415 75.8128 15.9691C75.6454 15.9965 75.5055 16.0239 75.3646 16.0789C75.2247 16.1065 75.1133 16.1889 75.0286 16.2714C74.9448 16.3538 74.8888 16.4638 74.8888 16.6013C74.8888 16.7937 74.9735 16.9312 75.1135 17.0136C75.2247 17.0962 75.4208 17.1512 75.6454 17.1512C75.8128 17.1512 75.9813 17.1236 76.0925 17.0686C76.2326 17.0136 76.3449 16.9312 76.4009 16.8213C76.4847 16.7389 76.5409 16.6289 76.5684 16.519C76.6246 16.3814 76.6246 16.2714 76.6246 16.1615V15.9416H76.2886Z" fill="black"/>
<path d="M77.8007 14.1822H78.5564L79.5927 16.8488L80.5719 14.1822H81.2722L79.6487 18.3058C79.5927 18.4707 79.508 18.6083 79.4526 18.7181C79.3966 18.8282 79.313 18.938 79.2283 19.0206C79.1445 19.1305 79.032 19.1855 78.9208 19.2405C78.7809 19.2681 78.64 19.2955 78.445 19.2955C78.3603 19.2955 78.2489 19.2955 78.1642 19.2955C78.0528 19.2681 77.9681 19.2405 77.8843 19.2131L77.9681 18.6357C78.0804 18.6633 78.2204 18.6909 78.3603 18.6909C78.445 18.6909 78.5288 18.6909 78.6124 18.6633C78.6685 18.6357 78.7247 18.6083 78.7809 18.5533C78.8359 18.4983 78.8921 18.4433 78.9208 18.361C78.9484 18.306 78.977 18.2234 79.0046 18.141L79.2283 17.5912L77.8007 14.1822Z" fill="black"/>
<path d="M81.8605 14.5946C82.0564 14.4296 82.2803 14.2922 82.5038 14.2097C82.7559 14.1271 83.0082 14.0997 83.2604 14.0997C83.5116 14.0997 83.7075 14.1271 83.9036 14.1821C84.0721 14.2371 84.2396 14.3195 84.352 14.4296C84.4643 14.5394 84.5479 14.6769 84.6042 14.7869C84.6602 14.9243 84.6878 15.0894 84.6878 15.2268V16.9586C84.6878 17.096 84.6878 17.206 84.7156 17.2885C84.7156 17.3985 84.7156 17.4809 84.7156 17.5909H84.1284C84.1284 17.3985 84.1284 17.2336 84.1284 17.0686H84.0999C83.9599 17.2885 83.7924 17.4535 83.5963 17.5359C83.3718 17.6184 83.1481 17.6734 82.896 17.6734C82.7285 17.6734 82.56 17.646 82.4201 17.5909C82.2801 17.5635 82.168 17.5085 82.0564 17.3985C81.9442 17.3161 81.8605 17.2062 81.7757 17.0962C81.7207 16.9588 81.692 16.8213 81.692 16.6563C81.692 16.4364 81.7481 16.2439 81.8319 16.1065C81.9442 15.9416 82.084 15.8316 82.2525 15.7216C82.42 15.639 82.6161 15.5842 82.8682 15.5293C83.0919 15.5017 83.344 15.4743 83.5961 15.4743H84.0721V15.3369C84.0721 15.2544 84.0721 15.1444 84.0161 15.062C83.9874 14.9796 83.9323 14.897 83.876 14.8421C83.82 14.7597 83.7075 14.7047 83.6239 14.6771C83.5116 14.6223 83.4004 14.6223 83.2604 14.6223C83.1205 14.6223 83.0082 14.6223 82.9244 14.6497C82.8397 14.6769 82.7285 14.7043 82.6723 14.7319C82.5885 14.7595 82.5038 14.8145 82.4477 14.8695C82.3926 14.8969 82.3363 14.9519 82.2803 15.007L81.8605 14.5946ZM83.7362 15.9416C83.5678 15.9416 83.4004 15.9415 83.2604 15.9691C83.092 15.9965 82.952 16.0239 82.8121 16.0789C82.6723 16.1065 82.56 16.1889 82.4762 16.2714C82.3926 16.3538 82.3363 16.4638 82.3363 16.6013C82.3363 16.7937 82.4201 16.9312 82.56 17.0136C82.6723 17.0962 82.8684 17.1512 83.0919 17.1512C83.2879 17.1512 83.4278 17.1236 83.5678 17.0686C83.6801 17.0136 83.7924 16.9312 83.8476 16.8213C83.9323 16.7389 83.9874 16.6289 84.0161 16.519C84.0721 16.3814 84.0721 16.2714 84.0721 16.1615V15.9416H83.7362Z" fill="black"/>
<path d="M85.6394 14.1821H86.3113V14.7043C86.3675 14.622 86.4236 14.5396 86.5074 14.457C86.5634 14.3746 86.6472 14.3196 86.7319 14.2647C86.8432 14.2098 86.927 14.1823 87.0394 14.1273C87.1517 14.0997 87.2629 14.0997 87.3752 14.0997C87.459 14.0997 87.5713 14.0997 87.6551 14.1273L87.6273 14.8419C87.5713 14.8145 87.5151 14.8145 87.459 14.7871C87.4038 14.7871 87.3476 14.7871 87.2916 14.7871C86.9832 14.7871 86.7319 14.8695 86.5634 15.0344C86.396 15.2268 86.3113 15.5019 86.3113 15.8867V17.5909H85.6394V14.1821Z" fill="black"/>
<path d="M88.383 14.5946C88.5515 14.4296 88.775 14.2922 89.0273 14.2097C89.2508 14.1271 89.5031 14.0997 89.7552 14.0997C90.0074 14.0997 90.2024 14.1271 90.3985 14.1821C90.5946 14.2371 90.7344 14.3196 90.8467 14.4296C90.9592 14.5396 91.0428 14.6769 91.0989 14.7869C91.1551 14.9244 91.1827 15.0894 91.1827 15.2268V16.9586C91.1827 17.096 91.1827 17.206 91.2113 17.2885C91.2113 17.3985 91.2113 17.4809 91.2113 17.5909H90.6506C90.6231 17.3985 90.623 17.2336 90.623 17.0686H90.5946C90.4547 17.2885 90.2873 17.4535 90.0912 17.5361C89.8951 17.6184 89.643 17.6734 89.3908 17.6734C89.2234 17.6734 89.0833 17.646 88.9148 17.5909C88.775 17.5635 88.6627 17.5085 88.5513 17.3985C88.439 17.3161 88.3554 17.2062 88.2716 17.0962C88.2154 16.9588 88.1869 16.8213 88.1869 16.6563C88.1869 16.4364 88.2431 16.2439 88.3267 16.1065C88.4392 15.9416 88.5789 15.8316 88.7474 15.7216C88.9148 15.639 89.1109 15.5842 89.3631 15.5293C89.5867 15.5017 89.8391 15.4743 90.0912 15.4743H90.567V15.3369C90.567 15.2544 90.567 15.1444 90.5394 15.062C90.4832 14.9796 90.4547 14.897 90.3709 14.8421C90.3147 14.7597 90.231 14.7047 90.1188 14.6771C90.0076 14.6223 89.8951 14.6223 89.7552 14.6223C89.6152 14.6223 89.5031 14.6223 89.4193 14.6497C89.3346 14.6769 89.2508 14.7043 89.1672 14.7319C89.0833 14.7595 88.9986 14.8145 88.9435 14.8695C88.8874 14.8969 88.8312 14.9519 88.775 15.007L88.383 14.5946ZM90.231 15.9416C90.0625 15.9416 89.9229 15.9415 89.7552 15.9691C89.5867 15.9965 89.4469 16.0239 89.307 16.0789C89.1671 16.1065 89.0549 16.1889 88.9711 16.2714C88.8874 16.3538 88.8588 16.4638 88.8588 16.6013C88.8588 16.7937 88.9148 16.9312 89.0547 17.0136C89.1947 17.0962 89.3631 17.1512 89.5866 17.1512C89.7826 17.1512 89.9225 17.1236 90.0625 17.0686C90.1748 17.0136 90.2871 16.9312 90.3707 16.8213C90.427 16.7389 90.4832 16.6289 90.5392 16.519C90.5668 16.3814 90.5668 16.2714 90.5668 16.1615V15.9416H90.231Z" fill="black"/>
<path d="M92.1628 14.1821H92.8061V14.7043H92.8346C92.9184 14.512 93.0582 14.3746 93.2543 14.2645C93.4502 14.1547 93.7026 14.0997 93.9547 14.0997C94.1221 14.0997 94.2906 14.1271 94.4305 14.1547C94.5979 14.2097 94.738 14.2921 94.8503 14.402C94.9625 14.512 95.0463 14.6494 95.13 14.8145C95.1862 14.9793 95.2138 15.1718 95.2138 15.3917V17.5909H94.5704V15.5842C94.5704 15.4193 94.5419 15.2817 94.4866 15.1718C94.4581 15.0618 94.4019 14.9518 94.3182 14.8969C94.2344 14.8145 94.1508 14.7871 94.0661 14.7321C93.9823 14.7045 93.87 14.7045 93.7862 14.7045C93.6463 14.7045 93.5065 14.7045 93.3942 14.7595C93.2828 14.8145 93.1705 14.8695 93.0867 14.9519C93.002 15.0618 92.9184 15.1718 92.8908 15.3093C92.8346 15.4743 92.8061 15.6391 92.8061 15.8316V17.5909H92.1628V14.1821Z" fill="black"/>
<path d="M98.4036 12.5058H99.3296L102.186 16.6838H102.216V12.5058H102.915V17.5909H102.019L99.1326 13.4126H99.1029V17.5909H98.4036V12.5058Z" fill="black"/>
<path d="M104.088 14.5946C104.255 14.4296 104.482 14.2922 104.728 14.2097C104.955 14.1271 105.211 14.0997 105.457 14.0997C105.713 14.0997 105.94 14.1271 106.107 14.1821C106.304 14.2371 106.442 14.3195 106.55 14.4296C106.669 14.5394 106.747 14.6769 106.806 14.7869C106.856 14.9243 106.885 15.0894 106.885 15.2268L106.885 16.9588C106.885 17.0962 106.885 17.2062 106.915 17.2887C106.915 17.3985 106.915 17.4811 106.915 17.591L106.354 17.5909C106.324 17.3985 106.324 17.2336 106.324 17.0686H106.304C106.156 17.2885 105.989 17.4535 105.792 17.5361C105.605 17.6184 105.349 17.6734 105.093 17.6734C104.925 17.6734 104.787 17.646 104.62 17.5909C104.482 17.5635 104.373 17.5085 104.255 17.3985C104.147 17.3161 104.058 17.2062 104.009 17.0962C103.92 16.9588 103.891 16.8213 103.891 16.6563C103.891 16.4364 103.95 16.2439 104.029 16.1065C104.147 15.9416 104.285 15.8316 104.452 15.7216C104.62 15.639 104.817 15.5842 105.073 15.5293C105.29 15.5017 105.546 15.4743 105.792 15.4743H106.275V15.3369C106.275 15.2544 106.275 15.1444 106.245 15.062C106.186 14.9796 106.156 14.897 106.078 14.8421C106.019 14.7597 105.94 14.7047 105.822 14.6771C105.713 14.6223 105.605 14.6223 105.457 14.6223C105.319 14.6223 105.24 14.6223 105.122 14.6497C105.043 14.6771 104.955 14.7047 104.876 14.7321C104.787 14.7597 104.728 14.8147 104.649 14.8695C104.59 14.897 104.541 14.952 104.482 15.007L104.088 14.5946ZM105.94 15.9416C105.772 15.9416 105.625 15.9415 105.457 15.9691C105.29 15.9965 105.152 16.0239 105.014 16.0789C104.876 16.1065 104.758 16.1889 104.679 16.2714C104.59 16.3538 104.561 16.4638 104.561 16.6013C104.561 16.7937 104.62 16.9312 104.758 17.0136C104.905 17.0962 105.073 17.1512 105.29 17.1512C105.487 17.1512 105.625 17.1236 105.772 17.0686C105.881 17.0136 105.989 16.9312 106.078 16.8213C106.137 16.7389 106.186 16.6289 106.245 16.519C106.275 16.3814 106.275 16.2714 106.275 16.1615V15.9416H105.94Z" fill="black"/>
<path d="M109.693 15.0342C109.634 14.9244 109.516 14.8695 109.407 14.7869C109.299 14.7319 109.161 14.7043 108.984 14.7043C108.846 14.7043 108.708 14.7319 108.599 14.7869C108.481 14.8693 108.402 14.9519 108.402 15.0894C108.402 15.1718 108.452 15.2542 108.511 15.3092C108.57 15.3917 108.649 15.4191 108.737 15.4741C108.846 15.5017 108.934 15.5291 109.043 15.5567C109.131 15.5841 109.21 15.5841 109.299 15.6115C109.437 15.639 109.575 15.694 109.693 15.7214C109.831 15.7764 109.939 15.8314 110.028 15.9138C110.107 15.9962 110.195 16.0787 110.215 16.1887C110.274 16.2988 110.304 16.4362 110.304 16.6012C110.304 16.7935 110.274 16.9586 110.195 17.096C110.107 17.2334 109.998 17.3434 109.86 17.4259C109.742 17.5085 109.575 17.5633 109.407 17.6183C109.24 17.6458 109.072 17.6732 108.905 17.6732C108.629 17.6732 108.373 17.6183 108.146 17.5359C107.92 17.4535 107.733 17.2885 107.565 17.0686L108.068 16.6561C108.176 16.7661 108.284 16.8485 108.432 16.9311C108.54 17.0135 108.708 17.0684 108.905 17.0684C108.984 17.0684 109.072 17.0684 109.161 17.0409C109.24 17.0135 109.328 16.9859 109.378 16.9585C109.437 16.9311 109.496 16.8761 109.545 16.8211C109.575 16.7661 109.604 16.7111 109.604 16.6286C109.604 16.5462 109.575 16.4638 109.516 16.4088C109.466 16.3264 109.378 16.2988 109.299 16.2439C109.21 16.2165 109.131 16.1889 109.013 16.1615C108.934 16.1341 108.846 16.1341 108.767 16.1065C108.629 16.0789 108.481 16.0515 108.373 15.9965C108.235 15.9415 108.117 15.8866 108.038 15.8316C107.92 15.7492 107.87 15.6666 107.811 15.5567C107.732 15.4467 107.703 15.3093 107.703 15.1444C107.703 14.9518 107.752 14.8145 107.811 14.6769C107.9 14.5396 108.008 14.4296 108.117 14.347C108.264 14.2645 108.402 14.2097 108.54 14.1547C108.708 14.1271 108.875 14.0997 109.013 14.0997C109.269 14.0997 109.496 14.1271 109.693 14.2097C109.91 14.3195 110.077 14.457 110.215 14.6494L109.693 15.0342Z" fill="black"/>
<path d="M111.003 12.9728C111.003 12.8352 111.062 12.7253 111.141 12.6155C111.23 12.5329 111.338 12.4776 111.476 12.4776C111.624 12.4776 111.732 12.5329 111.811 12.6155C111.929 12.7253 111.959 12.8352 111.959 12.9728C111.959 13.0826 111.929 13.1925 111.811 13.3027C111.732 13.3851 111.624 13.44 111.476 13.44C111.338 13.44 111.23 13.3851 111.141 13.3027C111.062 13.1927 111.003 13.0827 111.003 12.9728ZM111.141 14.1822H111.811V17.591H111.141V14.1822Z" fill="black"/>
<path d="M112.688 15.8866C112.688 15.6392 112.737 15.3919 112.826 15.172C112.934 14.9796 113.052 14.7871 113.22 14.6221C113.387 14.4572 113.584 14.3198 113.801 14.2372C114.028 14.1273 114.284 14.0997 114.53 14.0997C114.786 14.0997 115.032 14.1273 115.259 14.2372C115.485 14.3196 115.682 14.4572 115.85 14.6221C116.017 14.7871 116.126 14.9796 116.244 15.172C116.323 15.3919 116.382 15.6392 116.382 15.8866C116.382 16.1341 116.323 16.354 116.244 16.5738C116.126 16.7937 116.017 16.9862 115.85 17.1512C115.682 17.3161 115.485 17.4261 115.259 17.5361C115.032 17.6184 114.786 17.6734 114.53 17.6734C114.284 17.6734 114.027 17.6184 113.801 17.5361C113.584 17.4261 113.387 17.3161 113.22 17.1512C113.052 16.9862 112.934 16.7937 112.826 16.5738C112.737 16.3538 112.688 16.1341 112.688 15.8866ZM113.387 15.8866C113.387 16.0515 113.407 16.2165 113.466 16.354C113.525 16.4914 113.604 16.6289 113.693 16.7389C113.801 16.8213 113.919 16.9038 114.057 16.9862C114.195 17.0412 114.362 17.0688 114.53 17.0688C114.697 17.0688 114.865 17.0412 115.003 16.9862C115.15 16.9038 115.259 16.8215 115.367 16.7389C115.456 16.6289 115.535 16.4916 115.594 16.354C115.653 16.2165 115.682 16.0517 115.682 15.8866C115.682 15.7218 115.653 15.5567 115.594 15.3919C115.535 15.2543 115.456 15.1444 115.367 15.0342C115.259 14.9244 115.15 14.8419 115.003 14.7869C114.865 14.7319 114.697 14.7043 114.53 14.7043C114.362 14.7043 114.195 14.7319 114.057 14.7869C113.919 14.8419 113.801 14.9244 113.693 15.0342C113.604 15.1444 113.525 15.2543 113.466 15.3919C113.407 15.5567 113.387 15.7216 113.387 15.8866Z" fill="black"/>
<path d="M117.19 14.1821H117.86V14.7043C117.948 14.512 118.086 14.3746 118.313 14.2645C118.51 14.1547 118.727 14.0997 119.012 14.0997C119.18 14.0997 119.347 14.1271 119.485 14.1547C119.653 14.2097 119.771 14.2921 119.909 14.402C120.017 14.512 120.106 14.6494 120.155 14.8145C120.244 14.9793 120.273 15.1718 120.273 15.3917V17.5909H119.604V15.5842C119.604 15.4193 119.604 15.2817 119.544 15.1718C119.515 15.0618 119.426 14.9518 119.377 14.8969C119.288 14.8145 119.21 14.7871 119.121 14.7321C119.012 14.7045 118.924 14.7045 118.815 14.7045C118.678 14.7045 118.559 14.7045 118.451 14.7595C118.343 14.8145 118.224 14.8695 118.145 14.9519C118.057 15.0618 117.978 15.1718 117.919 15.3093C117.889 15.4743 117.86 15.6392 117.86 15.8316L117.86 17.5909H117.19V14.1821Z" fill="black"/>
<path d="M121.278 14.5946C121.475 14.4296 121.672 14.2922 121.918 14.2097C122.174 14.1271 122.401 14.0997 122.647 14.0997C122.903 14.0997 123.13 14.1271 123.297 14.1821C123.494 14.2371 123.632 14.3195 123.77 14.4296C123.879 14.5394 123.967 14.6769 124.026 14.7869C124.076 14.9243 124.105 15.0894 124.105 15.2268L124.105 16.9588C124.105 17.0962 124.105 17.2062 124.105 17.2887C124.105 17.3985 124.105 17.4811 124.135 17.591L123.544 17.5909C123.514 17.3985 123.514 17.2336 123.514 17.0686C123.347 17.2885 123.179 17.4535 122.982 17.5361C122.795 17.6184 122.569 17.6734 122.283 17.6734C122.145 17.6734 121.978 17.646 121.84 17.5909C121.702 17.5635 121.554 17.5085 121.446 17.3985C121.337 17.3161 121.249 17.2062 121.199 17.0962C121.14 16.9588 121.081 16.8213 121.081 16.6563C121.081 16.4364 121.14 16.2439 121.248 16.1065C121.337 15.9416 121.475 15.8316 121.643 15.7216C121.84 15.639 122.037 15.5842 122.263 15.5293C122.48 15.5017 122.736 15.4743 123.012 15.4743H123.495V15.3369C123.495 15.2544 123.465 15.1444 123.436 15.062C123.406 14.9796 123.347 14.897 123.297 14.8421C123.209 14.7597 123.13 14.7047 123.012 14.6771C122.933 14.6223 122.795 14.6223 122.647 14.6223C122.539 14.6223 122.431 14.6223 122.312 14.6497C122.234 14.6771 122.145 14.7047 122.066 14.7321C121.978 14.7597 121.918 14.8147 121.869 14.8695C121.781 14.897 121.731 14.952 121.672 15.007L121.278 14.5946ZM123.13 15.9416C122.982 15.9416 122.815 15.9415 122.647 15.9691C122.48 15.9965 122.342 16.0239 122.204 16.0789C122.066 16.1065 121.978 16.1889 121.899 16.2714C121.781 16.3538 121.751 16.4638 121.751 16.6013C121.751 16.7937 121.81 16.9312 121.948 17.0136C122.086 17.0962 122.263 17.1512 122.51 17.1512C122.677 17.1512 122.844 17.1236 122.963 17.0686C123.101 17.0136 123.179 16.9312 123.268 16.8213C123.347 16.7389 123.406 16.6289 123.436 16.519C123.465 16.3814 123.495 16.2714 123.495 16.1615V15.9416H123.13Z" fill="black"/>
<path d="M125.11 17.5912H125.754V12.1483H125.11V17.5912Z" fill="black"/>
</svg>
