<svg width="24" height="25" viewBox="0 0 24 25" fill="none" xmlns="http://www.w3.org/2000/svg">
<mask id="mask0_8202_115736" style="mask-type:alpha" maskUnits="userSpaceOnUse" x="0" y="0" width="24" height="25">
<rect y="0.125" width="24" height="24" fill="#D9D9D9"/>
</mask>
<g mask="url(#mask0_8202_115736)">
<path d="M4 7.125H18V5.125H4V7.125ZM4 21.125C3.45 21.125 2.97917 20.9292 2.5875 20.5375C2.19583 20.1458 2 19.675 2 19.125V5.125C2 4.575 2.19583 4.10417 2.5875 3.7125C2.97917 3.32083 3.45 3.125 4 3.125H5V2.125C5 1.84167 5.09583 1.60417 5.2875 1.4125C5.47917 1.22083 5.71667 1.125 6 1.125C6.28333 1.125 6.52083 1.22083 6.7125 1.4125C6.90417 1.60417 7 1.84167 7 2.125V3.125H15V2.125C15 1.84167 15.0958 1.60417 15.2875 1.4125C15.4792 1.22083 15.7167 1.125 16 1.125C16.2833 1.125 16.5208 1.22083 16.7125 1.4125C16.9042 1.60417 17 1.84167 17 2.125V3.125H18C18.55 3.125 19.0208 3.32083 19.4125 3.7125C19.8042 4.10417 20 4.575 20 5.125V10.8C19.6833 10.65 19.3583 10.525 19.025 10.425C18.6917 10.325 18.35 10.25 18 10.2V9.125H4V19.125H10.3C10.4167 19.4917 10.5542 19.8417 10.7125 20.175C10.8708 20.5083 11.0583 20.825 11.275 21.125H4Z" fill="#069550"/>
<path d="M13.4625 20.6625C14.4375 21.6375 15.6167 22.125 17 22.125C18.3833 22.125 19.5625 21.6375 20.5375 20.6625C21.5125 19.6875 22 18.5083 22 17.125C22 15.7417 21.5125 14.5625 20.5375 13.5875C19.5625 12.6125 18.3833 12.125 17 12.125C15.6167 12.125 14.4375 12.6125 13.4625 13.5875C12.4875 14.5625 12 15.7417 12 17.125C12 18.5083 12.4875 19.6875 13.4625 20.6625Z" stroke="#FFA600" stroke-width="2"/>
<path d="M17.5 14.625V16.925L19.025 18.45C19.125 18.55 19.175 18.6667 19.175 18.8C19.175 18.9333 19.125 19.05 19.025 19.15C18.925 19.25 18.8083 19.3 18.675 19.3C18.5417 19.3 18.425 19.25 18.325 19.15L16.8 17.625C16.7 17.525 16.625 17.4125 16.575 17.2875C16.525 17.1625 16.5 17.0333 16.5 16.9V14.625C16.5 14.4917 16.55 14.375 16.65 14.275C16.75 14.175 16.8667 14.125 17 14.125C17.1333 14.125 17.25 14.175 17.35 14.275C17.45 14.375 17.5 14.4917 17.5 14.625Z" fill="#069550" stroke="#069550" stroke-width="0.5"/>
</g>
</svg>
