<svg width="24" height="25" viewBox="0 0 24 25" fill="none" xmlns="http://www.w3.org/2000/svg">
<path fill-rule="evenodd" clip-rule="evenodd" d="M19 16.9372V10.8027C19 10.1026 18.6658 9.44882 18.1094 9.06047L13.1094 5.5706C12.4376 5.1017 11.5624 5.1017 10.8906 5.5706L5.8906 9.06047C5.3342 9.44882 5 10.1026 5 10.8027V16.9372C5 18.0936 5.89543 19.0311 7 19.0311H17C18.1046 19.0311 19 18.0936 19 16.9372ZM4.7812 7.31822C3.6684 8.09492 3 9.4025 3 10.8027V16.9372C3 19.25 4.79086 21.125 7 21.125H17C19.2091 21.125 21 19.25 21 16.9372V10.8027C21 9.4025 20.3316 8.09492 19.2188 7.31822L14.2188 3.82835C12.8752 2.89055 11.1248 2.89055 9.7812 3.82835L4.7812 7.31822Z" fill="#069550"/>
<path fill-rule="evenodd" clip-rule="evenodd" d="M8 16.125C8 15.5727 8.44772 15.125 9 15.125H15C15.5523 15.125 16 15.5727 16 16.125C16 16.6773 15.5523 17.125 15 17.125H9C8.44772 17.125 8 16.6773 8 16.125Z" fill="#FFA600"/>
</svg>
