<svg width="24" height="25" viewBox="0 0 24 25" fill="none" xmlns="http://www.w3.org/2000/svg">
<mask id="mask0_7445_84859" style="mask-type:alpha" maskUnits="userSpaceOnUse" x="0" y="0" width="24" height="25">
<rect y="0.125" width="24" height="24" fill="#D9D9D9"/>
</mask>
<g mask="url(#mask0_7445_84859)">
<path d="M5 19.125V19.625C5 20.0417 4.85417 20.3958 4.5625 20.6875C4.27083 20.9792 3.91667 21.125 3.5 21.125C3.08333 21.125 2.72917 20.9792 2.4375 20.6875C2.14583 20.3958 2 20.0417 2 19.625V12.475C2 12.3583 2.00833 12.2417 2.025 12.125C2.04167 12.0083 2.06667 11.9 2.1 11.8L3.975 6.475C4.10833 6.075 4.35 5.75 4.7 5.5C5.05 5.25 5.44167 5.125 5.875 5.125H12V6.125C12 6.125 12 6.775 12 7.125H5.85L4.8 10.125H12C12 10.7653 12.2544 11.3794 12.7071 11.8321L13 12.125H4V17.125H18V13.125H19H20V19.625C20 20.0417 19.8542 20.3958 19.5625 20.6875C19.2708 20.9792 18.9167 21.125 18.5 21.125C18.0833 21.125 17.7292 20.9792 17.4375 20.6875C17.1458 20.3958 17 20.0417 17 19.625V19.125H5ZM6.5 16.125C6.91667 16.125 7.27083 15.9792 7.5625 15.6875C7.85417 15.3958 8 15.0417 8 14.625C8 14.2083 7.85417 13.8542 7.5625 13.5625C7.27083 13.2708 6.91667 13.125 6.5 13.125C6.08333 13.125 5.72917 13.2708 5.4375 13.5625C5.14583 13.8542 5 14.2083 5 14.625C5 15.0417 5.14583 15.3958 5.4375 15.6875C5.72917 15.9792 6.08333 16.125 6.5 16.125Z" fill="#069550"/>
<circle cx="15.5" cy="14.625" r="1.5" fill="#069550"/>
<path d="M14 11.625C13.725 11.625 13.4896 11.5271 13.2938 11.3313C13.0979 11.1354 13 10.9 13 10.625V5.625C13 5.35 13.0979 5.11458 13.2938 4.91875C13.4896 4.72292 13.725 4.625 14 4.625H14.5V3.625C14.5 2.93333 14.7438 2.34375 15.2313 1.85625C15.7188 1.36875 16.3083 1.125 17 1.125C17.6917 1.125 18.2812 1.36875 18.7688 1.85625C19.2563 2.34375 19.5 2.93333 19.5 3.625V4.625H20C20.275 4.625 20.5104 4.72292 20.7063 4.91875C20.9021 5.11458 21 5.35 21 5.625V10.625C21 10.9 20.9021 11.1354 20.7063 11.3313C20.5104 11.5271 20.275 11.625 20 11.625H14ZM14.5 10.125H19.5V6.125H14.5V10.125ZM17 9.125C17.275 9.125 17.5104 9.02708 17.7063 8.83125C17.9021 8.63542 18 8.4 18 8.125C18 7.85 17.9021 7.61458 17.7063 7.41875C17.5104 7.22292 17.275 7.125 17 7.125C16.725 7.125 16.4896 7.22292 16.2938 7.41875C16.0979 7.61458 16 7.85 16 8.125C16 8.4 16.0979 8.63542 16.2938 8.83125C16.4896 9.02708 16.725 9.125 17 9.125ZM15.5 4.625H18.5V3.625C18.5 3.20833 18.3542 2.85417 18.0625 2.5625C17.7708 2.27083 17.4167 2.125 17 2.125C16.5833 2.125 16.2292 2.27083 15.9375 2.5625C15.6458 2.85417 15.5 3.20833 15.5 3.625V4.625Z" fill="#FFA600"/>
</g>
</svg>
