<svg width="24" height="25" viewBox="0 0 24 25" fill="none" xmlns="http://www.w3.org/2000/svg">
<mask id="mask0_9687_108022" style="mask-type:alpha" maskUnits="userSpaceOnUse" x="0" y="0" width="24" height="25">
<rect y="0.125" width="24" height="24" fill="#D9D9D9"/>
</mask>
<g mask="url(#mask0_9687_108022)">
</g>
<g clip-path="url(#clip0_9687_108022)">
<path d="M16 8.125V5.125H8V8.125H6V4.125C6 3.84167 6.09583 3.60417 6.2875 3.4125C6.47917 3.22083 6.71667 3.125 7 3.125H17C17.2833 3.125 17.5208 3.22083 17.7125 3.4125C17.9042 3.60417 18 3.84167 18 4.125V8.125H16ZM8 19.125H16V15.125H8V19.125ZM8 21.125C7.45 21.125 6.97917 20.9292 6.5875 20.5375C6.19583 20.1458 6 19.675 6 19.125V17.125H3C2.71667 17.125 2.47917 17.0292 2.2875 16.8375C2.09583 16.6458 2 16.4083 2 16.125V11.125C2 10.275 2.29167 9.5625 2.875 8.9875C3.45833 8.4125 4.16667 8.125 5 8.125H19C19.85 8.125 20.5625 8.4125 21.1375 8.9875C21.7125 9.5625 22 10.275 22 11.125V16.125C22 16.4083 21.9042 16.6458 21.7125 16.8375C21.5208 17.0292 21.2833 17.125 21 17.125H18V19.125C18 19.675 17.8042 20.1458 17.4125 20.5375C17.0208 20.9292 16.55 21.125 16 21.125H8ZM20 15.125V11.125C20 10.8417 19.9042 10.6042 19.7125 10.4125C19.5208 10.2208 19.2833 10.125 19 10.125H5C4.71667 10.125 4.47917 10.2208 4.2875 10.4125C4.09583 10.6042 4 10.8417 4 11.125V15.125H6V13.125H18V15.125H20Z" fill="#069550"/>
</g>
<mask id="mask1_9687_108022" style="mask-type:alpha" maskUnits="userSpaceOnUse" x="6" y="0" width="12" height="9">
<rect x="6" y="0.125" width="12" height="8" fill="#D9D9D9"/>
</mask>
<g mask="url(#mask1_9687_108022)">
<path d="M16 8.125V5.125H8V8.125H6V4.125C6 3.84167 6.09583 3.60417 6.2875 3.4125C6.47917 3.22083 6.71667 3.125 7 3.125H17C17.2833 3.125 17.5208 3.22083 17.7125 3.4125C17.9042 3.60417 18 3.84167 18 4.125V8.125H16ZM18 12.625C18.2833 12.625 18.5208 12.5292 18.7125 12.3375C18.9042 12.1458 19 11.9083 19 11.625C19 11.3417 18.9042 11.1042 18.7125 10.9125C18.5208 10.7208 18.2833 10.625 18 10.625C17.7167 10.625 17.4792 10.7208 17.2875 10.9125C17.0958 11.1042 17 11.3417 17 11.625C17 11.9083 17.0958 12.1458 17.2875 12.3375C17.4792 12.5292 17.7167 12.625 18 12.625ZM8 19.125H16V15.125H8V19.125ZM8 21.125C7.45 21.125 6.97917 20.9292 6.5875 20.5375C6.19583 20.1458 6 19.675 6 19.125V17.125H3C2.71667 17.125 2.47917 17.0292 2.2875 16.8375C2.09583 16.6458 2 16.4083 2 16.125V11.125C2 10.275 2.29167 9.5625 2.875 8.9875C3.45833 8.4125 4.16667 8.125 5 8.125H19C19.85 8.125 20.5625 8.4125 21.1375 8.9875C21.7125 9.5625 22 10.275 22 11.125V16.125C22 16.4083 21.9042 16.6458 21.7125 16.8375C21.5208 17.0292 21.2833 17.125 21 17.125H18V19.125C18 19.675 17.8042 20.1458 17.4125 20.5375C17.0208 20.9292 16.55 21.125 16 21.125H8ZM20 15.125V11.125C20 10.8417 19.9042 10.6042 19.7125 10.4125C19.5208 10.2208 19.2833 10.125 19 10.125H5C4.71667 10.125 4.47917 10.2208 4.2875 10.4125C4.09583 10.6042 4 10.8417 4 11.125V15.125H6V13.125H18V15.125H20Z" fill="#FFA600"/>
</g>
<path d="M6.78955 12.6543C6.6665 12.6543 6.55615 12.6348 6.4585 12.5957C6.36084 12.5557 6.27783 12.5005 6.20947 12.4302C6.14209 12.3599 6.09033 12.2783 6.0542 12.1855C6.01807 12.0918 6 11.9922 6 11.8867V11.8281C6 11.708 6.01709 11.5981 6.05127 11.4985C6.08545 11.3989 6.13428 11.3125 6.19775 11.2393C6.26221 11.166 6.34033 11.1099 6.43213 11.0708C6.52393 11.0308 6.62744 11.0107 6.74268 11.0107C6.85498 11.0107 6.95459 11.0293 7.0415 11.0664C7.12842 11.1035 7.20117 11.1562 7.25977 11.2246C7.31934 11.293 7.36426 11.375 7.39453 11.4707C7.4248 11.5654 7.43994 11.6709 7.43994 11.7871V11.9629H6.18018V11.6816H7.02539V11.6494C7.02539 11.5908 7.01465 11.5386 6.99316 11.4927C6.97266 11.4458 6.94141 11.4087 6.89941 11.3813C6.85742 11.354 6.80371 11.3403 6.73828 11.3403C6.68262 11.3403 6.63477 11.3525 6.59473 11.377C6.55469 11.4014 6.52197 11.4355 6.49658 11.4795C6.47217 11.5234 6.45361 11.5752 6.44092 11.6348C6.4292 11.6934 6.42334 11.7578 6.42334 11.8281V11.8867C6.42334 11.9502 6.43213 12.0088 6.44971 12.0625C6.46826 12.1162 6.49414 12.1626 6.52734 12.2017C6.56152 12.2407 6.60254 12.271 6.65039 12.2925C6.69922 12.314 6.75439 12.3247 6.81592 12.3247C6.89209 12.3247 6.96289 12.3101 7.02832 12.2808C7.09473 12.2505 7.15186 12.2051 7.19971 12.1445L7.40479 12.3672C7.37158 12.415 7.32617 12.4609 7.26855 12.5049C7.21191 12.5488 7.14355 12.585 7.06348 12.6133C6.9834 12.6406 6.89209 12.6543 6.78955 12.6543Z" fill="#FFA600"/>
<path d="M8.54221 11.5439V11.875H7.71457V11.5439H8.54221Z" fill="#FFA600"/>
<path d="M9.7807 12.187C9.7807 12.1567 9.77191 12.1294 9.75434 12.105C9.73676 12.0806 9.70404 12.0581 9.65619 12.0376C9.60932 12.0161 9.54145 11.9966 9.45258 11.979C9.3725 11.9614 9.29779 11.9395 9.22846 11.9131C9.1601 11.8857 9.10053 11.853 9.04975 11.8149C8.99994 11.7769 8.96088 11.7319 8.93256 11.6802C8.90424 11.6274 8.89008 11.5674 8.89008 11.5C8.89008 11.4336 8.90424 11.3711 8.93256 11.3125C8.96186 11.2539 9.00336 11.2021 9.05707 11.1572C9.11176 11.1113 9.17816 11.0757 9.25629 11.0503C9.33539 11.0239 9.42426 11.0107 9.52289 11.0107C9.66059 11.0107 9.77875 11.0327 9.87738 11.0767C9.97699 11.1206 10.0532 11.1812 10.1059 11.2583C10.1596 11.3345 10.1865 11.4214 10.1865 11.519H9.76459C9.76459 11.478 9.7558 11.4414 9.73822 11.4092C9.72162 11.376 9.69525 11.3501 9.65912 11.3315C9.62396 11.312 9.57807 11.3022 9.52143 11.3022C9.47455 11.3022 9.43402 11.3105 9.39984 11.3271C9.36566 11.3428 9.3393 11.3643 9.32074 11.3916C9.30316 11.418 9.29437 11.4473 9.29437 11.4795C9.29437 11.5039 9.29926 11.5259 9.30902 11.5454C9.31977 11.564 9.33686 11.5811 9.36029 11.5967C9.38373 11.6123 9.414 11.627 9.45111 11.6406C9.4892 11.6533 9.53607 11.665 9.59174 11.6758C9.706 11.6992 9.80805 11.73 9.89789 11.7681C9.98773 11.8052 10.059 11.856 10.1118 11.9204C10.1645 11.9839 10.1909 12.0674 10.1909 12.1709C10.1909 12.2412 10.1752 12.3057 10.144 12.3643C10.1127 12.4229 10.0678 12.4741 10.0092 12.5181C9.95062 12.561 9.88031 12.5947 9.79828 12.6191C9.71723 12.6426 9.62592 12.6543 9.52436 12.6543C9.37689 12.6543 9.25189 12.6279 9.14936 12.5752C9.04779 12.5225 8.97064 12.4556 8.91791 12.3745C8.86615 12.2925 8.84027 12.2085 8.84027 12.1226H9.24018C9.24213 12.1802 9.25678 12.2266 9.28412 12.2617C9.31244 12.2969 9.34809 12.3223 9.39105 12.3379C9.435 12.3535 9.48236 12.3613 9.53314 12.3613C9.58783 12.3613 9.63324 12.354 9.66937 12.3394C9.70551 12.3237 9.73285 12.3032 9.75141 12.2778C9.77094 12.2515 9.7807 12.2212 9.7807 12.187Z" fill="#FFA600"/>
<path d="M11.3503 12.2676V11.5615C11.3503 11.5107 11.342 11.4673 11.3254 11.4312C11.3088 11.394 11.2829 11.3652 11.2477 11.3447C11.2135 11.3242 11.1691 11.314 11.1144 11.314C11.0675 11.314 11.027 11.3223 10.9928 11.3389C10.9587 11.3545 10.9323 11.3774 10.9137 11.4077C10.8952 11.437 10.8859 11.4717 10.8859 11.5117H10.464C10.464 11.4443 10.4796 11.3804 10.5109 11.3198C10.5421 11.2593 10.5876 11.2061 10.6471 11.1602C10.7067 11.1133 10.7775 11.0767 10.8595 11.0503C10.9425 11.0239 11.0353 11.0107 11.1379 11.0107C11.2609 11.0107 11.3703 11.0312 11.466 11.0723C11.5617 11.1133 11.6369 11.1748 11.6916 11.2568C11.7472 11.3389 11.7751 11.4414 11.7751 11.5645V12.2427C11.7751 12.3296 11.7804 12.4009 11.7912 12.4565C11.8019 12.5112 11.8175 12.5591 11.838 12.6001V12.625H11.4118C11.3913 12.582 11.3756 12.5283 11.3649 12.4639C11.3551 12.3984 11.3503 12.333 11.3503 12.2676ZM11.4059 11.6597L11.4088 11.8984H11.173C11.1173 11.8984 11.069 11.9048 11.028 11.9175C10.987 11.9302 10.9533 11.9482 10.9269 11.9717C10.9005 11.9941 10.881 12.0205 10.8683 12.0508C10.8566 12.0811 10.8507 12.1143 10.8507 12.1504C10.8507 12.1865 10.859 12.2192 10.8756 12.2485C10.8922 12.2769 10.9162 12.2993 10.9474 12.3159C10.9787 12.3315 11.0153 12.3394 11.0573 12.3394C11.1208 12.3394 11.1759 12.3267 11.2228 12.3013C11.2697 12.2759 11.3058 12.2446 11.3312 12.2075C11.3576 12.1704 11.3713 12.1353 11.3722 12.1021L11.4836 12.2808C11.4679 12.3208 11.4464 12.3623 11.4191 12.4053C11.3927 12.4482 11.359 12.4888 11.318 12.5269C11.277 12.564 11.2277 12.5947 11.1701 12.6191C11.1125 12.6426 11.0441 12.6543 10.965 12.6543C10.8644 12.6543 10.7731 12.6343 10.6911 12.5942C10.61 12.5532 10.5456 12.4971 10.4977 12.4258C10.4508 12.3535 10.4274 12.2715 10.4274 12.1797C10.4274 12.0967 10.443 12.0229 10.4743 11.9585C10.5055 11.894 10.5514 11.8398 10.612 11.7959C10.6735 11.751 10.7502 11.7173 10.842 11.6948C10.9338 11.6714 11.0402 11.6597 11.1613 11.6597H11.4059Z" fill="#FFA600"/>
<path d="M12.5521 11.3682V12.625H12.1288V11.04H12.5258L12.5521 11.3682ZM12.4935 11.7769H12.3763C12.3763 11.6665 12.3895 11.5649 12.4159 11.4722C12.4432 11.3784 12.4828 11.2974 12.5346 11.229C12.5873 11.1597 12.6522 11.106 12.7294 11.0679C12.8065 11.0298 12.8959 11.0107 12.9974 11.0107C13.0678 11.0107 13.1322 11.0215 13.1908 11.043C13.2494 11.0635 13.2997 11.0962 13.3417 11.1411C13.3846 11.1851 13.4179 11.2427 13.4413 11.314C13.4647 11.3843 13.4764 11.4688 13.4764 11.5674V12.625H13.0546V11.6143C13.0546 11.542 13.0448 11.4863 13.0253 11.4473C13.0057 11.4082 12.9779 11.3809 12.9418 11.3652C12.9066 11.3496 12.8641 11.3418 12.8143 11.3418C12.7596 11.3418 12.7118 11.353 12.6708 11.3755C12.6307 11.3979 12.5975 11.4292 12.5712 11.4692C12.5448 11.5083 12.5253 11.5542 12.5126 11.6069C12.4999 11.6597 12.4935 11.7163 12.4935 11.7769ZM13.4369 11.7285L13.286 11.7476C13.286 11.644 13.2987 11.5479 13.3241 11.459C13.3505 11.3701 13.389 11.292 13.4398 11.2246C13.4916 11.1572 13.5555 11.105 13.6317 11.0679C13.7079 11.0298 13.7958 11.0107 13.8954 11.0107C13.9716 11.0107 14.0409 11.022 14.1034 11.0444C14.1659 11.0659 14.2191 11.1006 14.2631 11.1484C14.308 11.1953 14.3422 11.2568 14.3656 11.333C14.39 11.4092 14.4022 11.5024 14.4022 11.6128V12.625H13.9789V11.6128C13.9789 11.5396 13.9691 11.4839 13.9496 11.4458C13.931 11.4067 13.9037 11.3799 13.8676 11.3652C13.8324 11.3496 13.7904 11.3418 13.7416 11.3418C13.6908 11.3418 13.6464 11.3521 13.6083 11.3726C13.5702 11.3921 13.5385 11.4194 13.5131 11.4546C13.4877 11.4897 13.4686 11.5308 13.4559 11.5776C13.4432 11.6235 13.4369 11.6738 13.4369 11.7285Z" fill="#FFA600"/>
<path d="M15.6158 12.187C15.6158 12.1567 15.607 12.1294 15.5895 12.105C15.5719 12.0806 15.5392 12.0581 15.4913 12.0376C15.4444 12.0161 15.3766 11.9966 15.2877 11.979C15.2076 11.9614 15.1329 11.9395 15.0636 11.9131C14.9952 11.8857 14.9356 11.853 14.8849 11.8149C14.8351 11.7769 14.796 11.7319 14.7677 11.6802C14.7394 11.6274 14.7252 11.5674 14.7252 11.5C14.7252 11.4336 14.7394 11.3711 14.7677 11.3125C14.797 11.2539 14.8385 11.2021 14.8922 11.1572C14.9469 11.1113 15.0133 11.0757 15.0914 11.0503C15.1705 11.0239 15.2594 11.0107 15.358 11.0107C15.4957 11.0107 15.6139 11.0327 15.7125 11.0767C15.8121 11.1206 15.8883 11.1812 15.941 11.2583C15.9947 11.3345 16.0216 11.4214 16.0216 11.519H15.5997C15.5997 11.478 15.5909 11.4414 15.5733 11.4092C15.5567 11.376 15.5304 11.3501 15.4942 11.3315C15.4591 11.312 15.4132 11.3022 15.3565 11.3022C15.3097 11.3022 15.2691 11.3105 15.235 11.3271C15.2008 11.3428 15.1744 11.3643 15.1559 11.3916C15.1383 11.418 15.1295 11.4473 15.1295 11.4795C15.1295 11.5039 15.1344 11.5259 15.1441 11.5454C15.1549 11.564 15.172 11.5811 15.1954 11.5967C15.2188 11.6123 15.2491 11.627 15.2862 11.6406C15.3243 11.6533 15.3712 11.665 15.4269 11.6758C15.5411 11.6992 15.6432 11.73 15.733 11.7681C15.8229 11.8052 15.8941 11.856 15.9469 11.9204C15.9996 11.9839 16.026 12.0674 16.026 12.1709C16.026 12.2412 16.0104 12.3057 15.9791 12.3643C15.9479 12.4229 15.9029 12.4741 15.8443 12.5181C15.7857 12.561 15.7154 12.5947 15.6334 12.6191C15.5523 12.6426 15.461 12.6543 15.3595 12.6543C15.212 12.6543 15.087 12.6279 14.9845 12.5752C14.8829 12.5225 14.8058 12.4556 14.753 12.3745C14.7013 12.2925 14.6754 12.2085 14.6754 12.1226H15.0753C15.0772 12.1802 15.0919 12.2266 15.1192 12.2617C15.1476 12.2969 15.1832 12.3223 15.2262 12.3379C15.2701 12.3535 15.3175 12.3613 15.3683 12.3613C15.4229 12.3613 15.4684 12.354 15.5045 12.3394C15.5406 12.3237 15.568 12.3032 15.5865 12.2778C15.6061 12.2515 15.6158 12.2212 15.6158 12.187Z" fill="#FFA600"/>
<path d="M17.1854 12.2676V11.5615C17.1854 11.5107 17.1771 11.4673 17.1605 11.4312C17.1439 11.394 17.118 11.3652 17.0828 11.3447C17.0487 11.3242 17.0042 11.314 16.9495 11.314C16.9027 11.314 16.8621 11.3223 16.8279 11.3389C16.7938 11.3545 16.7674 11.3774 16.7488 11.4077C16.7303 11.437 16.721 11.4717 16.721 11.5117H16.2991C16.2991 11.4443 16.3148 11.3804 16.346 11.3198C16.3773 11.2593 16.4227 11.2061 16.4822 11.1602C16.5418 11.1133 16.6126 11.0767 16.6946 11.0503C16.7777 11.0239 16.8704 11.0107 16.973 11.0107C17.096 11.0107 17.2054 11.0312 17.3011 11.0723C17.3968 11.1133 17.472 11.1748 17.5267 11.2568C17.5823 11.3389 17.6102 11.4414 17.6102 11.5645V12.2427C17.6102 12.3296 17.6155 12.4009 17.6263 12.4565C17.637 12.5112 17.6527 12.5591 17.6732 12.6001V12.625H17.2469C17.2264 12.582 17.2108 12.5283 17.2 12.4639C17.1903 12.3984 17.1854 12.333 17.1854 12.2676ZM17.241 11.6597L17.244 11.8984H17.0081C16.9525 11.8984 16.9041 11.9048 16.8631 11.9175C16.8221 11.9302 16.7884 11.9482 16.762 11.9717C16.7357 11.9941 16.7161 12.0205 16.7034 12.0508C16.6917 12.0811 16.6859 12.1143 16.6859 12.1504C16.6859 12.1865 16.6942 12.2192 16.7108 12.2485C16.7274 12.2769 16.7513 12.2993 16.7825 12.3159C16.8138 12.3315 16.8504 12.3394 16.8924 12.3394C16.9559 12.3394 17.0111 12.3267 17.0579 12.3013C17.1048 12.2759 17.1409 12.2446 17.1663 12.2075C17.1927 12.1704 17.2064 12.1353 17.2073 12.1021L17.3187 12.2808C17.303 12.3208 17.2816 12.3623 17.2542 12.4053C17.2279 12.4482 17.1942 12.4888 17.1531 12.5269C17.1121 12.564 17.0628 12.5947 17.0052 12.6191C16.9476 12.6426 16.8792 12.6543 16.8001 12.6543C16.6995 12.6543 16.6082 12.6343 16.5262 12.5942C16.4451 12.5532 16.3807 12.4971 16.3328 12.4258C16.286 12.3535 16.2625 12.2715 16.2625 12.1797C16.2625 12.0967 16.2781 12.0229 16.3094 11.9585C16.3406 11.894 16.3865 11.8398 16.4471 11.7959C16.5086 11.751 16.5853 11.7173 16.6771 11.6948C16.7689 11.6714 16.8753 11.6597 16.9964 11.6597H17.241Z" fill="#FFA600"/>
<path d="M18.7417 11.04V11.3389H17.8189V11.04H18.7417ZM18.0474 10.6489H18.4693V12.1475C18.4693 12.1934 18.4751 12.2285 18.4869 12.2529C18.4996 12.2773 18.5181 12.2944 18.5425 12.3042C18.5669 12.313 18.5977 12.3174 18.6348 12.3174C18.6612 12.3174 18.6846 12.3164 18.7051 12.3145C18.7266 12.3115 18.7447 12.3086 18.7593 12.3057L18.7608 12.6162C18.7246 12.6279 18.6856 12.6372 18.6436 12.644C18.6016 12.6509 18.5552 12.6543 18.5044 12.6543C18.4117 12.6543 18.3306 12.6392 18.2613 12.6089C18.1929 12.5776 18.1402 12.5278 18.1031 12.4595C18.066 12.3911 18.0474 12.3013 18.0474 12.1899V10.6489Z" fill="#FFA600"/>
<defs>
<clipPath id="clip0_9687_108022">
<rect width="20" height="18" fill="white" transform="translate(2 3.125)"/>
</clipPath>
</defs>
</svg>
