<svg width="24" height="25" viewBox="0 0 24 25" fill="none" xmlns="http://www.w3.org/2000/svg">
<mask id="mask0_15069_355493" style="mask-type:alpha" maskUnits="userSpaceOnUse" x="0" y="0" width="24" height="25">
<rect y="0.125" width="24" height="24" fill="#D9D9D9"/>
</mask>
<g mask="url(#mask0_15069_355493)">
<path d="M6 22.125C5.16667 22.125 4.45833 21.8333 3.875 21.25C3.29167 20.6667 3 19.9583 3 19.125V18.125C3 17.575 3.19583 17.1042 3.5875 16.7125C3.97917 16.3208 4.45 16.125 5 16.125H6V4.125C6 3.575 6.19583 3.10417 6.5875 2.7125C6.97917 2.32083 7.45 2.125 8 2.125H19C19.55 2.125 20.0208 2.32083 20.4125 2.7125C20.8042 3.10417 21 3.575 21 4.125V19.125C21 19.9583 20.7083 20.6667 20.125 21.25C19.5417 21.8333 18.8333 22.125 18 22.125H6ZM18 20.125C18.2833 20.125 18.5208 20.0292 18.7125 19.8375C18.9042 19.6458 19 19.4083 19 19.125V4.125H8V16.125H15C15.55 16.125 16.0208 16.3208 16.4125 16.7125C16.8042 17.1042 17 17.575 17 18.125V19.125C17 19.4083 17.0958 19.6458 17.2875 19.8375C17.4792 20.0292 17.7167 20.125 18 20.125ZM6 20.125H15V18.125H5V19.125C5 19.4083 5.09583 19.6458 5.2875 19.8375C5.47917 20.0292 5.71667 20.125 6 20.125ZM6 20.125H5H15H6Z" fill="#069550"/>
<path d="M9.2875 8.8375C9.47917 9.02917 9.71667 9.125 10 9.125H17C17.2833 9.125 17.5208 9.02917 17.7125 8.8375C17.9042 8.64583 18 8.40833 18 8.125C18 7.84167 17.9042 7.60417 17.7125 7.4125C17.5208 7.22083 17.2833 7.125 17 7.125H10C9.71667 7.125 9.47917 7.22083 9.2875 7.4125C9.09583 7.60417 9 7.84167 9 8.125C9 8.40833 9.09583 8.64583 9.2875 8.8375Z" fill="#FFA600"/>
<path d="M9.2875 11.8375C9.47917 12.0292 9.71667 12.125 10 12.125H17C17.2833 12.125 17.5208 12.0292 17.7125 11.8375C17.9042 11.6458 18 11.4083 18 11.125C18 10.8417 17.9042 10.6042 17.7125 10.4125C17.5208 10.2208 17.2833 10.125 17 10.125H10C9.71667 10.125 9.47917 10.2208 9.2875 10.4125C9.09583 10.6042 9 10.8417 9 11.125C9 11.4083 9.09583 11.6458 9.2875 11.8375Z" fill="#FFA600"/>
</g>
</svg>
