<svg width="24" height="25" viewBox="0 0 24 25" fill="none" xmlns="http://www.w3.org/2000/svg">
<mask id="mask0_8490_164653" style="mask-type:alpha" maskUnits="userSpaceOnUse" x="0" y="0" width="24" height="25">
<rect y="0.125" width="24" height="24" fill="#D9D9D9"/>
</mask>
<g mask="url(#mask0_8490_164653)">
<path fill-rule="evenodd" clip-rule="evenodd" d="M13 19.625H5.50001V18.625C5.50001 18.3958 5.5573 18.1875 5.67188 18C5.78646 17.8125 5.93751 17.6667 6.12501 17.5625C7.25001 17 8.38543 16.5781 9.53126 16.2969C10.6771 16.0156 11.8334 15.875 13 15.875C13.5912 15.875 14.1798 15.9111 14.7656 15.9833C14.9485 16.0059 15.1311 16.0319 15.3135 16.0615L17.424 13.951C17.3037 13.9191 17.1832 13.8886 17.0625 13.8594C15.7292 13.5365 14.375 13.375 13 13.375C11.625 13.375 10.2708 13.5365 8.93751 13.8594C7.60418 14.1823 6.29167 14.6667 5 15.3125C4.39584 15.625 3.91146 16.0781 3.54688 16.6719C3.18229 17.2656 3 17.9167 3 18.625V19.625C3 20.3125 3.24479 20.901 3.73438 21.3906C4.22396 21.8802 4.8125 22.125 5.50001 22.125H12.375L13 19.625Z" fill="#069550"/>
<path d="M13 12.125C11.625 12.125 10.4479 11.6354 9.46875 10.6562C8.48958 9.67708 8 8.5 8 7.125C8 5.75 8.48958 4.57292 9.46875 3.59375C10.4479 2.61458 11.625 2.125 13 2.125C14.375 2.125 15.5521 2.61458 16.5313 3.59375C17.5104 4.57292 18 5.75 18 7.125C18 8.5 17.5104 9.67708 16.5313 10.6562C15.5521 11.6354 14.375 12.125 13 12.125ZM13 9.625C13.6875 9.625 14.2761 9.38021 14.7656 8.89062C15.2552 8.40104 15.5 7.8125 15.5 7.125C15.5 6.4375 15.2552 5.84896 14.7656 5.35938C14.2761 4.86979 13.6875 4.625 13 4.625C12.3125 4.625 11.724 4.86979 11.2344 5.35938C10.7448 5.84896 10.5 6.4375 10.5 7.125C10.5 7.8125 10.7448 8.40104 11.2344 8.89062C11.724 9.38021 12.3125 9.625 13 9.625Z" fill="#069550"/>
<path d="M18.7047 14.388L14.4704 18.7435C14.2516 18.9683 14.1043 19.2528 14.0469 19.5611L13.6782 21.5525L15.6585 21.1271C15.9651 21.0612 16.2449 20.9065 16.4638 20.6814L20.6981 16.3259C20.8253 16.195 20.9255 16.0403 20.993 15.8707C21.0604 15.7011 21.0938 15.5198 21.0913 15.3373C21.0887 15.1548 21.0502 14.9746 20.978 14.8069C20.9057 14.6393 20.8012 14.4875 20.6703 14.3603C20.5394 14.233 20.3848 14.1328 20.2152 14.0653C20.0455 13.9979 19.8643 13.9645 19.6818 13.9671C19.4992 13.9696 19.319 14.0081 19.1514 14.0804C18.9837 14.1526 18.832 14.2571 18.7047 14.388Z" stroke="#FFA600" stroke-width="1.50003" stroke-linecap="round" stroke-linejoin="round"/>
<path d="M17.7031 15.8011L19.3139 17.3663" stroke="#069550" stroke-width="1.50003" stroke-linecap="round" stroke-linejoin="round"/>
</g>
</svg>
