<svg width="24" height="25" viewBox="0 0 24 25" fill="none" xmlns="http://www.w3.org/2000/svg">
<circle cx="12.5" cy="5.625" r="2.5" fill="#FFA600"/>
<path d="M15 7.52031C15.9124 8.07867 16.67 8.88206 17.1967 9.84963C17.7233 10.8172 18.0004 11.9148 18 13.032V20.3046H14.4257C14.2486 20.8369 13.9202 21.2978 13.4858 21.6239C13.0513 21.9499 12.5322 22.125 12 22.125C11.4678 22.125 10.9487 21.9499 10.5142 21.6239C10.0798 21.2978 9.75137 20.8369 9.57429 20.3046H6V13.032C5.99962 11.9148 6.27668 10.8172 6.80333 9.84963C7.32997 8.88206 8.08761 8.07867 9 7.52031C8.85916 7.25201 8.75115 6.96577 8.67857 6.6685H6V4.85036H8.67943C8.87009 4.07015 9.29963 3.37918 9.90063 2.88591C10.5016 2.39264 11.2401 2.125 12 2.125C12.7599 2.125 13.4984 2.39264 14.0994 2.88591C14.7004 3.37918 15.1299 4.07015 15.3206 4.85036H18V6.6685H15.3206C15.2481 6.96555 15.1399 7.25173 15 7.52031ZM13.7546 8.88392C13.2243 9.22003 12.6178 9.39694 12 9.39573C11.3822 9.39672 10.7758 9.21982 10.2454 8.88392C9.49136 9.24292 8.85123 9.82549 8.40215 10.5615C7.95307 11.2974 7.71419 12.1554 7.71429 13.032V18.4865H9.42857V14.8502C9.42857 14.1269 9.69949 13.4332 10.1817 12.9217C10.664 12.4103 11.318 12.123 12 12.123C12.682 12.123 13.336 12.4103 13.8183 12.9217C14.3005 13.4332 14.5714 14.1269 14.5714 14.8502V18.4865H16.2857V13.032C16.2858 12.1554 16.0469 11.2974 15.5978 10.5615C15.1488 9.82549 14.5086 9.24292 13.7546 8.88392ZM12 13.9411C11.7727 13.9411 11.5547 14.0369 11.3939 14.2074C11.2332 14.3778 11.1429 14.6091 11.1429 14.8502V19.3955C11.1429 19.6367 11.2332 19.8679 11.3939 20.0384C11.5547 20.2088 11.7727 20.3046 12 20.3046C12.2273 20.3046 12.4453 20.2088 12.6061 20.0384C12.7668 19.8679 12.8571 19.6367 12.8571 19.3955V14.8502C12.8571 14.6091 12.7668 14.3778 12.6061 14.2074C12.4453 14.0369 12.2273 13.9411 12 13.9411ZM12 7.57758C12.4547 7.57758 12.8907 7.38602 13.2122 7.04506C13.5337 6.70409 13.7143 6.24163 13.7143 5.75943C13.7143 5.27723 13.5337 4.81477 13.2122 4.4738C12.8907 4.13283 12.4547 3.94128 12 3.94128C11.5453 3.94128 11.1093 4.13283 10.7878 4.4738C10.4663 4.81477 10.2857 5.27723 10.2857 5.75943C10.2857 6.24163 10.4663 6.70409 10.7878 7.04506C11.1093 7.38602 11.5453 7.57758 12 7.57758Z" fill="#069550"/>
</svg>
