<svg width="24" height="25" viewBox="0 0 24 25" fill="none" xmlns="http://www.w3.org/2000/svg">
<mask id="mask0_7780_86519" style="mask-type:alpha" maskUnits="userSpaceOnUse" x="0" y="0" width="24" height="25">
<rect y="0.125" width="24" height="24" fill="#D9D9D9"/>
</mask>
<g mask="url(#mask0_7780_86519)">
<path d="M3.2 19.525C2.595 19.525 2.07708 19.3096 1.64625 18.8788C1.21542 18.4479 1 17.93 1 17.325V6.325C1 5.72 1.21542 5.20208 1.64625 4.77125C2.07708 4.34042 2.595 4.125 3.2 4.125H17.5C18.105 4.125 18.6229 4.34042 19.0538 4.77125C19.4846 5.20208 19.7 5.72 19.7 6.325V11.935C19.5167 11.8983 19.3333 11.8708 19.15 11.8525C18.9667 11.8342 18.7833 11.825 18.6 11.825C18.4167 11.825 18.2333 11.8296 18.05 11.8388C17.8667 11.8479 17.6833 11.8708 17.5 11.9075V7.865L10.24 12.925L3.2 7.8925V17.325H12.0825C12.0458 17.5083 12.0229 17.6917 12.0138 17.875C12.0046 18.0583 12 18.2417 12 18.425C12 18.6083 12.0092 18.7917 12.0275 18.975C12.0458 19.1583 12.0733 19.3417 12.11 19.525H3.2ZM4.795 6.325L10.24 10.23L15.85 6.325H4.795Z" fill="#069550"/>
<path d="M17.06 21.285L18.6 22.825L23 18.425L18.6 14.025L17.06 15.565L18.7925 17.325H14.2V19.525H18.7925L17.06 21.285Z" fill="#FFA600"/>
</g>
</svg>
