<svg width="24" height="25" viewBox="0 0 24 25" fill="none" xmlns="http://www.w3.org/2000/svg">
<path d="M17.836 3.66801L12.109 9.39501C11.8131 9.69051 11.6113 10.067 11.529 10.477L11 13.125L13.648 12.595C14.058 12.513 14.434 12.312 14.73 12.016L20.457 6.28901C20.6291 6.11691 20.7656 5.9126 20.8588 5.68775C20.9519 5.46289 20.9998 5.22189 20.9998 4.97851C20.9998 4.73513 20.9519 4.49413 20.8588 4.26927C20.7656 4.04442 20.6291 3.84011 20.457 3.66801C20.2849 3.49591 20.0806 3.3594 19.8557 3.26626C19.6309 3.17312 19.3899 3.12518 19.1465 3.12518C18.9031 3.12518 18.6621 3.17312 18.4373 3.26626C18.2124 3.3594 18.0081 3.49591 17.836 3.66801Z" stroke="#FFA600" stroke-width="2" stroke-linecap="round" stroke-linejoin="round"/>
<path d="M19 15.125V18.125C19 18.6554 18.7893 19.1641 18.4142 19.5392C18.0391 19.9143 17.5304 20.125 17 20.125H6C5.46957 20.125 4.96086 19.9143 4.58579 19.5392C4.21071 19.1641 4 18.6554 4 18.125V7.125C4 6.59457 4.21071 6.08586 4.58579 5.71079C4.96086 5.33571 5.46957 5.125 6 5.125H9" stroke="#069550" stroke-width="2" stroke-linecap="round" stroke-linejoin="round"/>
<path d="M16.474 5.53302L18.592 7.65002" stroke="#069550" stroke-width="2.7" stroke-linecap="square" stroke-linejoin="round"/>
</svg>
