<svg width="24" height="25" viewBox="0 0 24 25" fill="none" xmlns="http://www.w3.org/2000/svg">
<path d="M16.474 5.53302L18.592 7.65002" stroke="#FFA600" stroke-width="2" stroke-linecap="round" stroke-linejoin="round"/>
<path d="M17.836 3.66801L12.109 9.39501C11.8131 9.69051 11.6113 10.067 11.529 10.477L11 13.125L13.648 12.595C14.058 12.513 14.434 12.312 14.73 12.016L20.457 6.28901C20.6291 6.11691 20.7656 5.9126 20.8588 5.68775C20.9519 5.46289 20.9998 5.22189 20.9998 4.97851C20.9998 4.73513 20.9519 4.49413 20.8588 4.26927C20.7656 4.04442 20.6291 3.84011 20.457 3.66801C20.2849 3.49591 20.0806 3.3594 19.8557 3.26626C19.6309 3.17312 19.3899 3.12518 19.1465 3.12518C18.9031 3.12518 18.6621 3.17312 18.4373 3.26626C18.2124 3.3594 18.0081 3.49591 17.836 3.66801Z" stroke="#069550" stroke-width="2" stroke-linecap="round" stroke-linejoin="round"/>
<path d="M19 15.125V18.125C19 18.6554 18.7893 19.1641 18.4142 19.5392C18.0391 19.9143 17.5304 20.125 17 20.125H11M4 14.125V7.125C4 6.59457 4.21071 6.08586 4.58579 5.71079C4.96086 5.33571 5.46957 5.125 6 5.125H9" stroke="#069550" stroke-width="2" stroke-linecap="round" stroke-linejoin="round"/>
<path d="M4.24023 19.3633V20.125H1.26367V19.4805L2.63477 18.0391C2.75586 17.9004 2.85352 17.7764 2.92773 17.667C3.00195 17.5557 3.05566 17.4551 3.08887 17.3652C3.12402 17.2754 3.1416 17.1943 3.1416 17.1221C3.1416 16.999 3.12305 16.8965 3.08594 16.8145C3.05078 16.7305 2.99805 16.667 2.92773 16.624C2.85938 16.5811 2.77441 16.5596 2.67285 16.5596C2.57129 16.5596 2.48242 16.5889 2.40625 16.6475C2.33008 16.7061 2.27051 16.7861 2.22754 16.8877C2.18652 16.9893 2.16602 17.1035 2.16602 17.2305H1.17578C1.17578 16.9688 1.23926 16.7295 1.36621 16.5127C1.49512 16.2959 1.67383 16.123 1.90234 15.9941C2.13086 15.8633 2.39551 15.7979 2.69629 15.7979C3.01074 15.7979 3.27441 15.8467 3.4873 15.9443C3.7002 16.042 3.86035 16.1836 3.96777 16.3691C4.07715 16.5527 4.13184 16.7744 4.13184 17.0342C4.13184 17.1826 4.1084 17.3252 4.06152 17.4619C4.01465 17.5986 3.94727 17.7344 3.85938 17.8691C3.77148 18.002 3.66406 18.1387 3.53711 18.2793C3.41211 18.4199 3.26953 18.5693 3.10938 18.7275L2.55859 19.3633H4.24023ZM4.82324 19.6621C4.82324 19.5215 4.87402 19.4043 4.97559 19.3105C5.07715 19.2148 5.20801 19.167 5.36816 19.167C5.53027 19.167 5.66113 19.2148 5.76074 19.3105C5.8623 19.4043 5.91309 19.5215 5.91309 19.6621C5.91309 19.8027 5.8623 19.9209 5.76074 20.0166C5.66113 20.1104 5.53027 20.1572 5.36816 20.1572C5.20801 20.1572 5.07715 20.1104 4.97559 20.0166C4.87402 19.9209 4.82324 19.8027 4.82324 19.6621ZM9.52246 17.6025V18.3818C9.52246 18.6885 9.48633 18.9551 9.41406 19.1816C9.34375 19.4082 9.24219 19.5957 9.10938 19.7441C8.97852 19.8926 8.82227 20.0029 8.64062 20.0752C8.45898 20.1475 8.25879 20.1836 8.04004 20.1836C7.86426 20.1836 7.7002 20.1611 7.54785 20.1162C7.39551 20.0693 7.25781 19.999 7.13477 19.9053C7.01367 19.8096 6.90918 19.6904 6.82129 19.5479C6.7334 19.4053 6.66602 19.2373 6.61914 19.0439C6.57227 18.8486 6.54883 18.6279 6.54883 18.3818V17.6025C6.54883 17.2939 6.58398 17.0273 6.6543 16.8027C6.72656 16.5762 6.8291 16.3887 6.96191 16.2402C7.09473 16.0918 7.25195 15.9814 7.43359 15.9092C7.61523 15.8369 7.81543 15.8008 8.03418 15.8008C8.20996 15.8008 8.37305 15.8242 8.52344 15.8711C8.67578 15.916 8.81348 15.9863 8.93652 16.082C9.05957 16.1758 9.16406 16.2939 9.25 16.4365C9.33789 16.5791 9.40527 16.748 9.45215 16.9434C9.49902 17.1367 9.52246 17.3564 9.52246 17.6025ZM8.53516 18.502V17.4766C8.53516 17.3398 8.52734 17.2207 8.51172 17.1191C8.49805 17.0176 8.47656 16.9316 8.44727 16.8613C8.41992 16.791 8.38574 16.7344 8.34473 16.6914C8.30371 16.6465 8.25684 16.6143 8.2041 16.5947C8.15332 16.5732 8.09668 16.5625 8.03418 16.5625C7.95605 16.5625 7.88574 16.5791 7.82324 16.6123C7.7627 16.6436 7.71094 16.6943 7.66797 16.7646C7.625 16.835 7.5918 16.9287 7.56836 17.0459C7.54688 17.1631 7.53613 17.3066 7.53613 17.4766V18.502C7.53613 18.6406 7.54297 18.7617 7.55664 18.8652C7.57227 18.9668 7.59375 19.0537 7.62109 19.126C7.65039 19.1963 7.68555 19.2539 7.72656 19.2988C7.76758 19.3418 7.81445 19.373 7.86719 19.3926C7.91992 19.4121 7.97754 19.4219 8.04004 19.4219C8.11621 19.4219 8.18457 19.4062 8.24512 19.375C8.30566 19.3438 8.35742 19.293 8.40039 19.2227C8.44531 19.1504 8.47852 19.0557 8.5 18.9385C8.52344 18.8193 8.53516 18.6738 8.53516 18.502Z" fill="#FFA600"/>
</svg>
