<svg width="24" height="25" viewBox="0 0 24 25" fill="none" xmlns="http://www.w3.org/2000/svg">
<path d="M11.4556 8.02502H18.1C19.0941 8.02502 19.9 8.83091 19.9 9.82502V18.225C19.9 19.2191 19.0941 20.025 18.1 20.025H5.70002C4.70591 20.025 3.90002 19.2191 3.90002 18.225V8.02502H7.90002" stroke="#069550" stroke-width="2" stroke-linejoin="round"/>
<path d="M15.9 8.02502V4.92502C15.9 4.42797 15.4971 4.02502 15 4.02502H11.6143M3.90002 8.02502V5.82502C3.90002 4.83091 4.70591 4.02502 5.70002 4.02502H9.47145" stroke="#069550" stroke-width="2" stroke-linejoin="round"/>
<rect x="16.3444" y="13.025" width="2" height="2" rx="1" fill="#069550"/>
<path d="M7.5 11.325L11.1 4.125L9.75 9.975H12.9L10.2 14.925L10.65 11.325H7.5Z" fill="#FFA600"/>
</svg>
