<svg width="24" height="25" viewBox="0 0 24 25" fill="none" xmlns="http://www.w3.org/2000/svg">
<path d="M12 20.125H5C4.73478 20.125 4.48043 20.0196 4.29289 19.8321C4.10536 19.6446 4 19.3902 4 19.125V5.125C4 4.85978 4.10536 4.60543 4.29289 4.41789C4.48043 4.23036 4.73478 4.125 5 4.125H10V7.125C10 7.92065 10.3161 8.68371 10.8787 9.24632C11.4413 9.80893 12.2044 10.125 13 10.125H16V11.125C16 11.3902 16.1054 11.6446 16.2929 11.8321C16.4804 12.0196 16.7348 12.125 17 12.125C17.2652 12.125 17.5196 12.0196 17.7071 11.8321C17.8946 11.6446 18 11.3902 18 11.125V9.065C17.9896 8.97313 17.9695 8.88263 17.94 8.795V8.705C17.8919 8.60218 17.8278 8.50767 17.75 8.425L11.75 2.425C11.6673 2.34722 11.5728 2.28308 11.47 2.235C11.4402 2.23076 11.4099 2.23076 11.38 2.235L11.06 2.125H5C4.20435 2.125 3.44129 2.44107 2.87868 3.00368C2.31607 3.56629 2 4.32935 2 5.125V19.125C2 19.9206 2.31607 20.6837 2.87868 21.2463C3.44129 21.8089 4.20435 22.125 5 22.125H12C12.2652 22.125 12.5196 22.0196 12.7071 21.8321C12.8946 21.6446 13 21.3902 13 21.125C13 20.8598 12.8946 20.6054 12.7071 20.4179C12.5196 20.2304 12.2652 20.125 12 20.125ZM12 5.535L14.59 8.125H13C12.7348 8.125 12.4804 8.01964 12.2929 7.83211C12.1054 7.64457 12 7.39022 12 7.125V5.535ZM11 18.125C11.2652 18.125 11.5196 18.0196 11.7071 17.8321C11.8946 17.6446 12 17.3902 12 17.125C12 16.8598 11.8946 16.6054 11.7071 16.4179C11.5196 16.2304 11.2652 16.125 11 16.125H7C6.73478 16.125 6.48043 16.2304 6.29289 16.4179C6.10536 16.6054 6 16.8598 6 17.125C6 17.3902 6.10536 17.6446 6.29289 17.8321C6.48043 18.0196 6.73478 18.125 7 18.125H11ZM13 12.125H7C6.73478 12.125 6.48043 12.2304 6.29289 12.4179C6.10536 12.6054 6 12.8598 6 13.125C6 13.3902 6.10536 13.6446 6.29289 13.8321C6.48043 14.0196 6.73478 14.125 7 14.125H13C13.2652 14.125 13.5196 14.0196 13.7071 13.8321C13.8946 13.6446 14 13.3902 14 13.125C14 12.8598 13.8946 12.6054 13.7071 12.4179C13.5196 12.2304 13.2652 12.125 13 12.125Z" fill="#069550"/>
<path d="M18 22.125C20.2091 22.125 22 20.3341 22 18.125C22 15.9159 20.2091 14.125 18 14.125C15.7909 14.125 14 15.9159 14 18.125C14 20.3341 15.7909 22.125 18 22.125Z" stroke="#FFA600" stroke-width="1.5" stroke-linecap="round" stroke-linejoin="round"/>
<path d="M18 14.125V18.125H22" stroke="#069550" stroke-width="1.5" stroke-linecap="round" stroke-linejoin="round"/>
</svg>
