<svg width="24" height="25" viewBox="0 0 24 25" fill="none" xmlns="http://www.w3.org/2000/svg">
<mask id="mask0_16124_17632" style="mask-type:alpha" maskUnits="userSpaceOnUse" x="0" y="0" width="24" height="25">
<rect y="0.125" width="24" height="24" fill="#D9D9D9"/>
</mask>
<g mask="url(#mask0_16124_17632)">
<path d="M18 19.125C18.55 19.125 19.0208 18.9292 19.4125 18.5375C19.8042 18.1458 20 17.675 20 17.125C20 16.575 19.8042 16.1042 19.4125 15.7125C19.0208 15.3208 18.55 15.125 18 15.125C17.45 15.125 16.9792 15.3208 16.5875 15.7125C16.1958 16.1042 16 16.575 16 17.125C16 17.675 16.1958 18.1458 16.5875 18.5375C16.9792 18.9292 17.45 19.125 18 19.125ZM17.8 22.125C17.5667 22.125 17.3625 22.05 17.1875 21.9C17.0125 21.75 16.9 21.5583 16.85 21.325L16.7 20.625C16.5 20.5417 16.3125 20.4542 16.1375 20.3625C15.9625 20.2708 15.7833 20.1583 15.6 20.025L14.875 20.25C14.6583 20.3167 14.4458 20.3083 14.2375 20.225C14.0292 20.1417 13.8667 20.0083 13.75 19.825L13.55 19.475C13.4333 19.275 13.3917 19.0583 13.425 18.825C13.4583 18.5917 13.5667 18.4 13.75 18.25L14.3 17.775C14.2667 17.575 14.25 17.3583 14.25 17.125C14.25 16.8917 14.2667 16.675 14.3 16.475L13.75 16C13.5667 15.85 13.4583 15.6625 13.425 15.4375C13.3917 15.2125 13.4333 15 13.55 14.8L13.775 14.425C13.8917 14.2417 14.05 14.1083 14.25 14.025C14.45 13.9417 14.6583 13.9333 14.875 14L15.6 14.225C15.7833 14.0917 15.9625 13.9792 16.1375 13.8875C16.3125 13.7958 16.5 13.7083 16.7 13.625L16.85 12.9C16.9 12.6667 17.0125 12.4792 17.1875 12.3375C17.3625 12.1958 17.5667 12.125 17.8 12.125H18.2C18.4333 12.125 18.6375 12.2 18.8125 12.35C18.9875 12.5 19.1 12.6917 19.15 12.925L19.3 13.625C19.5 13.7083 19.6875 13.7958 19.8625 13.8875C20.0375 13.9792 20.2167 14.0917 20.4 14.225L21.125 14C21.3417 13.9333 21.5542 13.9417 21.7625 14.025C21.9708 14.1083 22.1333 14.2417 22.25 14.425L22.45 14.775C22.5667 14.975 22.6083 15.1917 22.575 15.425C22.5417 15.6583 22.4333 15.85 22.25 16L21.7 16.475C21.7333 16.675 21.75 16.8917 21.75 17.125C21.75 17.3583 21.7333 17.575 21.7 17.775L22.25 18.25C22.4333 18.4 22.5417 18.5875 22.575 18.8125C22.6083 19.0375 22.5667 19.25 22.45 19.45L22.225 19.825C22.1083 20.0083 21.95 20.1417 21.75 20.225C21.55 20.3083 21.3417 20.3167 21.125 20.25L20.4 20.025C20.2167 20.1583 20.0375 20.2708 19.8625 20.3625C19.6875 20.4542 19.5 20.5417 19.3 20.625L19.15 21.35C19.1 21.5833 18.9875 21.7708 18.8125 21.9125C18.6375 22.0542 18.4333 22.125 18.2 22.125H17.8ZM4 18.125V6.125V10.425V10.125V18.125ZM4 20.125C3.45 20.125 2.97917 19.9292 2.5875 19.5375C2.19583 19.1458 2 18.675 2 18.125V6.125C2 5.575 2.19583 5.10417 2.5875 4.7125C2.97917 4.32083 3.45 4.125 4 4.125H9.175C9.44167 4.125 9.69583 4.175 9.9375 4.275C10.1792 4.375 10.3917 4.51667 10.575 4.7L12 6.125H20C20.55 6.125 21.0208 6.32083 21.4125 6.7125C21.8042 7.10417 22 7.575 22 8.125V10.125C22 10.4083 21.9042 10.6458 21.7125 10.8375C21.5208 11.0292 21.2833 11.125 21 11.125C20.7167 11.125 20.4792 11.0292 20.2875 10.8375C20.0958 10.6458 20 10.4083 20 10.125V8.125H11.175L9.175 6.125H4V18.125H11C11.2833 18.125 11.5208 18.2208 11.7125 18.4125C11.9042 18.6042 12 18.8417 12 19.125C12 19.4083 11.9042 19.6458 11.7125 19.8375C11.5208 20.0292 11.2833 20.125 11 20.125H4Z" fill="#FFA600"/>
<path d="M4 18.125V6.125V10.425V10.125V18.125ZM4 20.125C3.45 20.125 2.97917 19.9292 2.5875 19.5375C2.19583 19.1458 2 18.675 2 18.125V6.125C2 5.575 2.19583 5.10417 2.5875 4.7125C2.97917 4.32083 3.45 4.125 4 4.125H9.175C9.44167 4.125 9.69583 4.175 9.9375 4.275C10.1792 4.375 10.3917 4.51667 10.575 4.7L12 6.125H20C20.55 6.125 21.0208 6.32083 21.4125 6.7125C21.8042 7.10417 22 7.575 22 8.125V10.125C22 10.4083 21.9042 10.6458 21.7125 10.8375C21.5208 11.0292 21.2833 11.125 21 11.125C20.7167 11.125 20.4792 11.0292 20.2875 10.8375C20.0958 10.6458 20 10.4083 20 10.125V8.125H11.175L9.175 6.125H4V18.125H11C11.2833 18.125 11.5208 18.2208 11.7125 18.4125C11.9042 18.6042 12 18.8417 12 19.125C12 19.4083 11.9042 19.6458 11.7125 19.8375C11.5208 20.0292 11.2833 20.125 11 20.125H4Z" fill="#069550"/>
</g>
</svg>
