<svg width="24" height="25" viewBox="0 0 24 25" fill="none" xmlns="http://www.w3.org/2000/svg">
<mask id="mask0_9189_134029" style="mask-type:alpha" maskUnits="userSpaceOnUse" x="0" y="0" width="24" height="25">
<rect y="0.125" width="24" height="24" fill="#D9D9D9"/>
</mask>
<g mask="url(#mask0_9189_134029)">
<path d="M5 19.125V19.625C5 20.0417 4.85417 20.3958 4.5625 20.6875C4.27083 20.9792 3.91667 21.125 3.5 21.125C3.08333 21.125 2.72917 20.9792 2.4375 20.6875C2.14583 20.3958 2 20.0417 2 19.625V12.475C2 12.3583 2.00833 12.2417 2.025 12.125C2.04167 12.0083 2.06667 11.9 2.1 11.8L3.975 6.475C4.10833 6.075 4.35 5.75 4.7 5.5C5.05 5.25 5.44167 5.125 5.875 5.125H12V6.125C12 6.125 12 6.775 12 7.125H5.85L4.8 10.125H14L14.0674 10.2598C14.3517 10.8284 14.7674 11.3211 15.2801 11.6969L15.8641 12.125H4V17.125H18V12.125L19 11.125L20 10.125V19.625C20 20.0417 19.8542 20.3958 19.5625 20.6875C19.2708 20.9792 18.9167 21.125 18.5 21.125C18.0833 21.125 17.7292 20.9792 17.4375 20.6875C17.1458 20.3958 17 20.0417 17 19.625V19.125H5ZM6.5 16.125C6.91667 16.125 7.27083 15.9792 7.5625 15.6875C7.85417 15.3958 8 15.0417 8 14.625C8 14.2083 7.85417 13.8542 7.5625 13.5625C7.27083 13.2708 6.91667 13.125 6.5 13.125C6.08333 13.125 5.72917 13.2708 5.4375 13.5625C5.14583 13.8542 5 14.2083 5 14.625C5 15.0417 5.14583 15.3958 5.4375 15.6875C5.72917 15.9792 6.08333 16.125 6.5 16.125Z" fill="#069550"/>
<circle cx="15.5" cy="14.625" r="1.5" fill="#069550"/>
<mask id="mask1_9189_134029" style="mask-type:alpha" maskUnits="userSpaceOnUse" x="11" y="1" width="12" height="13">
<rect x="11" y="1.125" width="12" height="12" fill="#D9D9D9"/>
</mask>
<g mask="url(#mask1_9189_134029)">
<path d="M16.2697 11.611L16.2702 11.6115C16.3717 11.7037 16.4873 11.7731 16.6164 11.8192C16.7432 11.8645 16.8712 11.8875 17 11.8875C17.1288 11.8875 17.2568 11.8645 17.3836 11.8192C17.5127 11.7731 17.6283 11.7037 17.7298 11.6115L17.7303 11.611C18.2742 11.109 18.7559 10.619 19.1752 10.1409C19.5947 9.66269 19.946 9.19799 20.2285 8.74682C20.5108 8.29598 20.7268 7.86021 20.8755 7.43958C21.0245 7.01813 21.1 6.61307 21.1 6.225C21.1 4.95146 20.6893 3.92737 19.8615 3.16399C19.0396 2.40592 18.0844 2.025 17 2.025C15.9156 2.025 14.9604 2.40592 14.1385 3.16399C13.3107 3.92737 12.9 4.95146 12.9 6.225C12.9 6.61307 12.9755 7.01813 13.1245 7.43958C13.2732 7.86021 13.4892 8.29598 13.7715 8.74682C14.054 9.19799 14.4053 9.66269 14.8248 10.1409C15.2441 10.619 15.7258 11.109 16.2697 11.611ZM19.1785 8.20206C18.704 8.93786 17.979 9.75849 17 10.664C16.021 9.75849 15.296 8.93786 14.8215 8.20206C14.3351 7.44772 14.1 6.78975 14.1 6.225C14.1 5.34002 14.3812 4.62275 14.9395 4.06446C15.4993 3.50462 16.184 3.225 17 3.225C17.816 3.225 18.5007 3.50462 19.0605 4.06446C19.6188 4.62275 19.9 5.34002 19.9 6.225C19.9 6.78975 19.6649 7.44772 19.1785 8.20206ZM17 7.225C17.3017 7.225 17.5625 7.1164 17.777 6.90196C17.9914 6.68752 18.1 6.42673 18.1 6.125C18.1 5.82327 17.9914 5.56248 17.777 5.34804C17.5625 5.1336 17.3017 5.025 17 5.025C16.6983 5.025 16.4375 5.1336 16.223 5.34804C16.0086 5.56248 15.9 5.82327 15.9 6.125C15.9 6.42673 16.0086 6.68752 16.223 6.90196C16.4375 7.1164 16.6983 7.225 17 7.225Z" fill="#FFA600" stroke="#FFA600" stroke-width="0.2"/>
</g>
</g>
</svg>
