<svg width="24" height="25" viewBox="0 0 24 25" fill="none" xmlns="http://www.w3.org/2000/svg">
<mask id="mask0_12636_197539" style="mask-type:alpha" maskUnits="userSpaceOnUse" x="0" y="0" width="24" height="25">
<rect y="0.125" width="24" height="24" fill="#D9D9D9"/>
</mask>
<g mask="url(#mask0_12636_197539)">
<path d="M5 19.125V19.625C5 20.0417 4.85417 20.3958 4.5625 20.6875C4.27083 20.9792 3.91667 21.125 3.5 21.125C3.08333 21.125 2.72917 20.9792 2.4375 20.6875C2.14583 20.3958 2 20.0417 2 19.625V12.475C2 12.3583 2.00833 12.2417 2.025 12.125C2.04167 12.0083 2.06667 11.9 2.1 11.8L3.975 6.475C4.10833 6.075 4.35 5.75 4.7 5.5C5.05 5.25 5.44167 5.125 5.875 5.125H17.5L17.2802 5.56465C17.1088 5.90737 17.1594 6.31262 17.3396 6.65074C17.4285 6.81748 17.5 6.99268 17.5 7.125H5.85L4.8 10.125H13L12.5 11.125L12 12.125H4V17.125H18V12.125L19 11.125L20 10.125V19.625C20 20.0417 19.8542 20.3958 19.5625 20.6875C19.2708 20.9792 18.9167 21.125 18.5 21.125C18.0833 21.125 17.7292 20.9792 17.4375 20.6875C17.1458 20.3958 17 20.0417 17 19.625V19.125H5ZM6.5 16.125C6.91667 16.125 7.27083 15.9792 7.5625 15.6875C7.85417 15.3958 8 15.0417 8 14.625C8 14.2083 7.85417 13.8542 7.5625 13.5625C7.27083 13.2708 6.91667 13.125 6.5 13.125C6.08333 13.125 5.72917 13.2708 5.4375 13.5625C5.14583 13.8542 5 14.2083 5 14.625C5 15.0417 5.14583 15.3958 5.4375 15.6875C5.72917 15.9792 6.08333 16.125 6.5 16.125Z" fill="#069550"/>
<path d="M13.1743 12.4852L15.3858 8.86451L17.7996 10.3389L19.2739 7.92511L20.0111 6.71823M20.0111 6.71823L18.8042 5.98105L20.7483 5.51135L21.218 7.45541L20.0111 6.71823Z" stroke="#FFA600" stroke-width="1.5" stroke-linecap="round" stroke-linejoin="round"/>
<circle cx="15.5" cy="14.625" r="1.5" fill="#069550"/>
</g>
</svg>
