<svg width="24" height="25" viewBox="0 0 24 25" fill="none" xmlns="http://www.w3.org/2000/svg">
<path fill-rule="evenodd" clip-rule="evenodd" d="M9 5.125L6.5 3.125L3 5.125V17.125C3 19.3341 4.79086 21.125 7 21.125H15V5.125L12 3.125L9 5.125ZM12 5.5287L8.89258 7.60031L6.31206 5.5359L5 6.28565V17.125C5 18.2296 5.89543 19.125 7 19.125H13V6.19537L12 5.5287Z" fill="#069550"/>
<path fill-rule="evenodd" clip-rule="evenodd" d="M19 14.125H15V19.125H17C18.1046 19.125 19 18.2296 19 17.125V14.125ZM13 12.125V21.125H17C19.2091 21.125 21 19.3341 21 17.125V14.125C21 13.0204 20.1046 12.125 19 12.125H13Z" fill="#069550"/>
<path fill-rule="evenodd" clip-rule="evenodd" d="M7 11.125C7 10.5727 7.44772 10.125 8 10.125H10C10.5523 10.125 11 10.5727 11 11.125C11 11.6773 10.5523 12.125 10 12.125H8C7.44772 12.125 7 11.6773 7 11.125Z" fill="#FFA600"/>
<path fill-rule="evenodd" clip-rule="evenodd" d="M7 15.125C7 14.5727 7.44772 14.125 8 14.125H10C10.5523 14.125 11 14.5727 11 15.125C11 15.6773 10.5523 16.125 10 16.125H8C7.44772 16.125 7 15.6773 7 15.125Z" fill="#FFA600"/>
</svg>
