<svg width="24" height="25" viewBox="0 0 24 25" fill="none" xmlns="http://www.w3.org/2000/svg">
<path fill-rule="evenodd" clip-rule="evenodd" d="M7 3.625L4.5 1.625L1 3.625V15.625C1 17.8341 2.79086 19.625 5 19.625H13V3.625L10 1.625L7 3.625ZM10 4.0287L6.89258 6.10031L4.31206 4.0359L3 4.78565V15.625C3 16.7296 3.89543 17.625 5 17.625H11V4.69537L10 4.0287Z" fill="#069550"/>
<path fill-rule="evenodd" clip-rule="evenodd" d="M5 9.625C5 9.07272 5.44772 8.625 6 8.625H8C8.55228 8.625 9 9.07272 9 9.625C9 10.1773 8.55228 10.625 8 10.625H6C5.44772 10.625 5 10.1773 5 9.625Z" fill="#069550"/>
<path fill-rule="evenodd" clip-rule="evenodd" d="M5 13.625C5 13.0727 5.44772 12.625 6 12.625H8C8.55228 12.625 9 13.0727 9 13.625C9 14.1773 8.55228 14.625 8 14.625H6C5.44772 14.625 5 14.1773 5 13.625Z" fill="#069550"/>
<path d="M17.9402 18.6089L16.1096 20.4395C15.9688 20.5803 15.9 20.7597 15.9 20.9693C15.9 21.1789 15.9688 21.3582 16.1096 21.499C16.2504 21.6398 16.4297 21.7086 16.6393 21.7086C16.8489 21.7086 17.0283 21.6398 17.1691 21.499L18.9997 19.6684L20.8129 21.4973C20.9521 21.6485 21.1288 21.725 21.3361 21.725C21.5437 21.725 21.7247 21.6483 21.874 21.499C22.0148 21.3582 22.0836 21.1789 22.0836 20.9693C22.0836 20.7597 22.0148 20.5803 21.874 20.4395L20.0434 18.6089L21.8723 16.7957C22.0235 16.6565 22.1 16.4798 22.1 16.2725C22.1 16.0649 22.0233 15.8839 21.874 15.7346C21.7332 15.5938 21.5539 15.525 21.3443 15.525C21.1347 15.525 20.9553 15.5938 20.8145 15.7346L20.8142 15.7349L18.9997 17.5652L17.1691 15.7346C17.0283 15.5938 16.8489 15.525 16.6393 15.525C16.4297 15.525 16.2504 15.5938 16.1096 15.7346C15.9688 15.8754 15.9 16.0547 15.9 16.2643C15.9 16.4739 15.9688 16.6533 16.1096 16.7941L16.1099 16.7944L17.9402 18.6089Z" fill="#FFA600" stroke="#FFA600" stroke-width="0.2"/>
<path d="M19 14.625V11.625C19 11.0727 18.5523 10.625 18 10.625H17H12V17.625V18.625H15" stroke="#069550" stroke-width="2" stroke-linecap="round"/>
</svg>
