<svg width="24" height="25" viewBox="0 0 24 25" fill="none" xmlns="http://www.w3.org/2000/svg">
<path fill-rule="evenodd" clip-rule="evenodd" d="M13.1873 5.59437C13.1873 5.90926 13.0622 6.21126 12.8396 6.43393C12.6169 6.65659 12.3149 6.78168 12 6.78168C11.6851 6.78168 11.3831 6.65659 11.1605 6.43393C10.9378 6.21126 10.8127 5.90926 10.8127 5.59437C10.8127 5.27947 10.9378 4.97748 11.1605 4.75481C11.3831 4.53215 11.6851 4.40705 12 4.40705C12.3149 4.40705 12.6169 4.53215 12.8396 4.75481C13.0622 4.97748 13.1873 5.27947 13.1873 5.59437ZM14.9089 5.00071C14.7727 4.32971 14.4086 3.72644 13.8785 3.29313C13.3484 2.85982 12.6847 2.62311 12 2.62311C11.3153 2.62311 10.6517 2.85982 10.1215 3.29313C9.59139 3.72644 9.22735 4.32971 9.09109 5.00071H6.06344C5.74855 5.00071 5.44655 5.1258 5.22389 5.34847C5.00122 5.57113 4.87613 5.87313 4.87613 6.18803V20.4358C4.87613 20.7507 5.00122 21.0527 5.22389 21.2754C5.44655 21.498 5.74855 21.6231 6.06344 21.6231H17.9366C18.2515 21.6231 18.5535 21.498 18.7761 21.2754C18.9988 21.0527 19.1239 20.7507 19.1239 20.4358V6.18803C19.1239 5.87313 18.9988 5.57113 18.7761 5.34847C18.5535 5.1258 18.2515 5.00071 17.9366 5.00071H14.9089ZM12 8.56265H9.03173V6.78168H6.6571V19.8421H17.3429V6.78168H14.9683V8.56265H12Z" fill="#069550"/>
<path d="M8.69887 11.1981C8.53187 11.3651 8.43805 11.5916 8.43805 11.8278C8.43805 12.064 8.53187 12.2905 8.69887 12.4575C8.86587 12.6245 9.09236 12.7183 9.32853 12.7183H14.6714C14.9076 12.7183 15.1341 12.6245 15.3011 12.4575C15.4681 12.2905 15.5619 12.064 15.5619 11.8278C15.5619 11.5916 15.4681 11.3651 15.3011 11.1981C15.1341 11.0311 14.9076 10.9373 14.6714 10.9373H9.32853C9.09236 10.9373 8.86587 11.0311 8.69887 11.1981Z" fill="#FFA600"/>
<path d="M8.69887 14.1664C8.86587 13.9994 9.09236 13.9056 9.32853 13.9056H14.6714C14.9076 13.9056 15.1341 13.9994 15.3011 14.1664C15.4681 14.3334 15.5619 14.5599 15.5619 14.7961C15.5619 15.0323 15.4681 15.2588 15.3011 15.4258C15.1341 15.5928 14.9076 15.6866 14.6714 15.6866H9.32853C9.09236 15.6866 8.86587 15.5928 8.69887 15.4258C8.53187 15.2588 8.43805 15.0323 8.43805 14.7961C8.43805 14.5599 8.53187 14.3334 8.69887 14.1664Z" fill="#FFA600"/>
</svg>
