<svg width="24" height="25" viewBox="0 0 24 25" fill="none" xmlns="http://www.w3.org/2000/svg">
<mask id="mask0_7184_6976" style="mask-type:alpha" maskUnits="userSpaceOnUse" x="0" y="0" width="24" height="25">
<rect y="0.125" width="24" height="24" fill="#D9D9D9"/>
</mask>
<g mask="url(#mask0_7184_6976)">
<mask id="mask1_7184_6976" style="mask-type:alpha" maskUnits="userSpaceOnUse" x="13" y="11" width="12" height="13">
<rect x="13" y="11.125" width="12" height="12" fill="#D9D9D9"/>
</mask>
<g mask="url(#mask1_7184_6976)">
<path d="M17.625 22.125L17.425 20.525C17.3167 20.4833 17.2146 20.4333 17.1188 20.375C17.0229 20.3167 16.9292 20.2542 16.8375 20.1875L15.35 20.8125L13.975 18.4375L15.2625 17.4625C15.2542 17.4042 15.25 17.3479 15.25 17.2938V16.9563C15.25 16.9021 15.2542 16.8458 15.2625 16.7875L13.975 15.8125L15.35 13.4375L16.8375 14.0625C16.9292 13.9958 17.025 13.9333 17.125 13.875C17.225 13.8167 17.325 13.7667 17.425 13.725L17.625 12.125H20.375L20.575 13.725C20.6833 13.7667 20.7854 13.8167 20.8813 13.875C20.9771 13.9333 21.0708 13.9958 21.1625 14.0625L22.65 13.4375L24.025 15.8125L22.7375 16.7875C22.7458 16.8458 22.75 16.9021 22.75 16.9563V17.2938C22.75 17.3479 22.7417 17.4042 22.725 17.4625L24.0125 18.4375L22.6375 20.8125L21.1625 20.1875C21.0708 20.2542 20.975 20.3167 20.875 20.375C20.775 20.4333 20.675 20.4833 20.575 20.525L20.375 22.125H17.625ZM19.025 18.875C19.5083 18.875 19.9208 18.7042 20.2625 18.3625C20.6042 18.0208 20.775 17.6083 20.775 17.125C20.775 16.6417 20.6042 16.2292 20.2625 15.8875C19.9208 15.5458 19.5083 15.375 19.025 15.375C18.5333 15.375 18.1188 15.5458 17.7813 15.8875C17.4438 16.2292 17.275 16.6417 17.275 17.125C17.275 17.6083 17.4438 18.0208 17.7813 18.3625C18.1188 18.7042 18.5333 18.875 19.025 18.875ZM19.025 17.875C18.8167 17.875 18.6396 17.8021 18.4938 17.6562C18.3479 17.5104 18.275 17.3333 18.275 17.125C18.275 16.9167 18.3479 16.7396 18.4938 16.5938C18.6396 16.4479 18.8167 16.375 19.025 16.375C19.2333 16.375 19.4104 16.4479 19.5563 16.5938C19.7021 16.7396 19.775 16.9167 19.775 17.125C19.775 17.3333 19.7021 17.5104 19.5563 17.6562C19.4104 17.8021 19.2333 17.875 19.025 17.875ZM18.5 21.125H19.4875L19.6625 19.8C19.9208 19.7333 20.1604 19.6354 20.3813 19.5062C20.6021 19.3771 20.8042 19.2208 20.9875 19.0375L22.225 19.55L22.7125 18.7L21.6375 17.8875C21.6792 17.7708 21.7083 17.6479 21.725 17.5188C21.7417 17.3896 21.75 17.2583 21.75 17.125C21.75 16.9917 21.7417 16.8604 21.725 16.7313C21.7083 16.6021 21.6792 16.4792 21.6375 16.3625L22.7125 15.55L22.225 14.7L20.9875 15.225C20.8042 15.0333 20.6021 14.8729 20.3813 14.7438C20.1604 14.6146 19.9208 14.5167 19.6625 14.45L19.5 13.125H18.5125L18.3375 14.45C18.0792 14.5167 17.8396 14.6146 17.6188 14.7438C17.3979 14.8729 17.1958 15.0292 17.0125 15.2125L15.775 14.7L15.2875 15.55L16.3625 16.35C16.3208 16.475 16.2917 16.6 16.275 16.725C16.2583 16.85 16.25 16.9833 16.25 17.125C16.25 17.2583 16.2583 17.3875 16.275 17.5125C16.2917 17.6375 16.3208 17.7625 16.3625 17.8875L15.2875 18.7L15.775 19.55L17.0125 19.025C17.1958 19.2167 17.3979 19.3771 17.6188 19.5062C17.8396 19.6354 18.0792 19.7333 18.3375 19.8L18.5 21.125Z" fill="#FFA600"/>
</g>
<path d="M6 20.125V17.125H3C2.71667 17.125 2.47917 17.0292 2.2875 16.8375C2.09583 16.6458 2 16.4083 2 16.125V11.125C2 10.275 2.29167 9.5625 2.875 8.9875C3.45833 8.4125 4.16667 8.125 5 8.125H19C19.85 8.125 20.5625 8.4125 21.1375 8.9875C21.7125 9.5625 22 10.275 22 11.125V11.875C21.7 11.7083 21.3833 11.5667 21.05 11.45C20.7167 11.3333 20.3667 11.25 20 11.2V11.125C20 10.8417 19.9042 10.6042 19.7125 10.4125C19.5208 10.2208 19.2833 10.125 19 10.125H5C4.71667 10.125 4.47917 10.2208 4.2875 10.4125C4.09583 10.6042 4 10.8417 4 11.125V15.125H6V14.125C6 13.8417 6.09583 13.6042 6.2875 13.4125C6.47917 13.2208 6.71667 13.125 7 13.125H14.5C14.2333 13.4083 13.9917 13.7167 13.775 14.05C13.5583 14.3833 13.3833 14.7417 13.25 15.125H8V19.125H13.1C13.2167 19.4917 13.3583 19.8417 13.525 20.175C13.6917 20.5083 13.8917 20.825 14.125 21.125H7C6.71667 21.125 6.47917 21.0292 6.2875 20.8375C6.09583 20.6458 6 20.4083 6 20.125ZM6 8.125V5.125C6 4.575 6.19583 4.10417 6.5875 3.7125C6.97917 3.32083 7.45 3.125 8 3.125H16C16.55 3.125 17.0208 3.32083 17.4125 3.7125C17.8042 4.10417 18 4.575 18 5.125V8.125H16V5.125H8V8.125H6Z" fill="#069550"/>
</g>
</svg>
