<svg width="24" height="25" viewBox="0 0 24 25" fill="none" xmlns="http://www.w3.org/2000/svg">
<mask id="mask0_7376_70064" style="mask-type:alpha" maskUnits="userSpaceOnUse" x="0" y="0" width="24" height="25">
<rect y="0.125" width="24" height="24" fill="#D9D9D9"/>
</mask>
<g mask="url(#mask0_7376_70064)">
<path d="M16 8.125V5.125H8V8.125H6V4.125C6 3.84167 6.09583 3.60417 6.2875 3.4125C6.47917 3.22083 6.71667 3.125 7 3.125H17C17.2833 3.125 17.5208 3.22083 17.7125 3.4125C17.9042 3.60417 18 3.84167 18 4.125V8.125H16ZM18 12.625C18.2833 12.625 18.5208 12.5292 18.7125 12.3375C18.9042 12.1458 19 11.9083 19 11.625C19 11.3417 18.9042 11.1042 18.7125 10.9125C18.5208 10.7208 18.2833 10.625 18 10.625C17.7167 10.625 17.4792 10.7208 17.2875 10.9125C17.0958 11.1042 17 11.3417 17 11.625C17 11.9083 17.0958 12.1458 17.2875 12.3375C17.4792 12.5292 17.7167 12.625 18 12.625ZM8 19.125H16V15.125H8V19.125ZM8 21.125C7.45 21.125 6.97917 20.9292 6.5875 20.5375C6.19583 20.1458 6 19.675 6 19.125V17.125H3C2.71667 17.125 2.47917 17.0292 2.2875 16.8375C2.09583 16.6458 2 16.4083 2 16.125V11.125C2 10.275 2.29167 9.5625 2.875 8.9875C3.45833 8.4125 4.16667 8.125 5 8.125H19C19.85 8.125 20.5625 8.4125 21.1375 8.9875C21.7125 9.5625 22 10.275 22 11.125V16.125C22 16.4083 21.9042 16.6458 21.7125 16.8375C21.5208 17.0292 21.2833 17.125 21 17.125H18V19.125C18 19.675 17.8042 20.1458 17.4125 20.5375C17.0208 20.9292 16.55 21.125 16 21.125H8ZM20 15.125V11.125C20 10.8417 19.9042 10.6042 19.7125 10.4125C19.5208 10.2208 19.2833 10.125 19 10.125H5C4.71667 10.125 4.47917 10.2208 4.2875 10.4125C4.09583 10.6042 4 10.8417 4 11.125V15.125H6V13.125H18V15.125H20Z" fill="#069550"/>
<mask id="mask1_7376_70064" style="mask-type:alpha" maskUnits="userSpaceOnUse" x="6" y="0" width="12" height="9">
<rect x="6" y="0.125" width="12" height="8" fill="#D9D9D9"/>
</mask>
<g mask="url(#mask1_7376_70064)">
<path d="M16 8.125V5.125H8V8.125H6V4.125C6 3.84167 6.09583 3.60417 6.2875 3.4125C6.47917 3.22083 6.71667 3.125 7 3.125H17C17.2833 3.125 17.5208 3.22083 17.7125 3.4125C17.9042 3.60417 18 3.84167 18 4.125V8.125H16ZM18 12.625C18.2833 12.625 18.5208 12.5292 18.7125 12.3375C18.9042 12.1458 19 11.9083 19 11.625C19 11.3417 18.9042 11.1042 18.7125 10.9125C18.5208 10.7208 18.2833 10.625 18 10.625C17.7167 10.625 17.4792 10.7208 17.2875 10.9125C17.0958 11.1042 17 11.3417 17 11.625C17 11.9083 17.0958 12.1458 17.2875 12.3375C17.4792 12.5292 17.7167 12.625 18 12.625ZM8 19.125H16V15.125H8V19.125ZM8 21.125C7.45 21.125 6.97917 20.9292 6.5875 20.5375C6.19583 20.1458 6 19.675 6 19.125V17.125H3C2.71667 17.125 2.47917 17.0292 2.2875 16.8375C2.09583 16.6458 2 16.4083 2 16.125V11.125C2 10.275 2.29167 9.5625 2.875 8.9875C3.45833 8.4125 4.16667 8.125 5 8.125H19C19.85 8.125 20.5625 8.4125 21.1375 8.9875C21.7125 9.5625 22 10.275 22 11.125V16.125C22 16.4083 21.9042 16.6458 21.7125 16.8375C21.5208 17.0292 21.2833 17.125 21 17.125H18V19.125C18 19.675 17.8042 20.1458 17.4125 20.5375C17.0208 20.9292 16.55 21.125 16 21.125H8ZM20 15.125V11.125C20 10.8417 19.9042 10.6042 19.7125 10.4125C19.5208 10.2208 19.2833 10.125 19 10.125H5C4.71667 10.125 4.47917 10.2208 4.2875 10.4125C4.09583 10.6042 4 10.8417 4 11.125V15.125H6V13.125H18V15.125H20Z" fill="#FFA600"/>
</g>
<circle cx="18" cy="11.625" r="1" fill="#FFA600"/>
</g>
</svg>
