<svg width="24" height="25" viewBox="0 0 24 25" fill="none" xmlns="http://www.w3.org/2000/svg">
<mask id="mask0_16311_14399" style="mask-type:alpha" maskUnits="userSpaceOnUse" x="0" y="0" width="24" height="25">
<rect y="0.125" width="24" height="24" fill="#D9D9D9"/>
</mask>
<g mask="url(#mask0_16311_14399)">
<path d="M6.5 6.125C5.95 6.125 5.47917 5.92917 5.0875 5.5375C4.69583 5.14583 4.5 4.675 4.5 4.125C4.5 3.575 4.69583 3.10417 5.0875 2.7125C5.47917 2.32083 5.95 2.125 6.5 2.125C7.05 2.125 7.52083 2.32083 7.9125 2.7125C8.30417 3.10417 8.5 3.575 8.5 4.125C8.5 4.675 8.30417 5.14583 7.9125 5.5375C7.52083 5.92917 7.05 6.125 6.5 6.125ZM5 21.125V15.125H4C3.71667 15.125 3.47917 15.0292 3.2875 14.8375C3.09583 14.6458 3 14.4083 3 14.125V9.125C3 8.575 3.19583 8.10417 3.5875 7.7125C3.97917 7.32083 4.45 7.125 5 7.125H8C8.55 7.125 9.02083 7.32083 9.4125 7.7125C9.80417 8.10417 10 8.575 10 9.125V11.075C8.95 11.675 8.10417 12.5083 7.4625 13.575C6.82083 14.6417 6.5 15.825 6.5 17.125C6.5 18.075 6.675 18.9708 7.025 19.8125C7.375 20.6542 7.86667 21.3917 8.5 22.025V22.125H6C5.71667 22.125 5.47917 22.0292 5.2875 21.8375C5.09583 21.6458 5 21.4083 5 21.125ZM13.5 22.125C12.1167 22.125 10.9375 21.6375 9.9625 20.6625C8.9875 19.6875 8.5 18.5083 8.5 17.125C8.5 16.0083 8.82917 15.0208 9.4875 14.1625C10.1458 13.3042 10.9833 12.7083 12 12.375V14.55C11.55 14.8167 11.1875 15.175 10.9125 15.625C10.6375 16.075 10.5 16.575 10.5 17.125C10.5 17.9583 10.7917 18.6667 11.375 19.25C11.9583 19.8333 12.6667 20.125 13.5 20.125C14.3333 20.125 15.0417 19.8333 15.625 19.25C16.2083 18.6667 16.5 17.9583 16.5 17.125H18.5C18.5 18.5083 18.0125 19.6875 17.0375 20.6625C16.0625 21.6375 14.8833 22.125 13.5 22.125ZM20.375 19L18.45 16.125H15C14.45 16.125 13.9792 15.9292 13.5875 15.5375C13.1958 15.1458 13 14.675 13 14.125V9.125C13 8.84167 13.0958 8.60417 13.2875 8.4125C13.4792 8.22083 13.7167 8.125 14 8.125C14.2833 8.125 14.5208 8.22083 14.7125 8.4125C14.9042 8.60417 15 8.84167 15 9.125V14.125H18.475C18.8083 14.125 19.125 14.2042 19.425 14.3625C19.725 14.5208 19.9667 14.7417 20.15 15.025L22.05 17.9C22.2 18.1333 22.2458 18.3833 22.1875 18.65C22.1292 18.9167 21.9833 19.125 21.75 19.275C21.5167 19.425 21.2667 19.475 21 19.425C20.7333 19.375 20.525 19.2333 20.375 19Z" fill="#FFA600"/>
<path d="M13.5 22.125C12.1167 22.125 10.9375 21.6375 9.9625 20.6625C8.9875 19.6875 8.5 18.5083 8.5 17.125C8.5 16.0083 8.82917 15.0208 9.4875 14.1625C10.1458 13.3042 10.9833 12.7083 12 12.375V14.55C11.55 14.8167 11.1875 15.175 10.9125 15.625C10.6375 16.075 10.5 16.575 10.5 17.125C10.5 17.9583 10.7917 18.6667 11.375 19.25C11.9583 19.8333 12.6667 20.125 13.5 20.125C14.3333 20.125 15.0417 19.8333 15.625 19.25C16.2083 18.6667 16.5 17.9583 16.5 17.125H18.5C18.5 18.5083 18.0125 19.6875 17.0375 20.6625C16.0625 21.6375 14.8833 22.125 13.5 22.125ZM20.375 19L18.45 16.125H15C14.45 16.125 13.9792 15.9292 13.5875 15.5375C13.1958 15.1458 13 14.675 13 14.125V9.125C13 8.84167 13.0958 8.60417 13.2875 8.4125C13.4792 8.22083 13.7167 8.125 14 8.125C14.2833 8.125 14.5208 8.22083 14.7125 8.4125C14.9042 8.60417 15 8.84167 15 9.125V14.125H18.475C18.8083 14.125 19.125 14.2042 19.425 14.3625C19.725 14.5208 19.9667 14.7417 20.15 15.025L22.05 17.9C22.2 18.1333 22.2458 18.3833 22.1875 18.65C22.1292 18.9167 21.9833 19.125 21.75 19.275C21.5167 19.425 21.2667 19.475 21 19.425C20.7333 19.375 20.525 19.2333 20.375 19Z" fill="#069550"/>
<path d="M12.5875 6.5375C12.9792 6.92917 13.45 7.125 14 7.125C14.55 7.125 15.0208 6.92917 15.4125 6.5375C15.8042 6.14583 16 5.675 16 5.125C16 4.575 15.8042 4.10417 15.4125 3.7125C15.0208 3.32083 14.55 3.125 14 3.125C13.45 3.125 12.9792 3.32083 12.5875 3.7125C12.1958 4.10417 12 4.575 12 5.125C12 5.675 12.1958 6.14583 12.5875 6.5375Z" fill="#069550"/>
</g>
</svg>
