<svg width="24" height="25" viewBox="0 0 24 25" fill="none" xmlns="http://www.w3.org/2000/svg">
<mask id="mask0_15073_359754" style="mask-type:alpha" maskUnits="userSpaceOnUse" x="0" y="0" width="24" height="25">
<rect y="0.125" width="24" height="24" fill="#D9D9D9"/>
</mask>
<g mask="url(#mask0_15073_359754)">
<path d="M5 18.125V18.625C5 19.0417 4.85417 19.3958 4.5625 19.6875C4.27083 19.9792 3.91667 20.125 3.5 20.125C3.08333 20.125 2.72917 19.9792 2.4375 19.6875C2.14583 19.3958 2 19.0417 2 18.625V11.475C2 11.3583 2.00833 11.2417 2.025 11.125C2.04167 11.0083 2.06667 10.9 2.1 10.8L3.975 5.475C4.10833 5.075 4.35 4.75 4.7 4.5C5.05 4.25 5.44167 4.125 5.875 4.125H12.5V5.125V6.125H5.85L4.8 9.125H12.5V10.125V11.125H4V16.125H18V11.625H19H20V18.625C20 19.0417 19.8542 19.3958 19.5625 19.6875C19.2708 19.9792 18.9167 20.125 18.5 20.125C18.0833 20.125 17.7292 19.9792 17.4375 19.6875C17.1458 19.3958 17 19.0417 17 18.625V18.125H5ZM6.5 15.125C6.91667 15.125 7.27083 14.9792 7.5625 14.6875C7.85417 14.3958 8 14.0417 8 13.625C8 13.2083 7.85417 12.8542 7.5625 12.5625C7.27083 12.2708 6.91667 12.125 6.5 12.125C6.08333 12.125 5.72917 12.2708 5.4375 12.5625C5.14583 12.8542 5 13.2083 5 13.625C5 14.0417 5.14583 14.3958 5.4375 14.6875C5.72917 14.9792 6.08333 15.125 6.5 15.125Z" fill="#069550"/>
<circle cx="15.5" cy="13.625" r="1.5" fill="#069550"/>
<path d="M13.7875 4.66625C13.9792 4.83875 14.2167 4.925 14.5 4.925H21.5C21.7833 4.925 22.0208 4.83875 22.2125 4.66625C22.4042 4.49375 22.5 4.28 22.5 4.025C22.5 3.77 22.4042 3.55625 22.2125 3.38375C22.0208 3.21125 21.7833 3.125 21.5 3.125H14.5C14.2167 3.125 13.9792 3.21125 13.7875 3.38375C13.5958 3.55625 13.5 3.77 13.5 4.025C13.5 4.28 13.5958 4.49375 13.7875 4.66625Z" fill="#FFA600"/>
<path d="M13.7875 7.46624C13.9792 7.63874 14.2167 7.72499 14.5 7.72499H21.5C21.7833 7.72499 22.0208 7.63874 22.2125 7.46624C22.4042 7.29374 22.5 7.07999 22.5 6.82499C22.5 6.56999 22.4042 6.35624 22.2125 6.18374C22.0208 6.01124 21.7833 5.92499 21.5 5.92499H14.5C14.2167 5.92499 13.9792 6.01124 13.7875 6.18374C13.5958 6.35624 13.5 6.56999 13.5 6.82499C13.5 7.07999 13.5958 7.29374 13.7875 7.46624Z" fill="#FFA600"/>
<path d="M13.7236 10.2662C13.8727 10.4387 14.0574 10.525 14.2778 10.525H19.7222C19.9426 10.525 20.1273 10.4387 20.2764 10.2662C20.4255 10.0937 20.5 9.87998 20.5 9.62498C20.5 9.36998 20.4255 9.15623 20.2764 8.98373C20.1273 8.81123 19.9426 8.72498 19.7222 8.72498H14.2778C14.0574 8.72498 13.8727 8.81123 13.7236 8.98373C13.5745 9.15623 13.5 9.36998 13.5 9.62498C13.5 9.87998 13.5745 10.0937 13.7236 10.2662Z" fill="#FFA600"/>
</g>
</svg>
