<svg width="24" height="25" viewBox="0 0 24 25" fill="none" xmlns="http://www.w3.org/2000/svg">
<path d="M12.506 20.0586H18.4169C19.411 20.0586 20.2169 19.2527 20.2169 18.2586V9.9084C20.2169 8.91429 19.411 8.1084 18.4169 8.1084H12.0776H8.65059H4.79517V10.6976" stroke="#069550" stroke-width="1.8" stroke-linecap="round" stroke-linejoin="round"/>
<path d="M16.3614 8.1084V5.025C16.3614 4.52794 15.9585 4.125 15.4614 4.125H12.2306H10.1652H6.59517C5.60105 4.125 4.79517 4.93089 4.79517 5.925V8.1084" stroke="#069550" stroke-width="1.8" stroke-linejoin="round"/>
<rect x="17.2718" y="13.5696" width="0.963856" height="1.02785" rx="0.481928" stroke="#FFA600" stroke-width="0.963856" stroke-linejoin="round"/>
<path d="M4.54059 13.6649C4.41945 13.5329 4.42267 13.3281 4.55734 13.214C5.22473 12.6488 6.0426 12.301 6.90669 12.2193C7.87489 12.1277 8.84473 12.3756 9.65993 12.923C10.4751 13.4704 11.0882 14.2854 11.4004 15.2368C11.7126 16.1881 11.7057 17.2203 11.3808 18.1671C11.0559 19.1139 10.432 19.9201 9.60957 20.4558C8.78713 20.9915 7.81407 21.2255 6.84719 21.1202C5.88031 21.0148 4.97591 20.5762 4.27974 19.875C3.65827 19.249 3.23504 18.4464 3.06134 17.5728C3.02643 17.3972 3.14982 17.2358 3.32504 17.2121C3.50528 17.1876 3.67103 17.3179 3.70978 17.498C3.86458 18.2172 4.21902 18.877 4.73296 19.3946C5.32471 19.9907 6.09344 20.3635 6.91529 20.4531C7.73714 20.5426 8.56424 20.3437 9.26331 19.8883C9.96239 19.433 10.4927 18.7477 10.7689 17.9429C11.045 17.1382 11.0509 16.2608 10.7855 15.4522C10.5202 14.6435 9.99904 13.9508 9.30612 13.4855C8.6132 13.0202 7.78884 12.8095 6.96587 12.8873C6.25248 12.9547 5.57615 13.2356 5.01809 13.6919C4.87653 13.8076 4.66612 13.8017 4.54059 13.6649Z" fill="#069550" stroke="#069550" stroke-width="0.7" stroke-linejoin="round"/>
<path fill-rule="evenodd" clip-rule="evenodd" d="M5.51493 14.2382C5.6743 14.2382 5.8035 14.1047 5.8035 13.94C5.8035 13.7754 5.6743 13.6419 5.51493 13.6419H4.64925V12.7475C4.64925 12.5828 4.52006 12.4493 4.36069 12.4493C4.20132 12.4493 4.07213 12.5828 4.07213 12.7475V13.94C4.07213 13.9606 4.07415 13.9807 4.07799 14.0001C4.08233 14.022 4.089 14.0431 4.09771 14.063C4.14303 14.1663 4.24373 14.2382 4.36069 14.2382H5.51493Z" fill="#069550"/>
<line x1="7.19217" y1="15.575" x2="7.19217" y2="17.4371" stroke="#FFA600" stroke-linecap="round" stroke-linejoin="round"/>
<line x1="7.19217" y1="17.4371" x2="7.92354" y2="17.4371" stroke="#FFA600" stroke-linecap="round" stroke-linejoin="round"/>
</svg>
