<svg width="24" height="25" viewBox="0 0 24 25" fill="none" xmlns="http://www.w3.org/2000/svg">
<path fill-rule="evenodd" clip-rule="evenodd" d="M8.16002 4.925L5.76002 3.005L2.40002 4.925V16.445C2.40002 18.5658 4.11925 20.285 6.24002 20.285H12.96C13.4902 20.285 13.92 19.8552 13.92 19.325V4.925L11.04 3.005L8.16002 4.925ZM11.04 5.31256L8.0569 7.30131L5.5796 5.31947L4.32002 6.03922V16.445C4.32002 17.5054 5.17964 18.365 6.24002 18.365H12V5.95256L11.04 5.31256Z" fill="#069550"/>
<path fill-rule="evenodd" clip-rule="evenodd" d="M6.23999 10.685C6.23999 10.1548 6.6698 9.72498 7.19999 9.72498H9.11999C9.65018 9.72498 10.08 10.1548 10.08 10.685C10.08 11.2152 9.65018 11.645 9.11999 11.645H7.19999C6.6698 11.645 6.23999 11.2152 6.23999 10.685Z" fill="#069550"/>
<path fill-rule="evenodd" clip-rule="evenodd" d="M6.23999 14.525C6.23999 13.9948 6.6698 13.565 7.19999 13.565H9.11999C9.65018 13.565 10.08 13.9948 10.08 14.525C10.08 15.0552 9.65018 15.485 9.11999 15.485H7.19999C6.6698 15.485 6.23999 15.0552 6.23999 14.525Z" fill="#069550"/>
<path d="M19.6801 12.605V12.125C19.6801 11.8599 19.4652 11.645 19.2001 11.645H17.7601H12.9601V18.365V19.325" stroke="#069550" stroke-width="1.92" stroke-linecap="round"/>
<path d="M15.3962 15.7246C15.2904 15.6494 15.2649 15.5019 15.3479 15.402C15.7453 14.9234 16.2775 14.5723 16.8778 14.3963C17.5537 14.1982 18.2765 14.2333 18.9299 14.4961C19.5833 14.7589 20.1292 15.234 20.4796 15.8449C20.8301 16.4557 20.9646 17.1668 20.8616 17.8635C20.7586 18.5602 20.4241 19.2019 19.9119 19.6853C19.3997 20.1686 18.7397 20.4655 18.0382 20.528C17.3367 20.5905 16.6346 20.415 16.0451 20.0298C15.5213 19.6876 15.1135 19.1976 14.8715 18.6245C14.821 18.5048 14.888 18.371 15.0111 18.3296C15.1342 18.2882 15.2666 18.355 15.3187 18.4739C15.5259 18.9472 15.867 19.3517 16.3023 19.6361C16.8034 19.9635 17.4002 20.1127 17.9965 20.0595C18.5927 20.0064 19.1538 19.7541 19.5891 19.3432C20.0245 18.9324 20.3088 18.3869 20.3964 17.7947C20.4839 17.2025 20.3695 16.5981 20.0717 16.0789C19.7738 15.5596 19.3098 15.1558 18.7544 14.9324C18.199 14.7091 17.5846 14.6792 17.0102 14.8476C16.5112 14.9939 16.0677 15.2824 15.7324 15.6754C15.6481 15.7743 15.5021 15.7999 15.3962 15.7246Z" fill="#FFA600" stroke="#FFA600" stroke-width="0.768"/>
<path fill-rule="evenodd" clip-rule="evenodd" d="M16.2401 16.397C16.4168 16.397 16.5601 16.2537 16.5601 16.077C16.5601 15.9003 16.4168 15.757 16.2401 15.757H15.2801V14.797C15.2801 14.6203 15.1368 14.477 14.9601 14.477C14.7833 14.477 14.6401 14.6203 14.6401 14.797V16.0734C14.6401 16.0746 14.6401 16.0758 14.6401 16.077C14.6401 16.2537 14.7833 16.397 14.9601 16.397H14.9601H16.2401Z" fill="#FFA600"/>
<line x1="17.5374" y1="16.2487" x2="17.5374" y2="18.2399" stroke="#FFA600" stroke-width="0.768" stroke-linecap="round"/>
<line x1="17.5374" y1="18.2398" x2="18.4939" y2="18.2398" stroke="#FFA600" stroke-width="0.768" stroke-linecap="round"/>
</svg>
