<svg width="24" height="25" viewBox="0 0 24 25" fill="none" xmlns="http://www.w3.org/2000/svg">
<path d="M21 9.125V5.125C21 4.57272 20.5523 4.125 20 4.125H5C4.44772 4.125 4 4.57272 4 5.125V9.125" stroke="#FFA600" stroke-width="2.5"/>
<path d="M9 20.125H5C4.44772 20.125 4 19.6773 4 19.125V9.125H9M9 20.125H15M9 20.125V9.125M16 9.125H21V12.625M16 9.125H9M16 9.125V13.625" stroke="#069550" stroke-width="2.5" stroke-linecap="round"/>
<path d="M17.5377 16.3746C17.4274 16.2962 17.4009 16.1426 17.4873 16.0385C17.9013 15.54 18.4557 15.1743 19.0811 14.9909C19.785 14.7845 20.538 14.8212 21.2186 15.0949C21.8992 15.3686 22.4679 15.8635 22.8329 16.4999C23.1979 17.1362 23.3381 17.8769 23.2308 18.6026C23.1235 19.3283 22.7751 19.9968 22.2415 20.5003C21.708 21.0038 21.0205 21.313 20.2898 21.3781C19.5591 21.4432 18.8277 21.2604 18.2136 20.8591C17.668 20.5027 17.2431 19.9923 16.9911 19.3953C16.9385 19.2706 17.0083 19.1313 17.1366 19.0881C17.2648 19.045 17.4027 19.1146 17.457 19.2385C17.6728 19.7314 18.0281 20.1528 18.4815 20.449C19.0036 20.7901 19.6252 20.9455 20.2463 20.8901C20.8674 20.8348 21.4518 20.572 21.9053 20.144C22.3588 19.716 22.655 19.1478 22.7462 18.531C22.8374 17.9141 22.7182 17.2845 22.408 16.7436C22.0977 16.2027 21.6143 15.7821 21.0358 15.5494C20.4573 15.3167 19.8173 15.2856 19.2189 15.4611C18.6991 15.6134 18.2371 15.914 17.8879 16.3234C17.8001 16.4263 17.648 16.453 17.5377 16.3746Z" fill="#FFA600" stroke="#FFA600" stroke-width="0.8"/>
<path fill-rule="evenodd" clip-rule="evenodd" d="M18.4167 17.075C18.6008 17.075 18.75 16.9258 18.75 16.7417C18.75 16.5576 18.6008 16.4083 18.4167 16.4083H17.4167V15.4083C17.4167 15.2243 17.2674 15.075 17.0833 15.075C16.8992 15.075 16.75 15.2243 16.75 15.4083V16.7417C16.75 16.7877 16.7593 16.8316 16.7762 16.8714C16.7941 16.9138 16.8206 16.9517 16.8534 16.983C16.9132 17.04 16.9942 17.075 17.0833 17.075H18.4167Z" fill="#FFA600"/>
<line x1="19.7682" y1="16.9206" x2="19.7682" y2="18.9946" stroke="#FFA600" stroke-width="0.8" stroke-linecap="round"/>
<line x1="19.768" y1="18.9947" x2="20.7643" y2="18.9947" stroke="#FFA600" stroke-width="0.8" stroke-linecap="round"/>
</svg>
