<svg width="24" height="25" viewBox="0 0 24 25" fill="none" xmlns="http://www.w3.org/2000/svg">
<mask id="mask0_15146_6399" style="mask-type:alpha" maskUnits="userSpaceOnUse" x="0" y="0" width="24" height="25">
<rect y="0.125" width="24" height="24" fill="#D9D9D9"/>
</mask>
<g mask="url(#mask0_15146_6399)">
<path d="M10.825 22.125C10.375 22.125 9.98748 21.975 9.66248 21.675C9.33748 21.375 9.14165 21.0083 9.07498 20.575L8.84998 18.925C8.63331 18.8417 8.42915 18.7417 8.23748 18.625C8.04581 18.5083 7.85831 18.3833 7.67498 18.25L6.12498 18.9C5.70831 19.0833 5.29165 19.1 4.87498 18.95C4.45831 18.8 4.13331 18.5333 3.89998 18.15L2.72498 16.1C2.49165 15.7167 2.42498 15.3083 2.52498 14.875C2.62498 14.4417 2.84998 14.0833 3.19998 13.8L4.52498 12.8C4.50831 12.6833 4.49998 12.5708 4.49998 12.4625V11.7875C4.49998 11.6792 4.50831 11.5667 4.52498 11.45L3.19998 10.45C2.84998 10.1667 2.62498 9.80833 2.52498 9.375C2.42498 8.94167 2.49165 8.53333 2.72498 8.15L3.89998 6.1C4.13331 5.71667 4.45831 5.45 4.87498 5.3C5.29165 5.15 5.70831 5.16667 6.12498 5.35L7.67498 6C7.85831 5.86667 8.04998 5.74167 8.24998 5.625C8.44998 5.50833 8.64998 5.40833 8.84998 5.325L9.07498 3.675C9.14165 3.24167 9.33748 2.875 9.66248 2.575C9.98748 2.275 10.375 2.125 10.825 2.125H13.175C13.625 2.125 14.0125 2.275 14.3375 2.575C14.6625 2.875 14.8583 3.24167 14.925 3.675L15.15 5.325C15.3666 5.40833 15.5708 5.50833 15.7625 5.625C15.9541 5.74167 16.1416 5.86667 16.325 6L17.875 5.35C18.2916 5.16667 18.7083 5.15 19.125 5.3C19.5416 5.45 19.8666 5.71667 20.1 6.1L21.275 8.15C21.5083 8.53333 21.575 8.94167 21.475 9.375C21.375 9.80833 21.15 10.1667 20.8 10.45L19.475 11.45C19.4916 11.5667 19.5 11.6792 19.5 11.7875V12.4625C19.5 12.5708 19.4833 12.6833 19.45 12.8L20.775 13.8C21.125 14.0833 21.35 14.4417 21.45 14.875C21.55 15.3083 21.4833 15.7167 21.25 16.1L20.05 18.15C19.8166 18.5333 19.4916 18.8 19.075 18.95C18.6583 19.1 18.2416 19.0833 17.825 18.9L16.325 18.25C16.1416 18.3833 15.95 18.5083 15.75 18.625C15.55 18.7417 15.35 18.8417 15.15 18.925L14.925 20.575C14.8583 21.0083 14.6625 21.375 14.3375 21.675C14.0125 21.975 13.625 22.125 13.175 22.125H10.825ZM11 20.125H12.975L13.325 17.475C13.8416 17.3417 14.3208 17.1458 14.7625 16.8875C15.2041 16.6292 15.6083 16.3167 15.975 15.95L18.45 16.975L19.425 15.275L17.275 13.65C17.3583 13.4167 17.4166 13.1708 17.45 12.9125C17.4833 12.6542 17.5 12.3917 17.5 12.125C17.5 11.8583 17.4833 11.5958 17.45 11.3375C17.4166 11.0792 17.3583 10.8333 17.275 10.6L19.425 8.975L18.45 7.275L15.975 8.325C15.6083 7.94167 15.2041 7.62083 14.7625 7.3625C14.3208 7.10417 13.8416 6.90833 13.325 6.775L13 4.125H11.025L10.675 6.775C10.1583 6.90833 9.67915 7.10417 9.23748 7.3625C8.79581 7.62083 8.39165 7.93333 8.02498 8.3L5.54998 7.275L4.57498 8.975L6.72498 10.575C6.64165 10.825 6.58331 11.075 6.54998 11.325C6.51665 11.575 6.49998 11.8417 6.49998 12.125C6.49998 12.3917 6.51665 12.65 6.54998 12.9C6.58331 13.15 6.64165 13.4 6.72498 13.65L4.57498 15.275L5.54998 16.975L8.02498 15.925C8.39165 16.3083 8.79581 16.6292 9.23748 16.8875C9.67915 17.1458 10.1583 17.3417 10.675 17.475L11 20.125Z" fill="#069550"/>
<path d="M14.525 14.6C13.8417 15.2833 13.0167 15.625 12.05 15.625C11.0667 15.625 10.2375 15.2833 9.56255 14.6C8.88755 13.9167 8.55005 13.0917 8.55005 12.125C8.55005 11.1583 8.88755 10.3333 9.56255 9.65C10.2375 8.96667 11.0667 8.625 12.05 8.625C13.0167 8.625 13.8417 8.96667 14.525 9.65C15.2084 10.3333 15.55 11.1583 15.55 12.125C15.55 13.0917 15.2084 13.9167 14.525 14.6Z" fill="#FFA600"/>
</g>
</svg>
