<svg width="24" height="25" viewBox="0 0 24 25" fill="none" xmlns="http://www.w3.org/2000/svg">
<mask id="mask0_8257_118890" style="mask-type:alpha" maskUnits="userSpaceOnUse" x="0" y="0" width="24" height="25">
<rect y="0.125" width="24" height="24" fill="#D9D9D9"/>
</mask>
<g mask="url(#mask0_8257_118890)">
<path d="M15 19.125V18.125H13C12.45 18.125 11.9792 17.9292 11.5875 17.5375C11.1958 17.1458 11 16.675 11 16.125V8.125H9V9.125C9 9.675 8.80417 10.1458 8.4125 10.5375C8.02083 10.9292 7.55 11.125 7 11.125H4C3.45 11.125 2.97917 10.9292 2.5875 10.5375C2.19583 10.1458 2 9.675 2 9.125V5.125C2 4.575 2.19583 4.10417 2.5875 3.7125C2.97917 3.32083 3.45 3.125 4 3.125H7C7.55 3.125 8.02083 3.32083 8.4125 3.7125C8.80417 4.10417 9 4.575 9 5.125V6.125H15V5.125C15 4.575 15.1958 4.10417 15.5875 3.7125C15.9792 3.32083 16.45 3.125 17 3.125H20C20.55 3.125 21.0208 3.32083 21.4125 3.7125C21.8042 4.10417 22 4.575 22 5.125V9.125C22 9.675 21.8042 10.1458 21.4125 10.5375C21.0208 10.9292 20.55 11.125 20 11.125H17C16.45 11.125 15.9792 10.9292 15.5875 10.5375C15.1958 10.1458 15 9.675 15 9.125V8.125H13V16.125H15V15.125C15 14.575 15.1958 14.1042 15.5875 13.7125C15.9792 13.3208 16.45 13.125 17 13.125H20C20.55 13.125 21.0208 13.3208 21.4125 13.7125C21.8042 14.1042 22 14.575 22 15.125V19.125C22 19.675 21.8042 20.1458 21.4125 20.5375C21.0208 20.9292 20.55 21.125 20 21.125H17C16.45 21.125 15.9792 20.9292 15.5875 20.5375C15.1958 20.1458 15 19.675 15 19.125ZM17 9.125H20V5.125H17V9.125ZM17 19.125H20V15.125H17V19.125ZM4 9.125H7V5.125H4V9.125Z" fill="#069550"/>
<path d="M9 7.125H12M15 7.125H12M12 7.125V16.125C12 16.6773 12.4477 17.125 13 17.125H15" stroke="#FFA600" stroke-width="2"/>
</g>
</svg>
