<svg width="24" height="25" viewBox="0 0 24 25" fill="none" xmlns="http://www.w3.org/2000/svg">
<path d="M20 21.125H5C4.45 21.125 3.97917 20.9292 3.5875 20.5375C3.19583 20.1458 3 19.675 3 19.125V5.125C3 4.575 3.19583 4.10417 3.5875 3.7125C3.97917 3.32083 4.45 3.125 5 3.125H20C20.55 3.125 21.0208 3.32083 21.4125 3.7125C21.8042 4.10417 22 4.575 22 5.125V19.125C22 19.675 21.8042 20.1458 21.4125 20.5375C21.0208 20.9292 20.55 21.125 20 21.125ZM5 8.125H20V5.125H5V8.125ZM8 10.125H5V19.125H8V10.125ZM17 10.125V19.125H20V10.125H17ZM15 10.125H10V19.125H15V10.125Z" fill="#FFA600"/>
<mask id="path-2-inside-1_9252_188713" fill="white">
<path d="M3 8.125H22V19.125C22 20.2296 21.1046 21.125 20 21.125H5C3.89543 21.125 3 20.2296 3 19.125V8.125Z"/>
</mask>
<path d="M3 8.125H22V19.125C22 20.2296 21.1046 21.125 20 21.125H5C3.89543 21.125 3 20.2296 3 19.125V8.125Z" stroke="#069550" stroke-width="5" mask="url(#path-2-inside-1_9252_188713)"/>
<mask id="path-3-inside-2_9252_188713" fill="white">
<path d="M8 8.125H17V19.125C17 20.2296 16.1046 21.125 15 21.125H10C8.89543 21.125 8 20.2296 8 19.125V8.125Z"/>
</mask>
<path d="M8 8.125H17V19.125C17 20.2296 16.1046 21.125 15 21.125H10C8.89543 21.125 8 20.2296 8 19.125V8.125Z" stroke="#069550" stroke-width="5" mask="url(#path-3-inside-2_9252_188713)"/>
</svg>
