<svg width="24" height="25" viewBox="0 0 24 25" fill="none" xmlns="http://www.w3.org/2000/svg">
<path d="M20.6 21.125L15.9 16.425C15.2167 16.9583 14.4625 17.375 13.6375 17.675C12.8125 17.975 11.9334 18.125 11 18.125C9.50002 18.125 8.14586 17.7583 6.93752 17.025C5.72919 16.2917 4.77502 15.325 4.07502 14.125H6.52502C7.09169 14.7417 7.75419 15.2292 8.51252 15.5875C9.27086 15.9458 10.1 16.125 11 16.125C12.6667 16.125 14.0834 15.5417 15.25 14.375C16.4167 13.2083 17 11.7917 17 10.125C17 8.45833 16.4167 7.04167 15.25 5.875C14.0834 4.70833 12.6667 4.125 11 4.125C9.43336 4.125 8.07919 4.65417 6.93752 5.7125C5.79586 6.77083 5.15836 8.075 5.02502 9.625H3.02502C3.15836 7.50833 3.98752 5.72917 5.51252 4.2875C7.03752 2.84583 8.86669 2.125 11 2.125C13.2334 2.125 15.125 2.9 16.675 4.45C18.225 6 19 7.89167 19 10.125C19 11.0583 18.85 11.9375 18.55 12.7625C18.25 13.5875 17.8334 14.3417 17.3 15.025L22 19.725L20.6 21.125Z" fill="#069550"/>
<path d="M3 11.625H7L8.5 7.125L11 13.125L13 8.625L14.5 11.625H16" stroke="#FFA600" stroke-width="1.5"/>
</svg>
