<svg width="24" height="25" viewBox="0 0 24 25" fill="none" xmlns="http://www.w3.org/2000/svg">
<path d="M19 13.625V7.7844C19 7.38437 18.7616 7.02283 18.3939 6.86525L12.3939 4.29382C12.1424 4.18602 11.8576 4.18602 11.6061 4.29382L5.60608 6.86525C5.2384 7.02283 5 7.38437 5 7.7844V13.6115C5 13.9492 5.07862 14.2822 5.22963 14.5843V14.5843C6.38586 16.8967 8.17755 18.8315 10.3945 20.1617L11.8991 21.0644C11.9612 21.1017 12.0388 21.1017 12.1009 21.0644L13.3738 20.3007" stroke="#069550" stroke-width="2"/>
<circle cx="12" cy="11.125" r="2" fill="#FFA600"/>
<path d="M11.5 15.125C11.5 15.4011 11.7239 15.625 12 15.625C12.2761 15.625 12.5 15.4011 12.5 15.125L11.5 15.125ZM11.5 12.125L11.5 15.125L12.5 15.125L12.5 12.125L11.5 12.125Z" fill="#FFA600"/>
<path d="M19.3513 16.1522L17.956 14.7734L18.4156 14.3138C18.5415 14.1879 18.6961 14.125 18.8795 14.125C19.0627 14.125 19.2172 14.1879 19.3431 14.3138L19.8027 14.7734C19.9285 14.8992 19.9942 15.0511 19.9997 15.2291C20.0051 15.4068 19.9449 15.5586 19.8191 15.6844L19.3513 16.1522ZM14.3283 20.1165C14.2353 20.1165 14.1574 20.0849 14.0946 20.0219C14.0315 19.9591 14 19.8812 14 19.7882V18.8607C14 18.8169 14.0082 18.7746 14.0246 18.7337C14.041 18.6925 14.0657 18.6555 14.0985 18.6227L17.48 15.2412L18.8752 16.6365L15.4938 20.018C15.4609 20.0508 15.4241 20.0754 15.3831 20.0918C15.342 20.1082 15.2995 20.1165 15.2557 20.1165H14.3283Z" fill="#FFA600"/>
</svg>
