<svg width="24" height="25" viewBox="0 0 24 25" fill="none" xmlns="http://www.w3.org/2000/svg">
<mask id="mask0_15073_359031" style="mask-type:alpha" maskUnits="userSpaceOnUse" x="0" y="0" width="24" height="25">
<rect y="0.125" width="24" height="24" fill="#D9D9D9"/>
</mask>
<g mask="url(#mask0_15073_359031)">
<path d="M8.15001 21.875L6.70001 19.425L3.95001 18.825C3.70001 18.775 3.50001 18.6458 3.35001 18.4375C3.20001 18.2292 3.14168 18 3.17501 17.75L3.45001 14.925L1.57501 12.775C1.40835 12.5917 1.32501 12.375 1.32501 12.125C1.32501 11.875 1.40835 11.6583 1.57501 11.475L3.45001 9.325L3.17501 6.5C3.14168 6.25 3.20001 6.02083 3.35001 5.8125C3.50001 5.60416 3.70001 5.475 3.95001 5.425L6.70001 4.825L8.15001 2.375C8.28335 2.15833 8.46668 2.0125 8.70001 1.9375C8.93335 1.8625 9.16668 1.875 9.40001 1.975L12 3.075L14.6 1.975C14.8333 1.875 15.0667 1.8625 15.3 1.9375C15.5333 2.0125 15.7167 2.15833 15.85 2.375L17.3 4.825L20.05 5.425C20.3 5.475 20.5 5.60416 20.65 5.8125C20.8 6.02083 20.8583 6.25 20.825 6.5L20.55 9.325L22.425 11.475C22.5917 11.6583 22.675 11.875 22.675 12.125C22.675 12.375 22.5917 12.5917 22.425 12.775L20.55 14.925L20.825 17.75C20.8583 18 20.8 18.2292 20.65 18.4375C20.5 18.6458 20.3 18.775 20.05 18.825L17.3 19.425L15.85 21.875C15.7167 22.0917 15.5333 22.2375 15.3 22.3125C15.0667 22.3875 14.8333 22.375 14.6 22.275L12 21.175L9.40001 22.275C9.16668 22.375 8.93335 22.3875 8.70001 22.3125C8.46668 22.2375 8.28335 22.0917 8.15001 21.875ZM9.45001 20.075L12 18.975L14.6 20.075L16 17.675L18.75 17.025L18.5 14.225L20.35 12.125L18.5 9.975L18.75 7.175L16 6.575L14.55 4.175L12 5.275L9.40001 4.175L8.00001 6.575L5.25001 7.175L5.50001 9.975L3.65001 12.125L5.50001 14.225L5.25001 17.075L8.00001 17.675L9.45001 20.075Z" fill="#069550"/>
<path d="M9.50001 11.4L10.95 12.825L14.475 9.29996C14.675 9.09996 14.9125 9.00413 15.1875 9.01246C15.4625 9.0208 15.7 9.12496 15.9 9.32496C16.0833 9.52496 16.1792 9.7583 16.1875 10.025C16.1958 10.2916 16.1 10.525 15.9 10.725L11.65 14.975C11.45 15.175 11.2167 15.275 10.95 15.275C10.6833 15.275 10.45 15.175 10.25 14.975L8.10001 12.825C7.91668 12.6416 7.82501 12.4083 7.82501 12.125C7.82501 11.8416 7.91668 11.6083 8.10001 11.425C8.30001 11.225 8.53751 11.125 8.81251 11.125C9.08751 11.125 9.31668 11.2166 9.50001 11.4Z" fill="#FFA600"/>
</g>
</svg>
