<svg width="60" height="60" viewBox="0 0 60 60" fill="none" xmlns="http://www.w3.org/2000/svg">
    <g clip-path="url(#clip0_8292_123958)">
        <rect width="60" height="60" rx="30" fill="#F5F5F5" />
        <g clip-path="url(#clip1_8292_123958)">
            <g clip-path="url(#clip2_8292_123958)">
                <circle cx="30.0001" cy="24.1486" r="13.9319" fill="#1FB767" />
                <path fill-rule="evenodd" clip-rule="evenodd"
                    d="M30 21.3636C27.4582 24.7467 23.4119 26.9349 18.8545 26.9349C17.9825 26.9349 17.1292 26.8548 16.3016 26.7016C16.1483 25.8739 16.0682 25.0206 16.0682 24.1486C16.0682 17.3263 20.9719 11.6494 27.447 10.4502C27.4759 10.4448 27.5049 10.4395 27.5339 10.4344C28.1027 10.3328 28.6834 10.2657 29.2739 10.2354C29.5144 10.223 29.7565 10.2168 30.0001 10.2168C30.8721 10.2168 31.7254 10.2969 32.553 10.4501C32.553 10.4501 32.553 10.4501 32.553 10.4501C39.0281 11.6493 43.932 17.3263 43.932 24.1486C43.932 25.0206 43.8518 25.8739 43.6986 26.7015C42.8709 26.8548 42.0176 26.9349 41.1455 26.9349C36.5881 26.9349 32.5418 24.7467 30 21.3636Z"
                    fill="#069550" />
                <path
                    d="M7.70901 60.3716C7.70901 51.1383 15.194 43.6533 24.4273 43.6533H35.5728C44.806 43.6533 52.2911 51.1383 52.2911 60.3716H7.70901Z"
                    fill="#16A75C" />
                <path fill-rule="evenodd" clip-rule="evenodd"
                    d="M21.6435 43.8838C22.5485 43.7322 23.4782 43.6533 24.4263 43.6533H35.5732C36.5213 43.6533 37.451 43.7322 38.3561 43.8839C38.2339 48.3938 34.5394 52.0124 29.9998 52.0124C25.4602 52.0124 21.7657 48.3938 21.6435 43.8838Z"
                    fill="#069550" />
            </g>
            <rect x="26.0034" y="40.9888" width="29.0741" height="19.3827" rx="2.78638" fill="#FFA600" />
            <rect x="29.7464" y="44.7139" width="13.7031" height="4.56769" rx="2.28384" fill="white" />
            <rect opacity="0.4" x="29.7464" y="52.0782" width="9.8038" height="4.56769" rx="2.28384" fill="white" />
        </g>
        <circle cx="49.4118" cy="40.5882" r="7.05882" fill="#1E88E5" />
        <path d="M51.3236 42.5L53.0883 44.2647" stroke="white" stroke-width="0.875837" stroke-linecap="round"
            stroke-linejoin="round" />
        <path
            d="M49.1177 43.0882C50.6608 43.0882 51.9118 41.8373 51.9118 40.2941C51.9118 38.751 50.6608 37.5 49.1177 37.5C47.5745 37.5 46.3235 38.751 46.3235 40.2941C46.3235 41.8373 47.5745 43.0882 49.1177 43.0882Z"
            stroke="white" stroke-width="0.875837" stroke-linecap="round" stroke-linejoin="round" />
    </g>
    <defs>
        <clipPath id="clip0_8292_123958">
            <rect width="60" height="60" rx="30" fill="white" />
        </clipPath>
        <clipPath id="clip1_8292_123958">
            <rect width="50.1548" height="50.1548" fill="white" transform="translate(4.92262 10.2168)" />
        </clipPath>
        <clipPath id="clip2_8292_123958">
            <rect width="50.1548" height="50.1548" fill="white" transform="translate(4.92262 10.2168)" />
        </clipPath>
    </defs>
</svg>