<svg width="60" height="60" viewBox="0 0 60 60" fill="none" xmlns="http://www.w3.org/2000/svg">
    <g clip-path="url(#clip0_18168_732650)">
        <rect width="60" height="60" rx="30" fill="#1F2121" />
        <g clip-path="url(#clip1_18168_732650)">
            <g clip-path="url(#clip2_18168_732650)">
                <circle cx="30.0001" cy="24.1486" r="13.9319" fill="#1FB767" />
                <path fill-rule="evenodd" clip-rule="evenodd"
                    d="M30.0001 21.3635C27.4582 24.7467 23.4119 26.9349 18.8545 26.9349C17.9825 26.9349 17.1292 26.8548 16.3016 26.7016C16.1484 25.8739 16.0682 25.0206 16.0682 24.1486C16.0682 16.4543 22.3058 10.2168 30.0001 10.2168C30.4361 10.2168 30.8674 10.2368 31.2932 10.276C31.719 10.3152 32.1392 10.3735 32.553 10.4501C39.0282 11.6492 43.932 17.3263 43.932 24.1486C43.932 25.0206 43.8519 25.8739 43.6986 26.7015C42.871 26.8548 42.0176 26.9349 41.1456 26.9349C36.5882 26.9349 32.5419 24.7467 30.0001 21.3635Z"
                    fill="#069550" />
                <path
                    d="M7.70898 60.3716C7.70898 51.1383 15.194 43.6533 24.4272 43.6533H35.5728C44.806 43.6533 52.291 51.1383 52.291 60.3716H7.70898Z"
                    fill="#16A75C" />
                <path fill-rule="evenodd" clip-rule="evenodd"
                    d="M21.6436 43.8838C22.5486 43.7322 23.4782 43.6533 24.4263 43.6533H35.5732C36.5214 43.6533 37.4511 43.7322 38.3561 43.8839C38.2339 48.3938 34.5395 52.0124 29.9998 52.0124C25.4602 52.0124 21.7657 48.3938 21.6436 43.8838Z"
                    fill="#069550" />
            </g>
            <rect x="26.0034" y="40.9888" width="29.0741" height="19.3827" rx="2.78638" fill="#FFA600" />
            <rect x="29.7464" y="44.7139" width="13.7031" height="4.56769" rx="2.28384" fill="white" />
            <rect opacity="0.4" x="29.7464" y="52.0782" width="9.8038" height="4.56769" rx="2.28384" fill="white" />
        </g>
        <circle cx="49.4118" cy="40.5882" r="7.05882" fill="#1E88E5" />
        <path d="M51.3235 42.5L53.0882 44.2648" stroke="white" stroke-width="0.875837" stroke-linecap="round"
            stroke-linejoin="round" />
        <path
            d="M49.1176 43.0883C50.6608 43.0883 51.9117 41.8373 51.9117 40.2941C51.9117 38.751 50.6608 37.5 49.1176 37.5C47.5745 37.5 46.3235 38.751 46.3235 40.2941C46.3235 41.8373 47.5745 43.0883 49.1176 43.0883Z"
            stroke="white" stroke-width="0.875837" stroke-linecap="round" stroke-linejoin="round" />
    </g>
    <defs>
        <clipPath id="clip0_18168_732650">
            <rect width="60" height="60" rx="30" fill="white" />
        </clipPath>
        <clipPath id="clip1_18168_732650">
            <rect width="50.1548" height="50.1548" fill="white" transform="translate(4.92264 10.2168)" />
        </clipPath>
        <clipPath id="clip2_18168_732650">
            <rect width="50.1548" height="50.1548" fill="white" transform="translate(4.92264 10.2168)" />
        </clipPath>
    </defs>
</svg>