<svg width="60" height="60" viewBox="0 0 60 60" fill="none" xmlns="http://www.w3.org/2000/svg">
    <g clip-path="url(#clip0_8292_124168)">
        <rect width="60" height="60" rx="30" fill="#F5F5F5" />
        <g clip-path="url(#clip1_8292_124168)">
            <g clip-path="url(#clip2_8292_124168)">
                <circle cx="30.0001" cy="24.1486" r="13.9319" fill="#1FB767" />
                <path fill-rule="evenodd" clip-rule="evenodd"
                    d="M30 21.3635C27.4582 24.7467 23.4119 26.9349 18.8545 26.9349C17.9825 26.9349 17.1292 26.8548 16.3016 26.7016C16.1483 25.8739 16.0682 25.0206 16.0682 24.1486C16.0682 16.4543 22.3057 10.2168 30.0001 10.2168C30.4361 10.2168 30.8674 10.2368 31.2932 10.276C31.719 10.3152 32.1392 10.3735 32.553 10.4501C39.0281 11.6492 43.932 17.3263 43.932 24.1486C43.932 25.0206 43.8519 25.8739 43.6986 26.7015C42.8709 26.8548 42.0176 26.9349 41.1455 26.9349C36.5881 26.9349 32.5418 24.7467 30 21.3635Z"
                    fill="#069550" />
                <path
                    d="M7.70895 60.3716C7.70895 51.1383 15.194 43.6533 24.4272 43.6533H35.5727C44.806 43.6533 52.291 51.1383 52.291 60.3716H7.70895Z"
                    fill="#16A75C" />
                <path fill-rule="evenodd" clip-rule="evenodd"
                    d="M21.6435 43.8838C22.5485 43.7322 23.4782 43.6533 24.4263 43.6533H35.5732C36.5213 43.6533 37.451 43.7322 38.3561 43.8839C38.2339 48.3938 34.5394 52.0124 29.9998 52.0124C25.4602 52.0124 21.7657 48.3938 21.6435 43.8838Z"
                    fill="#069550" />
            </g>
            <rect x="26.0033" y="40.9888" width="29.0741" height="19.3827" rx="2.78638" fill="#FFA600" />
            <rect x="29.7463" y="44.7139" width="13.7031" height="4.56769" rx="2.28384" fill="white" />
            <rect opacity="0.4" x="29.7463" y="52.0782" width="9.8038" height="4.56769" rx="2.28384" fill="white" />
        </g>
        <g clip-path="url(#clip3_8292_124168)">
            <rect x="42.3529" y="33.5294" width="14.1176" height="14.1176" rx="7.05882" fill="#E53935" />
            <path fill-rule="evenodd" clip-rule="evenodd"
                d="M46.3789 37.3138C46.6182 37.0745 47.0449 37.1133 47.3321 37.4004L52.5314 42.5997C52.8185 42.8869 52.8573 43.3136 52.618 43.5529C52.3788 43.7922 51.952 43.7534 51.6648 43.4663L46.4655 38.267C46.1784 37.9798 46.1396 37.5531 46.3789 37.3138Z"
                fill="white" />
            <path fill-rule="evenodd" clip-rule="evenodd"
                d="M52.618 37.3138C52.8573 37.5531 52.8185 37.9798 52.5313 38.267L47.332 43.4663C47.0449 43.7534 46.6181 43.7922 46.3788 43.5529C46.1395 43.3136 46.1783 42.8869 46.4655 42.5997L51.6648 37.4004C51.9519 37.1133 52.3787 37.0745 52.618 37.3138Z"
                fill="white" />
        </g>
    </g>
    <defs>
        <clipPath id="clip0_8292_124168">
            <rect width="60" height="60" rx="30" fill="white" />
        </clipPath>
        <clipPath id="clip1_8292_124168">
            <rect width="50.1548" height="50.1548" fill="white" transform="translate(4.92261 10.2168)" />
        </clipPath>
        <clipPath id="clip2_8292_124168">
            <rect width="50.1548" height="50.1548" fill="white" transform="translate(4.92261 10.2168)" />
        </clipPath>
        <clipPath id="clip3_8292_124168">
            <rect x="42.3529" y="33.5294" width="14.1176" height="14.1176" rx="7.05882" fill="white" />
        </clipPath>
    </defs>
</svg>