<svg width="140" height="111" viewBox="0 0 140 111" fill="none" xmlns="http://www.w3.org/2000/svg">
    <g clip-path="url(#clip0_34_2040)">
        <rect x="17.5" y="0.5" width="109.587" height="109.587" rx="54.7933" fill="#FAFAFA" />
        <path
            d="M108.751 77.3832L108.674 77.2108C108.172 76.0782 107.05 75.3479 105.811 75.3479H102.88C101.961 75.3479 101.077 75.703 100.413 76.3392C99.7107 77.0119 99.3137 77.9421 99.3137 78.9145V81.2539H106.232C107.23 81.2539 108.15 80.7142 108.637 79.8432C109.06 79.0867 109.102 78.1755 108.751 77.3832Z"
            fill="#FF9500" />
        <path
            d="M5.49153 101.953H123.982C125.848 101.953 127.361 100.44 127.361 98.5733V92.1227C127.361 85.1237 121.687 79.4499 114.688 79.4499H102.734L87.2417 63.5374C85.2537 61.4956 82.5249 60.3438 79.6751 60.3438H17.4031C14.1725 60.3438 11.0686 61.6004 8.74786 63.8478C7.2282 65.3194 6.00404 67.0682 5.14136 68.9997L1.46883 77.2226C0.500487 79.3908 0 81.7387 0 84.1132V96.4611C0 99.494 2.45864 101.953 5.49153 101.953Z"
            fill="#FFB900" />
        <path
            d="M70.5396 58.5485H24.5773C23.2048 58.5485 21.9127 59.2225 21.1212 60.3438H74.0299L73.7071 59.9779C72.9052 59.0691 71.7516 58.5485 70.5396 58.5485Z"
            fill="#FF9500" />
        <path fill-rule="evenodd" clip-rule="evenodd"
            d="M94.172 101.953C94.2145 102.064 94.2587 102.176 94.3045 102.286C94.9307 103.798 95.8487 105.172 97.0058 106.329C98.163 107.486 99.5367 108.404 101.049 109.03C102.561 109.656 104.181 109.979 105.817 109.979C107.454 109.979 109.074 109.656 110.586 109.03C112.098 108.404 113.472 107.486 114.629 106.329C115.786 105.172 116.704 103.798 117.33 102.286C117.376 102.176 117.42 102.064 117.463 101.953H94.172Z"
            fill="#424242" />
        <path
            d="M114.055 99.5237C114.055 102.297 112.953 104.956 110.993 106.917C109.032 108.877 106.373 109.979 103.6 109.979C100.827 109.979 98.1676 108.877 96.2069 106.917C94.2462 104.956 93.1447 102.297 93.1447 99.5237L103.6 99.5237H114.055Z"
            fill="#212121" />
        <path fill-rule="evenodd" clip-rule="evenodd"
            d="M36.9334 101.953C36.9759 102.064 37.0201 102.176 37.0659 102.286C37.6922 103.798 38.6101 105.172 39.7672 106.329C40.9244 107.486 42.2981 108.404 43.81 109.03C45.3219 109.656 46.9424 109.979 48.5789 109.979C50.2153 109.979 51.8358 109.656 53.3477 109.03C54.8596 108.404 56.2333 107.486 57.3905 106.329C58.5477 105.172 59.4656 103.798 60.0918 102.286C60.1376 102.176 60.1818 102.064 60.2243 101.953H36.9334Z"
            fill="#424242" />
        <path
            d="M56.8162 99.5237C56.8162 102.297 55.7147 104.956 53.754 106.917C51.7933 108.877 49.134 109.979 46.3611 109.979C43.5883 109.979 40.929 108.877 38.9683 106.917C37.0076 104.956 35.9061 102.297 35.9061 99.5237L46.3611 99.5237H56.8162Z"
            fill="#212121" />
        <path
            d="M0 96.4612V96.0388L64.4198 98.5733H127.361C127.361 100.44 125.848 101.953 123.982 101.953H5.49152C2.45864 101.953 0 99.4941 0 96.4612Z"
            fill="#FF9500" />
        <path
            d="M127.361 98.5733H95.2568V97.404C95.2568 96.1067 96.0762 94.9509 97.3003 94.5214C97.6254 94.4073 97.9673 94.3491 98.3118 94.3491H125.698C126.09 94.3491 126.469 94.4875 126.769 94.74C127.145 95.056 127.361 95.5215 127.361 96.0121V98.5733Z"
            fill="white" />
        <path d="M100.748 98.5733V94.3491H123.559V98.5733H100.748Z" fill="#FF7500" />
        <path
            d="M93.403 87.9799L93.4401 87.9285C93.7852 87.4508 94.3386 87.1678 94.9279 87.1678H126.305C126.305 87.1678 126.693 87.7532 126.939 88.8575C127.184 89.9618 127.256 90.7584 127.256 90.7584H94.8237C94.296 90.7584 93.7963 90.5206 93.4636 90.111C92.9639 89.4961 92.9391 88.6223 93.403 87.9799Z"
            fill="white" />
        <path d="M100.643 90.7584L102.544 87.1678H106.557L104.656 90.7584H100.643Z" fill="#FFE483" />
        <path d="M123.559 90.7584H119.652L117.751 87.1678H121.764L123.559 90.7584Z" fill="#FFE483" />
        <path d="M104.656 90.7584L106.557 87.1678H117.751L119.652 90.7584H104.656Z" fill="#FF7500" />
        <path
            d="M89.5541 99.7349C89.5541 98.0846 89.229 96.4504 88.5975 94.9257C87.9659 93.401 87.0402 92.0156 85.8733 90.8486C84.7063 89.6816 83.3209 88.756 81.7962 88.1244C80.2715 87.4928 78.6373 87.1678 76.9869 87.1678C75.3366 87.1678 73.7024 87.4928 72.1777 88.1244C70.653 88.756 69.2676 89.6816 68.1006 90.8486C66.9337 92.0156 66.008 93.401 65.3764 94.9257C64.7449 96.4504 64.4198 98.0846 64.4198 99.7349L76.9869 99.7349H89.5541Z"
            fill="#FF9500" />
        <path
            d="M32.5267 99.8405C32.5267 98.1763 32.1989 96.5284 31.5621 94.9909C30.9252 93.4534 29.9917 92.0563 28.8149 90.8795C27.6382 89.7028 26.2411 88.7693 24.7036 88.1324C23.1661 87.4956 21.5182 87.1678 19.854 87.1678C18.1898 87.1678 16.5418 87.4956 15.0043 88.1324C13.4668 88.7693 12.0697 89.7028 10.893 90.8795C9.7162 92.0563 8.78273 93.4534 8.14587 94.9909C7.509 96.5284 7.18121 98.1763 7.18121 99.8405L19.854 99.8405H32.5267Z"
            fill="#FF9500" />
        <path fill-rule="evenodd" clip-rule="evenodd"
            d="M67.348 101.953C67.3906 102.064 67.4347 102.176 67.4805 102.286C68.1068 103.798 69.0247 105.172 70.1818 106.329C71.339 107.486 72.7127 108.404 74.2247 109.03C75.7366 109.656 77.357 109.979 78.9935 109.979C80.6299 109.979 82.2504 109.656 83.7623 109.03C85.2742 108.404 86.648 107.486 87.8051 106.329C88.9623 105.172 89.8802 103.798 90.5064 102.286C90.5522 102.176 90.5964 102.064 90.6389 101.953H67.348Z"
            fill="#424242" />
        <path
            d="M87.6532 99.4182C87.6532 105.251 82.925 109.979 77.0925 109.979C71.2601 109.979 66.5319 105.251 66.5319 99.4182C66.5319 93.5857 71.2601 88.8575 77.0925 88.8575C82.925 88.8575 87.6532 93.5857 87.6532 99.4182Z"
            fill="#212121" />
        <path
            d="M84.0626 99.4181C84.0626 103.268 80.942 106.388 77.0926 106.388C73.2431 106.388 70.1226 103.268 70.1226 99.4181C70.1226 95.5687 73.2431 92.4481 77.0926 92.4481C80.942 92.4481 84.0626 95.5687 84.0626 99.4181Z"
            fill="#9E9E9E" />
        <path
            d="M81.9505 99.4181C81.9505 102.101 79.7755 104.276 77.0926 104.276C74.4096 104.276 72.2347 102.101 72.2347 99.4181C72.2347 96.7352 74.4096 94.5602 77.0926 94.5602C79.7755 94.5602 81.9505 96.7352 81.9505 99.4181Z"
            fill="white" />
        <path fill-rule="evenodd" clip-rule="evenodd"
            d="M10.5319 101.953C10.5744 102.064 10.6186 102.176 10.6644 102.286C11.2906 103.798 12.2085 105.172 13.3657 106.329C14.5228 107.486 15.8966 108.404 17.4085 109.03C18.9204 109.656 20.5408 109.979 22.1773 109.979C23.8138 109.979 25.4342 109.656 26.9461 109.03C28.458 108.404 29.8318 107.486 30.9889 106.329C32.1461 105.172 33.064 103.798 33.6903 102.286C33.7361 102.176 33.7802 102.064 33.8228 101.953H10.5319Z"
            fill="#424242" />
        <path
            d="M30.837 99.4182C30.837 105.251 26.1089 109.979 20.2764 109.979C14.4439 109.979 9.71576 105.251 9.71576 99.4182C9.71576 93.5857 14.4439 88.8575 20.2764 88.8575C26.1089 88.8575 30.837 93.5857 30.837 99.4182Z"
            fill="#212121" />
        <path
            d="M27.2464 99.4181C27.2464 103.268 24.1258 106.388 20.2764 106.388C16.427 106.388 13.3064 103.268 13.3064 99.4181C13.3064 95.5687 16.427 92.4481 20.2764 92.4481C24.1258 92.4481 27.2464 95.5687 27.2464 99.4181Z"
            fill="#9E9E9E" />
        <path
            d="M25.1343 99.4181C25.1343 102.101 22.9593 104.276 20.2764 104.276C17.5935 104.276 15.4185 102.101 15.4185 99.4181C15.4185 96.7352 17.5935 94.5602 20.2764 94.5602C22.9593 94.5602 25.1343 96.7352 25.1343 99.4181Z"
            fill="white" />
        <path
            d="M32.5403 75.9592L34.2164 64.04H19.2953C17.8065 64.04 16.3571 64.519 15.1614 65.4061C14.2216 66.1034 13.4735 67.0269 12.9866 68.091L11.4494 71.45C11.0852 72.2459 11.0741 73.1585 11.4189 73.963C11.8663 75.007 12.8485 75.723 13.9793 75.8296L30.7085 77.4062C31.6077 77.4909 32.4145 76.8536 32.5403 75.9592Z"
            fill="#FFF9E1" />
        <path
            d="M36.4659 75.7572L38.0182 64.2513H51.2328C52.7236 64.2513 54.1656 64.7822 55.3005 65.7489C56.02 66.3619 56.5917 67.1295 56.9729 67.9944L61.8852 79.1418L38.0363 77.6696C37.0568 77.6091 36.3346 76.7297 36.4659 75.7572Z"
            fill="#FFF9E1" />
        <path
            d="M1.54092 81.8875H0.518245C0.346457 81.8875 0.205055 82.0226 0.197255 82.1942L0.105591 84.2108V86.7454H1.01473C1.8392 86.7454 2.61626 86.36 3.11513 85.7035L3.30794 85.4499C3.91174 84.6554 3.91107 83.5556 3.30631 82.7619C2.88653 82.2109 2.23358 81.8875 1.54092 81.8875Z"
            fill="#FF9500" />
        <path
            d="M62.61 64.1456H85.2196C85.5603 64.1456 85.8866 64.2828 86.125 64.5262L100.045 78.7405C100.307 79.0079 100.118 79.4585 99.7434 79.4585H69.5094C68.7749 79.4585 68.0932 79.0769 67.7091 78.4508L60.856 67.2794C60.6992 67.0238 60.6002 66.7371 60.5658 66.4392C60.4248 65.2174 61.3801 64.1456 62.61 64.1456Z"
            fill="#FFF9E1" />
        <path
            d="M54.1121 77.2572L54.1896 77.0843C54.6942 75.9587 55.8127 75.2343 57.0463 75.2343H60.0632C60.9811 75.2343 61.8641 75.5862 62.5305 76.2174C63.2456 76.8949 63.6507 77.8367 63.6507 78.8218V81.1403H56.6268C55.6332 81.1403 54.7166 80.6055 54.2277 79.7405C53.7968 78.9781 53.7539 78.0563 54.1121 77.2572Z"
            fill="#FF9500" />
        <path
            d="M36.1173 82.241C36.1173 81.4042 36.7957 80.7258 37.6325 80.7258H41.5721C42.4089 80.7258 43.0873 81.4042 43.0873 82.241C43.0873 83.0779 42.4089 83.7563 41.5721 83.7563H37.6325C36.7957 83.7563 36.1173 83.0779 36.1173 82.241Z"
            fill="#FF9500" />
        <path
            d="M88.5 12.1667H84.4616C80.9921 12.1667 78.1795 14.9793 78.1795 18.4487V22.4872M88.5 51.6539H84.4616C80.9921 51.6539 78.1795 48.8413 78.1795 45.3718V42.2308M127.987 12.1667H132.026C135.495 12.1667 138.308 14.9793 138.308 18.4487V22.4872M127.987 51.6539H132.026C135.495 51.6539 138.308 48.8413 138.308 45.3718V42.2308"
            stroke="#42A5F5" stroke-width="1.79487" stroke-linecap="round" stroke-linejoin="round" />
        <rect x="82.6667" y="16.6539" width="51.5278" height="31.1111" rx="5.83333" fill="#1E88E5" />
        <rect x="87.5278" y="23.4594" width="22.3611" height="3.88889" rx="1.94444" fill="white" />
        <rect x="87.5278" y="30.265" width="12.6389" height="3.88889" rx="1.94444" fill="white" fill-opacity="0.5" />
        <rect x="87.5278" y="37.0705" width="18.4722" height="3.88889" rx="1.94444" fill="white" fill-opacity="0.5" />
        <rect x="113.778" y="23.4594" width="15.5556" height="15.5556" rx="7.77778" fill="white" fill-opacity="0.2" />
        <path
            d="M121.556 31.2373C122.783 31.2373 123.778 30.2798 123.778 29.0984C123.778 27.917 122.783 26.9595 121.556 26.9595C120.328 26.9595 119.333 27.917 119.333 29.0984C119.333 30.2798 120.328 31.2373 121.556 31.2373ZM123.111 31.772H122.821C122.436 31.9424 122.007 32.0393 121.556 32.0393C121.104 32.0393 120.677 31.9424 120.29 31.772H120C118.712 31.772 117.667 32.7779 117.667 34.0178V34.7129C117.667 35.1558 118.04 35.515 118.5 35.515H124.611C125.071 35.515 125.444 35.1558 125.444 34.7129V34.0178C125.444 32.7779 124.399 31.772 123.111 31.772Z"
            fill="white" />
    </g>
    <defs>
        <clipPath id="clip0_34_2040">
            <rect width="140" height="109.587" fill="white" transform="translate(0 0.5)" />
        </clipPath>
    </defs>
</svg>