<svg width="24" height="24" viewBox="0 0 24 24" fill="none" xmlns="http://www.w3.org/2000/svg">
<g clip-path="url(#clip0_15675_226416)">
<path d="M16.8 17.3925C16.59 17.3925 16.38 17.355 16.17 17.28C15.96 17.205 15.7725 17.0925 15.6075 16.9425C14.6325 16.0425 13.77 15.165 13.02 14.31C12.27 13.455 11.6437 12.6262 11.1412 11.8237C10.6387 11.0212 10.2562 10.2487 9.99374 9.50625C9.73124 8.76375 9.59999 8.055 9.59999 7.38C9.59999 5.13 10.3237 3.3375 11.7712 2.0025C13.2187 0.6675 14.895 0 16.8 0C18.705 0 20.3812 0.6675 21.8287 2.0025C23.2762 3.3375 24 5.13 24 7.38C24 8.055 23.8687 8.76375 23.6062 9.50625C23.3437 10.2487 22.9612 11.0212 22.4587 11.8237C21.9562 12.6262 21.33 13.455 20.58 14.31C19.83 15.165 18.9675 16.0425 17.9925 16.9425C17.8275 17.0925 17.64 17.205 17.43 17.28C17.22 17.355 17.01 17.3925 16.8 17.3925ZM16.8 9C17.295 9 17.7187 8.82375 18.0712 8.47125C18.4237 8.11875 18.6 7.695 18.6 7.2C18.6 6.705 18.4237 6.28125 18.0712 5.92875C17.7187 5.57625 17.295 5.4 16.8 5.4C16.305 5.4 15.8812 5.57625 15.5287 5.92875C15.1762 6.28125 15 6.705 15 7.2C15 7.695 15.1762 8.11875 15.5287 8.47125C15.8812 8.82375 16.305 9 16.8 9Z" fill="#D32F2F"/>
</g>
<g clip-path="url(#clip1_15675_226416)">
<path d="M-3.05176e-05 12.42C-3.05176e-05 12.0223 0.322325 11.7 0.71997 11.7H2.69997L2.51997 13.5H0.719969C0.322324 13.5 -3.05176e-05 13.1776 -3.05176e-05 12.78V12.42Z" fill="#069550"/>
<path d="M18 12.42C18 12.0223 17.6776 11.7 17.28 11.7H15.3L15.48 13.5H17.28C17.6776 13.5 18 13.1776 18 12.78V12.42Z" fill="#069550"/>
<path d="M14.4 8.49228H4.49998H3.59998V13.3384H14.4V8.49228Z" fill="white"/>
<path d="M16.2 13.3384H2.99997H1.79997V20.1231H16.2V13.3384Z" fill="#008444"/>
<path d="M16.1053 12.7961L14.9972 9.21525C14.8365 8.69403 14.5273 8.24062 14.1136 7.91944C13.6999 7.59827 13.2028 7.42566 12.6928 7.42615H5.30719C4.7972 7.42566 4.30005 7.59827 3.88635 7.91944C3.47266 8.24062 3.16348 8.69403 3.00274 9.21525L1.89466 12.7961C1.60031 12.9291 1.34894 13.1526 1.17201 13.4388C0.995083 13.7249 0.900456 14.0608 0.899979 14.4046V18.7661C0.899979 19.423 1.24261 19.9891 1.74157 20.2866C1.73104 20.3442 1.70998 20.3965 1.70998 20.4567V22.2554C1.70998 22.4867 1.79532 22.7086 1.94722 22.8722C2.09913 23.0358 2.30515 23.1277 2.51998 23.1277H3.32998C3.5448 23.1277 3.75083 23.0358 3.90273 22.8722C4.05464 22.7086 4.13998 22.4867 4.13998 22.2554V20.5108H13.86V22.2554C13.86 22.4867 13.9453 22.7086 14.0972 22.8722C14.2491 23.0358 14.4552 23.1277 14.67 23.1277H15.48C15.6948 23.1277 15.9008 23.0358 16.0527 22.8722C16.2046 22.7086 16.29 22.4867 16.29 22.2554V20.4567C16.29 20.3965 16.2689 20.3433 16.2584 20.2866C16.5122 20.1375 16.7243 19.9178 16.8723 19.6503C17.0204 19.3829 17.099 19.0775 17.1 18.7661V14.4046C17.1 13.6815 16.6885 13.0604 16.1053 12.7961ZM3.71998 18.7661C3.05724 18.7661 2.51998 18.2289 2.51998 17.5661V15.6046C2.51998 14.9419 3.05724 14.4046 3.71998 14.4046H14.2804C14.943 14.4046 15.4802 14.9416 15.4804 15.6042L15.4812 17.5657C15.4814 18.2286 14.9441 18.7661 14.2812 18.7661H3.71998ZM5.30719 9.17076H12.692C13.0411 9.17076 13.3505 9.40978 13.4606 9.76742L14.3565 12.66H3.64345L4.5385 9.76742C4.59224 9.59365 4.69541 9.44251 4.83338 9.33542C4.97135 9.22833 5.13712 9.17072 5.30719 9.17076Z" fill="#069550"/>
<path d="M5.35498 17.8938C6.02601 17.8938 6.56998 17.308 6.56998 16.5854C6.56998 15.8627 6.02601 15.2769 5.35498 15.2769C4.68396 15.2769 4.13998 15.8627 4.13998 16.5854C4.13998 17.308 4.68396 17.8938 5.35498 17.8938Z" fill="white"/>
<path d="M12.645 17.8938C13.316 17.8938 13.86 17.308 13.86 16.5854C13.86 15.8627 13.316 15.2769 12.645 15.2769C11.974 15.2769 11.43 15.8627 11.43 16.5854C11.43 17.308 11.974 17.8938 12.645 17.8938Z" fill="white"/>
</g>
<defs>
<clipPath id="clip0_15675_226416">
<rect width="14.4" height="17.3925" fill="white" transform="translate(9.59999)"/>
</clipPath>
<clipPath id="clip1_15675_226416">
<rect width="18" height="17.4462" fill="white" transform="translate(-1.52588e-05 6.55383)"/>
</clipPath>
</defs>
</svg>
