<svg width="24" height="24" viewBox="0 0 24 24" fill="none" xmlns="http://www.w3.org/2000/svg">
<ellipse cx="12" cy="7.94679" rx="5.8642" ry="5.94679" fill="#1FB767"/>
<path fill-rule="evenodd" clip-rule="evenodd" d="M11.9846 6.77872C10.9138 8.21102 9.21777 9.13615 7.30866 9.13615C6.9416 9.13615 6.58242 9.10195 6.23404 9.03652C6.16953 8.68325 6.1358 8.31901 6.1358 7.94679C6.1358 5.04607 8.18381 2.63042 10.8935 2.10571C10.8939 2.10368 10.8942 2.10165 10.8946 2.09962C11.243 2.0342 11.6021 2 11.9692 2C11.9743 2 11.9795 2.00001 11.9846 2.00002C11.9897 2.00001 11.9949 2 12 2C12.3671 2 12.7262 2.0342 13.0746 2.09963C13.075 2.10166 13.0754 2.10369 13.0757 2.10572C15.7854 2.63044 17.8334 5.04608 17.8334 7.94679C17.8334 8.31901 17.7997 8.68325 17.7351 9.03653C17.3868 9.10195 17.0276 9.13615 16.6606 9.13615C14.7514 9.13615 13.0554 8.21102 11.9846 6.77872Z" fill="#069550"/>
<path d="M2 22C2 18.2662 5.02681 15.2394 8.76056 15.2394H15.2394C18.9732 15.2394 22 18.2662 22 22H2Z" fill="#16A75C"/>
<path fill-rule="evenodd" clip-rule="evenodd" d="M8.66705 15.3521C9.07921 15.2781 9.50364 15.2394 9.93711 15.2394H14.4308C14.8643 15.2394 15.2887 15.2781 15.7009 15.3521C15.6422 17.2705 14.0901 18.8075 12.184 18.8075C10.2779 18.8075 8.72575 17.2705 8.66705 15.3521Z" fill="#069550"/>
</svg>
