<svg width="24" height="24" viewBox="0 0 24 24" fill="none" xmlns="http://www.w3.org/2000/svg">
<path d="M14 10H20V18C20 19.1046 19.1046 20 18 20H14V10Z" fill="#069550"/>
<path d="M4 4L7 5.77778L10 4L13 5.77778L16 4V20H6C4.89543 20 4 19.1046 4 18V4Z" fill="#16A75C"/>
<circle cx="8.07822" cy="11.3634" r="0.822418" transform="rotate(-49.7093 8.07822 11.3634)" fill="#FFC800"/>
<circle cx="11.8421" cy="14.5544" r="0.822418" transform="rotate(-49.7093 11.8421 14.5544)" fill="#FFC800"/>
<path fill-rule="evenodd" clip-rule="evenodd" d="M7.88127 15.5093C7.56158 15.2382 7.52214 14.7594 7.79316 14.4397L11.0663 10.5788C11.3374 10.2591 11.8162 10.2197 12.1359 10.4907C12.4556 10.7617 12.495 11.2406 12.224 11.5603L8.95083 15.4212C8.67981 15.7408 8.20095 15.7803 7.88127 15.5093Z" fill="#FFC800"/>
</svg>
