<svg width="24" height="24" viewBox="0 0 24 24" fill="none" xmlns="http://www.w3.org/2000/svg">
<path d="M4 6C4 4.89543 4.89543 4 6 4H15C16.1046 4 17 4.89543 17 6V8C17 9.10457 16.1046 10 15 10H6C4.89543 10 4 9.10457 4 8V6Z" fill="#069550"/>
<path d="M4 8H18C19.1046 8 20 8.89543 20 10V18C20 19.1046 19.1046 20 18 20H6C4.89543 20 4 19.1046 4 18V8Z" fill="#16A75C"/>
<path d="M13 13C13 11.8954 13.8954 11 15 11H20V16H15C13.8954 16 13 15.1046 13 14V13Z" fill="#FFB900"/>
<path d="M15.5 15C16.3284 15 17 14.3284 17 13.5C17 12.6716 16.3284 12 15.5 12C14.6716 12 14 12.6716 14 13.5C14 14.3284 14.6716 15 15.5 15Z" fill="white"/>
</svg>
