<svg width="24" height="24" viewBox="0 0 24 24" fill="none" xmlns="http://www.w3.org/2000/svg">
<g clip-path="url(#clip0_3111_137278)">
<circle cx="12" cy="8" r="5" fill="#1FB767"/>
<path fill-rule="evenodd" clip-rule="evenodd" d="M12 7.00046C11.0878 8.21463 9.63558 8.99997 7.99998 8.99997C7.68703 8.99997 7.38079 8.97122 7.08376 8.91621C7.02875 8.61919 7 8.31295 7 8C7 5.55154 8.75991 3.51414 11.0837 3.08377C11.0941 3.08184 11.1045 3.07995 11.1149 3.07809C11.4022 3.02678 11.698 3 12 3C12.0196 3 12.0391 3.00011 12.0586 3.00034C12.1051 3.00087 12.1513 3.00204 12.1975 3.00383C12.2289 3.00505 12.2601 3.00655 12.2914 3.00835C12.3062 3.0092 12.321 3.01012 12.3358 3.0111C12.3595 3.01267 12.3831 3.0144 12.4067 3.0163C12.5792 3.03018 12.7491 3.05282 12.9162 3.08376C15.2401 3.51412 17 5.55153 17 8C17 8.31295 16.9713 8.61919 16.9162 8.91621C16.6192 8.97122 16.313 8.99997 16 8.99997C14.3644 8.99997 12.9122 8.21463 12 7.00046Z" fill="#069550"/>
<path d="M4 21C4 17.6863 6.68629 15 10 15H14C17.3137 15 20 17.6863 20 21H4Z" fill="#16A75C"/>
<path fill-rule="evenodd" clip-rule="evenodd" d="M9.00096 15.0827C9.32576 15.0283 9.6594 15 9.99966 15H14.0002C14.3404 15 14.6741 15.0283 14.9989 15.0827C14.9551 16.7013 13.6292 18 11.9999 18C10.3707 18 9.0448 16.7013 9.00096 15.0827Z" fill="#069550"/>
<rect x="10.5657" y="14.0438" width="10.4344" height="6.95624" rx="1" fill="#FFA600"/>
<rect x="11.909" y="15.3806" width="4.91788" height="1.63929" rx="0.819646" fill="white"/>
<rect opacity="0.4" x="11.909" y="18.0236" width="3.51848" height="1.63929" rx="0.819646" fill="white"/>
</g>
<defs>
<clipPath id="clip0_3111_137278">
<rect width="18" height="18" fill="white" transform="translate(3 3)"/>
</clipPath>
</defs>
</svg>
