<svg width="24" height="24" viewBox="0 0 24 24" fill="none" xmlns="http://www.w3.org/2000/svg">
<g clip-path="url(#clip0_193_25552)">
<g clip-path="url(#clip1_193_25552)">
<circle cx="12" cy="7.99999" r="5" fill="#1FB767"/>
<path fill-rule="evenodd" clip-rule="evenodd" d="M12 7.00045C11.0878 8.21462 9.63562 8.99996 8.00002 8.99996C7.68706 8.99996 7.38082 8.97121 7.08379 8.9162C7.02878 8.61918 7.00003 8.31294 7.00003 7.99999C7.00003 5.26014 9.20377 3.03499 11.9354 3.00039C11.9569 3.00012 11.9785 2.99998 12 2.99998C12 2.99998 12 2.99998 12 2.99998C12.2739 2.99998 12.5426 3.022 12.8045 3.06435C12.8419 3.0704 12.8791 3.07687 12.9163 3.08375C15.2401 3.5141 17 5.55152 17 7.99999C17 8.31294 16.9713 8.61917 16.9163 8.9162C16.6192 8.97121 16.313 8.99996 16 8.99996C14.3644 8.99996 12.9123 8.21462 12 7.00045Z" fill="#069550"/>
<path d="M4 21C4 17.6863 6.68629 15 10 15H14C17.3137 15 20 17.6863 20 21H4Z" fill="#16A75C"/>
<path fill-rule="evenodd" clip-rule="evenodd" d="M9.00094 15.0827C9.32573 15.0283 9.65938 15 9.99963 15H14.0001C14.3404 15 14.6741 15.0283 14.9989 15.0827C14.9551 16.7013 13.6291 18 11.9999 18C10.3707 18 9.04477 16.7013 9.00094 15.0827Z" fill="#069550"/>
</g>
<circle cx="16.7534" cy="17.8204" r="1.64355" fill="white"/>
<path fill-rule="evenodd" clip-rule="evenodd" d="M13.5662 14.6281C13.2845 14.6281 13.0144 14.74 12.8152 14.9392C12.6161 15.1383 12.5042 15.4085 12.5042 15.6901V19.938C12.5042 20.2197 12.6161 20.4898 12.8152 20.689C13.0144 20.8881 13.2845 21 13.5662 21H19.938C20.2197 21 20.4898 20.8881 20.689 20.689C20.8881 20.4898 21 20.2197 21 19.938V15.6901C21 15.4085 20.8881 15.1383 20.689 14.9392C20.4898 14.74 20.2197 14.6281 19.938 14.6281H19.0959C18.9551 14.6281 18.82 14.5721 18.7205 14.4726L18.1252 13.8773C17.9261 13.6781 17.656 13.5662 17.3744 13.5662H16.1298C15.8481 13.5662 15.5781 13.6781 15.379 13.8773L14.7837 14.4726C14.6842 14.5721 14.5491 14.6281 14.4083 14.6281H13.5662ZM16.7521 19.407C16.9613 19.407 17.1684 19.3658 17.3617 19.2858C17.555 19.2057 17.7306 19.0884 17.8785 18.9405C18.0264 18.7925 18.1437 18.6169 18.2238 18.4237C18.3039 18.2304 18.3451 18.0233 18.3451 17.8141C18.3451 17.6049 18.3039 17.3977 18.2238 17.2045C18.1437 17.0112 18.0264 16.8356 17.8785 16.6877C17.7306 16.5398 17.555 16.4224 17.3617 16.3424C17.1684 16.2623 16.9613 16.2211 16.7521 16.2211C16.3296 16.2211 15.9244 16.3889 15.6257 16.6877C15.327 16.9864 15.1591 17.3916 15.1591 17.8141C15.1591 18.2366 15.327 18.6417 15.6257 18.9405C15.9244 19.2392 16.3296 19.407 16.7521 19.407Z" fill="#FFA600"/>
</g>
<defs>
<clipPath id="clip0_193_25552">
<rect width="18" height="18" fill="white" transform="translate(3 3)"/>
</clipPath>
<clipPath id="clip1_193_25552">
<rect width="18" height="18" fill="white" transform="translate(3 2.99998)"/>
</clipPath>
</defs>
</svg>
