<svg width="24" height="24" viewBox="0 0 24 24" fill="none" xmlns="http://www.w3.org/2000/svg">
<g clip-path="url(#clip0_3111_138237)">
<circle cx="12" cy="8" r="5" fill="#1FB767"/>
<path fill-rule="evenodd" clip-rule="evenodd" d="M12 7.00049C11.0878 8.21466 9.6356 9 8 9C7.68704 9 7.38079 8.97125 7.08376 8.91624C7.02875 8.61921 7 8.31296 7 8C7 5.55154 8.75992 3.51413 11.0838 3.08376C11.0941 3.08184 11.1045 3.07995 11.1149 3.07809C11.4022 3.02678 11.698 3 12 3C12.313 3 12.6192 3.02875 12.9162 3.08376C15.2401 3.51413 17 5.55154 17 8C17 8.31296 16.9712 8.61921 16.9162 8.91624C16.6192 8.97125 16.313 9 16 9C14.3644 9 12.9122 8.21466 12 7.00049Z" fill="#069550"/>
<path d="M4 21C4 17.6863 6.68629 15 10 15H14C17.3137 15 20 17.6863 20 21H4Z" fill="#16A75C"/>
<path fill-rule="evenodd" clip-rule="evenodd" d="M9.00095 15.0827C9.32574 15.0283 9.65939 15 9.99964 15H14.0002C14.3404 15 14.6741 15.0283 14.9989 15.0827C14.9551 16.7013 13.6292 18 11.9999 18C10.3707 18 9.04478 16.7013 9.00095 15.0827Z" fill="#069550"/>
<path d="M17.3661 13.3146C17.9709 12.7098 18.9515 12.7098 19.5563 13.3146C20.1611 13.9194 20.1611 14.9 19.5563 15.5048L15.0213 20.0399C14.7247 20.3365 14.3493 20.5416 13.9396 20.631L12.5991 20.9236C12.2093 21.0087 11.8623 20.6617 11.9473 20.2719L12.2399 18.9314C12.3293 18.5217 12.5345 18.1462 12.831 17.8497L17.3661 13.3146Z" fill="#FFA600"/>
<path fill-rule="evenodd" clip-rule="evenodd" d="M18.4305 16.6307L16.2403 14.4405L17.0146 13.6661L19.2048 15.8563L18.4305 16.6307Z" fill="white"/>
</g>
<defs>
<clipPath id="clip0_3111_138237">
<rect width="18" height="18" fill="white" transform="translate(3 3)"/>
</clipPath>
</defs>
</svg>
