<svg width="24" height="24" viewBox="0 0 24 24" fill="none" xmlns="http://www.w3.org/2000/svg">
<g clip-path="url(#clip0_193_25541)">
<path d="M2.96277 5C2.96277 3.89543 3.8582 3 4.96277 3H14.4628C15.5673 3 16.4628 3.89543 16.4628 5V19.5C16.4628 20.3284 15.7912 21 14.9628 21H4.46277C3.63434 21 2.96277 20.3284 2.96277 19.5V5Z" fill="#16A75C"/>
<rect x="5" y="5.25" width="6.44318" height="0.84375" rx="0.421875" fill="white"/>
<rect x="5" y="6.9375" width="7.875" height="0.84375" rx="0.421875" fill="#9BDBB3"/>
<rect x="5" y="9.46875" width="4.29545" height="0.84375" rx="0.421875" fill="white"/>
<rect x="5" y="11.1562" width="7.875" height="0.84375" rx="0.421875" fill="#9BDBB3"/>
<path d="M5 17.375C5 17.1679 5.16789 17 5.375 17H18.625C18.8321 17 19 17.1679 19 17.375V18.75C19 19.9926 17.9926 21 16.75 21H7C5.89543 21 5 20.1046 5 19V17.375Z" fill="#4DC27E"/>
<path d="M5 17H8V19.5C8 20.3284 7.32843 21 6.5 21C5.67157 21 5 20.3284 5 19.5V17Z" fill="#16A75C"/>
<path d="M17.991 6.7046C18.5043 6.05435 19.4476 5.94333 20.0978 6.45662L20.3922 6.68897C21.0424 7.20227 21.1534 8.14551 20.6401 8.79575L16.561 13.9632C16.4168 14.146 16.2319 14.2926 16.0211 14.3916L14.2838 15.2072C13.7243 15.4698 13.1051 14.9811 13.2307 14.3759L13.6206 12.4967C13.6679 12.2687 13.7677 12.0548 13.912 11.872L17.991 6.7046Z" fill="#FFB900"/>
</g>
<defs>
<clipPath id="clip0_193_25541">
<rect width="18" height="18" fill="white" transform="translate(3 3)"/>
</clipPath>
</defs>
</svg>
