<svg width="34" height="34" viewBox="0 0 34 34" fill="none" xmlns="http://www.w3.org/2000/svg">
<g clip-path="url(#clip0_4131_77778)">
<rect x="21.9583" y="24.565" width="4.95833" height="5.89333" rx="1.41667" fill="#212121"/>
<rect x="3.54166" y="24.565" width="4.95833" height="5.89333" rx="1.41667" fill="#212121"/>
<path d="M3.54166 20.7967C3.54166 19.6231 4.49305 18.6717 5.66666 18.6717H24.7917C25.9653 18.6717 26.9167 19.6231 26.9167 20.7967V25.5403C26.9167 26.2222 26.3639 26.775 25.6819 26.775H4.77637C4.09445 26.775 3.54166 26.2222 3.54166 25.5403V20.7967Z" fill="#1E88E5"/>
<path d="M20.8045 19.4083H9.65379C9.12538 19.4083 8.78301 19.966 9.02214 20.4372L9.79858 21.9672C9.91931 22.2051 10.1635 22.355 10.4302 22.355H20.0281C20.2949 22.355 20.539 22.2051 20.6598 21.9672L21.4362 20.4372C21.6753 19.966 21.333 19.4083 20.8045 19.4083Z" fill="#1976D2"/>
<rect x="4.95831" y="16.4617" width="3.54167" height="2.21" rx="1.105" fill="#424242"/>
<rect x="21.9583" y="16.4617" width="3.54167" height="2.21" rx="1.105" fill="#424242"/>
<path d="M9.03202 12.8825C9.20114 12.3801 9.6721 12.0417 10.2022 12.0417H20.2561C20.7862 12.0417 21.2572 12.3801 21.4263 12.8825L23.375 18.6717H7.08331L9.03202 12.8825Z" fill="#1E88E5"/>
<path d="M10.0727 13.6444C10.2339 13.1291 10.7112 12.7783 11.2511 12.7783H19.2073C19.7472 12.7783 20.2245 13.1291 20.3857 13.6444L21.6706 17.7519C21.8133 18.208 21.4725 18.6717 20.9946 18.6717H9.46377C8.98581 18.6717 8.64504 18.208 8.78774 17.7519L10.0727 13.6444Z" fill="#E3F2FD"/>
<path d="M9.95331 13.6686C10.1065 13.1412 10.5897 12.7783 11.139 12.7783H15.0693C15.6186 12.7783 16.1018 13.1412 16.255 13.6686L17.4452 17.7657C17.5768 18.2189 17.2369 18.6717 16.765 18.6717H9.44337C8.97147 18.6717 8.63152 18.2189 8.76316 17.7657L9.95331 13.6686Z" fill="#BBDEFB"/>
<path d="M10.3383 25.0517L10.9922 23.5217C11.1036 23.2609 11.3599 23.0917 11.6435 23.0917H19.5231C19.8068 23.0917 20.063 23.2609 20.1745 23.5217L20.8283 25.0517C21.028 25.519 20.6852 26.0383 20.177 26.0383H10.9897C10.4815 26.0383 10.1386 25.519 10.3383 25.0517Z" fill="#1976D2"/>
<path d="M12.2797 25.1472L12.6883 23.6172C12.7711 23.3073 13.0519 23.0917 13.3727 23.0917H17.794C18.1148 23.0917 18.3955 23.3073 18.4783 23.6172L18.887 25.1472C19.0071 25.597 18.6681 26.0383 18.2026 26.0383H12.964C12.4985 26.0383 12.1595 25.597 12.2797 25.1472Z" fill="#1565C0"/>
<path d="M5.34764 21.1168C5.16121 20.6514 5.50388 20.145 6.00517 20.145H7.13528C7.42478 20.145 7.68514 20.3212 7.79281 20.5899L8.11065 21.3832C8.29708 21.8486 7.95441 22.355 7.45313 22.355H6.32301C6.03351 22.355 5.77315 22.1788 5.66548 21.9101L5.34764 21.1168Z" fill="white"/>
<path d="M22.6655 20.5899C22.7731 20.3212 23.0335 20.145 23.323 20.145H24.4531C24.9544 20.145 25.2971 20.6514 25.1107 21.1168L24.7928 21.9101C24.6851 22.1788 24.4248 22.355 24.1353 22.355H23.0052C22.5039 22.355 22.1612 21.8486 22.3476 21.3832L22.6655 20.5899Z" fill="white"/>
<circle cx="21" cy="13" r="9" fill="#F44336"/>
<circle cx="21.2993" cy="9.29934" r="1.29934" fill="white"/>
<rect x="20" y="12.5215" width="2.71291" height="5.42582" rx="1.35646" fill="white"/>
</g>
<defs>
<clipPath id="clip0_4131_77778">
<rect width="26.9167" height="26.9167" fill="white" transform="translate(3.54166 3.54167)"/>
</clipPath>
</defs>
</svg>
