<svg width="34" height="34" viewBox="0 0 34 34" fill="none" xmlns="http://www.w3.org/2000/svg">
<g clip-path="url(#clip0_14541_17038)">
<path d="M26.1857 13.686L26.1204 14.636L24.6576 36.1069C24.6003 36.9321 23.9136 37.5726 23.0885 37.5726H11.0963C10.2712 37.5726 9.58445 36.9321 9.52743 36.1069L8.06437 14.636L7.99939 13.686H26.1857Z" fill="#FFBC00"/>
<path d="M26.1857 13.686L26.1204 14.636H8.06437L7.99939 13.686H26.1857Z" fill="#FF9B00"/>
<path d="M11.8267 37.5726H11.0963C10.2712 37.5726 9.5847 36.9318 9.52743 36.1067L8.06462 14.636L7.99939 13.6861H10.624L11.8267 37.5726Z" fill="#FFE359"/>
<path d="M12.9379 17.1922H12.9004C12.7178 17.1922 12.5686 17.0427 12.5686 16.8604V14.0177C12.5686 13.8353 12.7178 13.6861 12.9004 13.6861H12.9379C13.1205 13.6861 13.2697 13.8353 13.2697 14.0177V16.8604C13.2697 17.0427 13.1205 17.1922 12.9379 17.1922Z" fill="#FFE74A"/>
<path d="M20.459 17.1922H20.4215C20.2389 17.1922 20.0897 17.0427 20.0897 16.8604V14.0177C20.0897 13.8353 20.2389 13.6861 20.4215 13.6861H20.459C20.6416 13.6861 20.7908 13.8353 20.7908 14.0177V16.8604C20.7908 17.0427 20.6416 17.1922 20.459 17.1922Z" fill="#FFE74A"/>
<path d="M26.1857 13.686L26.1204 14.636L24.6576 36.1069C24.6004 36.9321 23.9136 37.5726 23.0885 37.5726H22.3694L23.6966 13.686H26.1857Z" fill="#FF9B00"/>
<path d="M16.4919 27.7819H15.2168C14.5918 27.7819 14.0314 27.4585 13.7189 26.9169C13.4061 26.3753 13.4061 25.7286 13.7189 25.1873L14.1678 24.4096C14.2612 24.2476 14.4677 24.1919 14.6303 24.2859C14.7921 24.3791 14.8478 24.5863 14.7541 24.7481L14.3054 25.5258C14.1151 25.8555 14.1151 26.2487 14.3052 26.5782C14.4957 26.9079 14.8362 27.1046 15.2168 27.1046H16.4919C16.6791 27.1046 16.8304 27.2564 16.8304 27.4434C16.8304 27.6303 16.6791 27.7819 16.4919 27.7819Z" fill="white"/>
<path d="M18.8462 27.7819H18.0685C17.8816 27.7819 17.7298 27.6303 17.7298 27.4434C17.7298 27.2564 17.8816 27.1046 18.0685 27.1046H18.8462C19.2268 27.1046 19.5678 26.9079 19.7579 26.5784C19.9482 26.2487 19.9482 25.8555 19.7579 25.5258L19.086 24.3619C18.9923 24.1998 19.0478 23.9928 19.2098 23.8993C19.3716 23.8056 19.5791 23.8613 19.6726 24.0231L20.3444 25.1873C20.6572 25.7289 20.657 26.3753 20.3444 26.9169C20.0316 27.4585 19.4718 27.7819 18.8462 27.7819Z" fill="white"/>
<path d="M15.0742 23.8549C15.0167 23.8549 14.9586 23.8403 14.9052 23.8094C14.7432 23.716 14.6877 23.509 14.7812 23.3469L15.5334 22.0441C15.8464 21.5025 16.4063 21.1791 17.0316 21.1791C17.6572 21.1791 18.2168 21.5025 18.5296 22.0441L18.9752 22.8161C19.0689 22.9779 19.0135 23.1851 18.8514 23.2786C18.6894 23.3723 18.4824 23.3164 18.3886 23.1546L17.9431 22.3826C17.753 22.0531 17.4122 21.8564 17.0316 21.8564C16.6513 21.8564 16.3103 22.0531 16.12 22.3826L15.368 23.6856C15.3048 23.7943 15.1913 23.8549 15.0742 23.8549Z" fill="white"/>
<path d="M14.8535 24.243L14.9223 25.4587C14.9336 25.6588 14.7184 25.7913 14.5448 25.6917L13.3904 25.0275C13.2168 24.9276 13.2233 24.6749 13.402 24.5843L14.4876 24.0326C14.6496 23.95 14.8432 24.0614 14.8535 24.243Z" fill="white"/>
<path d="M18.8125 23.6868L17.7136 23.1624C17.5331 23.0761 17.5202 22.8236 17.6913 22.7193L18.8285 22.0267C18.9997 21.9227 19.218 22.0498 19.2116 22.2501L19.1731 23.4672C19.1674 23.649 18.9769 23.7651 18.8125 23.6868Z" fill="white"/>
<path d="M17.304 27.3036L18.2835 26.5802C18.4445 26.461 18.6734 26.5683 18.6849 26.7684L18.762 28.0977C18.7735 28.2977 18.5586 28.4305 18.3847 28.3309L17.3284 27.725C17.1705 27.6344 17.1579 27.4117 17.304 27.3036Z" fill="white"/>
<path d="M8.20294 10.1573L9.9164 5.6672C10.0697 5.26554 10.4549 5 10.8848 5H23.3087C23.7345 5 24.1169 5.26015 24.2731 5.65616L26.05 10.1573H8.20294Z" fill="#FFB100"/>
<path d="M10.7307 6.00581L9.58173 9.3015" stroke="#FFE757" stroke-width="0.489169" stroke-miterlimit="10" stroke-linecap="round" stroke-linejoin="round"/>
<path d="M23.362 6.00581L24.511 9.3015" stroke="#FFE757" stroke-width="0.489169" stroke-miterlimit="10" stroke-linecap="round" stroke-linejoin="round"/>
<path d="M12.3724 6.60885L11.8449 8.54317C11.7538 8.87754 12.0054 9.20729 12.3521 9.20729H21.8329C22.1796 9.20729 22.4313 8.87754 22.3401 8.54317L21.8126 6.60885C21.7502 6.38003 21.5425 6.22157 21.3054 6.22157H12.8796C12.6426 6.22157 12.4348 6.38003 12.3724 6.60885Z" fill="#2E3433"/>
<path d="M21.8329 9.20659H12.3511C12.0044 9.20659 11.7529 8.87787 11.8451 8.54401L12.3716 6.60763C12.4358 6.37907 12.6415 6.22241 12.8803 6.22241H13.3346L12.9366 7.67341C12.847 8.00984 13.0984 8.33856 13.4453 8.33856H22.2849L22.3411 8.54401C22.431 8.87787 22.1796 9.20659 21.8329 9.20659Z" fill="#1E2322"/>
<path d="M27 10.882V12.9612C27 13.3631 26.6769 13.6859 26.2753 13.6859H7.90976C7.5081 13.6859 7.18503 13.3631 7.18503 12.9612V10.882C7.18503 10.4803 7.5081 10.1573 7.90976 10.1573H26.2753C26.6769 10.1573 27 10.4803 27 10.882Z" fill="#FFBC00"/>
<path d="M9.58181 10.1573V13.686H7.9097C7.50804 13.686 7.18497 13.3629 7.18497 12.9612V10.8821C7.18497 10.4804 7.50804 10.1573 7.9097 10.1573H9.58181Z" fill="#FFE757"/>
<path d="M27 10.882V12.9612C27 13.3631 26.6769 13.6859 26.2753 13.6859H24.511V10.1573H26.2753C26.6769 10.1573 27 10.4803 27 10.882Z" fill="#FF9B00"/>
</g>
<g clip-path="url(#clip1_14541_17038)">
<rect x="19" y="22" width="12" height="12" rx="6" fill="#16A75C"/>
<path d="M23.6705 30.3192C23.9503 30.6209 24.4071 30.6209 24.6869 30.3192L27.972 26.7767C28.2517 26.4751 28.2517 25.9825 27.972 25.6808C27.6923 25.3791 27.2354 25.3791 26.9557 25.6808L24.1787 28.6753L23.0443 27.452C22.7646 27.1504 22.3077 27.1504 22.028 27.452C21.7482 27.7537 21.7482 28.2463 22.028 28.548L23.6705 30.3192Z" fill="white"/>
</g>
<defs>
<clipPath id="clip0_14541_17038">
<rect width="26.9167" height="26.9167" fill="white" transform="translate(4 4)"/>
</clipPath>
<clipPath id="clip1_14541_17038">
<rect x="19" y="22" width="12" height="12" rx="6" fill="white"/>
</clipPath>
</defs>
</svg>
