<svg width="34" height="34" viewBox="0 0 34 34" fill="none" xmlns="http://www.w3.org/2000/svg">
<rect width="34" height="34" rx="17" fill="#1F2121"/>
<path d="M26.0116 15.5065H7.9884V21.0961H26.0116V15.5065Z" fill="#3E4A66"/>
<path d="M23.7319 12H10.2682V24.9853H23.7319V12Z" fill="#E0E0E0"/>
<path d="M28.9945 27.3728C28.9945 27.8254 28.6237 28.1963 28.1711 28.1963H5.82345C5.37082 28.1963 5 27.8254 5 27.3728V19.122C5 18.6693 5.37082 18.2985 5.82345 18.2985H28.1765C28.6292 18.2985 29 18.6693 29 19.122V27.3728H28.9945Z" fill="#2B3451"/>
<path d="M7.25216 19.6182C7.25216 19.9181 7.00676 20.1635 6.70683 20.1635C6.4069 20.1635 6.1615 19.9181 6.1615 19.6182C6.1615 19.3183 6.4069 19.0729 6.70683 19.0729C7.00676 19.0729 7.25216 19.3183 7.25216 19.6182Z" fill="#CC2128"/>
<path d="M7.25216 21.2051C7.25216 21.5051 7.00676 21.7505 6.70683 21.7505C6.4069 21.7505 6.1615 21.5051 6.1615 21.2051C6.1615 20.9052 6.4069 20.6598 6.70683 20.6598C7.00676 20.6598 7.25216 20.9052 7.25216 21.2051Z" fill="#6FBD46"/>
<path opacity="0.1" d="M5 23.2447V27.3728C5 27.8255 5.37082 28.1963 5.82345 28.1963H28.1765C28.6292 28.1963 29 27.8255 29 27.3728V23.2447H5Z" fill="#212121"/>
<path d="M26.0116 25.2297H7.9884V27.3019H26.0116V25.2297Z" fill="#3E4A66"/>
<g clip-path="url(#clip0_17841_435216)">
<rect x="17" y="7" width="12" height="12" rx="6" fill="#E53935"/>
<path fill-rule="evenodd" clip-rule="evenodd" d="M20.422 10.2167C20.6254 10.0133 20.9882 10.0463 21.2323 10.2904L25.6517 14.7098C25.8958 14.9539 25.9287 15.3166 25.7253 15.52C25.5219 15.7234 25.1592 15.6904 24.9151 15.4464L20.4957 11.027C20.2516 10.7829 20.2187 10.4201 20.422 10.2167Z" fill="white"/>
<path fill-rule="evenodd" clip-rule="evenodd" d="M25.7252 10.2167C25.9286 10.4201 25.8956 10.7829 25.6516 11.027L21.2322 15.4464C20.9881 15.6904 20.6253 15.7234 20.4219 15.52C20.2185 15.3166 20.2515 14.9539 20.4956 14.7098L24.915 10.2904C25.1591 10.0463 25.5218 10.0133 25.7252 10.2167Z" fill="white"/>
</g>
<defs>
<clipPath id="clip0_17841_435216">
<rect x="17" y="7" width="12" height="12" rx="6" fill="white"/>
</clipPath>
</defs>
</svg>
