<svg width="34" height="34" viewBox="0 0 34 34" fill="none" xmlns="http://www.w3.org/2000/svg">
<rect width="34" height="34" rx="17" fill="#F5F5F5"/>
<path d="M26.0115 15.5064H7.98828V21.096H26.0115V15.5064Z" fill="#3E4A66"/>
<path d="M23.7319 11.9999H10.2682V24.9852H23.7319V11.9999Z" fill="#E0E0E0"/>
<path d="M28.9945 27.3728C28.9945 27.8255 28.6237 28.1963 28.1711 28.1963H5.82345C5.37082 28.1963 5 27.8255 5 27.3728V19.122C5 18.6693 5.37082 18.2985 5.82345 18.2985H28.1765C28.6292 18.2985 29 18.6693 29 19.122V27.3728H28.9945Z" fill="#2B3451"/>
<path d="M7.25216 19.6182C7.25216 19.9181 7.00676 20.1635 6.70683 20.1635C6.4069 20.1635 6.1615 19.9181 6.1615 19.6182C6.1615 19.3183 6.4069 19.0729 6.70683 19.0729C7.00676 19.0729 7.25216 19.3183 7.25216 19.6182Z" fill="#CC2128"/>
<path d="M7.25216 21.2051C7.25216 21.5051 7.00676 21.7505 6.70683 21.7505C6.4069 21.7505 6.1615 21.5051 6.1615 21.2051C6.1615 20.9052 6.4069 20.6598 6.70683 20.6598C7.00676 20.6598 7.25216 20.9052 7.25216 21.2051Z" fill="#6FBD46"/>
<path opacity="0.1" d="M5 23.2447V27.3728C5 27.8255 5.37082 28.1963 5.82345 28.1963H28.1765C28.6292 28.1963 29 27.8255 29 27.3728V23.2447H5Z" fill="#212121"/>
<path d="M26.0115 25.2297H7.98828V27.3019H26.0115V25.2297Z" fill="#3E4A66"/>
</svg>
