<svg width="24" height="22" viewBox="0 0 24 22" fill="none" xmlns="http://www.w3.org/2000/svg">
    <path d="M21.0115 8.50641H2.98828V14.096H21.0115V8.50641Z" fill="#3E4A66" />
    <path d="M18.7319 4.99994H5.26819V17.9852H18.7319V4.99994Z" fill="#E0E0E0" />
    <path
        d="M23.9945 20.3728C23.9945 20.8255 23.6237 21.1963 23.1711 21.1963H0.823449C0.370825 21.1963 0 20.8255 0 20.3728V12.122C0 11.6693 0.370825 11.2985 0.823449 11.2985H23.1765C23.6292 11.2985 24 11.6693 24 12.122V20.3728H23.9945Z"
        fill="#2B3451" />
    <path
        d="M2.25216 12.6182C2.25216 12.9181 2.00676 13.1635 1.70683 13.1635C1.4069 13.1635 1.1615 12.9181 1.1615 12.6182C1.1615 12.3183 1.4069 12.0729 1.70683 12.0729C2.00676 12.0729 2.25216 12.3183 2.25216 12.6182Z"
        fill="#CC2128" />
    <path
        d="M2.25216 14.2051C2.25216 14.5051 2.00676 14.7505 1.70683 14.7505C1.4069 14.7505 1.1615 14.5051 1.1615 14.2051C1.1615 13.9052 1.4069 13.6598 1.70683 13.6598C2.00676 13.6598 2.25216 13.9052 2.25216 14.2051Z"
        fill="#6FBD46" />
    <path opacity="0.1"
        d="M0 16.2447V20.3728C0 20.8255 0.370825 21.1963 0.823449 21.1963H23.1765C23.6292 21.1963 24 20.8255 24 20.3728V16.2447H0Z"
        fill="#212121" />
    <path d="M21.0115 18.2297H2.98828V20.3019H21.0115V18.2297Z" fill="#3E4A66" />
    <rect x="12" width="12" height="12" rx="6" fill="#1E88E5" />
    <g clip-path="url(#clip0_7_299)">
        <line x1="15.9166" y1="4" x2="20.0833" y2="4" stroke="white" stroke-width="0.5" stroke-linecap="round" />
        <line x1="15.9166" y1="8.08331" x2="20.0833" y2="8.08331" stroke="white" stroke-width="0.5"
            stroke-linecap="round" />
        <path
            d="M16.25 3.95831C16.25 5.41665 17.4167 5.13252 17.4167 5.99998C17.4167 6.86744 16.25 6.58331 16.25 8.04165"
            stroke="white" stroke-width="0.5" />
        <path
            d="M19.75 3.95831C19.75 5.41665 18.5833 5.13252 18.5833 5.99998C18.5833 6.86744 19.75 6.58331 19.75 8.04165"
            stroke="white" stroke-width="0.5" />
        <path d="M16.25 4H18H19.75C19.75 4 19.4583 5.75 18 5.75C16.5417 5.75 16.25 4 16.25 4Z" fill="white" />
    </g>
    <defs>
        <clipPath id="clip0_7_299">
            <rect width="5.25" height="5.25" fill="white" transform="translate(15.375 3.375)" />
        </clipPath>
    </defs>
</svg>