<svg width="34" height="34" viewBox="0 0 34 34" fill="none" xmlns="http://www.w3.org/2000/svg">
<g clip-path="url(#clip0_6174_59441)">
<rect x="21.7896" y="24.3074" width="4.78948" height="5.69263" rx="1.36842" fill="#212121"/>
<rect x="4.00009" y="24.3074" width="4.78948" height="5.69263" rx="1.36842" fill="#212121"/>
<path d="M4.00009 20.6674C4.00009 19.5337 4.91909 18.6147 6.05272 18.6147H24.5264C25.6601 18.6147 26.5791 19.5337 26.5791 20.6674V25.2495C26.5791 25.9081 26.0451 26.4421 25.3864 26.4421H5.19275C4.53406 26.4421 4.00009 25.9081 4.00009 25.2495V20.6674Z" fill="#1E88E5"/>
<path d="M20.6751 19.3264H9.90405C9.39363 19.3264 9.06292 19.865 9.29391 20.3202L10.0439 21.7981C10.1605 22.0279 10.3964 22.1727 10.654 22.1727H19.9251C20.1828 22.1727 20.4186 22.0279 20.5352 21.7981L21.2852 20.3202C21.5162 19.865 21.1855 19.3264 20.6751 19.3264Z" fill="#1976D2"/>
<rect x="5.3685" y="16.4801" width="3.42105" height="2.13474" rx="1.06737" fill="#424242"/>
<rect x="21.7896" y="16.4801" width="3.42105" height="2.13474" rx="1.06737" fill="#424242"/>
<path d="M9.30349 13.0227C9.46685 12.5374 9.92177 12.2105 10.4338 12.2105H20.1453C20.6574 12.2105 21.1123 12.5374 21.2757 13.0227L23.158 18.6148H7.42114L9.30349 13.0227Z" fill="#1E88E5"/>
<path d="M10.3087 13.7587C10.4644 13.261 10.9254 12.9221 11.4469 12.9221H19.1322C19.6537 12.9221 20.1147 13.261 20.2704 13.7587L21.5116 17.7263C21.6495 18.1669 21.3203 18.6148 20.8586 18.6148H9.7205C9.25882 18.6148 8.92966 18.1669 9.0675 17.7263L10.3087 13.7587Z" fill="#E3F2FD"/>
<path d="M10.1934 13.7821C10.3414 13.2726 10.8081 12.9221 11.3387 12.9221H15.1352C15.6657 12.9221 16.1325 13.2726 16.2805 13.7821L17.4301 17.7397C17.5573 18.1774 17.2289 18.6148 16.773 18.6148H9.7008C9.24497 18.6148 8.91659 18.1774 9.04375 17.7397L10.1934 13.7821Z" fill="#BBDEFB"/>
<path d="M10.5653 24.7775L11.1969 23.2996C11.3045 23.0477 11.5521 22.8843 11.826 22.8843H19.4373C19.7113 22.8843 19.9588 23.0477 20.0665 23.2996L20.6981 24.7775C20.891 25.2289 20.5598 25.7306 20.0689 25.7306H11.1945C10.7036 25.7306 10.3724 25.2289 10.5653 24.7775Z" fill="#1976D2"/>
<path d="M12.4405 24.8698L12.8352 23.3919C12.9152 23.0925 13.1864 22.8843 13.4963 22.8843H17.767C18.0769 22.8843 18.3481 23.0925 18.4281 23.3919L18.8228 24.8698C18.9388 25.3043 18.6114 25.7306 18.1618 25.7306H13.1015C12.6519 25.7306 12.3245 25.3043 12.4405 24.8698Z" fill="#1565C0"/>
<path d="M5.74457 20.9766C5.56449 20.5272 5.89549 20.038 6.3797 20.038H7.47133C7.75097 20.038 8.00247 20.2081 8.10647 20.4677L8.41348 21.234C8.59357 21.6835 8.26257 22.1727 7.77835 22.1727H6.68672C6.40708 22.1727 6.15559 22.0025 6.05159 21.743L5.74457 20.9766Z" fill="white"/>
<path d="M22.4726 20.4677C22.5766 20.2081 22.8281 20.038 23.1078 20.038H24.1994C24.6836 20.038 25.0146 20.5272 24.8345 20.9766L24.5275 21.743C24.4235 22.0025 24.172 22.1727 23.8924 22.1727H22.8008C22.3165 22.1727 21.9855 21.6835 22.1656 21.234L22.4726 20.4677Z" fill="white"/>
</g>
<rect x="12" y="4" width="18" height="18" rx="9" fill="#16A75C"/>
<path d="M17.5 13.25L19.138 15.0928C19.3327 15.3118 19.6732 15.3172 19.8747 15.1045L24 10.75" stroke="white" stroke-width="1.25" stroke-linecap="round"/>
<defs>
<clipPath id="clip0_6174_59441">
<rect width="26" height="26" fill="white" transform="translate(3.99997 4)"/>
</clipPath>
</defs>
</svg>
