<svg width="34" height="34" viewBox="0 0 34 34" fill="none" xmlns="http://www.w3.org/2000/svg">
<g clip-path="url(#clip0_4131_77799)">
<rect x="21.9584" y="24.565" width="4.95833" height="5.89333" rx="1.41667" fill="#212121"/>
<rect x="3.54169" y="24.565" width="4.95833" height="5.89333" rx="1.41667" fill="#212121"/>
<path d="M3.54169 20.7967C3.54169 19.6231 4.49308 18.6717 5.66669 18.6717H24.7917C25.9653 18.6717 26.9167 19.6231 26.9167 20.7967V25.5403C26.9167 26.2222 26.3639 26.775 25.682 26.775H4.7764C4.09448 26.775 3.54169 26.2222 3.54169 25.5403V20.7967Z" fill="#1E88E5"/>
<path d="M20.8045 19.4083H9.65379C9.12538 19.4083 8.78301 19.966 9.02214 20.4372L9.79858 21.9672C9.91931 22.2051 10.1635 22.355 10.4302 22.355H20.0281C20.2949 22.355 20.539 22.2051 20.6598 21.9672L21.4362 20.4372C21.6753 19.966 21.333 19.4083 20.8045 19.4083Z" fill="#1976D2"/>
<rect x="4.95837" y="16.4617" width="3.54167" height="2.21" rx="1.105" fill="#424242"/>
<rect x="21.9584" y="16.4617" width="3.54167" height="2.21" rx="1.105" fill="#424242"/>
<path d="M9.03208 12.8825C9.2012 12.3801 9.67216 12.0417 10.2023 12.0417H20.2561C20.7863 12.0417 21.2572 12.3801 21.4263 12.8825L23.375 18.6717H7.08337L9.03208 12.8825Z" fill="#1E88E5"/>
<path d="M10.0727 13.6444C10.2339 13.1291 10.7112 12.7783 11.2511 12.7783H19.2073C19.7472 12.7783 20.2245 13.1291 20.3857 13.6444L21.6706 17.7519C21.8133 18.208 21.4725 18.6717 20.9946 18.6717H9.46377C8.98581 18.6717 8.64504 18.208 8.78774 17.7519L10.0727 13.6444Z" fill="#E3F2FD"/>
<path d="M9.95331 13.6686C10.1065 13.1412 10.5897 12.7783 11.139 12.7783H15.0693C15.6186 12.7783 16.1018 13.1412 16.255 13.6686L17.4452 17.7657C17.5768 18.2189 17.2369 18.6717 16.765 18.6717H9.44337C8.97147 18.6717 8.63152 18.2189 8.76316 17.7657L9.95331 13.6686Z" fill="#BBDEFB"/>
<path d="M10.3383 25.0517L10.9922 23.5217C11.1036 23.2609 11.3599 23.0917 11.6435 23.0917H19.5232C19.8068 23.0917 20.0631 23.2609 20.1745 23.5217L20.8284 25.0517C21.0281 25.519 20.6852 26.0383 20.177 26.0383H10.9897C10.4815 26.0383 10.1386 25.519 10.3383 25.0517Z" fill="#1976D2"/>
<path d="M12.2797 25.1472L12.6884 23.6172C12.7711 23.3073 13.0519 23.0917 13.3727 23.0917H17.794C18.1148 23.0917 18.3956 23.3073 18.4784 23.6172L18.887 25.1472C19.0071 25.597 18.6682 26.0383 18.2027 26.0383H12.964C12.4985 26.0383 12.1596 25.597 12.2797 25.1472Z" fill="#1565C0"/>
<path d="M5.3477 21.1168C5.16127 20.6514 5.50394 20.145 6.00523 20.145H7.13534C7.42484 20.145 7.6852 20.3212 7.79287 20.5899L8.11071 21.3832C8.29714 21.8486 7.95447 22.355 7.45319 22.355H6.32307C6.03357 22.355 5.77321 22.1788 5.66554 21.9101L5.3477 21.1168Z" fill="white"/>
<path d="M22.6655 20.5899C22.7732 20.3212 23.0336 20.145 23.3231 20.145H24.4532C24.9545 20.145 25.2971 20.6514 25.1107 21.1168L24.7929 21.9101C24.6852 22.1788 24.4248 22.355 24.1353 22.355H23.0052C22.5039 22.355 22.1613 21.8486 22.3477 21.3832L22.6655 20.5899Z" fill="white"/>
<circle cx="21" cy="13" r="9" fill="#FFA600"/>
<path d="M21 9.625C21.6675 9.625 22.32 9.82294 22.875 10.1938C23.4301 10.5646 23.8626 11.0917 24.1181 11.7084C24.3735 12.3251 24.4404 13.0037 24.3102 13.6584C24.1799 14.3131 23.8585 14.9145 23.3865 15.3865C22.9145 15.8585 22.3131 16.1799 21.6584 16.3101C21.0037 16.4404 20.3251 16.3735 19.7084 16.1181C19.0917 15.8626 18.5646 15.4301 18.1938 14.875C17.8229 14.32 17.625 13.6675 17.625 13C17.625 12.8508 17.5657 12.7077 17.4602 12.6022C17.3548 12.4968 17.2117 12.4375 17.0625 12.4375C16.9133 12.4375 16.7702 12.4968 16.6648 12.6022C16.5593 12.7077 16.5 12.8508 16.5 13C16.5001 14.0097 16.8398 14.99 17.4644 15.7834C18.089 16.5767 18.9623 17.1369 19.9438 17.3738C20.9253 17.6108 21.958 17.5108 22.8758 17.0899C23.7936 16.6691 24.5432 15.9517 25.004 15.0533C25.4648 14.1549 25.6101 13.1276 25.4165 12.1366C25.2229 11.1457 24.7016 10.2486 23.9365 9.58971C23.1714 8.93082 22.2069 8.54839 21.1982 8.50391C20.1895 8.45944 19.1951 8.7555 18.375 9.3445V9.0625C18.375 8.91331 18.3157 8.77024 18.2102 8.66475C18.1048 8.55926 17.9617 8.5 17.8125 8.5C17.6633 8.5 17.5202 8.55926 17.4148 8.66475C17.3093 8.77024 17.25 8.91331 17.25 9.0625V10.9375C17.25 11.248 17.502 11.5 17.8125 11.5H18.9375C19.0867 11.5 19.2298 11.4407 19.3352 11.3352C19.4407 11.2298 19.5 11.0867 19.5 10.9375C19.5 10.7883 19.4407 10.6452 19.3352 10.5397C19.2298 10.4343 19.0867 10.375 18.9375 10.375H18.8783C19.4783 9.88854 20.2276 9.62368 21 9.625ZM21.375 11.3125C21.375 11.1633 21.3157 11.0202 21.2102 10.9147C21.1048 10.8093 20.9617 10.75 20.8125 10.75C20.6633 10.75 20.5202 10.8093 20.4148 10.9147C20.3093 11.0202 20.25 11.1633 20.25 11.3125V13.1875C20.25 13.498 20.502 13.75 20.8125 13.75H21.9375C22.0867 13.75 22.2298 13.6907 22.3352 13.5852C22.4407 13.4798 22.5 13.3367 22.5 13.1875C22.5 13.0383 22.4407 12.8952 22.3352 12.7897C22.2298 12.6843 22.0867 12.625 21.9375 12.625H21.375V11.3125Z" fill="white"/>
</g>
<defs>
<clipPath id="clip0_4131_77799">
<rect width="26.9167" height="26.9167" fill="white" transform="translate(3.54169 3.54167)"/>
</clipPath>
</defs>
</svg>
