<svg width="40" height="41" viewBox="0 0 40 41" fill="none" xmlns="http://www.w3.org/2000/svg">
<rect y="0.119278" width="40" height="40" rx="20" fill="#292C2A"/>
<rect y="0.119278" width="40" height="40" rx="20" fill="white" fill-opacity="0.04"/>
<rect x="8.04968" y="11.3206" width="21.1779" height="21.8422" rx="3.67174" fill="#BA5E44"/>
<path d="M8.04968 14.9923C8.04968 12.9645 9.69358 11.3206 11.7214 11.3206H13.2278V33.1628H11.7214C9.69358 33.1628 8.04968 31.5189 8.04968 29.491V14.9923Z" fill="#824042" fill-opacity="0.22"/>
<path d="M23.4951 24.9097C23.4951 23.3831 24.7326 22.1456 26.2592 22.1456H31.9504V24.002C31.9504 26.0298 30.3065 27.6737 28.2786 27.6737H26.2592C24.7326 27.6737 23.4951 26.4362 23.4951 24.9097Z" fill="#F8B46E"/>
<circle cx="26.3249" cy="24.9096" r="1.44264" fill="#994D47"/>
<rect x="8.04968" y="11.3206" width="21.1779" height="7.39775" rx="3.67174" fill="#824042"/>
<rect x="8.99939" y="12.1646" width="19.2784" height="5.54106" rx="2.77053" fill="#492930"/>
<path d="M29.0187 18.3627V18.3627C29.0187 19.5619 28.0466 20.534 26.8474 20.534H10.4619C9.26275 20.534 8.29065 19.5619 8.29065 18.3627V18.3627" stroke="#D37F52" stroke-width="0.229484" stroke-linecap="round" stroke-linejoin="round" stroke-dasharray="1.84 1.38"/>
<path d="M29.0187 28.3164V28.3164C29.0187 29.5155 28.0466 30.4876 26.8474 30.4876H10.4619C9.26275 30.4876 8.29065 29.5155 8.29065 28.3164V28.3164" stroke="#D37F52" stroke-width="0.229484" stroke-linecap="round" stroke-linejoin="round" stroke-dasharray="1.84 1.38"/>
<path d="M29.2276 19.8058H30.5735C31.3339 19.8058 31.9504 20.4223 31.9504 21.1827V22.1456H29.2276V19.8058Z" fill="#F8B46E"/>
<path d="M29.2276 20.534H30.0578C30.5028 20.534 30.8636 20.8947 30.8636 21.3398C30.8636 21.7848 30.5028 22.1456 30.0578 22.1456H29.2276V20.534Z" fill="#994D47"/>
<path d="M16.4009 8.45271C16.4009 7.69227 17.0174 7.07581 17.7778 7.07581H25.7785C26.5389 7.07581 27.1554 7.69227 27.1554 8.45271V16.3287C27.1554 17.0892 26.5389 17.7056 25.7785 17.7056H16.4009V8.45271Z" fill="#5C9937"/>
<path d="M17.574 8.89836C17.574 8.64488 17.7795 8.43939 18.0329 8.43939H25.5234C25.7769 8.43939 25.9823 8.64488 25.9823 8.89836V17.7056H17.574V8.89836Z" fill="#92BE30"/>
<path d="M23.1717 17.7056C23.1717 17.5226 23.1357 17.3414 23.0656 17.1724C22.9956 17.0033 22.893 16.8497 22.7636 16.7203C22.6342 16.5909 22.4805 16.4882 22.3115 16.4182C22.1424 16.3482 21.9612 16.3121 21.7782 16.3121C21.5952 16.3121 21.414 16.3482 21.2449 16.4182C21.0759 16.4882 20.9223 16.5909 20.7929 16.7203C20.6635 16.8497 20.5608 17.0033 20.4908 17.1724C20.4207 17.3414 20.3847 17.5226 20.3847 17.7056H21.7782H23.1717Z" fill="#5C9937"/>
<circle cx="25.5228" cy="9.45721" r="1.3935" fill="#5C9937"/>
<circle cx="17.8772" cy="9.2744" r="1.3935" fill="#5C9937"/>
<path d="M11.5197 12.6975C11.5197 11.937 12.1362 11.3206 12.8966 11.3206H21.1439C21.9044 11.3206 22.5208 11.937 22.5208 12.6975V17.7056H11.5197V12.6975Z" fill="black" fill-opacity="0.2"/>
<path d="M10.6938 10.7501C10.6938 9.98966 11.3103 9.3732 12.0708 9.3732H20.0714C20.8318 9.3732 21.4483 9.98966 21.4483 10.7501V17.7056H11.1528C10.8993 17.7056 10.6938 17.5001 10.6938 17.2467V10.7501Z" fill="#F88029"/>
<path d="M11.8669 11.1958C11.8669 10.9423 12.0724 10.7368 12.3259 10.7368H19.8163C20.0698 10.7368 20.2752 10.9423 20.2752 11.1958V17.7057H11.8669V11.1958Z" fill="#FFB63B"/>
<circle cx="19.8157" cy="11.7546" r="1.3935" fill="#F88029"/>
<circle cx="12.1701" cy="11.5718" r="1.3935" fill="#F88029"/>
<g clip-path="url(#clip0_17932_383268)">
<rect x="22" y="23.1193" width="12" height="12" rx="6" fill="#E53935"/>
<path fill-rule="evenodd" clip-rule="evenodd" d="M25.422 26.336C25.6254 26.1326 25.9882 26.1655 26.2323 26.4096L30.6517 30.829C30.8958 31.0731 30.9287 31.4359 30.7253 31.6393C30.5219 31.8427 30.1592 31.8097 29.9151 31.5656L25.4957 27.1462C25.2516 26.9021 25.2187 26.5394 25.422 26.336Z" fill="white"/>
<path fill-rule="evenodd" clip-rule="evenodd" d="M30.7253 26.336C30.9287 26.5394 30.8957 26.9021 30.6516 27.1462L26.2322 31.5656C25.9881 31.8097 25.6254 31.8427 25.422 31.6393C25.2186 31.4359 25.2516 31.0731 25.4956 30.829L29.9151 26.4096C30.1591 26.1655 30.5219 26.1326 30.7253 26.336Z" fill="white"/>
</g>
<defs>
<clipPath id="clip0_17932_383268">
<rect x="22" y="23.1193" width="12" height="12" rx="6" fill="white"/>
</clipPath>
</defs>
</svg>
