<svg width="40" height="41" viewBox="0 0 40 41" fill="none" xmlns="http://www.w3.org/2000/svg">
<rect y="0.119278" width="40" height="40" rx="20" fill="#292C2A"/>
<rect y="0.119278" width="40" height="40" rx="20" fill="white" fill-opacity="0.04"/>
<rect x="8.04968" y="11.3206" width="21.1779" height="21.8422" rx="3.67174" fill="#BA5E44"/>
<path d="M8.04968 14.9923C8.04968 12.9645 9.69358 11.3206 11.7214 11.3206H13.2278V33.1628H11.7214C9.69358 33.1628 8.04968 31.5189 8.04968 29.491V14.9923Z" fill="#824042" fill-opacity="0.22"/>
<path d="M23.4951 24.9097C23.4951 23.3831 24.7327 22.1456 26.2592 22.1456H31.9504V24.002C31.9504 26.0298 30.3065 27.6737 28.2786 27.6737H26.2592C24.7327 27.6737 23.4951 26.4362 23.4951 24.9097Z" fill="#F8B46E"/>
<circle cx="26.3249" cy="24.9096" r="1.44264" fill="#994D47"/>
<rect x="8.04968" y="11.3206" width="21.1779" height="7.39775" rx="3.67174" fill="#824042"/>
<rect x="8.99942" y="12.1646" width="19.2784" height="5.54106" rx="2.77053" fill="#492930"/>
<path d="M29.0187 18.3627V18.3627C29.0187 19.5619 28.0466 20.534 26.8474 20.534H10.4619C9.26275 20.534 8.29065 19.5619 8.29065 18.3627V18.3627" stroke="#D37F52" stroke-width="0.229484" stroke-linecap="round" stroke-linejoin="round" stroke-dasharray="1.84 1.38"/>
<path d="M29.0187 28.3164V28.3164C29.0187 29.5155 28.0466 30.4876 26.8474 30.4876H10.4619C9.26275 30.4876 8.29065 29.5155 8.29065 28.3164V28.3164" stroke="#D37F52" stroke-width="0.229484" stroke-linecap="round" stroke-linejoin="round" stroke-dasharray="1.84 1.38"/>
<path d="M29.2276 19.8058H30.5735C31.3339 19.8058 31.9504 20.4223 31.9504 21.1827V22.1456H29.2276V19.8058Z" fill="#F8B46E"/>
<path d="M29.2276 20.534H30.0578C30.5028 20.534 30.8636 20.8947 30.8636 21.3398C30.8636 21.7848 30.5028 22.1456 30.0578 22.1456H29.2276V20.534Z" fill="#994D47"/>
<path d="M16.4009 8.45271C16.4009 7.69227 17.0174 7.07581 17.7778 7.07581H25.7785C26.5389 7.07581 27.1554 7.69227 27.1554 8.45271V16.3287C27.1554 17.0892 26.5389 17.7056 25.7785 17.7056H16.4009V8.45271Z" fill="#5C9937"/>
<path d="M17.574 8.89836C17.574 8.64488 17.7795 8.43939 18.033 8.43939H25.5234C25.7769 8.43939 25.9824 8.64488 25.9824 8.89836V17.7056H17.574V8.89836Z" fill="#92BE30"/>
<path d="M23.1717 17.7056C23.1717 17.5226 23.1356 17.3414 23.0656 17.1724C22.9956 17.0033 22.8929 16.8497 22.7635 16.7203C22.6341 16.5909 22.4805 16.4882 22.3114 16.4182C22.1424 16.3482 21.9612 16.3121 21.7782 16.3121C21.5952 16.3121 21.414 16.3482 21.2449 16.4182C21.0758 16.4882 20.9222 16.5909 20.7928 16.7203C20.6634 16.8497 20.5608 17.0033 20.4907 17.1724C20.4207 17.3414 20.3847 17.5226 20.3847 17.7056H21.7782H23.1717Z" fill="#5C9937"/>
<circle cx="25.5228" cy="9.45721" r="1.3935" fill="#5C9937"/>
<circle cx="17.8772" cy="9.2744" r="1.3935" fill="#5C9937"/>
<path d="M11.5197 12.6975C11.5197 11.937 12.1361 11.3206 12.8966 11.3206H21.1439C21.9043 11.3206 22.5208 11.937 22.5208 12.6975V17.7056H11.5197V12.6975Z" fill="black" fill-opacity="0.2"/>
<path d="M10.6938 10.7501C10.6938 9.98966 11.3103 9.3732 12.0707 9.3732H20.0713C20.8318 9.3732 21.4482 9.98966 21.4482 10.7501V17.7056H11.1528C10.8993 17.7056 10.6938 17.5001 10.6938 17.2467V10.7501Z" fill="#F88029"/>
<path d="M11.8669 11.1958C11.8669 10.9423 12.0724 10.7368 12.3259 10.7368H19.8163C20.0698 10.7368 20.2752 10.9423 20.2752 11.1958V17.7057H11.8669V11.1958Z" fill="#FFB63B"/>
<circle cx="19.8157" cy="11.7546" r="1.3935" fill="#F88029"/>
<circle cx="12.1701" cy="11.5718" r="1.3935" fill="#F88029"/>
<rect x="28.5147" y="28.8684" width="3.61692" height="4.29897" rx="0.994278" fill="#424242"/>
<rect x="15.0804" y="28.8684" width="3.61692" height="4.29897" rx="0.994278" fill="#424242"/>
<path d="M15.0804 26.0608C15.0804 25.2371 15.7481 24.5694 16.5718 24.5694H30.6402C31.4639 24.5694 32.1316 25.2371 32.1316 26.0608V29.6139C32.1316 30.0925 31.7436 30.4805 31.265 30.4805H15.947C15.4684 30.4805 15.0804 30.0925 15.0804 29.6139V26.0608Z" fill="#1E88E5"/>
<path d="M27.7049 25.1068H19.5071C19.1362 25.1068 18.8959 25.4982 19.0638 25.8289L19.65 26.9841C19.7347 27.151 19.9061 27.2562 20.0933 27.2562H27.1186C27.3059 27.2562 27.4772 27.151 27.562 26.9841L28.1482 25.8289C28.316 25.4982 28.0757 25.1068 27.7049 25.1068Z" fill="#1976D2"/>
<rect x="16.1138" y="22.9574" width="2.58352" height="1.61211" rx="0.806057" fill="#424242"/>
<rect x="28.5147" y="22.9574" width="2.58352" height="1.61211" rx="0.806057" fill="#424242"/>
<path d="M19.0932 20.3231C19.2119 19.9705 19.5424 19.733 19.9145 19.733H27.2974C27.6695 19.733 28 19.9705 28.1187 20.3231L29.5481 24.5693H17.6639L19.0932 20.3231Z" fill="#1E88E5"/>
<path d="M19.852 20.8782C19.9651 20.5166 20.3001 20.2704 20.679 20.2704H26.5329C26.9118 20.2704 27.2468 20.5166 27.36 20.8782L28.3127 23.9238C28.4129 24.244 28.1737 24.5694 27.8382 24.5694H19.3737C19.0383 24.5694 18.7991 24.244 18.8992 23.9238L19.852 20.8782Z" fill="#E3F2FD"/>
<path d="M19.7646 20.8952C19.8721 20.525 20.2113 20.2704 20.5967 20.2704H23.515C23.9005 20.2704 24.2396 20.525 24.3472 20.8952L25.2297 23.9336C25.3221 24.2516 25.0835 24.5694 24.7523 24.5694H19.3594C19.0282 24.5694 18.7896 24.2516 18.882 23.9336L19.7646 20.8952Z" fill="#BBDEFB"/>
<path d="M20.0267 29.2506L20.5203 28.0954C20.5986 27.9124 20.7784 27.7936 20.9775 27.7936H26.7512C26.9503 27.7936 27.1301 27.9124 27.2083 28.0954L27.702 29.2506C27.8422 29.5786 27.6016 29.9431 27.2449 29.9431H20.4838C20.1271 29.9431 19.8865 29.5786 20.0267 29.2506Z" fill="#1976D2"/>
<path d="M21.4479 29.3177L21.7564 28.1625C21.8145 27.945 22.0116 27.7936 22.2367 27.7936H25.492C25.7171 27.7936 25.9142 27.945 25.9723 28.1625L26.2808 29.3177C26.3651 29.6333 26.1272 29.9431 25.8005 29.9431H21.9282C21.6015 29.9431 21.3636 29.6333 21.4479 29.3177Z" fill="#1565C0"/>
<path d="M16.387 26.3261C16.2562 25.9995 16.4967 25.6441 16.8485 25.6441H17.7151C17.9182 25.6441 18.101 25.7677 18.1765 25.9563L18.4241 26.5742C18.5549 26.9007 18.3144 27.2562 17.9626 27.2562H17.0961C16.8929 27.2562 16.7101 27.1325 16.6346 26.9439L16.387 26.3261Z" fill="white"/>
<path d="M29.0355 25.9563C29.111 25.7677 29.2938 25.6441 29.4969 25.6441H30.3635C30.7153 25.6441 30.9558 25.9995 30.8249 26.3261L30.5774 26.9439C30.5019 27.1325 30.3191 27.2562 30.1159 27.2562H29.2494C28.8976 27.2562 28.6571 26.9007 28.7879 26.5742L29.0355 25.9563Z" fill="white"/>
</svg>
