<svg width="40" height="41" viewBox="0 0 40 41" fill="none" xmlns="http://www.w3.org/2000/svg">
<rect y="0.119278" width="40" height="40" rx="20" fill="#292C2A"/>
<rect y="0.119278" width="40" height="40" rx="20" fill="white" fill-opacity="0.04"/>
<rect x="8.04965" y="11.3206" width="21.1779" height="21.8422" rx="3.67174" fill="#BA5E44"/>
<path d="M8.04965 14.9923C8.04965 12.9645 9.69355 11.3206 11.7214 11.3206H13.2278V33.1628H11.7214C9.69355 33.1628 8.04965 31.5189 8.04965 29.491V14.9923Z" fill="#824042" fill-opacity="0.22"/>
<path d="M23.4951 24.9097C23.4951 23.3831 24.7326 22.1456 26.2592 22.1456H31.9504V24.002C31.9504 26.0298 30.3065 27.6737 28.2786 27.6737H26.2592C24.7326 27.6737 23.4951 26.4362 23.4951 24.9097Z" fill="#F8B46E"/>
<circle cx="26.3249" cy="24.9096" r="1.44264" fill="#994D47"/>
<rect x="8.04965" y="11.3206" width="21.1779" height="7.39775" rx="3.67174" fill="#824042"/>
<rect x="8.99939" y="12.1646" width="19.2784" height="5.54106" rx="2.77053" fill="#492930"/>
<path d="M29.0186 18.3627V18.3627C29.0186 19.5619 28.0465 20.534 26.8474 20.534H10.4619C9.26272 20.534 8.29062 19.5619 8.29062 18.3627V18.3627" stroke="#D37F52" stroke-width="0.229484" stroke-linecap="round" stroke-linejoin="round" stroke-dasharray="1.84 1.38"/>
<path d="M29.0186 28.3164V28.3164C29.0186 29.5155 28.0465 30.4876 26.8474 30.4876H10.4619C9.26272 30.4876 8.29062 29.5155 8.29062 28.3164V28.3164" stroke="#D37F52" stroke-width="0.229484" stroke-linecap="round" stroke-linejoin="round" stroke-dasharray="1.84 1.38"/>
<path d="M29.2275 19.8058H30.5734C31.3339 19.8058 31.9503 20.4223 31.9503 21.1827V22.1456H29.2275V19.8058Z" fill="#F8B46E"/>
<path d="M29.2275 20.534H30.0578C30.5028 20.534 30.8636 20.8947 30.8636 21.3398C30.8636 21.7848 30.5028 22.1456 30.0578 22.1456H29.2275V20.534Z" fill="#994D47"/>
<path d="M16.4009 8.45271C16.4009 7.69227 17.0174 7.07581 17.7778 7.07581H25.7784C26.5389 7.07581 27.1553 7.69227 27.1553 8.45271V16.3287C27.1553 17.0892 26.5389 17.7056 25.7784 17.7056H16.4009V8.45271Z" fill="#5C9937"/>
<path d="M17.574 8.89836C17.574 8.64488 17.7795 8.43939 18.0329 8.43939H25.5234C25.7769 8.43939 25.9823 8.64488 25.9823 8.89836V17.7056H17.574V8.89836Z" fill="#92BE30"/>
<path d="M23.1717 17.7056C23.1717 17.5226 23.1356 17.3414 23.0656 17.1724C22.9955 17.0033 22.8929 16.8497 22.7635 16.7203C22.6341 16.5909 22.4805 16.4882 22.3114 16.4182C22.1424 16.3482 21.9611 16.3121 21.7781 16.3121C21.5951 16.3121 21.4139 16.3482 21.2449 16.4182C21.0758 16.4882 20.9222 16.5909 20.7928 16.7203C20.6634 16.8497 20.5607 17.0033 20.4907 17.1724C20.4207 17.3414 20.3846 17.5226 20.3846 17.7056H21.7781H23.1717Z" fill="#5C9937"/>
<circle cx="25.5228" cy="9.45721" r="1.3935" fill="#5C9937"/>
<circle cx="17.8772" cy="9.2744" r="1.3935" fill="#5C9937"/>
<path d="M11.5197 12.6975C11.5197 11.937 12.1361 11.3206 12.8966 11.3206H21.1439C21.9043 11.3206 22.5208 11.937 22.5208 12.6975V17.7056H11.5197V12.6975Z" fill="black" fill-opacity="0.2"/>
<path d="M10.6938 10.7501C10.6938 9.98966 11.3102 9.3732 12.0707 9.3732H20.0713C20.8318 9.3732 21.4482 9.98966 21.4482 10.7501V17.7056H11.1528C10.8993 17.7056 10.6938 17.5001 10.6938 17.2467V10.7501Z" fill="#F88029"/>
<path d="M11.8669 11.1958C11.8669 10.9423 12.0723 10.7368 12.3258 10.7368H19.8162C20.0697 10.7368 20.2752 10.9423 20.2752 11.1958V17.7057H11.8669V11.1958Z" fill="#FFB63B"/>
<circle cx="19.8157" cy="11.7546" r="1.3935" fill="#F88029"/>
<circle cx="12.1701" cy="11.5718" r="1.3935" fill="#F88029"/>
</svg>
