<svg width="40" height="41" viewBox="0 0 40 41" fill="none" xmlns="http://www.w3.org/2000/svg">
<rect y="0.119278" width="40" height="40" rx="20" fill="#292C2A"/>
<rect x="8.04965" y="11.3206" width="21.1779" height="21.8422" rx="3.67174" fill="#BA5E44"/>
<path d="M8.04965 14.9923C8.04965 12.9645 9.69355 11.3206 11.7214 11.3206H13.2278V33.1628H11.7214C9.69355 33.1628 8.04965 31.5189 8.04965 29.491V14.9923Z" fill="#824042" fill-opacity="0.22"/>
<path d="M23.4951 24.9097C23.4951 23.3831 24.7326 22.1456 26.2592 22.1456H31.9504V24.002C31.9504 26.0298 30.3065 27.6737 28.2786 27.6737H26.2592C24.7326 27.6737 23.4951 26.4362 23.4951 24.9097Z" fill="#F8B46E"/>
<circle cx="26.3249" cy="24.9096" r="1.44264" fill="#994D47"/>
<rect x="8.04965" y="11.3206" width="21.1779" height="7.39775" rx="3.67174" fill="#824042"/>
<rect x="8.99939" y="12.1646" width="19.2784" height="5.54106" rx="2.77053" fill="#492930"/>
<path d="M29.0186 18.3627V18.3627C29.0186 19.5619 28.0465 20.534 26.8474 20.534H10.4619C9.26272 20.534 8.29062 19.5619 8.29062 18.3627V18.3627" stroke="#D37F52" stroke-width="0.229484" stroke-linecap="round" stroke-linejoin="round" stroke-dasharray="1.84 1.38"/>
<path d="M29.0186 28.3164V28.3164C29.0186 29.5155 28.0465 30.4876 26.8474 30.4876H10.4619C9.26272 30.4876 8.29062 29.5155 8.29062 28.3164V28.3164" stroke="#D37F52" stroke-width="0.229484" stroke-linecap="round" stroke-linejoin="round" stroke-dasharray="1.84 1.38"/>
<path d="M29.2275 19.8058H30.5734C31.3339 19.8058 31.9503 20.4223 31.9503 21.1827V22.1456H29.2275V19.8058Z" fill="#F8B46E"/>
<path d="M29.2275 20.534H30.0578C30.5028 20.534 30.8636 20.8947 30.8636 21.3398C30.8636 21.7848 30.5028 22.1456 30.0578 22.1456H29.2275V20.534Z" fill="#994D47"/>
<path d="M16.4009 8.45271C16.4009 7.69227 17.0174 7.07581 17.7778 7.07581H25.7784C26.5389 7.07581 27.1553 7.69227 27.1553 8.45271V16.3287C27.1553 17.0892 26.5389 17.7056 25.7784 17.7056H16.4009V8.45271Z" fill="#5C9937"/>
<path d="M17.574 8.89836C17.574 8.64488 17.7795 8.43939 18.0329 8.43939H25.5234C25.7769 8.43939 25.9823 8.64488 25.9823 8.89836V17.7056H17.574V8.89836Z" fill="#92BE30"/>
<path d="M23.1717 17.7056C23.1717 17.5226 23.1356 17.3414 23.0656 17.1724C22.9955 17.0033 22.8929 16.8497 22.7635 16.7203C22.6341 16.5909 22.4805 16.4882 22.3114 16.4182C22.1424 16.3482 21.9611 16.3121 21.7781 16.3121C21.5951 16.3121 21.4139 16.3482 21.2449 16.4182C21.0758 16.4882 20.9222 16.5909 20.7928 16.7203C20.6634 16.8497 20.5607 17.0033 20.4907 17.1724C20.4207 17.3414 20.3846 17.5226 20.3846 17.7056H21.7781H23.1717Z" fill="#5C9937"/>
<circle cx="25.5228" cy="9.45721" r="1.3935" fill="#5C9937"/>
<circle cx="17.8772" cy="9.2744" r="1.3935" fill="#5C9937"/>
<path d="M11.5197 12.6975C11.5197 11.937 12.1361 11.3206 12.8966 11.3206H21.1439C21.9043 11.3206 22.5208 11.937 22.5208 12.6975V17.7056H11.5197V12.6975Z" fill="black" fill-opacity="0.2"/>
<path d="M10.6938 10.7501C10.6938 9.98966 11.3102 9.3732 12.0707 9.3732H20.0713C20.8318 9.3732 21.4482 9.98966 21.4482 10.7501V17.7056H11.1528C10.8993 17.7056 10.6938 17.5001 10.6938 17.2467V10.7501Z" fill="#F88029"/>
<path d="M11.8669 11.1958C11.8669 10.9423 12.0723 10.7368 12.3258 10.7368H19.8162C20.0697 10.7368 20.2752 10.9423 20.2752 11.1958V17.7057H11.8669V11.1958Z" fill="#FFB63B"/>
<circle cx="19.8157" cy="11.7546" r="1.3935" fill="#F88029"/>
<circle cx="12.1701" cy="11.5718" r="1.3935" fill="#F88029"/>
<g clip-path="url(#clip0_17932_383171)">
<circle cx="25.2219" cy="26.4617" r="6.70113" fill="#2196F3"/>
<g clip-path="url(#clip1_17932_383171)">
<path d="M24.0236 25.219H22.4259C22.3317 25.219 22.2414 25.1816 22.1748 25.115C22.1082 25.0484 22.0708 24.9581 22.0708 24.8639V23.2662C22.0708 23.172 22.1082 23.0817 22.1748 23.0151C22.2414 22.9485 22.3317 22.9111 22.4259 22.9111C22.52 22.9111 22.6103 22.9485 22.6769 23.0151C22.7435 23.0817 22.7809 23.172 22.7809 23.2662V24.5088H24.0236C24.1178 24.5088 24.2081 24.5463 24.2747 24.6128C24.3413 24.6794 24.3787 24.7697 24.3787 24.8639C24.3787 24.9581 24.3413 25.0484 24.2747 25.115C24.2081 25.1816 24.1178 25.219 24.0236 25.219Z" fill="white"/>
<path d="M28.4174 26.8167C28.3232 26.8167 28.2329 26.7793 28.1663 26.7127C28.0998 26.6461 28.0624 26.5558 28.0624 26.4617C28.0626 25.8366 27.8566 25.2289 27.4762 24.7329C27.0958 24.2369 26.5623 23.8804 25.9586 23.7185C25.3548 23.5567 24.7146 23.5987 24.1371 23.838C23.5596 24.0772 23.0773 24.5004 22.7649 25.0418C22.7177 25.1233 22.6401 25.1827 22.5491 25.207C22.4581 25.2313 22.3612 25.2184 22.2797 25.1712C22.1982 25.124 22.1388 25.0464 22.1145 24.9554C22.0903 24.8644 22.1031 24.7675 22.1503 24.686C22.541 24.0094 23.144 23.4806 23.8659 23.1816C24.5878 22.8827 25.3881 22.8303 26.1428 23.0327C26.8974 23.235 27.5642 23.6808 28.0397 24.3008C28.5152 24.9208 28.7728 25.6803 28.7725 26.4617C28.7725 26.5558 28.7351 26.6461 28.6685 26.7127C28.6019 26.7793 28.5116 26.8167 28.4174 26.8167ZM28.018 30.0122C27.9238 30.0122 27.8335 29.9748 27.7669 29.9082C27.7003 29.8416 27.6629 29.7513 27.6629 29.6572V28.4145H26.4202C26.3261 28.4145 26.2357 28.3771 26.1692 28.3105C26.1026 28.2439 26.0652 28.1536 26.0652 28.0594C26.0652 27.9652 26.1026 27.8749 26.1692 27.8084C26.2357 27.7418 26.3261 27.7044 26.4202 27.7044H28.018C28.1121 27.7044 28.2024 27.7418 28.269 27.8084C28.3356 27.8749 28.373 27.9652 28.373 28.0594V29.6572C28.373 29.7513 28.3356 29.8416 28.269 29.9082C28.2024 29.9748 28.1121 30.0122 28.018 30.0122Z" fill="white"/>
<path d="M25.2219 30.0122C24.2806 30.0111 23.3782 29.6367 22.7125 28.971C22.0469 28.3054 21.6725 27.403 21.6714 26.4617C21.6714 26.3675 21.7088 26.2772 21.7753 26.2106C21.8419 26.144 21.9322 26.1066 22.0264 26.1066C22.1206 26.1066 22.2109 26.144 22.2775 26.2106C22.3441 26.2772 22.3815 26.3675 22.3815 26.4617C22.3812 27.0867 22.5872 27.6944 22.9676 28.1904C23.348 28.6864 23.8815 29.043 24.4852 29.2048C25.089 29.3666 25.7293 29.3246 26.3067 29.0854C26.8842 28.8461 27.3665 28.4229 27.6789 27.8815C27.7023 27.8412 27.7333 27.8058 27.7704 27.7775C27.8074 27.7491 27.8496 27.7284 27.8947 27.7163C27.9398 27.7043 27.9867 27.7013 28.033 27.7074C28.0792 27.7136 28.1237 27.7288 28.1641 27.7521C28.2044 27.7755 28.2398 27.8066 28.2682 27.8436C28.2965 27.8806 28.3173 27.9228 28.3293 27.9679C28.3413 28.013 28.3443 28.0599 28.3382 28.1062C28.3321 28.1524 28.3169 28.1969 28.2935 28.2373C27.9812 28.7757 27.5333 29.2229 26.9944 29.5344C26.4555 29.8458 25.8444 30.0105 25.2219 30.0122Z" fill="white"/>
</g>
</g>
<defs>
<clipPath id="clip0_17932_383171">
<rect width="13.4023" height="13.4023" fill="white" transform="translate(18.5208 19.7605)"/>
</clipPath>
<clipPath id="clip1_17932_383171">
<rect width="8.52135" height="8.52135" fill="white" transform="translate(20.9612 22.201)"/>
</clipPath>
</defs>
</svg>
