<svg width="40" height="40" viewBox="0 0 40 40" fill="none" xmlns="http://www.w3.org/2000/svg">
<rect width="40" height="40" rx="20" fill="#FAFAFA"/>
<rect x="8.04965" y="11.2013" width="21.1779" height="21.8422" rx="3.67174" fill="#BA5E44"/>
<path d="M8.04965 14.873C8.04965 12.8452 9.69355 11.2013 11.7214 11.2013H13.2278V33.0435H11.7214C9.69355 33.0435 8.04965 31.3996 8.04965 29.3717V14.873Z" fill="#824042" fill-opacity="0.22"/>
<path d="M23.4951 24.7904C23.4951 23.2638 24.7326 22.0263 26.2592 22.0263H31.9503V23.8827C31.9503 25.9105 30.3064 27.5544 28.2786 27.5544H26.2592C24.7326 27.5544 23.4951 26.3169 23.4951 24.7904Z" fill="#F8B46E"/>
<circle cx="26.3249" cy="24.7904" r="1.44264" fill="#994D47"/>
<rect x="8.04965" y="11.2013" width="21.1779" height="7.39775" rx="3.67174" fill="#824042"/>
<rect x="8.99939" y="12.0453" width="19.2784" height="5.54106" rx="2.77053" fill="#492930"/>
<path d="M29.0186 18.2434V18.2434C29.0186 19.4426 28.0465 20.4147 26.8474 20.4147H10.4618C9.2627 20.4147 8.2906 19.4426 8.2906 18.2434V18.2434" stroke="#D37F52" stroke-width="0.229484" stroke-linecap="round" stroke-linejoin="round" stroke-dasharray="1.84 1.38"/>
<path d="M29.0186 28.1971V28.1971C29.0186 29.3962 28.0465 30.3683 26.8474 30.3683H10.4618C9.2627 30.3683 8.2906 29.3962 8.2906 28.1971V28.1971" stroke="#D37F52" stroke-width="0.229484" stroke-linecap="round" stroke-linejoin="round" stroke-dasharray="1.84 1.38"/>
<path d="M29.2275 19.6865H30.5734C31.3339 19.6865 31.9503 20.303 31.9503 21.0634V22.0263H29.2275V19.6865Z" fill="#F8B46E"/>
<path d="M29.2275 20.4147H30.0578C30.5028 20.4147 30.8636 20.7755 30.8636 21.2205C30.8636 21.6655 30.5028 22.0263 30.0578 22.0263H29.2275V20.4147Z" fill="#994D47"/>
<path d="M16.4009 8.33343C16.4009 7.57299 17.0174 6.95653 17.7778 6.95653H25.7784C26.5389 6.95653 27.1553 7.57299 27.1553 8.33343V16.2095C27.1553 16.9699 26.5389 17.5864 25.7784 17.5864H16.4009V8.33343Z" fill="#5C9937"/>
<path d="M17.574 8.77908C17.574 8.5256 17.7795 8.32011 18.0329 8.32011H25.5234C25.7769 8.32011 25.9823 8.5256 25.9823 8.77908V17.5864H17.574V8.77908Z" fill="#92BE30"/>
<path d="M23.1717 17.5864C23.1717 17.4034 23.1356 17.2222 23.0656 17.0531C22.9955 16.884 22.8929 16.7304 22.7635 16.601C22.6341 16.4716 22.4805 16.369 22.3114 16.2989C22.1424 16.2289 21.9611 16.1929 21.7781 16.1929C21.5951 16.1929 21.4139 16.2289 21.2449 16.2989C21.0758 16.369 20.9222 16.4716 20.7928 16.601C20.6634 16.7304 20.5607 16.884 20.4907 17.0531C20.4207 17.2222 20.3846 17.4034 20.3846 17.5864H21.7781H23.1717Z" fill="#5C9937"/>
<circle cx="25.5228" cy="9.33793" r="1.3935" fill="#5C9937"/>
<circle cx="17.8772" cy="9.15512" r="1.3935" fill="#5C9937"/>
<path d="M11.5197 12.5782C11.5197 11.8177 12.1361 11.2013 12.8966 11.2013H21.1439C21.9043 11.2013 22.5208 11.8177 22.5208 12.5782V17.5863H11.5197V12.5782Z" fill="black" fill-opacity="0.2"/>
<path d="M10.6938 10.6308C10.6938 9.87038 11.3103 9.25392 12.0707 9.25392H20.0713C20.8318 9.25392 21.4482 9.87038 21.4482 10.6308V17.5864H11.1528C10.8993 17.5864 10.6938 17.3809 10.6938 17.1274V10.6308Z" fill="#F88029"/>
<path d="M11.8669 11.0765C11.8669 10.823 12.0723 10.6175 12.3258 10.6175H19.8162C20.0697 10.6175 20.2752 10.823 20.2752 11.0765V17.5864H11.8669V11.0765Z" fill="#FFB63B"/>
<circle cx="19.8157" cy="11.6353" r="1.3935" fill="#F88029"/>
<circle cx="12.1701" cy="11.4525" r="1.3935" fill="#F88029"/>
<g clip-path="url(#clip0_3719_151564)">
<circle cx="25.2219" cy="26.3424" r="6.70113" fill="#2196F3"/>
<g clip-path="url(#clip1_3719_151564)">
<path d="M24.0236 25.0997H22.4258C22.3317 25.0997 22.2414 25.0623 22.1748 24.9957C22.1082 24.9291 22.0708 24.8388 22.0708 24.7446V23.1469C22.0708 23.0527 22.1082 22.9624 22.1748 22.8958C22.2414 22.8292 22.3317 22.7918 22.4258 22.7918C22.52 22.7918 22.6103 22.8292 22.6769 22.8958C22.7435 22.9624 22.7809 23.0527 22.7809 23.1469V24.3896H24.0236C24.1178 24.3896 24.2081 24.427 24.2747 24.4936C24.3412 24.5601 24.3787 24.6505 24.3787 24.7446C24.3787 24.8388 24.3412 24.9291 24.2747 24.9957C24.2081 25.0623 24.1178 25.0997 24.0236 25.0997Z" fill="white"/>
<path d="M28.4174 26.6974C28.3232 26.6974 28.2329 26.66 28.1663 26.5934C28.0998 26.5269 28.0624 26.4366 28.0624 26.3424C28.0626 25.7173 27.8566 25.1096 27.4762 24.6137C27.0958 24.1177 26.5623 23.7611 25.9586 23.5993C25.3548 23.4374 24.7146 23.4794 24.1371 23.7187C23.5596 23.9579 23.0773 24.3811 22.7649 24.9225C22.7177 25.004 22.6401 25.0634 22.5491 25.0877C22.4581 25.112 22.3612 25.0991 22.2797 25.0519C22.1982 25.0048 22.1388 24.9271 22.1145 24.8361C22.0903 24.7452 22.1031 24.6482 22.1503 24.5667C22.541 23.8901 23.144 23.3613 23.8659 23.0623C24.5878 22.7634 25.3881 22.711 26.1428 22.9134C26.8974 23.1157 27.5642 23.5615 28.0397 24.1815C28.5152 24.8015 28.7728 25.5611 28.7725 26.3424C28.7725 26.4366 28.7351 26.5269 28.6685 26.5934C28.6019 26.66 28.5116 26.6974 28.4174 26.6974ZM28.018 29.8929C27.9238 29.8929 27.8335 29.8555 27.7669 29.789C27.7003 29.7224 27.6629 29.6321 27.6629 29.5379V28.2952H26.4202C26.3261 28.2952 26.2357 28.2578 26.1692 28.1912C26.1026 28.1246 26.0652 28.0343 26.0652 27.9401C26.0652 27.846 26.1026 27.7557 26.1692 27.6891C26.2357 27.6225 26.3261 27.5851 26.4202 27.5851H28.018C28.1121 27.5851 28.2024 27.6225 28.269 27.6891C28.3356 27.7557 28.373 27.846 28.373 27.9401V29.5379C28.373 29.6321 28.3356 29.7224 28.269 29.789C28.2024 29.8555 28.1121 29.8929 28.018 29.8929Z" fill="white"/>
<path d="M25.2219 29.8929C24.2806 29.8918 23.3781 29.5174 22.7125 28.8518C22.0469 28.1862 21.6725 27.2837 21.6713 26.3424C21.6713 26.2482 21.7087 26.1579 21.7753 26.0913C21.8419 26.0247 21.9322 25.9873 22.0264 25.9873C22.1206 25.9873 22.2109 26.0247 22.2775 26.0913C22.344 26.1579 22.3815 26.2482 22.3815 26.3424C22.3812 26.9674 22.5872 27.5751 22.9676 28.0711C23.348 28.5671 23.8815 28.9237 24.4852 29.0855C25.089 29.2473 25.7293 29.2054 26.3067 28.9661C26.8842 28.7268 27.3665 28.3037 27.6789 27.7623C27.7023 27.7219 27.7333 27.6865 27.7704 27.6582C27.8074 27.6299 27.8496 27.6091 27.8947 27.5971C27.9397 27.585 27.9867 27.582 28.0329 27.5882C28.0792 27.5943 28.1237 27.6095 28.1641 27.6328C28.2044 27.6562 28.2398 27.6873 28.2681 27.7243C28.2965 27.7613 28.3173 27.8036 28.3293 27.8486C28.3413 27.8937 28.3443 27.9407 28.3382 27.9869C28.332 28.0331 28.3169 28.0777 28.2935 28.118C27.9812 28.6565 27.5333 29.1037 26.9944 29.4151C26.4555 29.7265 25.8443 29.8913 25.2219 29.8929Z" fill="white"/>
</g>
</g>
<defs>
<clipPath id="clip0_3719_151564">
<rect width="13.4023" height="13.4023" fill="white" transform="translate(18.5208 19.6413)"/>
</clipPath>
<clipPath id="clip1_3719_151564">
<rect width="8.52135" height="8.52135" fill="white" transform="translate(20.9612 22.0817)"/>
</clipPath>
</defs>
</svg>
