<svg width="34" height="34" viewBox="0 0 34 34" fill="none" xmlns="http://www.w3.org/2000/svg">
<g clip-path="url(#clip0_7387_70893)">
<path fill-rule="evenodd" clip-rule="evenodd" d="M17 28.3334C23.2592 28.3334 28.3333 23.2592 28.3333 17C28.3333 10.7408 23.2592 5.66669 17 5.66669C10.7408 5.66669 5.66667 10.7408 5.66667 17C5.66667 19.5001 6.47622 21.8112 7.84748 23.6853L6.70376 27.9538L11.2118 26.7458C12.906 27.7542 14.8853 28.3334 17 28.3334Z" fill="#16A75C"/>
<circle cx="17" cy="17" r="8.5" fill="#069550"/>
<path d="M18.417 18.7909L19.149 18.0587C19.2475 17.9613 19.3723 17.8946 19.508 17.8667C19.6437 17.8389 19.7846 17.8511 19.9136 17.9018L20.8056 18.2581C20.9359 18.311 21.0477 18.4013 21.1267 18.5176C21.2058 18.634 21.2487 18.7712 21.25 18.9118V20.5463C21.2492 20.642 21.2291 20.7365 21.1909 20.8243C21.1526 20.912 21.097 20.9911 21.0274 21.0567C20.9578 21.1224 20.8756 21.1733 20.7859 21.2063C20.6961 21.2394 20.6005 21.2539 20.505 21.2491C14.2542 20.8601 12.9929 15.5645 12.7544 13.5378C12.7433 13.4383 12.7534 13.3375 12.784 13.2422C12.8147 13.1469 12.8651 13.0591 12.9321 12.9847C12.9991 12.9103 13.0811 12.8509 13.1727 12.8104C13.2642 12.77 13.3633 12.7494 13.4634 12.75H15.0416C15.1825 12.7504 15.32 12.793 15.4364 12.8722C15.5529 12.9514 15.643 13.0637 15.6952 13.1946L16.0513 14.087C16.1037 14.2155 16.117 14.3565 16.0897 14.4926C16.0624 14.6286 15.9956 14.7536 15.8977 14.8519L15.1658 15.5841C15.1658 15.5841 15.5873 18.4379 18.417 18.7909Z" fill="white"/>
</g>
<defs>
<clipPath id="clip0_7387_70893">
<rect width="24" height="24" fill="white" transform="translate(5 5)"/>
</clipPath>
</defs>
</svg>
