<svg width="416" height="497" viewBox="0 0 416 497" fill="none" xmlns="http://www.w3.org/2000/svg">
    <path
        d="M398.635 451.209L387.61 455.938L388.351 390.683C388.696 382.877 385.102 379.544 383.15 377.324C365.445 357.192 339.034 371.794 338.802 392.211L338.14 450.522L327.427 450.4L328.492 389.381C328.57 382.506 333.91 370.585 339.3 366.316C369.097 342.713 399.59 367.102 399.297 392.898L398.635 451.209Z"
        fill="#1F2121" />
    <path
        d="M398.635 451.209C398.635 451.209 398.627 450.808 398.63 450.043C398.634 449.27 398.641 448.139 398.649 446.658C398.672 443.682 398.707 439.311 398.751 433.685C398.8 428.061 398.861 421.184 398.931 413.201C398.969 409.212 399.01 404.947 399.052 400.425C399.01 395.912 399.46 391.094 398.536 386.159C397.681 381.228 395.602 376.27 392.4 371.85C391.992 371.303 391.601 370.738 391.175 370.197C390.717 369.682 390.256 369.165 389.793 368.645C388.913 367.56 387.8 366.685 386.784 365.697C386.267 365.211 385.667 364.818 385.109 364.371C384.528 363.954 383.998 363.458 383.368 363.101C382.134 362.351 380.936 361.512 379.588 360.915C376.997 359.511 374.109 358.646 371.172 357.9C370.423 357.777 369.67 357.654 368.915 357.53L367.78 357.344C367.398 357.305 367.013 357.293 366.628 357.266C365.858 357.219 365.086 357.171 364.31 357.124C363.534 357.111 362.755 357.174 361.973 357.196C355.711 357.414 349.377 359.555 343.892 363.219C341.148 365.067 338.695 367.376 336.488 369.935C334.33 372.546 332.567 375.506 331.159 378.661C329.804 381.848 328.971 385.267 328.538 388.765C328.239 392.272 328.319 395.878 328.25 399.491C328.087 413.961 327.919 428.944 327.747 444.289C327.724 446.338 327.7 448.38 327.677 450.406L327.429 450.152C331.073 450.194 334.663 450.234 338.142 450.274L337.889 450.521C338.023 438.923 338.154 427.577 338.281 416.551C338.345 411.038 338.409 405.606 338.471 400.262C338.502 397.59 338.533 394.94 338.564 392.314C338.631 389.664 339.056 387.049 339.857 384.57C341.539 379.643 344.681 375.33 348.718 372.376C349.232 372.022 349.705 371.608 350.25 371.307L351.85 370.36C352.965 369.832 354.054 369.245 355.225 368.883C356.363 368.428 357.555 368.175 358.728 367.886C359.319 367.763 359.921 367.707 360.514 367.615L361.405 367.49L362.301 367.454C364.687 367.26 367.051 367.582 369.325 368.042C371.595 368.574 373.744 369.427 375.746 370.492C379.684 372.723 382.987 375.866 385.149 379.558C386.308 381.361 387.058 383.346 387.723 385.301C388.25 387.299 388.666 389.305 388.71 391.308C388.729 391.807 388.747 392.305 388.766 392.799C388.76 393.291 388.754 393.78 388.748 394.268C388.736 395.243 388.724 396.208 388.712 397.165C388.688 399.078 388.664 400.955 388.641 402.795C388.547 410.154 388.46 416.918 388.382 423.018C388.214 435.209 388.083 444.746 387.996 451.088L387.923 451.014C391.563 451.074 394.231 451.119 396.001 451.148C396.88 451.165 397.533 451.179 397.978 451.187C398.413 451.197 398.635 451.209 398.635 451.209C398.635 451.209 398.431 451.216 398.002 451.216C397.561 451.215 396.913 451.213 396.042 451.211C394.263 451.2 391.581 451.184 387.921 451.161H387.847L387.848 451.087C387.905 444.744 387.99 435.207 388.099 423.015C388.16 416.915 388.227 410.15 388.3 402.791C388.319 400.951 388.338 399.074 388.357 397.16C388.367 396.203 388.377 395.238 388.387 394.263C388.392 393.776 388.397 393.286 388.402 392.794C388.383 392.306 388.363 391.816 388.343 391.324C388.297 389.351 387.881 387.376 387.359 385.409C386.699 383.486 385.959 381.532 384.813 379.76C382.678 376.129 379.421 373.042 375.545 370.853C373.575 369.809 371.46 368.973 369.228 368.453C366.992 368.005 364.668 367.69 362.323 367.885L361.442 367.921L360.567 368.046C359.984 368.138 359.393 368.193 358.813 368.315C357.661 368.601 356.49 368.849 355.373 369.299C354.223 369.655 353.155 370.234 352.06 370.753L350.489 371.685C349.953 371.981 349.49 372.389 348.986 372.737C345.024 375.642 341.944 379.882 340.298 384.717C339.514 387.151 339.101 389.714 339.036 392.319C339.007 394.945 338.978 397.595 338.949 400.267C338.89 405.611 338.83 411.044 338.769 416.556C338.646 427.582 338.519 438.928 338.389 450.526L338.386 450.776L338.136 450.773C334.657 450.734 331.067 450.693 327.423 450.652L327.172 450.649L327.175 450.398C327.198 448.373 327.221 446.33 327.245 444.281C327.421 428.936 327.593 413.954 327.759 399.483C327.831 395.863 327.749 392.289 328.055 388.712C328.495 385.166 329.343 381.7 330.718 378.471C332.147 375.273 333.937 372.275 336.125 369.632C338.363 367.041 340.85 364.705 343.632 362.835C349.191 359.128 355.612 356.968 361.951 356.754C362.743 356.733 363.532 356.671 364.317 356.685L367.006 356.853C367.499 356.909 367.992 356.965 368.485 357.021L370.732 357.392C371.077 357.465 371.423 357.538 371.769 357.611C374.566 358.34 377.303 359.201 379.774 360.543C381.136 361.15 382.348 362 383.595 362.761C384.231 363.124 384.767 363.626 385.354 364.048C385.918 364.501 386.523 364.9 387.046 365.392C388.073 366.392 389.195 367.281 390.083 368.378C390.55 368.905 391.015 369.429 391.477 369.95C391.907 370.497 392.302 371.069 392.713 371.623C395.942 376.097 398.031 381.112 398.884 386.095C399.807 391.092 399.34 395.934 399.369 400.458C399.309 404.996 399.253 409.275 399.2 413.278C399.089 421.271 398.993 428.158 398.915 433.789C398.832 439.399 398.767 443.758 398.723 446.725C398.698 448.192 398.679 449.313 398.666 450.078C398.651 450.832 398.635 451.209 398.635 451.209Z"
        fill="#1F2121" />
    <path
        d="M411.583 495.485L314.287 494.38L315.219 412.313L412.172 413.414C414.24 413.437 415.897 415.133 415.874 417.201L415.024 492.123C415.002 494.001 413.462 495.506 411.583 495.485Z"
        fill="#1F2121" />
    <path
        d="M398.144 495.332L313.894 494.376C311.575 494.35 309.716 492.448 309.742 490.129L310.58 416.325C310.606 414.081 312.445 412.282 314.69 412.308L399.983 413.276C402.227 413.301 404.026 415.141 404 417.386L403.171 490.419C403.14 493.163 400.889 495.364 398.144 495.332Z"
        fill="#1F2121" />
    <path
        d="M369.935 446.741C370.008 440.296 364.746 435.033 358.255 435.154C352.199 435.266 347.138 440.327 347.019 446.383C346.915 451.663 350.413 456.117 355.226 457.548L347.57 473.272L367.317 473.859L361.477 457.62C366.291 456.306 369.875 451.978 369.935 446.741Z"
        fill="#111313" />
    <path
        d="M382.425 415.563C382.425 415.702 369.849 415.838 354.34 415.868C338.825 415.898 326.251 415.81 326.251 415.671C326.251 415.533 338.824 415.396 354.339 415.366C369.848 415.336 382.425 415.424 382.425 415.563Z"
        fill="#1F2121" />
    <path
        d="M346.577 452.646C346.55 452.661 346.371 452.413 346.11 451.926C345.848 451.441 345.526 450.703 345.253 449.75C344.696 447.864 344.454 444.999 345.438 442.093C346.426 439.188 348.363 437.062 349.953 435.905C350.751 435.316 351.454 434.926 351.958 434.701C352.461 434.474 352.754 434.386 352.766 434.414C352.809 434.499 351.673 434.964 350.171 436.185C348.677 437.384 346.861 439.467 345.913 442.255C344.969 445.044 345.141 447.801 345.597 449.662C346.044 451.545 346.662 452.605 346.577 452.646Z"
        fill="#1F2121" />
    <path
        d="M351.043 458.128C350.97 458.246 350.297 457.959 349.541 457.489C348.784 457.018 348.23 456.541 348.304 456.423C348.377 456.305 349.05 456.592 349.807 457.063C350.563 457.533 351.117 458.01 351.043 458.128Z"
        fill="#1F2121" />
    <path
        d="M360.599 359.761C360.601 359.805 359.909 359.856 358.669 360.013C357.429 360.166 355.644 360.484 353.507 361.119C349.256 362.35 343.532 365.202 339.013 370.32C334.499 375.446 332.386 381.483 331.698 385.854C331.336 388.054 331.244 389.865 331.248 391.114C331.248 392.363 331.284 393.057 331.24 393.06C331.223 393.061 331.196 392.89 331.161 392.561C331.135 392.232 331.062 391.746 331.052 391.118C330.989 389.862 331.027 388.032 331.347 385.799C331.953 381.365 334.043 375.204 338.636 369.988C343.235 364.779 349.085 361.934 353.408 360.778C355.583 360.18 357.394 359.913 358.648 359.819C359.273 359.749 359.764 359.762 360.094 359.746C360.424 359.739 360.598 359.744 360.599 359.761Z"
        fill="#1F2121" />
    <path
        d="M330.724 401.905C330.585 401.902 330.501 400.566 330.536 398.92C330.571 397.274 330.711 395.943 330.85 395.946C330.988 395.949 331.073 397.285 331.038 398.931C331.003 400.576 330.863 401.908 330.724 401.905Z"
        fill="#1F2121" />
    <rect width="400" height="1" transform="translate(15.3585 495.478)" fill="#E9E9E9" />
    <path
        d="M18.1405 440.186L0.165466 464.599L30.4245 487.118C32.3985 484.095 21.0625 466.642 21.0625 466.642L33.2205 451.473L18.1405 440.186Z"
        fill="black" />
    <path
        d="M12.6825 458.368C11.9775 458.092 11.0835 458.45 10.7785 459.142C10.4745 459.835 10.8295 460.748 11.5295 461.036C12.2295 461.324 13.3165 460.928 13.5415 460.205C13.7665 459.482 13.2905 458.433 12.5415 458.322"
        fill="white" />
    <path
        d="M0.125473 464.648L2.03847 462.025L30.3095 484.789C30.3095 484.789 31.2105 486.384 30.3465 487.213L0.125473 464.648Z"
        fill="#263238" />
    <path
        d="M21.6685 466.853C21.5535 466.997 20.7655 466.514 19.6845 466.448C18.6055 466.354 17.7545 466.715 17.6625 466.555C17.5475 466.425 18.4255 465.706 19.7325 465.808C21.0385 465.9 21.8015 466.741 21.6685 466.853Z"
        fill="#263238" />
    <path
        d="M23.8655 470.527C23.7925 470.696 22.9655 470.471 21.9985 470.722C21.0245 470.945 20.3945 471.527 20.2525 471.411C20.0965 471.331 20.6385 470.389 21.8465 470.1C23.0515 469.799 23.9665 470.384 23.8655 470.527Z"
        fill="#263238" />
    <path
        d="M22.8405 475.667C22.6825 475.599 23.0265 474.707 24.0085 474.18C24.9865 473.646 25.9215 473.845 25.8915 474.015C25.8845 474.199 25.1125 474.299 24.3135 474.744C23.5045 475.17 22.9985 475.762 22.8405 475.667Z"
        fill="#263238" />
    <path
        d="M24.0555 463.088C23.8935 463.177 23.3675 462.468 22.4895 461.903C21.6235 461.32 20.7645 461.117 20.7825 460.933C20.7765 460.762 21.8175 460.688 22.8425 461.367C23.8715 462.04 24.2145 463.026 24.0555 463.088Z"
        fill="#263238" />
    <path
        d="M91.2945 338.044C91.8425 341.105 92.6935 367.136 93.2445 380.863C93.7955 394.591 92.4245 401.352 90.8565 404.425C89.2875 407.498 30.0745 451.14 25.5675 461.589L10.6105 449.5C10.6105 449.5 32.5675 410.002 41.9925 402.831C51.4175 395.66 69.4135 389.058 69.4135 389.058L64.2915 313.863L88.8785 312.523L91.2945 338.044Z"
        fill="white" />
    <path
        d="M36.2685 464.316L36.0065 494.631L73.7215 495.15C73.5505 491.544 54.1385 484.042 54.1385 484.042L55.1035 464.625L36.2685 464.316Z"
        fill="black" />
    <path
        d="M42.4985 482.248C41.7655 482.437 41.2505 483.251 41.4095 483.991C41.5685 484.731 42.3915 485.262 43.1275 485.086C43.8625 484.909 44.5125 483.952 44.2705 483.234C44.0295 482.517 43.0285 481.946 42.3575 482.294"
        fill="white" />
    <path
        d="M36.0015 494.695L36.0145 491.449L72.2625 493.332C72.2625 493.332 73.9265 494.097 73.7125 495.275L36.0015 494.695Z"
        fill="#263238" />
    <path
        d="M54.7515 483.86C54.7425 484.044 53.8205 484.115 52.9065 484.695C51.9765 485.251 51.4995 486.042 51.3305 485.967C51.1615 485.929 51.4515 484.832 52.5705 484.149C53.6835 483.456 54.7935 483.691 54.7515 483.86Z"
        fill="#263238" />
    <path
        d="M58.6845 485.55C58.7245 485.729 57.9225 486.031 57.2865 486.802C56.6275 487.554 56.4585 488.394 56.2755 488.383C56.1025 488.41 55.9895 487.329 56.7985 486.386C57.5985 485.437 58.6835 485.374 58.6845 485.55Z"
        fill="#263238" />
    <path
        d="M60.8665 490.316C60.6985 490.353 60.4545 489.429 60.9415 488.427C61.4215 487.421 62.2955 487.035 62.3715 487.19C62.4735 487.343 61.9065 487.876 61.5195 488.705C61.1135 489.524 61.0495 490.3 60.8665 490.316Z"
        fill="#263238" />
    <path
        d="M54.4805 479.41C54.4005 479.577 53.5595 479.311 52.5175 479.367C51.4745 479.402 50.6595 479.74 50.5655 479.581C50.4605 479.446 51.2605 478.776 52.4895 478.726C53.7165 478.669 54.5725 479.267 54.4805 479.41Z"
        fill="#263238" />
    <path
        d="M94.0185 309.415C94.0185 311.19 96.8865 355.993 82.2415 388.389C82.2415 388.389 77.1675 398.525 76.2795 402.962C75.3915 407.4 56.4005 480.866 56.4005 480.866L34.5025 480.067C34.5025 480.067 30.9965 443.254 34.5465 421.952C38.0965 400.65 44.5795 403.136 44.5795 389.378C44.5795 375.62 41.3115 347.088 41.3115 347.088C41.3115 347.088 36.5275 339.293 34.8975 324.188C33.5725 311.914 39.3455 298.769 39.3455 298.769L45.0605 288.656L93.3685 286.124L94.0185 309.415Z"
        fill="white" />
    <path
        d="M94.0185 309.415C94.0185 309.415 94.0245 308.899 94.0065 307.891C93.9845 306.872 93.9535 305.374 93.9115 303.411C93.8135 299.458 93.6705 293.638 93.4855 286.123L93.4825 286.004L93.3635 286.01C81.4935 286.613 65.0015 287.451 45.0515 288.465L44.9465 288.47L44.8945 288.562C43.1175 291.699 41.1725 295.132 39.1685 298.669L39.1625 298.68L39.1585 298.688C37.7205 302.171 36.5575 305.875 35.7155 309.77C34.8565 313.657 34.3795 317.756 34.5095 321.957C34.7765 326.152 35.4595 330.388 36.4755 334.65C37.5365 338.895 38.8895 343.184 41.1055 347.215L41.0715 347.116C41.9005 354.58 42.6655 362.31 43.3165 370.268C43.6375 374.247 43.9225 378.284 44.1195 382.375C44.2195 384.42 44.2925 386.479 44.3085 388.548C44.3445 389.586 44.2675 390.613 44.2485 391.65C44.1415 392.677 44.0905 393.718 43.8645 394.731C43.5035 396.775 42.7675 398.737 41.7915 400.603C40.8215 402.473 39.7335 404.323 38.8215 406.277C36.9615 410.176 35.7585 414.392 34.8875 418.679C33.1435 427.281 32.7915 436.221 32.6945 445.223C32.6565 457.119 33.2575 468.793 34.2375 480.091L34.2575 480.322L34.4915 480.331C41.9535 480.602 49.2635 480.867 56.3895 481.125L56.5985 481.133L56.6505 480.931C62.9945 456.32 68.9165 433.32 74.1335 412.638C74.7755 410.049 75.4085 407.498 76.0315 404.984C76.3525 403.717 76.5655 402.454 76.9555 401.258C77.3375 400.052 77.7835 398.872 78.2455 397.709C79.1835 395.389 80.1955 393.14 81.2285 390.948C81.4905 390.402 81.7505 389.858 82.0105 389.317C82.2825 388.784 82.5385 388.236 82.7505 387.677C83.2025 386.571 83.6515 385.475 84.0955 384.39C87.5485 375.663 89.5815 367.19 91.0115 359.456C93.8135 343.948 94.1845 331.329 94.3135 322.721C94.3685 314.096 94.0185 309.415 94.0185 309.415C94.0185 309.415 94.0135 309.708 94.0255 310.283C94.0405 310.868 94.0625 311.72 94.0915 312.837C94.1535 315.085 94.1865 318.413 94.1345 322.721C93.9495 331.321 93.5265 343.927 90.6845 359.398C89.2365 367.111 87.1855 375.562 83.7285 384.243C83.2845 385.322 82.8365 386.411 82.3845 387.51C82.1725 388.067 81.9205 388.602 81.6455 389.14C81.3845 389.682 81.1225 390.227 80.8585 390.774C79.8195 392.969 78.8005 395.222 77.8535 397.552C77.3875 398.72 76.9355 399.907 76.5465 401.131C76.1445 402.361 75.9265 403.641 75.6085 404.883C74.9815 407.394 74.3455 409.943 73.6995 412.529C68.3885 433.187 62.4765 456.188 56.1485 480.802L56.4095 480.608C49.2835 480.346 41.9745 480.078 34.5125 479.803L34.7665 480.043C33.7925 468.768 33.1935 457.099 33.2315 445.228C33.3285 436.243 33.6795 427.33 35.4105 418.787C36.2755 414.524 37.4655 410.353 39.3005 406.503C40.2015 404.571 41.2785 402.739 42.2605 400.843C43.2495 398.952 44.0115 396.92 44.3795 394.828C44.6095 393.788 44.6615 392.73 44.7695 391.683C44.7885 390.634 44.8645 389.582 44.8285 388.545C44.8115 386.465 44.7365 384.4 44.6355 382.351C44.4345 378.252 44.1465 374.21 43.8225 370.228C43.1645 362.263 42.3915 354.533 41.5535 347.062L41.5485 347.015L41.5195 346.962C39.3545 343.034 37.9845 338.744 36.9315 334.538C35.9165 330.314 35.2305 326.075 34.9605 321.938C34.8265 317.788 35.2905 313.722 36.1385 309.861C36.9655 305.995 38.1215 302.296 39.5355 298.853L39.5265 298.871C41.5225 295.33 43.4605 291.892 45.2305 288.752L45.0735 288.849C65.0205 287.772 81.5085 286.882 93.3775 286.241L93.2555 286.128C93.4895 293.641 93.6705 299.459 93.7935 303.412C93.8615 305.375 93.9125 306.872 93.9485 307.891C93.9835 308.899 94.0185 309.415 94.0185 309.415Z"
        fill="black" />
    <path
        d="M78.3075 217.657C78.3075 217.657 65.2615 215.355 66.5215 232.088C67.2765 242.107 70.2175 259.245 71.8475 270.203C72.4105 273.989 73.6465 280.772 78.6555 284.752L114.555 309.598L125.885 296.052L93.8295 265.515L88.7915 235.316L78.3075 217.657Z"
        fill="#FF9500" />
    <path
        d="M79.8345 157.362C83.9775 160.626 86.3425 166.021 85.9345 171.28C85.7365 173.834 85.0325 176.75 86.6935 178.7C88.3385 180.63 91.5685 180.575 93.1455 182.561C95.0015 184.9 93.4475 188.38 94.1115 191.291C94.7355 194.023 97.6175 196.037 100.397 195.683C97.1385 198.345 93.1325 200.083 88.9615 200.645C87.8955 199.276 86.8285 197.906 85.7615 196.537C86.9745 197.975 86.6525 200.267 85.4775 201.737C84.3025 203.206 82.4895 204.007 80.6965 204.576C72.1295 207.293 62.3105 205.697 55.0455 200.407"
        fill="#263238" />
    <path
        d="M31.8105 179.932C32.4505 177.974 33.5245 176.159 33.9545 174.144C34.8795 169.814 32.7705 164.94 34.8705 161.042C36.3655 158.267 39.5515 156.909 42.5635 155.981C45.5755 155.054 48.8085 154.267 51.0545 152.056C52.7015 150.435 53.6395 148.202 55.2805 146.575C57.6205 144.256 61.0745 143.471 64.3625 143.269C67.7385 143.062 71.2295 143.386 74.2665 144.876C77.3025 146.366 79.8245 149.164 80.3655 152.503C80.6295 154.131 80.4295 155.837 80.9425 157.405C81.5065 159.128 82.8605 160.469 83.6955 162.08C85.4595 165.482 84.5035 170.064 81.5265 172.478L58.3465 202.419C53.4775 204.258 41.6785 202.034 37.9155 198.438C34.1525 194.841 30.1945 184.88 31.8105 179.932Z"
        fill="#263238" />
    <path
        d="M80.9145 168.674C79.9595 161.876 74.7895 153.843 68.0385 155.086L47.1985 162.091C45.1475 162.469 46.6155 165.813 46.8165 167.889L51.3475 214.887C51.3135 214.897 48.5325 216.897 47.5275 216.511C47.2665 216.411 47.0325 216.704 47.1905 216.934C49.6935 220.568 61.5075 236.455 73.6835 231.605C76.4035 230.521 73.3995 221.951 73.7175 218.775L73.3555 210.663C73.0855 206.522 72.9555 204.825 72.9605 204.864C72.9605 204.864 81.5755 202.744 82.5085 191.219C82.9745 185.489 81.9765 176.227 80.9145 168.674Z"
        fill="#FFBF9D" />
    <path
        d="M79.4635 179.137C79.5505 179.906 78.9705 180.613 78.1685 180.718C77.3685 180.823 76.6485 180.287 76.5625 179.517C76.4765 178.748 77.0555 178.04 77.8555 177.935C78.6575 177.83 79.3775 178.368 79.4635 179.137Z"
        fill="#263238" />
    <path
        d="M65.2725 180.026C65.3595 180.795 64.7795 181.503 63.9775 181.607C63.1775 181.712 62.4575 181.175 62.3715 180.406C62.2855 179.637 62.8645 178.929 63.6645 178.824C64.4655 178.719 65.1855 179.257 65.2725 180.026Z"
        fill="#263238" />
    <path
        d="M79.9875 174.322C79.8285 174.59 78.4695 173.73 76.7695 173.978C75.0665 174.197 73.9765 175.392 73.7545 175.176C73.6465 175.082 73.7785 174.621 74.2505 174.083C74.7135 173.549 75.5565 172.974 76.6175 172.827C77.6785 172.683 78.6405 173.009 79.2255 173.4C79.8215 173.792 80.0665 174.201 79.9875 174.322Z"
        fill="#263238" />
    <path
        d="M64.7125 175.583C64.5115 175.829 63.1745 174.859 61.3455 174.937C59.5165 174.987 58.2185 176.049 58.0095 175.817C57.9075 175.714 58.0995 175.277 58.6665 174.798C59.2215 174.32 60.1825 173.84 61.3235 173.799C62.4645 173.76 63.4435 174.172 64.0165 174.611C64.5985 175.05 64.8105 175.472 64.7125 175.583Z"
        fill="#263238" />
    <path
        d="M70.4465 186.354C70.4325 186.265 71.3965 186.021 72.9635 185.697C73.3615 185.625 73.7355 185.516 73.7815 185.237C73.8535 184.94 73.6525 184.521 73.4225 184.068C72.9705 183.126 72.4975 182.139 72.0015 181.104C70.0195 176.881 68.5515 173.395 68.7225 173.317C68.8935 173.238 70.6385 176.598 72.6205 180.822C73.0995 181.864 73.5575 182.858 73.9935 183.808C74.1805 184.252 74.4815 184.749 74.3225 185.367C74.2375 185.675 73.9595 185.915 73.7075 186.004C73.4565 186.102 73.2305 186.124 73.0335 186.151C71.4475 186.36 70.4605 186.443 70.4465 186.354Z"
        fill="#263238" />
    <path
        d="M72.9615 204.865C72.9615 204.865 65.3395 205.948 57.4005 201.969C57.4005 201.969 61.8475 209.665 73.1615 207.724L72.9615 204.865Z"
        fill="#FF9A6C" />
    <path
        d="M65.6535 190.94C65.8665 190.575 66.0945 190.194 66.4595 189.981C66.8615 189.747 67.3615 189.758 67.8195 189.844C68.4855 189.969 69.1425 190.25 69.5995 190.75C70.0565 191.25 70.2795 191.994 70.0485 192.631C69.8725 193.288 68.8915 193.648 68.2215 193.766C67.5515 193.884 66.8565 193.688 66.2635 193.354C65.7655 193.074 65.2875 192.627 65.2615 192.057C65.2435 191.657 65.4515 191.286 65.6535 190.94Z"
        fill="#FF9A6C" />
    <path
        d="M65.9755 188.728C66.2295 188.694 66.3645 190.399 67.9175 191.497C69.4675 192.6 71.2715 192.268 71.3035 192.506C71.3355 192.611 70.9235 192.869 70.1585 192.948C69.4075 193.032 68.2895 192.874 67.3395 192.203C66.3915 191.529 65.9325 190.568 65.8205 189.873C65.7005 189.164 65.8585 188.727 65.9755 188.728Z"
        fill="#263238" />
    <path
        d="M64.5745 169.433C64.4525 169.872 62.8685 169.79 61.0415 170.154C59.2075 170.481 57.7625 171.135 57.4885 170.771C57.3655 170.596 57.5935 170.174 58.1625 169.714C58.7265 169.256 59.6475 168.79 60.7445 168.581C61.8415 168.375 62.8685 168.473 63.5605 168.694C64.2585 168.916 64.6255 169.225 64.5745 169.433Z"
        fill="#263238" />
    <path
        d="M79.0185 168.572C78.7305 168.953 77.4645 168.678 75.9755 168.775C74.4835 168.826 73.2465 169.226 72.9275 168.875C72.7865 168.704 72.9575 168.331 73.4815 167.951C73.9985 167.573 74.8835 167.228 75.9085 167.176C76.9325 167.126 77.8435 167.381 78.3885 167.707C78.9435 168.033 79.1445 168.387 79.0185 168.572Z"
        fill="#263238" />
    <path
        d="M42.5895 163.729C43.6405 162.111 45.5305 161.278 47.3305 160.584C55.0945 157.586 63.2155 155.518 71.4675 154.437C72.4955 156.131 71.5455 158.436 69.9945 159.669C68.4445 160.902 66.4515 161.389 64.5955 162.083C62.7395 162.777 60.8375 163.846 60.0725 165.674C59.2595 167.618 59.9455 169.921 59.2315 171.903C58.0025 175.314 53.2425 176.414 52.0335 179.831C51.1185 182.416 52.6155 185.168 52.9905 187.884C53.4145 190.962 52.2745 194.216 50.0225 196.356C48.2465 198.044 45.8145 198.991 43.3685 199.038C42.8035 189.251 42.2385 179.463 41.6745 169.676C41.5565 167.638 41.4785 165.442 42.5895 163.729Z"
        fill="#263238" />
    <path
        d="M22.8725 188.454C24.4185 187.069 26.3565 185.87 26.9725 183.888C27.8695 181.001 25.5515 177.608 27.0445 174.979C28.4065 172.581 32.4185 172.702 33.6845 170.253C34.6735 168.34 33.5375 166.647 33.9135 164.966C34.2895 163.286 36.6745 161.812 38.3835 162.013L51.7495 181.385C52.9915 187.883 54.2395 191.343 52.8445 195.144C52.0795 197.229 51.0815 199.262 50.7815 201.463C50.4815 203.664 51.0445 206.158 52.8435 207.459C44.8525 208.085 37.3625 203.903 30.4415 199.859C27.9995 198.432 25.5585 197.006 23.1165 195.579C22.3545 195.133 21.5605 194.658 21.1035 193.902C20.0305 192.126 21.3265 189.839 22.8725 188.454Z"
        fill="#263238" />
    <path
        d="M30.2415 197.901C30.2415 197.901 30.5255 198.007 31.0955 198.065C31.6615 198.122 32.5215 198.148 33.5845 197.889C34.6375 197.633 35.9155 197.094 37.0565 196.02C38.1985 194.962 39.1185 193.311 39.3425 191.349C39.4515 190.371 39.3855 189.321 39.0805 188.284C38.7725 187.242 38.1945 186.275 37.5965 185.314C37.0065 184.351 36.3625 183.363 36.0655 182.232C35.7715 181.121 35.7695 179.8 36.4935 178.843C37.2205 177.869 38.5715 177.631 39.8235 177.126C40.4545 176.874 41.1055 176.483 41.5275 175.864C41.9495 175.247 42.0915 174.487 42.0775 173.768C42.0605 172.305 41.4365 170.967 41.1685 169.605C41.0315 168.923 40.9825 168.217 41.1555 167.564C41.3245 166.911 41.7365 166.338 42.3085 165.943C43.4625 165.119 44.9345 164.988 46.3515 164.863C47.7765 164.761 49.2665 164.439 50.4705 163.651C51.6875 162.899 52.6635 161.822 53.2895 160.595C53.9095 159.354 54.1335 158.022 54.3305 156.765C54.5235 155.504 54.6965 154.278 55.1135 153.172C55.5315 152.071 56.2045 151.116 56.9935 150.339C58.6055 148.805 60.6405 147.989 62.5225 147.835C64.4165 147.675 66.1355 148.177 67.4725 148.866C68.8215 149.556 69.8295 150.425 70.5505 151.21C71.9915 152.807 72.3935 153.975 72.4535 153.937C72.4605 153.934 72.4345 153.864 72.3775 153.73C72.3155 153.598 72.2405 153.392 72.1005 153.144C71.8415 152.637 71.3975 151.913 70.6855 151.09C69.9735 150.273 68.9635 149.365 67.5925 148.635C66.2335 147.907 64.4695 147.362 62.4965 147.507C60.5415 147.646 58.4225 148.47 56.7255 150.06C55.8955 150.866 55.1785 151.866 54.7305 153.026C54.2855 154.186 54.1045 155.443 53.9055 156.697C53.7055 157.949 53.4775 159.234 52.8925 160.393C52.3015 161.542 51.3775 162.557 50.2295 163.262C49.0855 164.001 47.7295 164.295 46.3065 164.4C44.9045 164.526 43.3285 164.645 42.0375 165.562C41.3965 166.001 40.8975 166.685 40.7055 167.443C40.5065 168.201 40.5705 168.976 40.7135 169.693C41.0065 171.135 41.6085 172.43 41.6205 173.775C41.6345 174.436 41.5055 175.091 41.1545 175.608C40.8025 176.125 40.2515 176.471 39.6515 176.713C39.0545 176.965 38.4125 177.138 37.7935 177.4C37.1785 177.653 36.5615 178.024 36.1505 178.581C35.3145 179.712 35.3535 181.156 35.6685 182.334C35.9995 183.551 36.6735 184.557 37.2675 185.515C37.8725 186.47 38.4355 187.402 38.7355 188.385C39.0345 189.368 39.1075 190.371 39.0135 191.31C38.8195 193.195 37.9575 194.793 36.8745 195.829C35.7905 196.883 34.5595 197.433 33.5375 197.71C31.4505 198.243 30.2355 197.817 30.2415 197.901Z"
        fill="#455A64" />
    <path
        d="M19.5815 184.129C19.5815 184.129 19.4215 184.325 19.3175 184.782C19.2125 185.231 19.2255 185.973 19.6605 186.764C19.8845 187.149 20.2115 187.549 20.6835 187.839C21.1525 188.127 21.7485 188.304 22.3905 188.294C23.6625 188.308 25.1615 187.541 25.8905 186.071C26.2595 185.353 26.4595 184.512 26.4605 183.635C26.4595 182.753 26.2325 181.858 25.8985 180.994C25.2645 179.265 24.1135 177.58 24.0885 175.558C24.0665 174.579 24.2965 173.515 25.0155 172.811C25.7275 172.089 26.8275 171.913 27.9205 171.904C29.0155 171.867 30.2095 172.007 31.3805 171.545C31.9555 171.312 32.4745 170.887 32.8035 170.347C33.1385 169.81 33.3135 169.197 33.3875 168.584C33.5345 167.338 33.2435 166.159 33.0985 165.031C32.9235 163.903 32.9925 162.792 33.2835 161.738C33.8705 159.636 35.2785 157.87 37.0035 156.857C38.7355 155.812 40.7395 155.7 42.5455 155.591C44.3635 155.495 46.1195 155.381 47.6045 154.793C49.0895 154.239 50.2825 153.402 51.1855 152.54C52.0995 151.682 52.7185 150.785 53.1475 150.021C53.9945 148.473 54.0985 147.485 54.0985 147.485C54.0425 147.464 53.8715 148.438 52.9905 149.93C52.5445 150.666 51.9175 151.53 51.0085 152.349C50.1105 153.173 48.9355 153.966 47.4915 154.483C46.0535 155.03 44.3505 155.125 42.5255 155.204C40.7205 155.298 38.6415 155.387 36.7875 156.485C34.9595 157.547 33.4735 159.393 32.8455 161.614C32.5335 162.718 32.4605 163.93 32.6405 165.091C32.7915 166.247 33.0645 167.396 32.9265 168.528C32.8125 169.654 32.2295 170.727 31.2045 171.117C30.1955 171.525 29.0345 171.414 27.9115 171.448C26.8025 171.46 25.5435 171.641 24.7025 172.496C23.8615 173.334 23.6325 174.523 23.6595 175.569C23.6805 176.635 23.9965 177.65 24.3915 178.546C24.7785 179.452 25.2105 180.293 25.5395 181.133C25.8715 181.97 26.0925 182.816 26.1025 183.638C26.1115 184.46 25.9335 185.25 25.5985 185.922C24.9405 187.294 23.5745 188.018 22.3865 188.034C21.7915 188.056 21.2365 187.903 20.7985 187.649C20.3585 187.394 20.0415 187.028 19.8175 186.672C19.3835 185.939 19.3385 185.235 19.4105 184.798C19.4795 184.353 19.6055 184.139 19.5815 184.129Z"
        fill="#263238" />
    <path
        d="M103.807 188.903C103.733 188.898 104.24 189.669 103.781 190.993C103.551 191.615 103.03 192.374 102.12 192.678C101.235 192.981 100.002 192.747 99.1875 191.877C98.7795 191.45 98.5425 190.854 98.5005 190.203C98.4575 189.553 98.5865 188.864 98.8065 188.18C99.2315 186.827 100.096 185.355 99.9645 183.591C99.8685 181.88 99.0005 180.13 97.5335 178.972C96.8075 178.39 95.9575 177.944 95.0425 177.66C94.1255 177.365 93.1465 177.299 92.1965 177.251C91.2425 177.202 90.3045 177.176 89.4335 176.962C88.5675 176.754 87.7815 176.311 87.2825 175.625C86.7825 174.942 86.5625 174.092 86.5045 173.26C86.4445 172.421 86.5465 171.597 86.7115 170.795C87.0385 169.198 87.5175 167.646 87.4285 166.119C87.3485 164.601 86.7715 163.253 86.0005 162.236C85.2275 161.199 84.2275 160.565 83.3965 160.036C82.5535 159.508 81.8355 159.052 81.3145 158.597C80.2465 157.695 80.0625 156.878 80.0045 156.914C79.9975 156.917 80.0085 156.964 80.0385 157.054C80.0735 157.142 80.1065 157.283 80.1985 157.446C80.3555 157.783 80.6695 158.252 81.1935 158.732C81.7095 159.22 82.4285 159.707 83.2545 160.254C84.0755 160.805 85.0205 161.436 85.7365 162.433C86.4545 163.414 86.9845 164.706 87.0425 166.137C87.1125 167.575 86.6395 169.081 86.2915 170.709C86.1175 171.524 86.0015 172.398 86.0615 173.29C86.1195 174.176 86.3475 175.112 86.9145 175.895C87.4795 176.682 88.3875 177.189 89.3215 177.411C90.2615 177.642 91.2235 177.665 92.1735 177.715C93.1235 177.763 94.0475 177.826 94.9065 178.102C95.7675 178.367 96.5675 178.785 97.2485 179.327C98.6215 180.403 99.4345 182.027 99.5365 183.617C99.6775 185.23 98.8765 186.642 98.4385 188.064C98.2175 188.78 98.0855 189.514 98.1425 190.23C98.1945 190.942 98.4785 191.629 98.9485 192.102C99.8805 193.059 101.228 193.281 102.206 192.924C103.21 192.558 103.735 191.719 103.954 191.053C104.181 190.365 104.119 189.785 104.031 189.426C103.929 189.063 103.807 188.903 103.807 188.903Z"
        fill="#263238" />
    <path
        d="M94.2455 267.232V256.165C95.4835 249.961 94.8965 242.601 92.0115 236.927C90.3295 233.619 86.4755 228.348 85.0705 226.374L74.0545 212.089C67.9965 216.5 58.5105 213.312 50.3715 210.348C50.3715 210.348 42.3305 214.796 38.5895 218.981C34.6615 223.377 48.0945 278.428 48.0945 278.428C42.0065 290.607 34.1495 301.399 32.9575 312.523L96.5575 314.974L93.8535 285.813L94.2455 267.232Z"
        fill="#FF9500" />
    <path
        d="M93.3695 286.125C93.3335 286.123 93.3185 285.68 93.3205 284.879C93.3305 283.972 93.3435 282.837 93.3585 281.49C93.4075 278.517 93.4715 274.62 93.5415 270.311C93.6245 265.943 93.7385 261.989 93.8775 259.129C93.9445 257.699 94.0165 256.542 94.0815 255.743C94.1465 254.944 94.1995 254.504 94.2355 254.506C94.2715 254.508 94.2865 254.951 94.2845 255.752C94.2745 256.659 94.2615 257.793 94.2465 259.141C94.1975 262.114 94.1335 266.012 94.0635 270.322C93.9805 274.688 93.8665 278.642 93.7275 281.503C93.6605 282.933 93.5885 284.09 93.5235 284.889C93.4585 285.688 93.4055 286.127 93.3695 286.125Z"
        fill="#263238" />
    <path
        d="M122.419 296.188C122.419 296.188 128.613 296.524 132.457 298.929C136.301 301.335 142.463 305.065 145.009 309.702C146.178 311.83 142.846 312.281 141.201 311.044C139.556 309.807 137.038 307.481 135.788 307.195C134.538 306.909 134.538 306.909 134.538 306.909C134.538 306.909 137.049 312.5 138.345 314.464C139.641 316.428 140.761 319.786 136.883 319.939C136.883 319.939 134.267 323.339 131.627 320.82C131.627 320.82 129.566 323.905 126.246 319.627C126.246 319.627 124.313 322.073 123.506 321.141C122.699 320.209 120.057 318.718 119.285 315.662C118.513 312.606 115.27 305.172 115.27 305.172L122.419 296.188Z"
        fill="#FFBF9D" />
    <path
        d="M261.227 210.252C261.921 210.261 290.312 207.271 290.312 207.271C290.312 207.271 292.715 195.726 292.588 192.726C292.461 189.726 290.436 169.876 290.436 169.876L301.07 164.846C301.07 164.846 315.281 212.767 312.174 216.752C309.067 220.737 303.245 224.296 302.745 224.317C302.245 224.338 275.239 236.305 256.443 230.086C237.647 223.867 261.227 210.252 261.227 210.252Z"
        fill="#FFBF9D" />
    <path
        d="M236.349 236.12C240.532 240.266 247.732 243.715 259.743 240.716C283.508 234.782 301.314 229.761 308.399 225.915C315.484 222.07 312.719 205.135 313.315 204.366C315.111 202.049 313.141 197.064 310.585 196.29C303.319 194.089 290.663 194.956 290.03 195.62C286.296 199.535 289.702 204.3 289.702 204.3L258.369 208.404C258.369 208.404 252.919 208.033 246.858 209.141"
        fill="#FF9500" />
    <path
        d="M246.858 209.141C246.858 209.141 247.111 209.075 247.61 208.979C248.108 208.883 248.852 208.759 249.829 208.635C251.782 208.396 254.673 208.122 258.377 208.277L258.352 208.278C265.834 207.275 276.641 205.827 289.673 204.08L289.522 204.428C288.557 202.945 287.938 201.161 288.08 199.282C288.146 198.347 288.476 197.427 288.977 196.62C289.204 196.196 289.541 195.853 289.841 195.48C289.941 195.395 290.125 195.303 290.249 195.26L290.607 195.171C290.847 195.108 291.078 195.087 291.314 195.043C295.069 194.562 298.978 194.544 302.998 194.797C305.006 194.938 307.044 195.179 309.076 195.635C309.583 195.751 310.086 195.898 310.594 196.028C311.124 196.199 311.629 196.487 312.028 196.863C312.845 197.606 313.4 198.571 313.794 199.584C314.174 200.604 314.357 201.721 314.208 202.842C314.099 203.395 313.934 203.96 313.579 204.434C313.486 204.532 313.498 204.806 313.485 205.066L313.494 205.863C313.569 208.012 313.668 210.202 313.612 212.409C313.518 215.55 313.243 218.715 312.122 221.632C311.561 223.072 310.742 224.47 309.517 225.458C308.916 225.978 308.205 226.302 307.542 226.635C306.876 226.989 306.18 227.261 305.506 227.575C302.773 228.748 300.019 229.702 297.313 230.6C294.606 231.496 291.937 232.31 289.326 233.075C278.874 236.118 269.368 238.503 261.386 240.493C259.398 241.007 257.466 241.423 255.626 241.69C253.779 241.907 252.023 242.058 250.38 241.969C247.092 241.875 244.305 241.12 242.195 240.192C240.08 239.247 238.622 238.168 237.695 237.391C236.763 236.612 236.352 236.12 236.352 236.12C236.377 236.093 236.813 236.561 237.762 237.31C238.706 238.057 240.171 239.1 242.276 240.007C244.377 240.896 247.137 241.614 250.39 241.679C252.015 241.754 253.753 241.59 255.581 241.363C257.407 241.084 259.306 240.664 261.298 240.137C269.267 238.102 278.761 235.681 289.192 232.616C291.798 231.846 294.461 231.028 297.158 230.129C299.854 229.229 302.599 228.274 305.306 227.108C305.972 226.797 306.663 226.525 307.316 226.177C307.983 225.841 308.652 225.535 309.193 225.06C310.321 224.15 311.102 222.833 311.641 221.443C312.723 218.631 313.002 215.506 313.093 212.397C313.149 210.209 313.051 208.042 312.976 205.878L312.967 205.058C312.968 204.92 312.975 204.779 312.988 204.632C313.003 204.547 313 204.491 313.032 204.383C313.053 204.323 313.08 204.264 313.11 204.21L313.159 204.13C313.456 203.738 313.599 203.25 313.697 202.762C313.83 201.763 313.668 200.718 313.311 199.763C312.945 198.815 312.418 197.908 311.685 197.243C311.321 196.902 310.902 196.668 310.447 196.517C309.95 196.389 309.46 196.245 308.962 196.131C306.969 195.681 304.952 195.439 302.961 195.296C298.983 195.038 295.069 195.051 291.385 195.513C291.161 195.554 290.924 195.576 290.713 195.633L290.392 195.711C290.303 195.752 290.265 195.755 290.184 195.804C289.904 196.154 289.585 196.474 289.376 196.866C288.91 197.613 288.602 198.456 288.539 199.322C288.395 201.052 288.987 202.786 289.883 204.171L290.08 204.475L289.732 204.519C276.69 206.188 265.875 207.571 258.387 208.529L258.375 208.53L258.361 208.529C254.689 208.339 251.796 208.57 249.845 208.767C248.868 208.869 248.122 208.972 247.621 209.045C247.119 209.12 246.858 209.141 246.858 209.141Z"
        fill="#263238" />
    <path
        d="M78.8977 224.527C79.2234 224.678 77.4854 226.678 74.6021 229.53L74.4845 229.646L74.3459 229.547C71.7858 227.716 68.3869 225.365 64.6648 222.813C60.4667 219.935 56.6869 217.294 54.0068 215.303C52.6661 214.309 51.5952 213.485 50.8675 212.902C50.1402 212.317 49.749 211.979 49.7707 211.95C49.7925 211.922 50.2249 212.204 50.9888 212.739C51.8322 213.33 52.919 214.092 54.2219 215.005C57.0503 216.948 60.8062 219.53 64.9598 222.384C68.6836 224.937 72.0616 227.33 74.5823 229.225L74.327 229.243C77.2743 226.458 79.0833 224.597 78.8977 224.527Z"
        fill="#263238" />
    <path
        d="M406.941 89.1113L408.036 91.0773C411.252 96.8553 409.175 104.146 403.398 107.362L162.032 241.713L149.291 218.824L390.657 84.4733C396.435 81.2573 403.725 83.3333 406.941 89.1113Z"
        fill="#069550" />
    <path
        d="M352.337 57.6303L381.894 110.729L364.421 120.455L334.864 67.3553C334.263 66.2763 334.651 64.9143 335.73 64.3133L349.294 56.7633C350.375 56.1623 351.736 56.5503 352.337 57.6303Z"
        fill="#069550" />
    <path
        d="M323.752 86.0093L345.287 124.698C346.158 126.263 345.596 128.238 344.03 129.11L332.226 135.681C330.661 136.552 328.685 135.99 327.814 134.424L306.279 95.7353C305.408 94.1703 305.97 92.1953 307.536 91.3233L319.34 84.7523C320.906 83.8813 322.881 84.4443 323.752 86.0093Z"
        fill="#069550" />
    <path d="M325.287 93.4524L338.623 117.409L365.761 102.303L352.425 78.3462L325.287 93.4524Z" fill="#069550" />
    <path
        d="M387.109 86.4463C387.179 86.5723 339.812 113.071 281.324 145.627C222.817 178.194 175.346 204.484 175.276 204.358C175.206 204.232 222.563 177.739 281.071 145.172C339.558 112.616 387.039 86.3203 387.109 86.4463Z"
        fill="#263238" />
    <path
        d="M64.2825 285.998C82.0745 317.962 119.607 331.011 148.113 315.144C176.619 299.277 185.305 260.501 167.513 228.537C149.721 196.573 112.188 183.524 83.6825 199.391C55.1755 215.258 46.4905 254.033 64.2825 285.998ZM152.066 237.135C164.533 259.533 158.447 286.704 138.472 297.823C118.497 308.942 92.1975 299.798 79.7295 277.4C67.2625 255.002 73.3485 227.831 93.3235 216.712C113.298 205.593 139.598 214.737 152.066 237.135Z"
        fill="#069550" />
    <path
        d="M202.353 188.949L215.525 212.614C217.276 215.759 216.145 219.728 213 221.478L211.93 222.074C208.785 223.825 204.816 222.694 203.066 219.549L189.893 195.884C188.142 192.739 189.273 188.77 192.418 187.02L193.488 186.424C196.633 184.673 200.602 185.804 202.353 188.949Z"
        fill="#069550" />
    <path
        d="M227.649 174.868L240.822 198.533C242.573 201.678 241.442 205.647 238.297 207.397L237.227 207.993C234.082 209.744 230.113 208.613 228.363 205.468L215.19 181.803C213.439 178.658 214.57 174.689 217.715 172.939L218.785 172.343C221.93 170.593 225.898 171.723 227.649 174.868Z"
        fill="#069550" />
    <path
        d="M202.078 188.54C202.204 188.471 205.262 193.838 208.907 200.525C212.553 207.215 215.406 212.692 215.28 212.761C215.154 212.83 212.096 207.464 208.45 200.775C204.805 194.087 201.951 188.609 202.078 188.54Z"
        fill="#263238" />
    <path
        d="M190.47 196.842C190.596 196.772 193.58 201.894 197.135 208.28C200.691 214.669 203.471 219.903 203.346 219.973C203.22 220.043 200.237 214.922 196.68 208.533C193.126 202.147 190.345 196.912 190.47 196.842Z"
        fill="#263238" />
    <path
        d="M227.53 174.654C227.656 174.584 230.765 179.93 234.473 186.592C238.183 193.257 241.088 198.715 240.962 198.785C240.836 198.855 237.728 193.51 234.018 186.846C230.309 180.183 227.404 174.724 227.53 174.654Z"
        fill="#263238" />
    <path
        d="M215.315 182.029C215.441 181.96 218.484 187.271 222.112 193.889C225.74 200.51 228.579 205.931 228.452 206.001C228.326 206.07 225.283 200.761 221.655 194.14C218.028 187.521 215.189 182.098 215.315 182.029Z"
        fill="#263238" />
    <path
        d="M287.849 145.96C290.149 146.227 292.513 144.542 293.01 142.28C293.507 140.018 292.068 137.497 289.868 136.775C291.302 135.311 291.665 132.907 290.727 131.084C289.79 129.262 287.622 128.16 285.597 128.476C285.517 126.454 284.312 124.514 282.537 123.544C280.761 122.575 278.477 122.611 276.734 123.637C274.504 121.717 270.901 121.637 268.588 123.458C266.624 123.091 264.479 124.133 263.553 125.904C262.627 127.675 262.996 130.03 264.418 131.434"
        fill="#263238" />
    <path
        d="M267.562 128.12L268.6 128.123C279.051 128.154 287.725 136.204 288.534 146.624C289.286 156.315 289.992 167.031 289.913 172.229C289.748 182.991 278.978 184.632 278.978 184.632L279.85 197.565L253.732 196.677L251.564 149.776C250.633 138.598 256.363 128.74 267.562 128.12Z"
        fill="#FFBF9D" />
    <path
        d="M279.067 184.617C279.067 184.617 272.193 185.01 264.978 180.447C264.978 180.447 268.44 188.594 279.182 187.658L279.067 184.617Z"
        fill="#FF9A6C" />
    <path
        d="M282.627 156.733C282.653 157.545 281.988 158.236 281.14 158.279C280.294 158.322 279.586 157.7 279.56 156.889C279.534 156.077 280.199 155.385 281.045 155.342C281.892 155.299 282.6 155.922 282.627 156.733Z"
        fill="#263238" />
    <path
        d="M286.204 151.883C286.013 152.083 284.852 151.218 283.197 151.217C281.545 151.193 280.328 152.04 280.15 151.837C280.062 151.747 280.257 151.386 280.787 151.003C281.308 150.621 282.197 150.251 283.227 150.259C284.257 150.268 285.122 150.65 285.62 151.039C286.128 151.43 286.299 151.793 286.204 151.883Z"
        fill="#263238" />
    <path
        d="M267.705 156.021C267.731 156.832 267.066 157.524 266.218 157.567C265.372 157.61 264.664 156.989 264.638 156.176C264.612 155.365 265.278 154.672 266.123 154.629C266.971 154.586 267.679 155.209 267.705 156.021Z"
        fill="#263238" />
    <path
        d="M269.947 152.142C269.756 152.342 268.593 151.477 266.94 151.476C265.289 151.452 264.072 152.299 263.893 152.095C263.805 152.005 263.998 151.644 264.53 151.261C265.051 150.879 265.939 150.509 266.97 150.517C268 150.526 268.866 150.908 269.363 151.297C269.868 151.689 270.04 152.053 269.947 152.142Z"
        fill="#263238" />
    <path
        d="M275.912 164.425C275.904 164.331 276.933 164.156 278.6 163.948C279.022 163.906 279.422 163.823 279.494 163.535C279.594 163.23 279.419 162.775 279.216 162.282C278.822 161.259 278.41 160.187 277.977 159.062C276.256 154.478 275.013 150.71 275.198 150.642C275.384 150.575 276.928 154.235 278.648 158.819C279.062 159.949 279.458 161.027 279.835 162.057C279.993 162.538 280.267 163.083 280.049 163.715C279.934 164.03 279.624 164.259 279.353 164.33C279.082 164.412 278.844 164.416 278.636 164.427C276.958 164.515 275.918 164.519 275.912 164.425Z"
        fill="#263238" />
    <path
        d="M271.401 145.783C271.182 146.202 269.766 145.743 268.021 145.681C266.278 145.58 264.806 145.904 264.648 145.468C264.58 145.26 264.891 144.885 265.521 144.551C266.146 144.217 267.095 143.961 268.141 144.009C269.187 144.059 270.093 144.402 270.666 144.792C271.243 145.181 271.498 145.583 271.401 145.783Z"
        fill="#263238" />
    <path
        d="M286.305 145.063C285.955 145.438 284.592 145.043 282.95 145.02C281.31 144.949 279.918 145.263 279.599 144.869C279.459 144.678 279.679 144.302 280.287 143.948C280.887 143.596 281.888 143.309 283.016 143.341C284.144 143.374 285.12 143.718 285.69 144.104C286.27 144.493 286.46 144.881 286.305 145.063Z"
        fill="#263238" />
    <path
        d="M287.514 141.686C287.514 141.686 284.696 134.937 281.451 133.355C277.522 131.439 275.815 135.752 272.069 134.693C268.322 133.634 264.572 131.796 260.732 134.682C256.528 137.842 258.486 140.074 258.213 144.848C257.104 164.205 253.552 169.669 252.574 160.547C252.467 159.548 249.697 158.745 249.299 154.523C248.783 149.048 248.592 142.401 249.826 138.521C250.866 135.25 252.739 132.994 256.094 130.51C261.39 126.589 268.648 126.527 273.576 127.038C278.502 127.547 287.989 133.248 287.514 141.686Z"
        fill="#263238" />
    <path
        d="M253.26 160.255C253.197 158.594 251.77 157.278 250.114 157.43C248.106 157.615 245.869 158.748 245.989 162.896C246.202 170.255 253.546 168.523 253.552 168.312C253.557 168.169 253.377 163.334 253.26 160.255Z"
        fill="#FFBF9D" />
    <path
        d="M251.872 165.59C251.839 165.567 251.746 165.684 251.532 165.789C251.324 165.892 250.962 165.969 250.574 165.836C249.788 165.574 249.098 164.358 249.024 163.033C248.986 162.364 249.108 161.722 249.33 161.187C249.539 160.642 249.876 160.256 250.266 160.175C250.653 160.073 250.937 160.3 251.033 160.504C251.138 160.707 251.095 160.855 251.135 160.867C251.156 160.885 251.289 160.739 251.221 160.437C251.186 160.292 251.095 160.121 250.918 159.984C250.737 159.846 250.475 159.78 250.204 159.817C249.638 159.872 249.142 160.409 248.898 160.996C248.623 161.587 248.47 162.308 248.513 163.06C248.603 164.542 249.402 165.907 250.475 166.184C250.997 166.304 251.424 166.136 251.642 165.956C251.864 165.768 251.898 165.602 251.872 165.59Z"
        fill="#FF9A6C" />
    <path
        d="M253.447 146C254.401 146.655 255.408 147.331 256.559 147.448C257.71 147.566 259.029 146.908 259.226 145.768C259.315 145.256 259.191 144.661 259.529 144.267C259.932 143.796 260.673 143.946 261.289 144.013C263.427 144.246 265.934 141.891 266.485 139.812C267.028 140.63 268.222 140.881 269.05 140.351C269.877 139.821 270.179 139.518 270.828 138.78C271.476 138.042 272.385 137.383 273.357 137.524C273.901 137.603 274.409 137.928 274.956 137.881C275.923 137.798 276.398 136.668 276.547 135.709C276.696 134.751 276.813 133.632 277.633 133.113C278.393 132.632 279.375 132.914 280.264 133.048C281.153 133.182 282.302 132.976 282.532 132.107C282.653 131.651 282.459 131.17 282.207 130.771C281.067 128.964 278.571 128.155 276.587 128.95C275.875 126.517 273.607 124.617 271.086 124.344C268.565 124.07 265.942 125.438 264.724 127.662C263.173 126.246 260.915 125.647 258.867 126.108C256.818 126.569 255.035 128.077 254.239 130.02C252.45 129.544 250.408 130.23 249.27 131.689C248.132 133.148 247.964 135.296 248.861 136.915C247.536 137.667 246.4 138.977 246.368 140.5C246.336 142.023 247.815 143.545 249.286 143.149C248.689 144.333 249.167 145.944 250.314 146.61C251.461 147.276 253.097 146.893 253.829 145.787"
        fill="#263238" />
    <path
        d="M277.129 131.12C277.135 131.12 277.134 131.166 277.127 131.255C277.117 131.343 277.111 131.477 277.079 131.648C277.01 131.988 276.872 132.49 276.54 133.064C276.206 133.629 275.689 134.282 274.903 134.799C274.133 135.322 273.077 135.718 271.887 135.649L272.012 135.486C272.239 136.116 272.174 136.871 271.858 137.517C271.559 138.174 271.09 138.756 270.593 139.323C270.339 139.595 270.118 139.915 269.767 140.165C269.426 140.405 269.018 140.543 268.6 140.594C267.77 140.698 266.834 140.438 266.234 139.738L266.509 139.66C266.317 141.122 265.481 142.583 264.157 143.471C263.456 143.974 262.59 144.281 261.738 144.255C260.886 144.244 260.096 143.992 259.359 143.725L259.556 143.639C259.158 144.552 258.548 145.331 257.808 145.905C257.082 146.478 256.115 146.812 255.243 146.595C253.508 146.222 252.36 144.774 252.132 143.414L252.298 143.492C251.435 143.959 250.51 144.001 249.769 143.856C249.017 143.716 248.428 143.388 248.008 143.064C247.587 142.734 247.338 142.396 247.189 142.162C247.052 141.919 246.995 141.785 247.004 141.781C247.041 141.751 247.246 142.341 248.083 142.965C248.501 143.263 249.077 143.563 249.801 143.68C250.515 143.804 251.391 143.743 252.188 143.296L252.326 143.218L252.355 143.374C252.584 144.643 253.69 145.995 255.299 146.322C256.09 146.51 256.94 146.211 257.628 145.669C258.319 145.128 258.901 144.378 259.271 143.519L259.33 143.383L259.469 143.433C260.194 143.693 260.958 143.93 261.745 143.938C262.533 143.957 263.31 143.685 263.978 143.208C265.229 142.368 266.014 141.001 266.202 139.616L266.249 139.268L266.478 139.538C266.984 140.137 267.821 140.385 268.567 140.293C268.942 140.249 269.304 140.128 269.602 139.921C269.892 139.723 270.123 139.407 270.381 139.132C270.877 138.575 271.333 138.015 271.618 137.404C271.918 136.8 271.977 136.136 271.783 135.566L271.724 135.39L271.909 135.403C273.031 135.482 274.047 135.123 274.799 134.633C275.567 134.15 276.083 133.531 276.425 132.992C277.096 131.882 277.077 131.103 277.129 131.12Z"
        fill="#455A64" />
    <path
        d="M275.883 169.921C275.832 169.648 274.037 170.091 272.381 168.872C270.722 167.656 270.448 165.693 270.194 165.741C270.075 165.744 269.951 166.254 270.13 167.067C270.3 167.866 270.842 168.959 271.854 169.706C272.868 170.449 274.011 170.593 274.762 170.471C275.529 170.352 275.924 170.041 275.883 169.921Z"
        fill="#263238" />
    <path
        d="M331.344 449.704L338.449 473.898C338.449 473.898 365.427 474.802 367.175 479.145L320.758 494.605L308.142 457.362L331.344 449.704Z"
        fill="black" />
    <path
        d="M323.426 476.667C322.609 477.212 322.326 478.428 322.837 479.267C323.347 480.105 324.581 480.405 325.408 479.874C326.234 479.344 326.62 477.894 326.018 477.118C325.417 476.342 323.948 476.07 323.273 476.783"
        fill="#E0E0E0" />
    <path
        d="M364.558 477.401C364.558 477.401 366.924 477.612 367.175 479.145L320.758 494.605L319.633 490.801L364.558 477.401Z"
        fill="#263238" />
    <path
        d="M339.122 473.411C339.19 473.64 338.091 474.12 337.218 475.22C336.317 476.298 336.069 477.471 335.83 477.45C335.606 477.476 335.494 476.008 336.574 474.695C337.643 473.372 339.102 473.187 339.122 473.411Z"
        fill="white" />
    <path
        d="M344.661 473.803C344.786 474.005 343.933 474.718 343.482 475.933C342.996 477.135 343.147 478.236 342.918 478.301C342.717 478.408 342.118 477.133 342.707 475.633C343.283 474.127 344.584 473.588 344.661 473.803Z"
        fill="white" />
    <path
        d="M349.367 478.709C349.177 478.826 348.485 477.799 348.653 476.364C348.811 474.927 349.717 474.082 349.876 474.239C350.066 474.383 349.6 475.278 349.48 476.458C349.331 477.634 349.585 478.611 349.367 478.709Z"
        fill="white" />
    <path
        d="M336.891 468.076C336.865 468.314 335.721 468.348 334.469 468.862C333.206 469.35 332.353 470.112 332.17 469.957C331.984 469.837 332.678 468.673 334.162 468.089C335.64 467.494 336.943 467.862 336.891 468.076Z"
        fill="white" />
    <path
        d="M223.008 449.916L212.901 473.018C212.901 473.018 232.988 491.05 231.536 495.501L186.04 477.513L200.311 440.872L223.008 449.916Z"
        fill="black" />
    <path
        d="M199.613 465.484C198.637 465.377 197.638 466.126 197.49 467.097C197.343 468.067 198.096 469.091 199.07 469.215C200.043 469.34 201.271 468.477 201.309 467.496C201.347 466.515 200.396 465.362 199.421 465.475"
        fill="#E0E0E0" />
    <path
        d="M230.653 492.482C230.653 492.482 232.33 494.164 231.537 495.5L186.041 477.512L187.624 473.875L230.653 492.482Z"
        fill="#263238" />
    <path
        d="M213.73 473.077C213.635 473.296 212.484 472.958 211.109 473.24C209.726 473.486 208.782 474.226 208.612 474.057C208.424 473.933 209.281 472.736 210.952 472.424C212.621 472.096 213.859 472.893 213.73 473.077Z"
        fill="white" />
    <path
        d="M217.722 476.938C217.688 477.173 216.576 477.171 215.45 477.812C214.305 478.42 213.713 479.361 213.496 479.264C213.273 479.217 213.634 477.855 215.049 477.084C216.457 476.3 217.801 476.724 217.722 476.938Z"
        fill="white" />
    <path
        d="M218.174 483.721C217.954 483.688 218.083 482.456 219.135 481.465C220.18 480.466 221.417 480.4 221.437 480.623C221.49 480.856 220.558 481.241 219.707 482.068C218.838 482.874 218.404 483.786 218.174 483.721Z"
        fill="white" />
    <path
        d="M215.45 467.557C215.277 467.723 214.379 467.013 213.089 466.602C211.808 466.164 210.664 466.199 210.624 465.963C210.559 465.751 211.838 465.306 213.35 465.812C214.865 466.306 215.628 467.426 215.45 467.557Z"
        fill="white" />
    <path
        d="M240.043 323.016L224.1 387.675C224.1 387.675 195.347 436.078 190.481 460.294L216.783 470.639C216.783 470.639 235.91 423.99 241.519 415.428C244.604 410.719 247.868 407.082 250.181 404.761C252.273 402.662 253.795 400.064 254.545 397.197L266.615 351.064L240.043 323.016Z"
        fill="white" />
    <path
        d="M233.252 312.683C233.252 312.683 235.469 329.994 252.134 337.67L287.255 394.868C287.255 394.868 290.013 413.465 295.313 429.142C300.573 444.701 311.168 475.006 311.168 475.006L340.057 464.209L321.646 401.265L318.633 379.436L289.969 306.483L265.35 291.721L233.252 312.683Z"
        fill="white" />
    <path
        d="M233.252 312.683C233.252 312.683 233.424 312.557 233.779 312.318C234.145 312.074 234.676 311.721 235.372 311.257C236.795 310.318 238.888 308.936 241.61 307.14C247.098 303.535 255.114 298.27 265.271 291.599L265.347 291.549L265.425 291.596C272.603 295.887 280.877 300.832 290.064 306.324L290.118 306.356L290.141 306.415C298.162 326.785 307.952 351.647 318.86 379.346L318.871 379.373L318.875 379.402C319.83 386.3 320.852 393.686 321.896 401.23L321.888 401.194C326.865 418.202 332.187 436.385 337.673 455.129C338.556 458.147 339.434 461.151 340.307 464.136L340.375 464.368L340.148 464.453C330.309 468.129 320.656 471.735 311.258 475.246L311.012 475.338L310.927 475.091C305.916 460.581 301.092 446.612 296.515 433.356C295.366 430.047 294.235 426.77 293.295 423.487C292.347 420.208 291.504 416.952 290.74 413.732C289.224 407.289 287.996 401.002 287.041 394.9L287.071 394.981C272.704 371.518 260.744 351.987 252.02 337.74L252.078 337.791C247.31 335.556 243.66 332.477 241.044 329.406C238.415 326.324 236.76 323.279 235.65 320.751C234.545 318.212 233.974 316.169 233.644 314.791C233.474 314.102 233.383 313.572 233.323 313.218C233.263 312.867 233.252 312.683 233.252 312.683C233.252 312.683 233.288 312.86 233.358 313.213C233.43 313.564 233.533 314.091 233.714 314.775C234.066 316.144 234.657 318.175 235.779 320.695C236.905 323.204 238.572 326.223 241.2 329.272C243.816 332.311 247.451 335.348 252.189 337.548L252.226 337.565L252.247 337.6C261.006 351.826 273.013 371.327 287.438 394.755L287.461 394.792L287.468 394.837C288.429 400.917 289.665 407.2 291.186 413.626C291.953 416.838 292.797 420.086 293.746 423.354C294.687 426.626 295.816 429.888 296.97 433.201C301.556 446.452 306.389 460.416 311.409 474.921L311.078 474.766C320.475 471.253 330.128 467.644 339.965 463.966L339.806 464.283C338.933 461.298 338.054 458.295 337.171 455.276C331.691 436.53 326.375 418.345 321.402 401.336L321.397 401.318L321.394 401.3C320.356 393.756 319.339 386.368 318.39 379.47L318.404 379.526C307.538 351.81 297.785 326.934 289.794 306.552L289.871 306.643C280.699 301.126 272.439 296.157 265.273 291.847L265.427 291.844C255.258 298.447 247.232 303.658 241.737 307.226C238.989 309.001 236.876 310.367 235.44 311.295C234.729 311.751 234.187 312.098 233.812 312.337C233.448 312.568 233.252 312.683 233.252 312.683Z"
        fill="black" />
    <path
        d="M248.675 189.108C248.675 189.108 240.259 195.592 236.166 202.829C231.265 211.494 230.738 224.352 230.584 244.306C230.441 262.772 233.202 267.899 232.135 274.855C230.05 288.447 228.499 334.06 228.499 334.06C228.499 334.06 255.467 323.689 260.737 319.108C266.007 314.527 266.007 314.527 266.007 314.527L299.795 325.693L292.976 284.177L288.3 232.425L282.309 204.974L281.262 194.206L252.314 182.495L248.675 189.108Z"
        fill="#FF9500" />
    <path
        d="M280.25 193.619C280.603 193.684 279.417 196.053 277.334 199.533L277.249 199.675L277.09 199.613C274.155 198.477 270.278 197.045 266.038 195.499C261.256 193.756 256.938 192.138 253.847 190.877C252.301 190.247 251.059 189.716 250.209 189.332C249.359 188.946 248.896 188.716 248.91 188.683C248.924 188.65 249.413 188.816 250.286 189.144C251.25 189.507 252.492 189.974 253.981 190.534C257.204 191.713 261.484 193.279 266.217 195.01C270.459 196.557 274.326 198.034 277.239 199.243L276.996 199.323C279.158 195.893 280.447 193.64 280.25 193.619Z"
        fill="#263238" />
    <path
        d="M315.164 172.023C315.164 172.023 313.029 168.696 311.003 165.624C308.978 162.552 305.928 161.052 305.439 159.443C304.951 157.834 302.257 150.722 301.826 148.95C301.224 146.472 301.31 143.731 301.31 143.731C301.31 143.731 303.517 142.784 304.58 145.949C305.218 147.849 307.254 154.3 307.693 154.616C308.132 154.933 308.741 154.469 308.741 154.469C308.741 154.469 306.482 148.264 306.384 147.094C306.286 145.924 306.697 138.169 306.697 138.169C306.697 138.169 308.306 137.68 309.356 139.655C310.406 141.63 310.445 146.665 310.445 146.665L312.033 152.248L311.482 146.725L312.282 136.581C312.282 136.581 314.806 136.811 315.478 139.554C316.15 142.297 315.262 146.114 315.713 146.93C316.165 147.747 316.648 152.642 316.648 152.642C316.648 152.642 317.197 140.736 318.465 140.394C319.733 140.052 320.782 141.319 320.6 143.721C320.418 146.123 320.372 151.195 321.031 153.438C321.69 155.681 328.461 164.395 327.902 168.273C327.343 172.15 327.281 175.253 327.281 175.253H315.64L315.164 172.023Z"
        fill="#FFBF9D" />
    <path
        d="M274.48 202.003C275.129 202.248 302.841 209.108 302.841 209.108C302.841 209.108 309.032 199.072 309.935 196.208C310.838 193.344 315.694 173.991 315.694 173.991L327.406 172.884C327.406 172.884 324.445 222.78 320.166 225.468C315.888 228.156 309.201 229.519 308.724 229.369C308.247 229.219 278.779 231.271 263.225 219.022C247.673 206.771 274.48 202.003 274.48 202.003Z"
        fill="#FFBF9D" />
    <g opacity="0.3">
        <path
            d="M254.615 228.41C254.615 228.41 258.592 233.453 265.946 235.073C273.3 236.693 288.943 239.555 288.943 239.555L288.179 231.878L254.133 228.234"
            fill="black" />
    </g>
    <path
        d="M242.279 217.85C244.8 223.173 250.394 228.868 262.709 230.139C287.074 232.655 305.525 233.998 313.497 232.796C321.468 231.594 324.636 214.73 325.459 214.21C327.937 212.644 327.783 207.286 325.643 205.687C319.561 201.142 307.366 197.647 306.545 198.056C301.701 200.465 303.28 206.105 303.28 206.105L272.422 199.291C272.422 199.291 267.424 197.086 261.348 196.063"
        fill="#FF9500" />
    <path
        d="M261.348 196.064C261.348 196.064 261.609 196.088 262.11 196.168C262.611 196.248 263.353 196.384 264.314 196.601C266.232 197.041 269.043 197.769 272.473 199.176L272.449 199.168C279.825 200.774 290.479 203.093 303.327 205.89L303.066 206.166C302.664 204.443 302.69 202.555 303.463 200.836C303.843 199.98 304.467 199.226 305.213 198.639C305.571 198.318 306.004 198.11 306.414 197.861C306.537 197.816 306.741 197.791 306.872 197.793L307.238 197.831C307.485 197.853 307.709 197.912 307.947 197.951C311.641 198.778 315.323 200.093 319.017 201.7C320.857 202.517 322.691 203.437 324.446 204.558C324.883 204.84 325.307 205.149 325.74 205.445C326.18 205.786 326.556 206.229 326.804 206.719C327.319 207.696 327.513 208.792 327.537 209.879C327.547 210.967 327.338 212.08 326.817 213.084C326.526 213.567 326.178 214.042 325.683 214.367C325.562 214.427 325.481 214.689 325.38 214.93L325.117 215.682C324.456 217.728 323.803 219.821 322.999 221.876C321.841 224.798 320.504 227.679 318.456 230.04C317.438 231.203 316.191 232.238 314.703 232.75C313.961 233.035 313.182 233.097 312.445 233.184C311.698 233.289 310.952 233.309 310.21 233.375C307.241 233.547 304.326 233.506 301.477 233.428C298.627 233.349 295.84 233.205 293.124 233.034C282.26 232.335 272.511 231.339 264.328 230.491C262.284 230.297 260.326 230.03 258.505 229.654C256.695 229.228 254.992 228.773 253.478 228.129C250.419 226.921 248.055 225.261 246.387 223.67C244.72 222.061 243.717 220.55 243.11 219.503C242.499 218.453 242.28 217.851 242.28 217.851C242.313 217.834 242.564 218.423 243.2 219.45C243.833 220.474 244.855 221.953 246.526 223.523C248.199 225.075 250.549 226.689 253.585 227.859C255.088 228.483 256.778 228.921 258.573 229.33C260.385 229.69 262.313 229.941 264.365 230.124C272.551 230.925 282.302 231.883 293.153 232.554C295.866 232.718 298.648 232.856 301.49 232.93C304.331 233.002 307.237 233.039 310.179 232.865C310.911 232.799 311.654 232.779 312.386 232.674C313.128 232.586 313.861 232.525 314.531 232.264C315.902 231.793 317.084 230.82 318.065 229.697C320.04 227.421 321.367 224.579 322.511 221.687C323.309 219.649 323.955 217.578 324.622 215.518L324.893 214.745C324.941 214.615 324.996 214.486 325.058 214.352C325.101 214.278 325.117 214.224 325.184 214.133C325.224 214.084 325.27 214.038 325.316 213.997L325.39 213.939C325.802 213.671 326.103 213.261 326.362 212.836C326.827 211.942 327.031 210.904 327.021 209.885C327 208.869 326.813 207.837 326.351 206.962C326.125 206.517 325.811 206.155 325.435 205.857C325.012 205.567 324.599 205.265 324.171 204.988C322.45 203.886 320.636 202.971 318.813 202.159C315.16 200.561 311.476 199.24 307.855 198.42C307.631 198.383 307.4 198.323 307.182 198.304L306.854 198.268C306.757 198.276 306.719 198.266 306.627 198.285C306.245 198.519 305.835 198.711 305.505 199.008C304.812 199.552 304.236 200.239 303.881 201.032C303.156 202.61 303.122 204.442 303.493 206.048L303.574 206.401L303.232 206.324C290.401 203.45 279.761 201.068 272.395 199.418L272.383 199.415L272.37 199.41C268.982 197.98 266.183 197.212 264.283 196.733C263.33 196.496 262.594 196.339 262.098 196.237C261.601 196.133 261.348 196.064 261.348 196.064Z"
        fill="#263238" />
    <path
        d="M313.497 215.758C313.472 215.814 312.682 215.541 311.502 214.891C310.323 214.245 308.774 213.183 307.295 211.748C305.816 210.312 304.707 208.797 304.017 207.645C303.325 206.49 303.017 205.715 303.073 205.687C303.22 205.597 304.742 208.569 307.658 211.374C310.544 214.211 313.58 215.609 313.497 215.758Z"
        fill="#263238" />
    <path
        d="M95.9415 298.114C95.9415 298.114 102.135 298.45 105.979 300.855C109.823 303.26 115.985 306.991 118.531 311.628C119.7 313.756 116.368 314.207 114.723 312.97C113.078 311.734 110.56 309.408 109.31 309.121C108.06 308.835 108.06 308.835 108.06 308.835C108.06 308.835 110.571 314.426 111.867 316.39C113.163 318.354 114.283 321.711 110.405 321.865C110.405 321.865 107.789 325.265 105.149 322.746C105.149 322.746 103.088 325.831 99.7685 321.553C99.7685 321.553 97.8355 323.999 97.0285 323.067C96.2215 322.135 93.5795 320.644 92.8075 317.588C92.0355 314.532 88.7925 307.098 88.7925 307.098L95.9415 298.114Z"
        fill="#FFBF9D" />
    <path
        d="M43.1815 216.563C43.1815 216.563 38.3445 217.874 35.3895 222.415C33.0065 226.077 32.2805 232.463 32.9585 237.14C34.3995 247.083 38.9645 263.881 41.5255 274.659C42.4105 278.383 44.2215 285.035 49.5535 288.572L87.4385 311.291L97.5685 296.256L63.0265 268.107L56.2015 229.525L43.1815 216.563Z"
        fill="#FF9500" />
    <path
        d="M36.6295 254.505C36.6375 254.503 36.6795 254.637 36.7525 254.9C36.8285 255.186 36.9325 255.574 37.0645 256.072C37.3345 257.13 37.7235 258.65 38.2215 260.6C39.2135 264.566 40.6415 270.274 42.4105 277.349C43.3145 280.85 45.3885 284.447 48.6465 287.231C50.2415 288.659 52.2195 289.703 54.1845 290.913C56.1575 292.103 58.1905 293.328 60.2775 294.586C68.6245 299.627 77.8375 305.191 87.5705 311.069L87.2205 311.146C88.3795 309.426 89.6165 307.588 90.8655 305.735C93.0695 302.464 95.2405 299.244 97.3515 296.112L97.4015 296.456C84.3935 285.747 72.5945 276.034 63.1635 268.269L63.1115 268.226L63.0965 268.162C60.8345 258.647 59.1925 250.859 58.1625 245.441C57.6425 242.733 57.2855 240.617 57.0555 239.179C56.9525 238.477 56.8725 237.932 56.8145 237.538C56.7635 237.168 56.7515 236.975 56.7515 236.975C56.7515 236.975 56.8025 237.161 56.8725 237.528C56.9435 237.919 57.0425 238.461 57.1695 239.158C57.4365 240.589 57.8285 242.697 58.3815 245.397C59.4775 250.797 61.1765 258.57 63.4835 268.066L63.4165 267.959C72.8685 275.699 84.6925 285.381 97.7285 296.056L97.9105 296.205L97.7795 296.4C95.6695 299.533 93.5005 302.754 91.2975 306.025C90.0485 307.878 88.8105 309.715 87.6515 311.435L87.5135 311.64L87.3015 311.512C77.5785 305.618 68.3745 300.04 60.0355 294.985C57.9525 293.72 55.9235 292.488 53.9535 291.292C52.0065 290.083 50.0025 289.016 48.3725 287.546C45.0615 284.692 42.9635 281.007 42.0665 277.437C40.3625 270.343 38.9875 264.621 38.0315 260.644C37.5725 258.685 37.2145 257.158 36.9655 256.094C36.8535 255.591 36.7655 255.199 36.7015 254.91C36.6465 254.645 36.6215 254.507 36.6295 254.505Z"
        fill="#263238" />
    <path
        d="M37.2525 221.916C37.2425 221.885 37.5115 221.758 38.0215 221.592C38.5305 221.423 39.2845 221.229 40.2365 221.091C42.1165 220.834 44.9115 220.79 47.6275 222.091C50.2895 223.449 52.1075 225.516 53.1495 227.121C53.6655 227.936 53.9995 228.648 54.1575 229.164C54.3255 229.676 54.3615 229.974 54.3335 229.981C54.2435 230.011 53.9465 228.855 52.8445 227.327C51.7605 225.822 49.9355 223.85 47.3985 222.559C44.8295 221.324 42.1295 221.296 40.2795 221.457C38.4045 221.637 37.2775 222.005 37.2525 221.916Z"
        fill="#263238" />
    <path
        d="M124.081 172.951L122.015 171.502L115.799 175.089L116.02 177.603L112.079 179.878L111.741 179.292L109.958 159.818L111.692 158.817L127.684 170.091L128.022 170.677L124.081 172.951ZM118.72 168.81L114.505 165.72L115.117 170.89L118.72 168.81ZM132.779 155.984L135.111 145.512L136.552 144.681L145.675 160.489C144.302 161.282 142.928 162.075 141.554 162.867L137.5 155.841L136.172 161.291L135.721 161.551L130.361 159.961L134.416 166.987C133.042 167.78 131.668 168.573 130.295 169.365L121.172 153.557L122.658 152.699L132.779 155.984ZM160.29 152.055L158.223 150.606L152.008 154.193L152.228 156.708L148.287 158.982L147.949 158.396L146.167 138.922L147.9 137.922L163.893 149.195L164.231 149.781L160.29 152.055ZM154.928 147.915L150.713 144.824L151.325 149.994L154.928 147.915ZM178.654 141.487L166.221 138.306L170.692 146.052C169.295 146.858 167.899 147.664 166.526 148.457L157.39 132.626L158.853 131.781L171.322 134.972L166.864 127.248C168.238 126.455 169.611 125.662 170.985 124.87L180.095 140.656L178.654 141.487ZM188.443 135.808C187.047 136.614 185.695 137.394 184.344 138.173L175.247 122.41C176.598 121.63 177.95 120.85 179.346 120.045L182.79 126.012L183.082 125.843C187.113 123.517 185.169 120.616 183.467 117.666C184.84 116.874 186.214 116.081 187.61 115.275C189.469 118.495 191.274 121.416 189.301 125.227L197.582 129.693L197.946 130.324L193.465 132.91L186.475 128.809C185.986 129.211 185.491 129.497 184.973 129.795L188.443 135.808ZM211.237 122.653L209.17 121.204L202.955 124.791L203.176 127.306L199.235 129.58L198.897 128.995L197.114 109.52L198.848 108.52L214.84 119.794L215.178 120.379L211.237 122.653ZM205.876 118.513L201.661 115.422L202.273 120.592L205.876 118.513ZM229.602 112.085L217.169 108.904L221.639 116.65C220.243 117.456 218.847 118.262 217.473 119.055L208.337 103.224L209.801 102.379L222.269 105.57L217.812 97.846C219.185 97.0532 220.559 96.2605 221.933 95.4677L231.043 111.254L229.602 112.085ZM251.717 99.2923L249.65 97.8435L243.435 101.43L243.655 103.945L239.715 106.219L239.377 105.634L237.594 86.1594L239.328 85.1587L255.32 96.4326L255.658 97.0181L251.717 99.2923ZM246.356 95.1518L242.141 92.061L242.753 97.2311L246.356 95.1518ZM262.074 93.3154C260.678 94.1211 259.327 94.9009 257.976 95.6806L248.879 79.9173C250.23 79.1375 251.581 78.3578 252.977 77.552L256.421 83.5196L256.714 83.3507C260.745 81.0244 258.8 78.1238 257.098 75.1738C258.472 74.3811 259.845 73.5883 261.242 72.7826C263.1 76.0028 264.905 78.9234 262.932 82.734L271.213 87.2006L271.577 87.8312L267.096 90.4173L260.106 86.316C259.618 86.718 259.122 87.0039 258.604 87.3028L262.074 93.3154ZM278.262 79.4403C279.433 78.7645 280.285 77.4322 279.545 76.1486L273.515 65.6998C274.798 64.959 276.104 64.2053 277.365 63.4775L283.434 73.9939C285.436 77.4619 283.597 81.1945 280.355 83.0659C277.134 84.9243 272.938 84.6745 270.936 81.2066L264.867 70.6902C266.128 69.9624 267.457 69.1956 268.718 68.4679L274.748 78.9167C275.489 80.2003 277.091 80.1161 278.262 79.4403ZM302.727 69.8846L290.294 66.703L294.765 74.4496C293.369 75.2553 291.972 76.0611 290.599 76.8538L281.463 61.0229L282.926 60.1782L295.395 63.3693L290.937 55.6452C292.311 54.8525 293.685 54.0597 295.058 53.267L304.168 69.0529L302.727 69.8846ZM324.843 57.0916L322.776 55.6427L316.561 59.2296L316.781 61.7441L312.84 64.0183L312.502 63.4328L310.72 43.9586L312.454 42.958L328.446 54.2318L328.784 54.8173L324.843 57.0916ZM319.481 52.9511L315.266 49.8602L315.878 55.0304L319.481 52.9511ZM343.207 46.5237L330.774 43.3421L335.245 51.0887C333.848 51.8944 332.452 52.7001 331.079 53.4929L321.943 37.662L323.406 36.8172L335.875 40.0083L331.417 32.2843C332.791 31.4915 334.164 30.6988 335.538 29.906L344.648 45.6919L343.207 46.5237ZM345.723 24.0284C356.017 18.1474 365.063 33.8207 354.82 39.7918L348.875 43.2227L339.778 27.4593L345.723 24.0284ZM345.927 28.8037L350.787 37.2258L352.702 36.1212C357.723 33.2231 352.863 24.801 347.841 27.699L345.927 28.8037ZM376.01 27.5627L373.943 26.1139L367.728 29.7007L367.948 32.2152L364.008 34.4895L363.67 33.904L361.887 14.4298L363.621 13.4291L379.613 24.703L379.951 25.2885L376.01 27.5627ZM370.649 23.4222L366.434 20.3314L367.046 25.5015L370.649 23.4222ZM384.208 22.6818C382.969 23.3966 381.533 23.1447 380.818 21.9062C380.091 20.6451 380.591 19.2756 381.83 18.5608C383.068 17.846 384.504 18.0979 385.232 19.359C385.947 20.5975 385.446 21.967 384.208 22.6818ZM379.533 19.1059L372.684 8.01881L377.188 5.41966L383.451 16.8447L379.533 19.1059Z"
        fill="#E9E9E9" />
</svg>