<svg width="24" height="25" viewBox="0 0 24 25" fill="none" xmlns="http://www.w3.org/2000/svg">
<path d="M17.1433 10.6433C17.7 10.0866 17.7 9.19169 17.7 7.39997C17.7 5.60826 17.7 4.71335 17.1433 4.15665M17.1433 10.6433C16.5866 11.2 15.6917 11.2 13.9 11.2H10.1C8.30824 11.2 7.41333 11.2 6.85663 10.6433M17.1433 4.15665C16.5866 3.59995 15.6917 3.59995 13.9 3.59995H10.1C8.30824 3.59995 7.41333 3.59995 6.85663 4.15665M6.85663 4.15665C6.29993 4.71335 6.29993 5.60826 6.29993 7.39997C6.29993 9.19169 6.29993 10.0866 6.85663 10.6433M12.95 7.39997C12.95 7.65193 12.8499 7.89357 12.6717 8.07173C12.4936 8.24989 12.2519 8.34998 12 8.34998C11.748 8.34998 11.5064 8.24989 11.3282 8.07173C11.1501 7.89357 11.05 7.65193 11.05 7.39997C11.05 7.14802 11.1501 6.90638 11.3282 6.72822C11.5064 6.55006 11.748 6.44997 12 6.44997C12.2519 6.44997 12.4936 6.55006 12.6717 6.72822C12.8499 6.90638 12.95 7.14802 12.95 7.39997Z" stroke="#069550" stroke-width="1.42501"/>
<path d="M5.34985 20.1187H7.49687C8.45638 20.1187 9.42823 20.2194 10.3621 20.4113C12.0294 20.7538 13.7448 20.7918 15.4256 20.5234C16.2502 20.3904 17.0596 20.1861 17.793 19.8327C18.4542 19.5126 19.2646 19.0632 19.809 18.5588C20.3524 18.0553 20.9186 17.2316 21.3195 16.5875C21.6653 16.0346 21.4981 15.3572 20.9528 14.9459C20.6463 14.723 20.2772 14.6029 19.8983 14.6029C19.5193 14.6029 19.1502 14.723 18.8438 14.9459L17.1271 16.2427C16.4621 16.7462 15.7353 17.2088 14.8699 17.3466C14.7654 17.3627 14.6561 17.3779 14.5421 17.3912M14.5421 17.3912C14.5073 17.3952 14.4725 17.399 14.4376 17.4026M14.5421 17.3912C14.6942 17.3501 14.8336 17.2717 14.9478 17.1632C15.0909 17.0394 15.2078 16.8881 15.2916 16.7183C15.3753 16.5486 15.4242 16.3638 15.4354 16.1748C15.4465 15.9858 15.4197 15.7966 15.3565 15.6181C15.2933 15.4397 15.1951 15.2757 15.0675 15.1359C14.9437 14.9985 14.7995 14.8809 14.64 14.7872C11.9828 13.2017 7.84742 14.4091 5.34985 16.1809M14.5421 17.3912C14.5078 17.3987 14.4728 17.4025 14.4376 17.4026M14.4376 17.4026C13.8647 17.4602 13.2875 17.4615 12.7143 17.4064" stroke="#757575" stroke-width="1.42501" stroke-linecap="round"/>
<path d="M17.7 6.44997C16.9441 6.44997 16.2192 6.1497 15.6847 5.61521C15.1503 5.08073 14.85 4.35582 14.85 3.59995M17.7 8.34998C16.9441 8.34998 16.2192 8.65025 15.6847 9.18473C15.1503 9.71922 14.85 10.4441 14.85 11.2M6.29993 6.44997C7.0558 6.44997 7.78071 6.1497 8.3152 5.61521C8.84968 5.08073 9.14995 4.35582 9.14995 3.59995M6.29993 8.34998C7.0558 8.34998 7.78071 8.65025 8.3152 9.18473C8.84968 9.71922 9.14995 10.4441 9.14995 11.2" stroke="#069550" stroke-width="1.42501" stroke-linecap="round"/>
<path d="M5.3499 15.475C5.3499 14.688 4.7119 14.05 3.92489 14.05C3.13788 14.05 2.49988 14.688 2.49988 15.475V20.2251C2.49988 21.0121 3.13788 21.6501 3.92489 21.6501C4.7119 21.6501 5.3499 21.0121 5.3499 20.2251V15.475Z" stroke="#757575" stroke-width="1.42501"/>
</svg>
