<svg width="24" height="24" viewBox="0 0 24 24" fill="none" xmlns="http://www.w3.org/2000/svg">
<g clip-path="url(#clip0_6803_115399)">
<path d="M18.0992 7.01955L17.6409 5.4085C17.3614 4.42595 16.4639 3.74814 15.4424 3.74814H8.75903C7.65029 3.74814 6.70144 4.54385 6.50827 5.63563L5.47614 11.4693H8.40331" stroke="#616161" stroke-width="1.5" stroke-linecap="round"/>
<line x1="5.38348" y1="9.01425" x2="3.74998" y2="9.01425" stroke="#616161" stroke-width="1.5" stroke-linecap="round"/>
<line x1="5.99115" y1="18.501" x2="5.99115" y2="19.4937" stroke="#616161" stroke-width="3" stroke-linecap="round"/>
<mask id="path-4-inside-1_6803_115399" fill="white">
<ellipse cx="7.50294" cy="14.7232" rx="0.9" ry="0.9"/>
</mask>
<ellipse cx="7.50294" cy="14.7232" rx="0.9" ry="0.9" fill="#069550"/>
<path d="M7.26008 14.7232C7.26008 14.5891 7.36881 14.4803 7.50294 14.4803V16.766C8.63117 16.766 9.54579 15.8514 9.54579 14.7232H7.26008ZM7.50294 14.4803C7.63706 14.4803 7.74579 14.5891 7.74579 14.7232H5.46008C5.46008 15.8514 6.3747 16.766 7.50294 16.766V14.4803ZM7.74579 14.7232C7.74579 14.8573 7.63706 14.966 7.50294 14.966V12.6803C6.3747 12.6803 5.46008 13.5949 5.46008 14.7232H7.74579ZM7.50294 14.966C7.36881 14.966 7.26008 14.8573 7.26008 14.7232H9.54579C9.54579 13.5949 8.63117 12.6803 7.50294 12.6803V14.966Z" fill="#616161" mask="url(#path-4-inside-1_6803_115399)"/>
<path d="M8.51076 17.7122H6.04197C4.77961 17.7122 3.75626 16.6888 3.75626 15.4265V13.7463C3.75626 12.484 4.77961 11.4606 6.04197 11.4606H8.51076" stroke="#616161" stroke-width="1.5" stroke-linecap="round"/>
<path d="M20.25 13.8232C20.25 16.4103 18.1527 18.5075 15.5657 18.5075C12.9786 18.5075 10.8813 16.4103 10.8813 13.8232C10.8813 11.2361 12.9786 9.13885 15.5657 9.13885C18.1527 9.13885 20.25 11.2361 20.25 13.8232Z" stroke="#069550" stroke-width="1.5"/>
<line x1="15.5614" y1="13.5477" x2="15.5614" y2="15.8387" stroke="#069550" stroke-width="1.5" stroke-linecap="round"/>
<ellipse cx="15.5657" cy="11.4723" rx="0.772325" ry="0.772324" fill="#069550"/>
</g>
<defs>
<clipPath id="clip0_6803_115399">
<rect width="18" height="18" fill="white" transform="translate(3 3)"/>
</clipPath>
</defs>
</svg>
